<?xml version="1.0" encoding="UTF-8"?>
<svg xmlns="http://www.w3.org/2000/svg" version="1.1" viewBox="0 0 902 902">
  <defs>
    <style>
      .cls-1 {
        fill: #fafcfd;
      }
    </style>
  </defs>
  <!-- Generator: Adobe Illustrator 28.6.0, SVG Export Plug-In . SVG Version: 1.2.0 Build 709)  -->
  <g>
    <g id="Camada_1">
      <g>
        <path class="cls-1" d="M450.95,750.12c-165.4-.02-299.13-133.9-299.08-299.42.05-165.26,134.08-298.9,299.68-298.82,165.14.08,298.7,134.24,298.58,299.92-.11,164.64-134.2,298.33-299.18,298.31ZM160.3,451.16c.01,160.82,130.82,291.03,290.75,290.44,79.87-.29,148.79-28.66,205.27-85.06,56.62-56.54,85.09-125.65,85.27-205.67.36-160.41-130.02-290.55-290.52-290.58-160.94-.03-290.97,130.66-290.76,290.87Z"/>
        <path class="cls-1" d="M449.45,311.28c-5.86,2.2-10.73,5.92-15.26,10.1-8.93,8.2-15.36,18.19-20.52,29.15-2.04-8.44,3.19-32.61,11.9-54.98-2.66-.24-5.29-.27-7.84-.76-6.39-1.21-9.37-5.41-7.69-11.67,3.6-13.42,11.01-24.53,21.56-33.56.39-.33,1.08-.37,1.09-1.34-1.63-.38-3.35-.73-5.02-1.2-1.33-.37-2.6-1.03-2.71-2.6-.11-1.68,1.24-2.16,2.54-2.65,6.28-2.37,12.16-5.44,17.88-9.92-4.69-1.31-9-1.51-13.25-1.96-6.78-.71-13.58-1.19-20.42-.87-1.32.06-2.67-.14-3.98-.35-3.89-.63-7.79-.82-11.69-.3-8.38,1.12-12.3,6.36-11.24,14.71.31,2.43.44,4.9.43,7.35-.01,2.44-.62,4.77-2.23,7.23-1.17-6.69-3.01-12.77-2.58-19.31.4-6.12,3.01-10,8.42-12.92,11.16-6.03,23.24-9.67,35.24-14.22-.94,1.07-1.85,2.18-2.84,3.21-1.07,1.11-2.22,2.13-3.72,3.56,12.58,3.19,24.54,7.69,37.95,4.3-1.9-1.77-3.43-3.2-5.36-5.01,4.28-.21,7.63-1.93,10.41-4.41,7.29-6.49,15.72-7.18,24.84-5.71,11.13,1.8,21.43,6.17,31.91,9.98,5.25,1.91,10.45,3.91,15.87,5.32,8.4,2.18,10.69,6,8.82,14.57-1.05,4.82-.73,5.8,3.58,8.33,8.43,4.95,17.58,8.21,26.84,11.18,10.26,3.29,20.08,7.52,28.86,13.87,3.07,2.21,6.02,4.58,8.21,7.95-12.81,6.94-26.33,9.33-40.59,7.99-4.34-.41-8.65-1.08-12.86-2.24-1.71-.47-2.14-.04-1.85,1.76,1.18,7.39,8.26,12.42,15.89,10.56,5.04-1.23,9.29-.09,13.31,2.63,7.47,5.06,14.19,10.89,15.25,20.55,1.21,11.14-3.16,19.91-12.79,25.7-4.77,2.87-9.86,5.24-14.83,7.76-4.98,2.53-10.06,4.88-14.12,8.88-.34.34-.97.38-1.94.74,1.12-3.5,2.11-6.6,3.16-9.86-9.89,4.26-18.82,21.73-18.45,36.07,2.93-2.48,6.31-3.55,9.84-3.94,10.35-1.15,18.05-6.58,24.31-14.55,2.83-3.6,5.67-7.21,9.18-10.2,4.56-3.87,9.69-5.95,15.76-4.94,8.21,1.37,13.91,7.16,14.39,16.15.68,12.76-2.73,24.5-12.46,33.37-8.11,7.39-13.02,15.99-12.99,27.2-2.88-2.98-2.98-3.75-2.5-19.13-7.21,10.15-15.73,17.58-27.78,19.88,5.68-3.45,10.52-7.71,14.45-14.38-6.1,4.07-11.89,5.19-18.87,3.58,1.96-.49,3.29-.7,4.51-1.17,1.23-.48,2.46-1.1,3.53-1.88,5.1-3.71,7.48-10.59,5.87-16.7-.95-3.65-3.1-5.42-6.91-5.7-3.75-.27-7.32.63-10.87,1.68-2.36.7-4.68,1.52-7.06,2.12-9.37,2.36-17.31-3.53-17.88-13.21-.36-6.06,1.54-11.6,4.1-17.15-8.75,4.01-13.63,13.75-13.72,27.04-8.02-1.31-13.01-7.41-12.53-15.63-2.06,1.05-2.5,3.44-4.57,4.67-2.06-5.97-2.72-12.11-3.23-18.26-.21-2.52-.05-4.82-2.62-6.66-2.13-1.52-1.93-4.37-1.31-6.86.99-3.98,3.53-6.94,6.52-9.52,9.16-7.9,18.65-15.29,31.28-18.26-19.36-4.33-57.28-2.1-88.43,20.3.53-12.95,1.92-24.98,10.54-34.95.22-.3.45-.6.67-.9-.56-.32-.97-.09-1.33.35ZM472.36,266.32c1.31.4,2.41.47,3.19,1.01,4.89,3.4,9.8,2.9,14.87.46,3.29-1.58,6.69-1.66,10.04-.07,2.11,1,4.21,2.05,6.26,3.18,1.98,1.1,4.07,1.86,6.3,2.13,1.52.18,3.07-.03,3.46-1.83.35-1.63-.9-2.43-2.23-2.86-1.59-.51-3.23-.85-4.85-1.27-5.02-1.31-7.22-4.1-7.46-9.32-.08-1.67-.32-3.33-.52-4.98-.14-1.18-.64-1.79-2.01-1.45-10.22,2.57-19.7,6.46-27.04,15ZM519.53,245.78c.14-3.28-1.53-5.34-3.64-7.03-2.51-2.02-5.27-3.73-7.77-5.77-1.64-1.34-3.89-2.48-3.29-5.27.14-.63-.16-.77-.67-.72-2.41.23-4.48-1.14-6.81-1.39-4.1-.44-8.19-1.09-12.3-.27-1.35.27-2.66.84-2.6,2.54.06,1.77,1.23,2.5,2.87,2.63.67.05,1.34.15,2,.08,7.22-.75,13.79.67,19.85,4.97,3.28,2.33,6.71,4.33,9,7.78.71,1.07,1.46,2.26,3.36,2.45Z"/>
        <path class="cls-1" d="M335.24,314.62c4.15-2.49,7.89-5.43,10.52-9.71,1.36,29.17-5.68,55.61-25.5,78.06,10.91-1.82,25.96-16.86,35.86-35.86.91,4.03-.07,7.55-.67,11.03-4.68,27.13-19.59,47.74-41.13,64.04-9.8,7.42-19.68,14.72-28.92,22.85-13.18,11.59-23.63,24.95-27.92,42.38-.07.27-.36.49-.76,1-1.63-9.93.25-19.12,3.49-28.08,4.89-13.51,12.37-25.47,22.35-35.82,4.36-4.53,8.3-9.32,10.97-15.47-10.62,4.18-20.72,4.5-30.58-2.33,17.11-8.85,32.26-19.02,39.87-37.28-3.72,2.84-7.53,5.04-12.62,3.75,10.46-10.22,13.52-23.14,14.48-36.81.91-13.06,2.14-26.05,6.12-38.62,2.07-6.53,4.87-12.71,8.82-18.33,9.44-13.42,18.72-26.92,25.63-41.91,2.61-5.66,6.37-10.72,9.93-15.84.14-.18.27-.37.41-.55-.25.01-.5.03-.75.04-5.88,1.86-9.46,6.77-13.94,10.88.52-11.57,11.97-25.06,22.65-27.29,11.26-2.35,22.45-5.08,34.06-5.07.28,0,.57-.26,1.08-.51-4.73-1.61-9.24-3.14-13.76-4.67.21-.25.43-.49.64-.74,15.38,1.06,30.28-.16,44-8.23,5.42-3.19,11.64-3.73,17.58-2.34,7.24,1.69,14.58,2.04,21.89,2.87,11.8,1.35,22.13,5.36,28.72,16.03.27.44.49.92.91,1.7-4.52-.76-8.81-.38-12.96-1.45-3.69-.96-7.05-2.26-10.02-4.96-5.02-4.56-11.26-6.73-18-7.31-7.74-.67-15.39-.12-22.93,1.86-9.18,2.41-18.53,3.98-28.5,5.72,5.67,2.31,10.86,3.79,16.79,3.35-2.23,2.3-4.85,3.11-7.46,3.92-7.22,2.23-14.71,2.78-22.18,2.97-11.71.3-20.36,5.88-27.01,15.06-1.89,2.61-3.56,5.4-5.19,8.19-4.7,8.05-8.69,16.56-16.34,23.36,2.84-.15,5,.24,7.81-.91-1.32,1.5-2.12,2.4-2.91,3.32-9.53,11.12-14.2,23.79-12.58,38.59.69,6.34.86,12.72-2.26,18.65-.13.19-.26.38-.39.58.24-.04.47-.08.71-.12Z"/>
        <path class="cls-1" d="M460.78,567.16c.37,1.8.59,3.47,1.06,5.07,1.38,4.72,4.64,7.28,9.21,7.37,4.78.1,8.2-2.37,9.78-7.11.68-2.03.96-4.12.95-6.26-.02-6.35,0-12.7,0-18.98-.79-.47-1.09.09-1.48.45-11.01,10.13-27.53,7.53-34.9-5.47-2.99-5.27-4.21-11.04-4.7-16.97-1.32-15.95-1.9-31.9.88-47.77.42-2.4,1.17-4.78,2.05-7.06,6.39-16.6,24.81-20.83,37.74-8.63,1.19,1.12,2.08.88,3.24.52,5.23-1.59,10.5-3.08,15.68-4.82,2.06-.69,2.45-.2,2.43,1.8-.07,9.5-.03,19-.03,28.49,0,25.25-.02,50.51.01,75.76,0,6.11-.87,12.03-3.39,17.62-3.41,7.57-9.09,12.6-17.11,14.84-7.04,1.96-14.14,2.11-21.17.07-10.61-3.08-16.78-10.5-19.78-20.86-.38-1.31-.52-2.28,1.24-2.77,6.12-1.68,12.2-3.5,18.31-5.27ZM481.8,503.8c-.36-6.13.68-13.86-.51-21.52-.87-5.55-3.91-8.35-8.95-8.69-5.32-.37-8.73,2.02-10.51,7.39-.78,2.36-1.07,4.8-1.07,7.26-.01,10.05-.03,20.11.02,30.16.02,4.04.41,8.04,2.26,11.73,1.69,3.35,4.27,5.35,8.17,5.43,6.32.13,10.47-3.99,10.57-10.76.09-6.48.02-12.96.02-21Z"/>
        <path class="cls-1" d="M380.07,463.89c6.09-7.41,13.47-9.92,22.13-8.51,9.49,1.55,16.31,8.37,18.52,18,1.08,4.7,1.51,9.42,1.49,14.25-.07,23.02-.08,46.05.03,69.07.01,2.67-.45,3.74-3.4,3.58-4.79-.27-9.61-.22-14.41-.01-2.65.12-3.34-.67-3.33-3.33.11-23.02.06-46.05.06-69.07,0-1.23.03-2.46-.01-3.69-.24-6.61-3.97-10.34-10.24-10.28-5.97.06-9.81,3.89-9.88,10.33-.13,11.62-.04,23.25-.04,34.87,0,12.63-.1,25.26.08,37.89.04,2.77-.82,3.37-3.37,3.27-5.02-.19-10.06-.12-15.09-.02-1.89.04-2.75-.26-2.75-2.51.08-30.96.07-61.92,0-92.87,0-1.88.77-2.5,2.33-2.95,5.15-1.49,10.31-2.95,15.39-4.63,2.34-.77,2.71.07,2.51,2.1-.12,1.27-.02,2.57-.02,4.52Z"/>
        <path class="cls-1" d="M321.58,551.97c-5.88,6.91-13.08,8.65-20.95,8.13-9.61-.64-16.31-5.64-19.94-14.51-3.92-9.56-4.18-19.41-1.07-29.19,3.77-11.87,14.55-19.36,27.89-19.76,3.46-.1,6.93-.15,10.39.01,2.08.1,2.38-.8,2.32-2.56-.11-3.46,0-6.93-.04-10.39-.09-5.89-3.13-9.51-8.26-9.94-5.96-.5-10.35,2.42-10.98,8.26-.41,3.79-1.93,4.41-5.22,4.18-4-.28-8.05-.21-12.06-.01-2.44.12-2.94-.81-2.95-3.06-.07-15.6,9.89-26.3,26.19-27.98,19.82-2.05,34.06,10.37,34.23,30.3.2,24.02.02,48.04.11,72.06,0,2.33-.78,2.8-2.87,2.74-4.69-.13-9.39-.16-14.07,0-2.25.08-2.99-.65-2.74-2.84.17-1.54.03-3.11.03-5.44ZM320.27,523.43c0-3.76-.02-6.89.01-10.02.01-1.21.02-2.19-1.69-2.11-3.56.17-7.14-.23-10.67.66-4.29,1.07-7.15,3.65-8.24,7.9-1.27,4.92-1.48,9.95-.38,14.93,1.28,5.78,4.64,8.71,9.79,8.81,5.33.1,8.9-2.82,10.51-8.48,1.16-4.07.42-8.22.67-11.7Z"/>
        <path class="cls-1" d="M624.29,507.64c-.04,9.37.45,18.78-1.54,28.04-.19.87-.39,1.74-.62,2.6-3.58,13.52-11.81,20.49-25.74,21.78-4.03.37-8.05.15-12.01-.64-11.69-2.35-18.37-9.86-21.23-21.05-.88-3.44-1.57-7.02-1.71-10.56-.66-15.95-1.67-31.95.99-47.8,1.93-11.52,7.45-20.56,19.57-23.88,7.04-1.93,14.16-1.9,21.2-.04,9.33,2.46,15.07,8.74,18.09,17.68,2.28,6.74,2.89,13.74,2.99,20.8.06,4.36.01,8.71.01,13.07ZM603.35,507.86c0-5.91.07-11.83-.03-17.74-.06-3.69-.52-7.35-1.95-10.81-1.74-4.19-4.51-5.9-9.19-5.74-4.43.15-7.25,2.25-8.57,6.56-.52,1.7-1.01,3.45-1.18,5.2-1.3,13.81-.88,27.65-.35,41.47.11,3,.62,6,1.79,8.82,1.64,3.98,4.54,5.86,8.87,5.82,5.49-.05,8.61-3.12,9.82-9.86,1.4-7.85.95-15.8.79-23.71Z"/>
        <path class="cls-1" d="M649.93,324.41c6.69,10.38,12.22,20.79,17.02,31.6,8.97,20.24,15.17,41.31,17.88,63.27,8.3,67.06-8.36,127.24-50.28,180.36-1.72,2.18-2.79,2.66-4.64.28-1.56-2.01-4.75-3.66-4.88-5.63-.13-1.93,2.67-4.06,4.2-6.1,35.72-47.42,50.94-100.69,45.31-159.8-3.2-33.61-13.9-64.8-31.42-93.64-.9-1.47-1.03-2.38.34-3.64,2.2-2.02,4.17-4.29,6.47-6.71Z"/>
        <path class="cls-1" d="M251.91,324.73c.55.48.98.81,1.35,1.18,1.67,1.65,3.23,3.43,5.01,4.94,1.59,1.35,1.54,2.4.46,4.16-8.83,14.42-15.87,29.68-21.17,45.75-9.25,28.04-12.85,56.78-10.76,86.22,3.32,46.8,19.87,88.43,49.09,125.06,1.43,1.79,1.61,2.92-.26,4.25-.36.26-.64.62-.95.94q-5.1,5.1-9.47-.48c-60.94-77.75-67.02-185.36-15.21-269.14.58-.93,1.21-1.83,1.91-2.89Z"/>
        <path class="cls-1" d="M544.31,429.54v3.53c0,41.13-.04,82.25.07,123.38,0,3.08-.78,3.99-3.84,3.82-4.68-.27-9.39-.23-14.08,0-2.73.13-3.54-.6-3.53-3.44.1-37.55.07-75.1.07-112.65q0-8.17,7.85-10.54c4.37-1.32,8.73-2.65,13.46-4.09Z"/>
        <path class="cls-1" d="M579.74,645.65c5.54.34,9.01,3.12,11.11,7.74,2.25,4.95,1.59,9.77-2.33,13.54-5.88,5.66-13.64,8.37-20.46,12.58-1.15.71-1.57-.25-2.01-1.03-6.84-12.26-13.67-24.54-20.54-36.79-.63-1.12-.57-1.73.62-2.36,5.89-3.17,11.6-6.73,17.66-9.52,7.56-3.48,14.31-.29,16.84,7.33.93,2.81.72,5.49-.88,8.51ZM576.1,653.42c-3.23.43-5.98,2.89-9.15,4.45-.83.41-.48,1.04-.12,1.67,1.44,2.51,2.84,5.04,4.23,7.58.45.83.97,1.08,1.84.55,2.38-1.43,4.89-2.67,7.16-4.27,2.03-1.43,2.59-3.61,1.67-5.95-.91-2.32-2.43-3.99-5.64-4.03ZM566.94,637.62c-3.31.56-6.62,2.22-8.84,4.59-1.39,1.48,1.61,3.85,2.4,5.92.31.82.84,1.56,1.27,2.34.42.76.87,1.18,1.82.58,2.25-1.42,4.69-2.56,6.81-4.14,1.83-1.36,2.46-3.35,1.48-5.65-.91-2.12-2.35-3.46-4.94-3.64Z"/>
        <path class="cls-1" d="M329.03,672.52c.32-4.71.44-8.96.94-13.17.47-3.95-2.95-3.58-4.91-4.59-1.9-.99-1.75,1.38-2.29,2.26-2.1,3.41-3.53,7.35-6.06,10.37-2.73,3.27-4.65-1.23-7.06-1.78-1.29-.3-2.7-.88-1.48-3.03,6.82-12.03,13.5-24.14,20.18-36.25.8-1.46,1.47-1.89,3.07-.95,5.2,3.04,10.59,5.77,15.73,8.89,5.93,3.6,8.47,9.37,7.14,15.32-1.39,6.22-6.07,10.37-13.02,11.11-1.8.19-1.88.96-1.93,2.28-.2,5.25-.53,10.49-.64,15.74-.05,2.62-.95,2.87-2.94,1.53-1.02-.68-2.08-1.34-3.21-1.8-2.96-1.19-4.66-2.99-3.52-5.93ZM344.91,645.94c-.05-1.27-.44-2.45-1.31-3.37-2.43-2.59-5.84-3.64-8.75-5.49-.84-.54-1.17.17-1.5.76-1.43,2.53-2.83,5.06-4.28,7.58-.53.92-.15,1.43.65,1.87,2.46,1.32,4.82,2.87,7.39,3.92,3.77,1.55,7.74-1.26,7.8-5.27Z"/>
        <path class="cls-1" d="M550.28,676.67c.03,7.29-4.48,13.01-12.35,15.63-7.64,2.55-14.68.68-18.99-5.06-1.35-1.8-2.33-3.79-3.06-5.92-2.85-8.33-5.65-16.68-8.63-24.97-.7-1.95-.35-2.67,1.57-3.35,6.97-2.48,6.94-2.54,9.31,4.38,2.42,7.07,4.77,14.16,7.32,21.18,1.89,5.21,5.99,7.09,10.53,5.11,3.93-1.71,5.4-5.34,3.82-10.12-2.73-8.25-5.44-16.52-8.49-24.66-1.05-2.8-.3-3.56,2.26-4.35,6.11-1.9,6.07-2.04,8.17,4.05,2.32,6.75,4.67,13.48,6.98,20.23.87,2.54,1.63,5.11,1.57,7.84Z"/>
        <path class="cls-1" d="M345.63,685.03c9.78-12.39,19.26-24.37,28.69-36.4.96-1.22,1.8-1.57,3.36-1.09,7.29,2.22,7.31,2.16,7.36,9.83.09,12.39.18,24.77.27,37.16,0,1.21,0,2.42,0,3.99-2.85-.96-5.34-1.92-7.89-2.63-1.84-.52-1.61-1.82-1.62-3.16q-.06-6.63-6.3-8.74c-.42-.14-.85-.26-1.28-.4-2.43-.81-5-2.53-7.24-2.17-2.15.34-3.09,3.54-4.6,5.45-.79,1-1.5,1.44-2.8.93-2.48-.96-5.02-1.76-7.95-2.77ZM376,660.51c-1.95,2.61-3.59,4.8-5.22,6.99-4.98,6.69-4.94,6.59,2.92,9.1,2.24.72,2.36-.05,2.33-1.85-.07-4.54-.02-9.08-.02-14.24Z"/>
        <path class="cls-1" d="M298.39,658.76c-2.34-1.91-4.43-3.73-6.65-5.38-1.48-1.1-.59-2.16-.19-3.23q2.35-6.29-2.93-10.59c-.35-.28-.69-.56-1.04-.84-1.91-1.53-3.64-3.89-5.79-4.38-2.27-.52-4.17,2.12-6.21,3.39-1.27.79-2.04.7-3.2-.18-6.7-5.06-6.72-5.02.44-9.35,10.79-6.52,21.61-13,32.35-19.62,1.81-1.12,2.94-1.13,4.61.27,5.36,4.51,5.43,4.43,3.01,11.05-4.28,11.73-8.57,23.46-12.87,35.19-.42,1.13-.93,2.23-1.53,3.68ZM302.56,620.48c-4.45,2.79-8.89,5.58-13.57,8.52,2.93,2.39,5.47,4.46,8.29,6.77,1.96-5.26,3.77-10.12,5.58-14.99.11-.12.34-.33.32-.36-.22-.32-.44-.2-.62.07Z"/>
        <path class="cls-1" d="M635.78,632.84c-.84.74-1.32,1.2-1.83,1.62-5.65,4.67-5.68,4.72-11.8.96-1.38-.85-2.27-.81-3.48.22-2.96,2.54-5.97,5.05-9.1,7.39-1.47,1.1-1.45,2.08-.84,3.63,2.53,6.4,2.41,6.33-3.01,10.85-2.02,1.69-2.63,1.38-3.46-1.01-4.7-13.48-9.5-26.91-14.39-40.32-.68-1.87-.49-2.93,1.1-4.21,5.59-4.49,5.54-4.55,11.68-.77,11.58,7.13,23.15,14.27,35.13,21.65ZM599.45,620.75c-.18.13-.35.25-.53.38,1.91,4.91,3.82,9.82,5.83,15,2.78-2.24,5.34-4.31,8.2-6.61-4.66-3.02-9.08-5.89-13.51-8.77Z"/>
        <path class="cls-1" d="M468.81,705.66c-3.62,1.34-5.06-1.12-5.64-4.45-.58-3.35-2.26-4.78-5.7-4.1-1.19.23-2.45.05-3.68.09-2.56.07-5.51-.6-7.58.45-2.03,1.03-1.76,4.34-2.57,6.61-.37,1.05-.78,1.81-2.03,1.8-2.67-.01-6.22,1.06-7.78-.25-1.69-1.42.77-4.51,1.52-6.81,3.96-12.08,8.14-24.09,12.07-36.18.69-2.13,1.69-2.7,3.78-2.71,6.91-.03,6.91-.11,9.25,6.27,4.3,11.73,8.6,23.45,12.9,35.17q1.48,4.03-2.74,4.1c-.45,0-.89,0-1.81,0ZM453.33,672.56c-1.64,5.36-3,10.04-4.52,14.66-.51,1.55.08,1.7,1.33,1.65,2.33-.09,4.66-.13,6.99-.17,1-.02,1.78-.04,1.28-1.46-1.66-4.66-3.24-9.35-5.08-14.69Z"/>
        <path class="cls-1" d="M399.95,711.6c1.57-2.59,3.07-5.17,4.69-7.68.72-1.12.65-1.59-.65-2.16-7.26-3.17-9.61-9.26-9.31-16.61.23-5.58,1.16-11.11,2.76-16.47,2.24-7.53,7.81-12,14.95-12.31,7.88-.35,14.79,3.59,17.6,9.86,1.12,2.5,1.21,4.2-2.12,4.53-.88.09-1.75.37-2.58.69-2.17.84-3.53.69-4.41-1.99-1.02-3.1-3.84-4.23-6.95-4.22-3,0-5.21,1.61-6.17,4.34-2.12,6.03-3.16,12.31-3.04,18.71.05,2.91,1.65,5.11,4.49,6.05,2.96.97,5.99.8,7.94-1.82,1.7-2.29,3.03-1.93,4.78-.41.33.29.74.49,1.11.74,4.5,2.98,4.52,3.09.5,6.73-2.38,2.16-5.18,3.54-8.39,3.8-2.01.16-3.35.88-3.9,2.88-.15.53-.48,1-.72,1.5-3.13,6.3-3.48,6.43-10.57,3.84Z"/>
        <path class="cls-1" d="M611.25,285.23c.63,1.63.76,2.76,1.37,3.46,4.63,5.33,5.28,11.86,5.8,18.46.99,12.71,1.43,25.4-1.74,37.92-.82,3.24-1.87,6.41-3.94,9.85-1.91-5.57-5.93-8.83-10.22-11.89-2.16-1.54-1.99-3.8-1.21-6.07.86-2.53,1.89-5.01,2.51-7.6,1.08-4.47.39-8.89-1.18-13.14-2.85-7.73-2.23-14.79,3.36-21.23,2.33-2.68,3.95-5.91,5.26-9.77Z"/>
        <path class="cls-1" d="M469.55,661.74c-.46-1.41.43-1.79,1.52-1.97,10.35-1.66,20.7-3.28,31.05-4.97,1.43-.23,1.94.27,2.3,1.6,1.76,6.63,1.68,6.8-5.19,7.82-6.18.92-6.23.93-5.28,7.02,1.42,9.14,2.83,18.29,4.47,27.4.45,2.52-.22,3.25-2.61,3.64-6.84,1.12-6.8,1.21-7.85-5.58-1.4-9.03-2.92-18.05-4.25-27.1-.33-2.25-1.09-3.16-3.41-2.4-1.04.34-2.19.37-3.3.54-6.98,1.1-7.16.96-7.44-6.01Z"/>
        <path class="cls-1" d="M384.91,194.52c-.41-.27-.82-.53-1.23-.8.63-.27,1.26-.21,1.88.06-.21.25-.43.49-.64.74Z"/>
      </g>
    </g>
  </g>
</svg>