<?xml version="1.0" encoding="UTF-8"?>
<svg xmlns="http://www.w3.org/2000/svg" version="1.1" viewBox="0 0 1080 1080">
  <defs>
    <style>
      .cls-1 {
        fill: #fff;
      }

      .cls-2 {
        fill: #f8fcfc;
      }
    </style>
  </defs>
  <!-- Generator: Adobe Illustrator 28.6.0, SVG Export Plug-In . SVG Version: 1.2.0 Build 709)  -->
  <g>
    <g id="Camada_1">
      <g>
        <path class="cls-1" d="M416.63,591.02c-10.84-.48-21.67-1.11-32.51-1.39-7.31-.19-10.91-4.1-11.09-10.91-.32-12-.42-24.03-.08-36.03.24-8.27,4.66-13.86,13.1-15.26,21.27-3.54,42.64-3.24,63.89-.26,8.07,1.13,12.61,6.21,12.14,15.41-.6,11.7-.44,23.46-.08,35.17.26,8.62-3.85,12.57-11.95,12.71-11.14.2-22.28.05-33.42.05,0,.17,0,.34-.01.51Z"/>
        <g>
          <g>
            <path class="cls-1" d="M737.16,709.4c.33,16.47.51,34.68-4.15,52.48-4.48,17.11-15.04,27.89-32.72,31.72-24.45,5.3-49.25,7.28-74.12,8.78-33.09,1.99-66.19,2.14-99.31.42-14.07-.73-16.49-3.01-17.41-17.05-2.64-40.35-5.7-80.67-8.27-121.03-.41-6.45-2.8-8.98-9.11-8.51-6.82.51-9.77-2.91-10.82-9.72-2.15-13.98-1.47-28.09-2.85-42.08-.77-7.77,3.13-11.91,10.72-13.38,41.19-7.97,82.54-14.49,124.55-16.26,23.16-.98,46.31-1.61,69.28,1.83,17.29,2.59,33.24,8.45,42.17,25.08,6.23,11.62,6.92,24.74,8.38,37.54,2.59,22.74,4.05,45.55,3.65,70.17ZM606.34,733.98c12.24-1.13,24.55-1.77,36.69-3.55,9.42-1.38,15.85-6.63,17.34-17.02,2.15-15.02,1.51-29.98-2.34-44.43-5.55-20.87-14.42-26.46-35.94-24.81-11.09.85-22.13,2.28-33.23,2.94-6.48.39-8.76,3.3-8.24,9.52,1.61,19.24,2.82,38.52,4.62,57.75,1.8,19.25,2.04,19.23,21.09,19.6Z"/>
            <path class="cls-1" d="M938.46,779.17c-55.42-2.36-113.52-9.15-169.72-27.84-12.35-4.11-14.07-6.82-11.38-19.27,3.78-17.47,7.36-35,11.6-52.36,2.81-11.49,5.12-12.64,16.89-10.86,32.77,4.93,65.5,10.14,98.31,14.76,8.66,1.22,17.56.94,26.34.91,3.13-.01,6.38-.99,9.36-2.11,4.13-1.56,6.99-4.52,6.51-9.35-.52-5.23-4.64-6.68-8.85-6.85-15.24-.63-30.47-1.24-45.6-3.48-20.31-3-40.58-5.75-60.05-13-25.25-9.4-38.29-28.28-42.51-53.67-4.28-25.72-4.46-51.88,3.84-76.69,8.52-25.46,23.55-41.25,60.02-44.54,29.09-2.62,58.06.06,86.81,4.55,34.81,5.44,69.2,12.67,102.19,25.62,7.98,3.13,11.07,7.38,8.99,16.01-4.59,19.07-7.67,38.49-13.51,57.29-2.16,6.94-6,9.01-13.19,7.64-34.86-6.64-69.8-12.87-105.15-16.48-8.49-.87-16.9-1.89-25.25,1.12-4.28,1.54-7.38,3.87-7.33,8.69.06,5.18,3.93,7.02,8.18,7.66,15.08,2.24,30.41,1.85,45.51,4.43,26.2,4.48,51.79,10.39,73.97,26.16,12.36,8.79,19.96,20.53,21.92,35.63,4.27,33.02,2.58,65.56-8.57,97.22-6.75,19.18-19.07,28.16-39.52,28.77-8.8.26-17.61.04-29.82.04Z"/>
            <path class="cls-1" d="M322.03,566.84c-1.77,1.79-3.53,3.58-5.3,5.37-14.33,14.2-28.52,28.55-43.1,42.5-4.07,3.89-2.13,6.28.31,9.51,28.23,37.34,56.4,74.73,84.6,112.1,7.26,9.62,7.38,9.72-2.23,17.05-17.2,13.13-34.52,26.09-51.79,39.13-.28.09-.58.14-.83.29-18.48,10.97-18.65,11.11-33.1-5.74-24.06-28.06-47.83-56.36-71.89-84.42-2.37-2.76-4.19-9.3-8.67-6.36-5.08,3.33-12.35,5.84-11.94,14.7,1.11,24.33,1.77,48.69,2.46,73.04.33,11.83-1.02,13.98-12.84,15.46-27.96,3.52-56.03,5.55-84.26,5.43-7.77-.03-10.92-3.41-11.74-10.81-5.78-51.61-11.73-103.2-16.01-154.96-3.68-44.46-6.97-88.94-5.76-133.62.38-14.07,1.23-15.86,15.08-17.58,28.28-3.5,56.74-4.39,85.21-4.95,7.99-.16,7.95,5.52,8.48,10.68,2.7,25.97,5.25,51.96,7.85,77.94.19,1.94.42,3.89.83,7.74,8.97-8.63,16.73-15.99,24.37-23.47,26.85-26.26,53.65-52.57,80.48-78.85,9.4-9.21,12.62-9.35,21.71.13,16.85,17.58,33.27,35.54,48.22,54.84,4.36,5.63,3.81,9.55-.93,14.29-6.63,6.63-12.83,13.68-19.21,20.55Z"/>
            <path class="cls-1" d="M456.19,746.46c-.27,17.05-1.6,18.22-18.93,18.6-14.08.31-33.52,0-47.6.24-8.13.14-11.52-3.37-11.64-11.58-.68-46.06-1.72-92.11-2.45-138.17-.17-10.75,1.37-12.32,11.94-12.83,19.07-.93,38.13.19,57.18.83,7.81.26,10.58,4.18,10.48,11.85-.3,22.28-.11,44.57-.11,66.86"/>
            <g>
              <path class="cls-1" d="M627.48,406.5c-10.1,8.73-19.17,15.55-30.43,18.45-37.74,9.7-71.22-11.71-82.01-52.56-4.75-17.98-6.46-36.42-6.71-54.92-.51-36.93-2.82-73.99,4.99-110.55,1.9-8.92,4.87-17.51,8.91-25.7,19.45-39.52,70.31-48.8,102.33-18.44,4.03,3.82,7.37,4.52,12.44,2.85,13.93-4.58,28.06-8.55,42.03-12.98,5.44-1.72,8.39-1.89,8.37,5.56-.24,100.4-.13,200.8-.36,301.21-.04,17.49-3.56,34.44-11.77,50.11-7.42,14.17-18.05,25.15-32.5,32.35-34.53,17.21-82.32,11.15-107.89-13.7-11.26-10.94-18.03-24.4-22.69-39.17-1.65-5.22-.59-7.99,5.17-9.52,14.73-3.92,29.39-8.15,43.87-12.87,6.14-2,7.36-.13,8.19,5.58,2.98,20.56,14.97,30.23,33.31,27.56,9.82-1.43,16.68-6.76,20.55-15.85,1.14-2.69,2.29-5.49,2.69-8.35,3.17-22.39.92-44.82,1.5-69.05ZM627.61,289.55c0-17,.02-34,0-51.01-.01-6.76-.52-13.48-2.54-19.97-4.19-13.49-11.92-19.65-25.32-20.33-13.06-.66-22.16,5.07-27.51,17.56-3.03,7.08-4.43,14.56-4.44,22.27-.01,30.19.03,60.39.01,90.58,0,8.87,1.12,17.61,4.23,25.9,4.16,11.09,11.06,19.31,24,20.12,18.84,1.19,31.22-10.6,31.53-30.6.28-18.17.06-36.35.05-54.52Z"/>
              <path class="cls-1" d="M349.49,206.86s-.45.51-.45.51c-7.05,5.67-8.69,13.61-8.7,21.94-.03,71.71.07,143.43.13,215.14-18.18.19-36.37.32-54.55.61-4.22.07-5.83-1.83-5.62-5.82.09-1.76-.02-3.52-.02-5.28,0-85.12.13-170.24-.18-255.36-.03-8.68,1.79-13.02,11.04-14.98,13.15-2.79,25.99-7.21,38.76-11.52,6.16-2.08,8.67-1.26,7.97,5.69-.33,3.3.22,6.68.46,12.08,12.91-16.11,28.52-23.42,46.75-24.4,34.23-1.85,58.7,17.13,68.52,52.32,3.18,11.4,4.18,23.06,4.17,34.85-.05,67.8-.21,135.6.07,203.4.03,7.56-2.21,9.46-9.4,9.2-14.07-.52-28.17-.1-42.26-.16-3.12-.01-6.56.92-8.95-2.22.15-4.96.43-9.93.43-14.89.03-62.64.02-125.29,0-187.93,0-5.56.35-11.18-.33-16.66-.99-7.99-3.43-15.46-11.73-19.13,0,0-.12-.06-.13-.06-12.55-7.65-25.91-6.66-36,2.69Z"/>
              <path class="cls-1" d="M46.09,368.77c-.02-6.97-.04-13.95-.06-20.92.25-1.73.55-3.46.73-5.2,4.54-42.27,29.47-69.55,71.04-77.04,13.91-2.51,28.1-1.46,42.17-1.64,3.55-.05,7.17.52,7.05-5.05-.26-12.32.35-24.67-.4-36.95-.79-13.05-9.67-21.57-22.44-23.09-17.92-2.12-30.32,7.78-32.83,26.25-.57,4.23.21,9.09-6.66,8.97-14.67-.25-29.34-.15-44.01-.13-3.51,0-5.47-1.31-5.57-5.09-.58-19.9,2.89-38.73,16.15-54.36,26.51-31.26,82.32-39.01,117.74-16.26,27.63,17.75,37.41,44.98,37.78,76.15.51,44.01.13,88.03.13,132.05,0,23.48-.15,46.95.1,70.43.06,5.96-1.62,8.36-7.94,8.17-13.19-.41-26.42-.47-39.61,0-6.86.25-8.65-2.39-8.25-8.72.25-4,1.31-8.41-1.51-12.91-1.66,1.77-2.83,3.04-4.02,4.28-22.44,23.27-80.09,26.26-103.53-10.15-9.68-15.04-13.69-31.54-16.05-48.77ZM166.5,338.53c.23,0,.46,0,.69,0,0-8.8-.15-17.6.06-26.4.11-4.41-1.29-6.51-5.98-6.34-8.78.32-17.58-.27-26.31,1.4-14.47,2.77-23.66,10.96-26.84,25.49-2.79,12.75-3.14,25.71-.92,38.46,3.31,19,15.27,27.99,33.25,26.2,13.92-1.38,24.18-12.19,25.87-28.94,1-9.86.18-19.91.18-29.87Z"/>
              <path class="cls-1" d="M805.89,259.76c0,58.37-.15,116.75.16,175.12.04,7.86-1.79,10.8-10.1,10.39-13.75-.69-27.59-.65-41.34-.04-7.82.35-9.81-2.12-9.77-9.84.32-68.93.21-137.87.21-206.8,0-42.53.18-85.07-.19-127.6-.07-7.52,2.26-10.88,9.54-12.77,13.88-3.61,27.49-8.27,41.22-12.44,10.23-3.11,10.27-3.07,10.27,7.98,0,58.67,0,117.34,0,176Z"/>
              <path class="cls-1" d="M1005.68,165.89c18.67,20.36,25.49,45.52,26.63,71.97,1.79,41.32,3,82.76-1.05,124.03-2.3,23.44-8.95,45.71-26.93,62.46-22.42,20.89-50.13,22.97-78.48,19.35-38.56-4.93-62.06-29.99-68.78-71.46-6.44-39.68-3.56-79.65-3.47-119.52.04-17.67,2.56-35.06,7.82-52.03,10.14-32.65,32.45-51.05,66.04-54.9,28.15-3.23,55.15.21,77.83,19.68,0,0,.4.43.4.43ZM913.37,293.38c0,18.77-.31,37.55.12,56.31.23,9.97,1.99,19.87,6.74,28.91,4.91,9.34,13.12,12.89,23.25,12.94,9.83.05,17.66-3.51,22.72-12.31,5.13-8.92,6.48-18.81,7.18-28.77,2.41-34.29,1.49-68.63.66-102.95-.24-9.96-1.35-19.9-4.48-29.47-5.53-16.93-20.39-24.24-36.98-18.01-11.76,4.42-15.23,14.93-17.24,25.74-4.14,22.35-2.8,45.03-1.98,67.61Z"/>
            </g>
          </g>
          <g>
            <path class="cls-2" d="M302.69,936.45c0-3.81-.39-7.67.08-11.43.94-7.52-5.03-8.71-9.67-10.36-4.9-1.74-5.05,3.57-6.64,6.22-2.7,4.52-5.06,9.26-7.39,13.99-1.79,3.64-3.54,5.5-8.09,3.11-4.3-2.25-4.43-4.3-2.37-8.2,9.71-18.39,19.22-36.89,28.74-55.38,1.78-3.46,3.87-4.75,7.66-2.65,7.18,3.97,14.68,7.38,21.72,11.55,9.62,5.7,13.66,14.35,11.68,23.49-2.11,9.72-8.14,15.27-19.73,16.79-4.24.56-4.57,2.58-4.55,5.73.05,7.33.26,14.67-.02,21.99-.1,2.54,1.81,7.49-1.95,7.19-3.96-.31-9.67-1.69-9.86-7.98-.14-4.69-.03-9.38-.03-14.07.14,0,.28,0,.42,0ZM316.5,913.68c6.25-.17,11.24-5.82,10.95-12.38-.25-5.62-12.8-15.88-19.93-16.29-2.38-.14-11.29,13.52-11.35,17.39-.05,3.39,14.45,11.45,20.33,11.29Z"/>
            <path class="cls-2" d="M573.51,1004.82c-.47.26-.71.65-.71,1.18-3.77,0-7.54,0-11.31,0,.21-.43.15-.83-.16-1.2-1.8-21.26-3.46-42.53-5.48-63.76-.54-5.68.43-8.71,7-8.7,6.41,0,12.82-1.03,19.23-1.64,9.61-.91,18.43.61,23.6,9.77,5.33,9.45,3.62,18.56-2.97,26.92,0,0,.06-.07.06-.07-10.97,4.54-2.45,8.87.14,13.27l-.05-.07c3.4,6.76,7.29,13.2,12.3,18.91-.09.79-.18,1.58-.26,2.36.01-.02-.78-.11-.78-.11l-.38.72s-.61.21-.6.21c-7.94,1.7-12.74-2.55-16.5-8.75,0,0,.14.25.14.25-.44-.81-.88-1.63-1.32-2.44,0,0,.03-.03.03-.03-.6-2.05-1.47-3.93-3.31-5.19,0,0-.12-.19-.12-.19-.95-1.45-1.91-2.9-2.86-4.35,0,0,.03.09.03.09.06-1.13-.35-1.96-1.49-2.32,0,0,.2.14.2.14-1.91-7.85-7.67-6.35-13.17-5.4-6.8,1.18-3.46,6.34-3.34,9.71.25,6.92,1.34,13.81,2.08,20.72ZM577.68,964.65c4.03-.65,8.21-.86,12.06-2.07,5.23-1.64,8.25-5.49,7.87-11.27-.36-5.63-3.5-9.34-8.81-10.77-15.48-4.17-21.92,1.73-20.14,17.31.72,6.32,3.15,8.21,9.01,6.8Z"/>
            <path class="cls-2" d="M410.24,916.03c18.4.45,29.61,14.31,26.06,32.43-1.81,9.21-3.87,18.4-7.5,27.1-5.24,12.55-17.35,17.91-31.28,14.09-13.05-3.58-20.78-14.7-18.9-27.76,1.46-10.19,4.04-20.17,7.74-29.75,4.06-10.51,13.18-16.37,23.88-16.11ZM389.92,964.1c-.16,9.32,4.07,13.93,10.84,15.78,6.83,1.87,13.33-.02,16.42-6.73,4.66-10.1,7.53-20.89,8.29-32.05.51-7.55-3.9-12.13-10.76-14.03-6.94-1.92-12.86.1-16.3,6.78-5.15,10.01-6.8,21.01-8.48,30.24Z"/>
            <path class="cls-2" d="M777.06,869.35c7.03-.2,14.12,4.09,19.11,11.63,5.18,7.81,10.07,15.85,13.69,24.54,5.6,13.43,1.23,26.53-11.03,33.28-12.84,7.07-26.85,4.21-34.82-7.87-5.15-7.8-9.96-15.98-13.7-24.53-7.88-17.96,4.76-36.71,26.75-37.06ZM769.61,917.61c.35,1.83,1,3.49,2.58,4.63,5.81,9.02,11.54,11.63,19.21,8.77,7.04-2.62,11.75-9.53,9.3-16.6-4.06-11.74-9.1-23.25-19.01-31.62-5.02-4.42-10.16-3.55-15.35-.34-8.45,6.88-9.34,10.73-4.73,20.42,1.78,5.39,4.18,10.45,8.01,14.73Z"/>
            <path class="cls-2" d="M486.37,972.37c.65-11.68,1.47-23.35,1.86-35.04.16-4.96,2.11-6.64,6.96-6.2,7.86.7,15.78.72,23.63,1.52,12.71,1.3,21.21,10.95,20.65,22.91-.61,13.08-9.31,21.21-22.66,21.95-6.23.34-14.34-3.81-18.17,1.37-3.08,4.16-1.23,11.84-1.99,17.91-.44,3.5,1.79,9-5.27,8.71-3.89-.16-6.51-.8-6.24-5.95.48-9.03.13-18.1.13-27.16.37,0,.74,0,1.12,0ZM525.28,947.57l-.32-.39c-5.33-6.8-13.2-4.2-20.03-5.33-5.43-.9-6.52,2.17-5.38,6.76-.03,1.12-.06,2.24-.08,3.37-.43,3.16-.92,6.32-1.25,9.49-.22,2.06-.27,4.73,2.43,4.73,7.33,0,14.95,3.44,21.92-1.57l-.09.09c7.18-4.7,7.27-10.55,2.8-17.15Z"/>
            <path class="cls-2" d="M731.26,897.54c.13,1.15.25,2.31.38,3.46-3.26,1.3-6.42,3.01-9.79,3.81-7.51,1.78-8.93,5.23-5.77,12.48,6.42,14.74,11.82,29.92,17.82,44.85,1.52,3.78,2.13,6.21-2.83,8.01-4.87,1.77-6.24-.52-7.65-4.19-5.02-13.12-10.12-26.21-15.24-39.29q-5.95-15.18-21.04-7.65s-.37.14-.37.14c-4.47.22-5.08-3.36-5.68-6.34-.77-3.83,3.01-3.72,5.14-4.58,11.84-4.82,23.9-9.11,35.59-14.27,5.08-2.24,7.39-.51,9.45,3.57Z"/>
            <path class="cls-2" d="M373.21,905.97c-.48,1.35-.84,2.46-1.26,3.55-7.4,19.09-14.86,38.16-22.16,57.3-1.51,3.95-2.64,6.76-8.01,4.45-4.57-1.97-4.45-4.25-2.94-8.08,7.62-19.33,15.09-38.72,22.56-58.11,1-2.6,1.91-5.3,5.45-3.95,2.54.96,5.92,1.2,6.36,4.84Z"/>
            <path class="cls-2" d="M685.79,976.93c.52,2.74,1.05,5.48,1.57,8.22-13.29,3.41-26.57,6.88-39.89,10.19-2.79.69-6.03,1.54-6.97-2.77-4.96-22.78-12.31-45.03-15.54-68.2,12.55-2.95,25.1-5.91,37.66-8.82,3.74-.87,7.71-2.25,8.78,3.64,1.02,5.64-3.56,5.17-6.61,6.01-7.06,1.94-14.14,3.95-21.34,5.2-5.36.93-5.98,3.7-4.75,8.04.08.28.12.57.18.86q2.94,13.9,16.74,10.63c3.71-.88,7.39-1.89,11.1-2.77,3.08-.73,5.72-.89,6.76,3.23,1.13,4.5-1.52,5.74-4.91,6.56-5.98,1.45-11.96,2.88-17.97,4.19-4.05.88-5.68,2.38-4.65,7.19,3.48,16.29,3.19,16.16,19.23,12.44,6.79-1.57,13.37-4.59,20.61-3.84Z"/>
          </g>
        </g>
      </g>
    </g>
  </g>
</svg>