<?xml version="1.0" encoding="UTF-8"?>
<svg xmlns="http://www.w3.org/2000/svg" version="1.1" viewBox="0 0 1080 1080">
  <defs>
    <style>
      .cls-1 {
        fill: #fff;
      }
    </style>
  </defs>
  <!-- Generator: Adobe Illustrator 28.6.0, SVG Export Plug-In . SVG Version: 1.2.0 Build 709)  -->
  <g>
    <g id="Camada_1">
      <g>
        <path class="cls-1" d="M539.71,834.83c-188.51-.01-340.16-153.12-340.07-343.34.09-187.32,153.3-339.59,341.59-339.49,187.68.1,339.29,153.6,339.13,343.34-.16,187.05-153.14,339.5-340.66,339.49ZM539.64,824.56c181.77.01,330.3-147.88,330.46-329.04.16-184.63-146.98-333.23-329.97-333.27-181.55-.04-330.14,148.13-330.22,329.29-.08,184.39,147.07,333.01,329.74,333.02Z"/>
        <path class="cls-1" d="M520.33,898.66c5.76,3.63,6.25,9.77,4.58,16.34-1.59,6.25-6.11,10.04-12.32,10.34-7.84.38-15.76-.08-23.61-.72-10.6-.87-10.61-1.09-9.74-11.7,1.01-12.37,2.08-24.73,3.14-37.09.6-6.95.63-7.11,7.4-6.45,8.48.83,17.04,1.39,25.35,3.12,8.88,1.85,12.57,7.55,10.77,16-.74,3.46-3.49,6.5-5.56,10.16ZM495.92,913.73c4.51-.77,8.35-1.17,11.98-2.27.63-.19,1.03-4.55.39-4.91-3.29-1.83-6.96-2.98-11.31-4.68-.4,4.47-.66,7.47-1.05,11.87ZM498.59,882.75c-.24,3.06-.44,5.72-.7,9.14,3.03,0,5.74.48,8.14-.18,1.5-.41,3.42-2.49,3.5-3.91.07-1.37-1.72-3.54-3.18-4.12-2.18-.86-4.78-.64-7.75-.94Z"/>
        <path class="cls-1" d="M722.37,868.36c4.79,3.44,9.19,6.59,13.58,9.75,2.67,1.92,2.72,3.61-.48,4.98-2.85,1.22-5.6,2.83-8.57,3.55-1.84.44-4.34.09-5.95-.88-3.44-2.06-6.38-4.94-9.76-7.12-1.41-.91-3.42-.91-6.41-1.63,2.27,5.35,3.76,9.06,5.42,12.69,1.14,2.5.62,4.05-1.97,5.12-14.71,6.13-10.96,6.97-16.64-5.73-5.24-11.73-10.11-23.62-15.32-35.37-1.46-3.28-.92-5.09,2.5-6.39,8.24-3.14,16.27-6.92,24.64-9.62,7.25-2.34,13.95-.59,18.41,6.15,4.71,7.12,7.02,14.57,1.71,22.52-.33.5-.62,1.02-1.17,1.95ZM700.53,867.15c3.53-3.08,6.75-5.28,8.96-8.22.65-.86-1.47-5.55-2.51-5.62-3.69-.25-7.47.73-11.8,1.33,1.9,4.44,3.27,7.65,5.35,12.51Z"/>
        <path class="cls-1" d="M580,892.78c0,4.97.06,9.94-.01,14.9-.17,11.17-5.64,17.69-16.6,19.65-2.73.49-5.56.69-8.33.67-13.02-.13-19.98-6.38-20.94-19.33-.78-10.53-.91-21.11-1.45-31.66-.15-3.02,1.04-4.17,4-4.3,15.33-.67,12.61-2.36,13.43,11.53.43,7.29.58,14.6.91,21.89.17,3.79,1.45,6.77,5.9,6.87,3.89.09,6.08-2.29,5.98-7.21-.2-9.63-.58-19.26-1.17-28.88-.23-3.75.84-5.47,4.78-5.5,13.95-.13,12.05-2.42,12.6,11.58.13,3.26.02,6.52.02,9.79.3,0,.6,0,.9,0Z"/>
        <path class="cls-1" d="M636.62,889.07c.36-8.23.85-16.46,1.03-24.69.07-3.19,1.28-4.82,4.38-5.5,3.48-.77,6.95-1.71,10.3-2.91,2.94-1.05,4.62,0,6.2,2.39,9.01,13.59,18.05,27.16,27.23,40.63,2.19,3.21,1.34,4.7-2.07,5.57-1.96.49-3.98.86-5.82,1.64-4.4,1.88-7.65,1.37-9.87-3.38-.45-.97-2.65-1.64-4-1.57-1.96.11-3.85,1.19-5.83,1.54-3.99.69-6.57,2.13-5.73,6.98.21,1.22-1.07,3.56-2.21,4.01-3.73,1.48-7.67,2.52-11.61,3.36-3.09.66-2.99-1.66-2.98-3.84.05-8.07.02-16.15.02-24.22.32,0,.64,0,.96,0ZM660.2,887.75c-2.86-4.74-5.4-8.94-7.94-13.14-.26.12-.53.23-.79.35v15.19c2.81-.77,5.42-1.49,8.73-2.4Z"/>
        <path class="cls-1" d="M751.85,849.88c1.22,2.11,2.28,3.94,3.54,6.12,5.07-2.92,9.96-5.55,14.64-8.51,2.99-1.9,4.91-1.78,6.69,1.55,4.92,9.21,6.06,7.41-3.41,12.92-7.11,4.15-14.29,8.18-21.31,12.46-2.93,1.79-4.61,1.37-6.31-1.63-7.65-13.5-15.42-26.93-23.27-40.32-1.53-2.61-1.18-4.17,1.41-5.64,8.76-5.01,17.49-10.08,26.17-15.23,2.4-1.42,4-1.02,5.34,1.37,5.8,10.35,6.05,8.31-3.16,13.73-3.31,1.95-6.63,3.9-10.17,5.99,1.06,1.88,1.94,3.46,3.05,5.43,4.63-2.67,9.1-5.09,13.41-7.77,2.82-1.75,4.68-1.57,6.37,1.53,4.88,8.95,5.41,7.15-3.21,12.29-3.18,1.9-6.4,3.74-9.78,5.7Z"/>
        <path class="cls-1" d="M346.89,837.43c-1.11,2.15-1.94,3.76-2.89,5.61,4.7,2.55,9.12,5.12,13.69,7.37,3.02,1.49,3.72,3.08,1.96,6.18-5.16,9.1-3.6,8.16-12.18,3.66-3.15-1.65-6.28-3.34-9.85-5.24-1.1,1.95-2.13,3.77-3.48,6.15,5.21,2.82,10.13,5.66,15.21,8.16,3.32,1.64,3.66,3.49,1.89,6.6-5.24,9.22-3.55,8.51-12.49,3.76-7.26-3.86-14.46-7.86-21.78-11.61-3.16-1.62-3.82-3.26-2-6.56,7.33-13.31,14.47-26.74,21.49-40.21,1.67-3.19,3.29-3.91,6.54-2.09,8.39,4.72,16.89,9.24,25.42,13.69,3.03,1.58,3.52,3.28,1.86,6.3-5.32,9.69-3.8,8.6-12.81,3.89-3.42-1.78-6.8-3.64-10.61-5.69Z"/>
        <path class="cls-1" d="M386.52,841.32c7.25.89,15.41,4.24,22.29,10.56,2.48,2.28,3.14,4.48.22,6.93-1.06.89-1.98,1.98-2.86,3.06-1.7,2.08-3.27,2.07-5.58.58-3.35-2.17-6.99-3.93-10.66-5.54-.97-.43-2.48.37-3.75.61.25,1.27.07,2.92.82,3.74,2.82,3.09,5.98,5.87,8.92,8.85,6.48,6.56,7.53,12.6,3.6,20.19-3.54,6.83-9.98,9.76-18.49,8.13-8.42-1.62-15.79-5.39-22.08-11.27-2.39-2.23-2.78-4.31-.18-6.63.92-.82,1.78-1.75,2.5-2.76,2.23-3.1,4.14-2.92,7.2-.53,3.33,2.61,7.43,4.34,11.39,5.97,1.17.48,3.01-.64,4.54-1.03-.53-1.35-.72-3.01-1.64-3.98-2.57-2.69-5.57-4.96-8.16-7.63-6.54-6.73-7.55-14.28-3.12-22.07,2.88-5.06,7.26-7.48,15.05-7.19Z"/>
        <path class="cls-1" d="M293.98,831.35c8.5-7.47,16.73-14.55,24.76-21.85,2.65-2.41,4.87-2.82,7.71-.48,2.27,1.87,4.76,3.48,7.21,5.13,2.38,1.61,2.71,3.19.25,5.07-13.34,10.17-26.61,20.44-40.08,30.45-1.19.88-3.94.78-5.35,0-3.52-1.93-6.88-4.29-9.89-6.94-1.18-1.04-2.1-3.6-1.67-5.03,4.75-15.9,9.83-31.7,14.71-47.56,1.06-3.44,2.7-3.76,5.4-1.78,12.83,9.43,11.44,5.21,6.27,19.14-2.91,7.82-6.07,15.55-9.32,23.84Z"/>
        <path class="cls-1" d="M817.52,824.12c-1.52,3.32-2.49,7.06-4.66,9.88-5.65,7.34-13.35,11.9-22.22,14.51-3.31.97-5.42.11-6.09-3.49-.25-1.37-.63-2.73-1.11-4.03-1.06-2.93-.22-4.3,2.86-5.49,3.97-1.54,7.7-3.88,11.22-6.32,1.23-.86,1.54-3.04,2.27-4.62-1.69-.32-3.49-1.15-5.06-.85-4.1.79-8.05,2.33-12.14,3.1-7.91,1.49-14.55-2.03-18.46-9.4-3.3-6.22-2.26-12.21,3.46-18.19,5.23-5.47,11.39-9.54,18.75-11.67,3.39-.98,5.51-.36,6.49,3.55,1.75,6.98,1.89,6.83-4.66,10.24-2.59,1.35-5.02,3.09-7.25,4.99-.83.7-1.51,2.74-1.08,3.46.51.85,2.41,1.47,3.52,1.25,4.25-.85,8.39-2.24,12.63-3.13,11.14-2.32,20.98,5.25,21.53,16.21Z"/>
        <path class="cls-1" d="M439.67,875.06c-3.04,11.1-6.03,22-9.02,32.9-1.52,5.51-1.83,5.77-7.4,4.1-12.45-3.72-10.97-1.16-7.62-13.65,2.45-9.14,4.98-18.25,7.61-27.89-2.93-.89-5.82-1.8-8.74-2.64-2.36-.68-3.22-1.9-2.51-4.47,3.6-12.96,1.86-11.19,13-8.18,8.69,2.35,17.32,4.91,26.05,7.11,3.64.92,4.86,2.41,3.72,6.22-3.47,11.61-1.81,9.7-12.15,7.16-.87-.21-1.75-.39-2.94-.66Z"/>
        <path class="cls-1" d="M606.93,907.24c5.29-.82,10.18-1.47,15.02-2.38,3.29-.62,4.74.42,5.37,3.82,1.94,10.51,2.06,10.44-8.59,12-7.06,1.03-14.13,2.09-21.14,3.41-3.61.68-5.46-.06-6.04-4.05-2.19-15.21-4.54-30.39-7.03-45.56-.54-3.3.62-4.59,3.66-4.99,15.14-2,11.95-3.79,14.36,10.34,1.54,8.99,2.88,18.01,4.38,27.41Z"/>
        <path class="cls-1" d="M465.27,921.33c-4.85-.94-8.6-1.37-12.11-2.52-1.11-.36-2.45-2.79-2.23-4.02,2.65-15.44,5.63-30.83,8.36-46.26.61-3.45,2.21-4.21,5.48-3.6,11.97,2.22,12.04,2.15,9.89,14.28-2.22,12.53-4.5,25.04-6.94,37.53-.34,1.72-1.71,3.25-2.45,4.59Z"/>
        <path class="cls-1" d="M694.66,468.97c-4.16-6.95-2.74-14.16-1.9-21.6-7.9,10.96-17.19,19.84-31.05,22.91,5.15-4.74,10.09-9.29,15.03-13.84l-.81-1.16c-6.35,3.45-13,4.33-20.05,2.27.91-.2,1.82-.4,2.74-.59,8.37-1.69,14.67-10.77,13.33-19.22-.93-5.87-4.26-9.06-10.19-8.53-5.06.45-10.2,1.42-15,3.07-16.36,5.63-24.32-5.01-23.23-19.34.36-4.67,2.04-9.25,3.19-14.16-10.91,7.34-14.67,18.05-14.46,30.65-9.64-2.43-13.76-7.27-14.62-17.33-1.65,1.77-3.07,3.29-5.53,5.93-1.19-8.36-2.21-15.6-3.24-22.84-.2-1.37-.03-2.97-.71-4.05-4.72-7.57-4.77-11.27,1-17.98,7.82-9.09,17.4-15.88,28.52-20.43,2.68-1.1,5.43-2.01,8.67-3.2-27.02-4.38-59.02-4.36-98.87,22.47.75-14.37,1.99-28.13,12.7-40.35-10.64,4.72-18.93,10.77-25.25,18.98-6.3,8.19-11.7,17.06-17.7,25.93.02-10.74,1.12-21.41,3.9-31.76,2.75-10.27,6.42-20.3,9.78-30.74-1.74-.1-3.86-.24-5.99-.34-9.35-.44-14.15-7.39-10.53-16.1,5.74-13.81,12.65-26.96,25.27-36.83-1.8-.43-3.17-.52-4.3-1.08-1.68-.83-3.18-2-4.76-3.03,1.35-1.3,2.51-2.91,4.08-3.84,5.59-3.29,11.33-6.34,16.99-9.51.36-.2.58-.65,1.73-1.99-11.07-.92-21.3-1.8-31.54-2.6-4.47-.35-8.95-.6-13.44-.77-3.1-.12-6.24-.31-9.31.02-10.27,1.12-14.27,6.2-13.9,16.52.17,4.73-.43,9.49-.77,14.22-.05.64-.63,1.24-.97,1.86-.49-.03-.97-.07-1.46-.1-.49-7.9-1.11-15.8-1.42-23.71-.21-5.26,2.75-8.9,7.25-11.03,9.24-4.37,18.59-8.52,27.96-12.61,4.22-1.84,8.6-3.33,13.48-4.34-2.11,2.23-4.22,4.47-6.67,7.07,13.92,3.76,27.2,8.79,42.47,4.98-2.22-1.85-3.95-3.29-5.25-4.37,5.15-3.15,10.15-5.92,14.83-9.14,8.33-5.74,17.58-5.45,26.49-3.19,11.54,2.93,22.75,7.2,34.09,10.92,6.19,2.03,12.31,4.3,18.55,6.15,8.51,2.52,11.71,7.02,9.18,15.66-1.61,5.51.37,8.57,4.69,10.54,8.73,3.99,17.71,7.43,26.5,11.29,11.19,4.91,22.49,9.66,33.36,15.21,4.52,2.31,8.07,6.52,12.78,10.46-20.9,10.49-41.51,12.29-62.92,7.01-.08,8.79,7.36,15.5,15.6,14.24,12.71-1.94,27.46,6.76,32.72,19.29,4.89,11.66.64,26.75-10.34,34.42-5.3,3.7-11.33,6.4-17.12,9.36-7.44,3.8-15.17,7.14-21.02,13.8,1.33-4.12,2.66-8.25,4.25-13.16-15.2,10.09-20.96,24.06-21.39,40.38,6.16-1.67,12.58-2.75,18.44-5.19,5.32-2.21,10.52-5.32,14.89-9.07,5.39-4.63,9.46-10.78,14.85-15.41,3.86-3.31,8.69-6.44,13.54-7.45,10.6-2.2,20.78,5.92,22.05,17.08,1.65,14.51-2.21,27.76-12.86,37.87-9.24,8.77-15.34,18.56-16.3,31.43ZM564.38,280.87c2.54,1.07,4.46,2.34,6.53,2.65,3.36.51,7.35,1.59,10.14.34,7.33-3.3,13.69-2.41,20.34,1.5,2.72,1.6,6.01,2.42,9.15,3.06,1.08.22,2.48-1.18,3.74-1.84-.94-1.09-1.68-2.6-2.87-3.19-1.77-.87-3.87-1.05-5.81-1.6-5.49-1.55-7.59-4.36-7.84-10.02-.11-2.55-.59-5.07-.96-8.08-12.44,3.49-23.8,7.24-32.43,17.18ZM600.2,237.34c.27-.53.53-1.06.8-1.59-7.19-.52-14.37-1.18-21.57-1.42-1.24-.04-2.55,1.68-3.82,2.59,1.37,1.21,2.61,3.23,4.13,3.47,3.32.51,6.79-.07,10.18.14,2.26.14,4.77.36,6.69,1.42,6.45,3.59,13.31,6.72,17.73,13.12.65.93,1.72,1.57,2.6,2.34.43-.32.86-.64,1.3-.96-1.55-2.24-2.79-4.81-4.73-6.64-2.68-2.53-6.06-4.31-8.82-6.76-1.78-1.58-3-3.8-4.48-5.73Z"/>
        <path class="cls-1" d="M318.93,527.35c1.81-19.87,8.19-38.05,20.57-53.92,5.35-6.86,11.08-13.42,16.48-20.24,2.11-2.66,3.77-5.68,6.08-9.21-12.45,4.43-23.87,4.72-35.24-3.2,19.59-9.8,36.62-21.56,45.39-42.12-4.16,3.52-8.7,5.21-14.75,4.08,11.11-12.14,15.17-26.77,17.05-42.19.97-8.01,1.19-16.12,2.2-24.13,1.86-14.68,6.53-28.5,14.75-40.82,11.8-17.69,24.14-35,33.23-54.36,1.89-4.03,4.89-7.53,7.72-11.77-9.27,2.91-14.5,9.52-19.1,16.98,3.38-9.74,6.23-19.81,13.74-27.29,2.96-2.94,6.94-5.4,10.91-6.69,13.48-4.36,27.35-7.04,41.79-7.92-5.27-1.86-10.55-3.72-15.82-5.57-.03-.19-.06-.38-.09-.57.9,0,1.81-.06,2.71,0,16.05,1.19,31.64-.25,46.31-7.62,8.59-4.32,17.44-5.35,27.11-3.2,9.2,2.05,18.82,2.11,28.17,3.59,12.18,1.93,20.38,7.95,25.64,17.92-9.31,1.37-18.74-1.15-25.81-6.82-9.49-7.6-20.6-9.54-32.14-7.82-12.42,1.85-24.68,4.8-37.01,7.25-2.4.48-4.82.84-7.24,1.26l-.19,1.18c5.39,1.12,10.78,2.23,17.62,3.65-5.05,1.79-9.1,3.91-13.39,4.62-7.95,1.31-16.04,1.8-24.08,2.61-11.26,1.14-19.94,6.72-26.27,15.84-4.07,5.85-7.45,12.17-11.33,18.16-3.95,6.09-8.13,12.02-12.15,17.93h6.75c-7.31,8.29-13.92,16.49-15.64,27.13-1.13,7-1.07,14.18-1.56,21.28-.47,6.7-.96,13.4-1.46,20.38,3.45-3.2,7.28-6.75,11.41-10.58.77,16.02-1.43,31.65-6.46,46.89-5,15.15-12.83,28.83-22.13,41.87,9.95-3.1,17.92-9.14,24.15-17.12,6.05-7.73,11.23-16.15,16.67-24.08-.89,14.34-4.27,28.48-10.73,41.87-9.86,20.44-25.08,36.08-43.59,48.78-14.66,10.06-28.79,20.87-39.66,35.07-6,7.83-10.57,16.74-15.86,25.11-1.03,1.62-2.41,3.03-3.62,4.53-.38-.26-.76-.51-1.14-.77Z"/>
        <path class="cls-1" d="M528.34,632.15c7.6-2.28,14.85-4.45,22.65-6.78.36,1.7.65,3.15.97,4.58,1.41,6.23,5.57,9.81,11.3,9.74,5.8-.06,10.53-4.08,11.12-10.47.64-6.94.47-13.96.64-20.94.04-1.85,0-3.7,0-5.73-.5.09-1.04.02-1.27.25-13.11,13.07-33.82,9.62-41.05-7.68-3.15-7.54-4.38-16.16-5.03-24.41-1.33-17.04-1.71-34.21,2.16-51.03,3.97-17.24,17.26-25.88,33.09-21.57,3.73,1.02,7.3,3.36,10.39,5.79,2,1.57,3.44,1.96,5.75,1.21,6.33-2.05,12.73-3.87,19.7-5.96,0,1.98,0,3.47,0,4.96.03,38.07.06,76.15.06,114.22,0,3.41.04,6.87-.4,10.24-3.5,26.62-30.44,40.14-54.2,27.2-9.23-5.03-14.06-13.09-15.89-23.62ZM574.78,554c-.07,0-.14,0-.21,0,0-8.39.37-16.8-.12-25.15-.36-6.09-4.71-9.92-10.16-10.35-5.46-.42-9.94,2.75-11.61,8.7-.84,2.96-1.38,6.1-1.42,9.17-.15,11.81-.18,23.62.06,35.42.07,3.51.71,7.17,1.91,10.47,2.47,6.84,9.93,9.32,16.07,5.7,3.67-2.17,5.36-5.65,5.44-9.73.16-8.08.05-16.16.05-24.23Z"/>
        <path class="cls-1" d="M390.75,544.79c0-4.99.07-9.18-.02-13.36-.17-7.99-3.94-12.6-10.44-12.95-6.8-.36-11.09,3.87-12.11,11.91-.08.59-.18,1.18-.32,2.05h-21.29c-2.53-11.21,2.46-22.79,12.55-29.22,24.49-15.61,53.9-1.65,55.12,27.2,1.22,28.69.37,57.46.42,86.2,0,.12-.18.25-.51.69h-21.81v-8.21c-.46-.3-.92-.6-1.39-.9-.15.61-.15,1.32-.47,1.83-8.87,14.22-36.13,13.16-44.29-5.79-6.12-14.21-5.91-28.9,1.3-42.79,6.14-11.83,17.17-15.99,29.82-16.63,4.3-.22,8.63-.03,13.44-.03ZM390.72,561.36c-5.12.35-9.83.16-14.27,1.17-2.58.59-5.73,2.58-6.88,4.83-3.79,7.39-4.67,15.4-2.12,23.48,1.45,4.58,4.81,7.19,9.6,7.63,4.72.43,8.68-1.32,11-5.49,1.32-2.37,2.43-5.17,2.55-7.83.34-7.58.12-15.19.12-23.79Z"/>
        <path class="cls-1" d="M664.65,555.8c.61-8.02.91-17.83,2.17-27.51,3.42-26.4,19.84-33.55,42.45-30.73,13.08,1.63,21.99,9.29,24.67,22.07,2.31,11.01,3.36,22.42,3.62,33.68.28,11.91-.25,23.97-1.8,35.78-2.86,21.78-17.42,32.4-39.38,29.87-15.73-1.81-24.96-10.07-28.51-25.67-.76-3.33-1.47-6.71-1.71-10.1-.62-8.52-.96-17.06-1.5-27.38ZM714.4,558.64c-.16-.01-.32-.02-.48-.03,0-1.86.09-3.73-.02-5.58-.5-8.35-.64-16.74-1.72-25.02-.82-6.29-5.17-9.64-10.67-9.7-5.54-.06-9.42,3.27-10.96,9.45-.22.9-.46,1.83-.47,2.74-.1,17.65-.22,35.31-.18,52.96,0,2.28.21,4.97,1.4,6.74,1.78,2.65,4.13,5.61,6.93,6.74,6.75,2.74,13.18-1.53,14.16-9.58,1.16-9.52,1.38-19.15,2.01-28.73Z"/>
        <path class="cls-1" d="M458.71,499.16c.13,2.7.23,4.96.38,8.15,5.07-6.22,10.9-9.66,18.25-10.05,16.08-.87,28.01,9.3,28.98,25.53.72,12.08.53,24.22.58,36.34.08,19.24.02,38.48.02,58.09h-23.81c0-1.61,0-3.26,0-4.92-.01-25.64,0-51.28-.08-76.92,0-2.92-.2-5.94-.95-8.74-1.37-5.09-5.63-7.99-10.77-7.94-4.96.05-9.07,2.87-10.49,7.71-.73,2.48-.94,5.19-.95,7.8-.04,25.95,0,51.9.03,77.85,0,1.67,0,3.34,0,5.26h-23.85c0-4.54,0-8.98,0-13.42-.03-31.23-.01-62.46-.18-93.7-.02-3.15.7-4.76,3.91-5.57,6.27-1.58,12.44-3.58,18.94-5.49Z"/>
        <path class="cls-1" d="M312.64,347.48c3.36,2.93,6.26,5.45,9.32,8.12-33.05,54.3-45.81,112.76-36.64,175.55,9.15,62.69,38.45,114.7,85.47,157.18-1.08,1.86-2.07,3.59-3.07,5.3-.93,1.59-1.88,3.17-3.19,5.36-48.39-42.68-79.1-95.11-90.06-158.39-11.94-68.91,1.18-133.22,38.18-193.12Z"/>
        <path class="cls-1" d="M722.61,692.32c-2.54-3.31-4.87-6.35-7.19-9.37,92.92-85.36,106.43-225.63,42.97-326.53,2.98-2.54,6-5.13,9.06-7.74,64.38,97.13,59.38,247.49-44.83,343.64Z"/>
        <path class="cls-1" d="M646.21,468.08v149.01h-23.92c-.07-1.54-.18-2.9-.18-4.25-.05-44.29-.04-88.57-.22-132.86-.02-3.63,1.08-5.19,4.51-6.07,6.44-1.65,12.77-3.73,19.81-5.83Z"/>
        <path class="cls-1" d="M662.77,697.48c1.59,3.5,2.85,6.27,4.23,9.3-4.46,2.05-8.65,3.98-13.31,6.12,6.23,14.06,12.4,28.01,18.75,42.34-3.26,1.48-6.44,2.93-10.05,4.57-6.37-14.27-12.59-28.22-18.9-42.37-4.62,2.02-8.83,3.86-13.12,5.73-.98-1.8-1.8-3.32-2.63-4.84-.17.08-.34.16-.51.24.39,1.59.78,3.18,1.26,5.12-8.18,2.26-16.36,4.52-24.92,6.89,1.14,4.21,2.2,8.15,3.38,12.49,7.21-1.9,14.06-3.71,21.32-5.63.86,3.16,1.66,6.08,2.58,9.43-7.11,1.99-13.92,3.89-21.29,5.95,1.18,4.38,2.28,8.49,3.48,12.96,8.34-2.23,16.37-4.37,24.99-6.67.86,3,1.7,5.9,2.73,9.46-11.82,3.22-23.56,6.41-35.83,9.74-4.91-18.22-9.73-36.09-14.76-54.77,25.38-5.19,49.35-13.87,72.62-26.07Z"/>
        <path class="cls-1" d="M593.82,780.42q-11.99,2.59-18.03-6.95c-1.49-2.36-2.98-4.73-4.47-7.09q-3.55-5.61-10.94-4.14c.72,7.09,1.45,14.26,2.22,21.95-3.56.44-6.88.85-10.87,1.34-2.09-18.7-4.14-37.11-6.26-56.16,8.71-.87,17.13-2.23,25.58-2.42,7.86-.18,13.66,4.88,15.75,12.15,2.2,7.62-.05,13.4-7.7,19.11,4.81,7.26,9.64,14.56,14.7,22.21ZM559.22,752.72c4.15-.48,7.72-.66,11.19-1.35,4.26-.85,6.49-4.09,6.02-8.08-.46-3.92-3.46-6.54-7.8-6.36-3.53.15-7.03.75-10.96,1.2.52,4.89,1.01,9.45,1.55,14.59Z"/>
        <path class="cls-1" d="M399.97,727.08c-.91,8.96-1.78,17.59-2.71,26.83-3.25-2.07-6.23-3.71-8.85-5.8-.94-.75-1.5-2.62-1.4-3.91.42-5.26.8-10.58,1.88-15.72,1.15-5.43-.76-8.51-6.11-10.13-3.91,6.01-7.86,12.09-11.99,18.45-3.16-2.05-6.11-3.96-9.28-6.02,10.25-15.9,20.32-31.52,30.52-47.35,6.69,4.34,13.17,8.32,19.41,12.66,7.12,4.95,9.63,12.58,7.01,19.98-2.76,7.79-8.7,11.45-18.49,11ZM388.02,710.15c3.32,2.14,6.31,4.31,9.53,6.08,3.77,2.08,7.53,1.02,9.69-2.44,2.25-3.61,1.55-6.94-1.63-9.48-2.96-2.36-6.27-4.28-9.6-6.5-2.81,4.34-5.31,8.2-7.99,12.34Z"/>
        <path class="cls-1" d="M456.39,775.35c-15.36,0-24.88-11.31-21.86-25.05,1.46-6.64,3.39-13.26,5.86-19.59,3.9-9.98,13.48-14.29,24.02-11.47,10.31,2.76,16.88,11.64,14.99,21.96-1.44,7.88-3.87,15.68-6.79,23.15-2.95,7.54-9.49,10.71-16.22,10.99ZM444.04,755.73c.78,4.59,3.31,7.93,7.55,9.15,4.4,1.27,8.95-.15,10.54-4.44,2.67-7.22,4.85-14.67,6.57-22.18.97-4.21-2.3-8.01-6.7-9.33-4.19-1.26-8.72.03-10.31,4.03-2.94,7.44-5.15,15.17-7.66,22.78Z"/>
        <path class="cls-1" d="M720.68,716.99c-.41,8.87-6.1,16.68-14.9,19.94-8.06,2.98-16.42,1.03-21.8-5.93-4.44-5.75-8.58-11.85-12.06-18.22-5.28-9.66-2.04-20.24,7.39-26.32,9.25-5.97,19.89-4.64,26.65,3.98,4.39,5.59,8.15,11.72,11.78,17.85,1.53,2.58,2,5.78,2.95,8.7ZM698.19,727.78c8.5.12,13.46-6.98,10.14-13.22-3.32-6.25-7.4-12.15-11.67-17.82-3.22-4.26-7.76-4.61-11.99-1.89-4.3,2.77-5.86,7.43-3.18,12.07,3.47,6.01,7.37,11.81,11.52,17.38,1.42,1.9,4.15,2.82,5.18,3.48Z"/>
        <path class="cls-1" d="M512.26,764.1c-.35,7.32-.67,14.06-.99,20.73h-10.97c.74-18.83,1.46-37.22,2.22-56.81,9.77.92,19.38,1.01,28.62,2.94,7.53,1.57,11.43,9.22,10.92,17.43-.48,7.7-5.58,13.92-13.09,15.51-2.69.57-5.53.55-8.31.58-2.62.03-5.24-.22-8.4-.38ZM513.05,738.74v15.25c1.53.15,2.89.35,4.26.4,2.33.08,4.68.31,6.98.05,4.06-.46,6.45-2.83,6.74-7.01.28-4.16-2.05-7.3-6.24-7.88-3.65-.51-7.37-.53-11.74-.8Z"/>
        <path class="cls-1" d="M722.29,303.4c12.41,22.25,8.7,45.6,5.6,68.83-.43,3.21-2.19,6.24-3.33,9.33-4.74-4.8-9.26-8.95-13.19-13.6-1.17-1.38-1.53-4.5-.83-6.24,3.61-8.9,4.07-17.71.7-26.73-2.6-6.98-1.31-13.32,3.04-19.29,2.78-3.81,5.17-7.9,8-12.28Z"/>
        <path class="cls-1" d="M430.68,706.8c3.59,1.69,6.63,3.12,10.02,4.72-7.81,17.1-15.46,33.85-23.35,51.11-3.37-1.49-6.53-2.89-10.13-4.48,7.85-17.18,15.55-34.04,23.46-51.36Z"/>
      </g>
    </g>
  </g>
</svg>