<?xml version="1.0" encoding="UTF-8"?>
<svg xmlns="http://www.w3.org/2000/svg" version="1.1" viewBox="0 0 902 902">
  <defs>
    <style>
      .cls-1 {
        fill: #f7fcfc;
      }
    </style>
  </defs>
  <!-- Generator: Adobe Illustrator 28.6.0, SVG Export Plug-In . SVG Version: 1.2.0 Build 709)  -->
  <g>
    <g id="Camada_1">
      <g>
        <path class="cls-1" d="M338.67,635.04c-.08,8.55-5.53,14.97-13.07,15.49-3.59.25-4,1.93-4.05,4.5-.11,5.27-1.67,10.41-1.33,15.74.07,1.09-.66,2.16-1.94.72-.08-.09-.06-.34-.14-.37-10.82-3.75-7-12.11-6.08-19.5.23-1.87,1.07-3.83.06-5.55-1.94-3.33-5.12-3.26-7.2-.02-1.92,2.98-3.94,5.89-5.73,8.93-1.18,2-2.16,2.64-4.34,1.05-5.93-4.32-7.19-2.39-2.13-10.17,6.58-10.11,13.25-20.16,19.7-30.35,1.57-2.48,2.72-2.65,5.04-1,4.66,3.3,9.59,6.22,14.3,9.45,4.28,2.94,6.75,7.01,6.92,11.07ZM322.71,641.19c3.13.07,6.09-2.8,6.05-5.87-.03-2.42-7.14-9.11-9.96-9.37-.79-.07-6.47,7.77-6.47,8.92,0,1.37,8.05,6.27,10.37,6.32Z"/>
        <path class="cls-1" d="M460.69,700.98c-.89-10.02-1.78-20.04-2.67-30.05-.12-1.36-.36-2.7-.44-4.06-.5-8.06-.5-8.12,7.4-9.03,4.46-.51,8.94-.99,13.42-1.06,6.2-.1,11.17,2.41,13.82,8.27,2.68,5.92,1.86,11.8-2.65,16.23-3.08,3.03-1.79,4.72-.04,7.29,2.63,3.87,4.95,7.95,7.43,11.91.43.69.39,1.2-.25,1.67-2.77-.39-5.12,1.94-8.23.83-1.73-.61-2.78-1.3-3.61-2.71-2.33-3.98-4.79-7.88-6.94-11.95-1.7-3.22-4.4-2.27-6.74-1.73-2.63.6-1.15,2.93-1.05,4.46.23,3.52.65,7.03,1.16,10.52.29,2-.2,3.16-2.36,3.26-1.08.05-2.2.03-3.25.27-3.51.79-5.09-.63-4.99-4.13ZM468.06,670.35c.28,2.01.62,4.01.81,6.03.11,1.18.57,1.75,1.77,1.59,2.95-.39,5.95-.54,8.82-1.25,3.12-.77,4.17-3.21,3.72-6.29-.43-2.95-2.16-4.63-5.17-4.69-2.03-.04-4.06.18-6.09.25-2.82.1-4.8.89-3.87,4.35Z"/>
        <path class="cls-1" d="M353.52,675.79c.67-8.36,2.9-16.35,7.33-23.47,4.63-7.45,13.06-9.33,22.05-5.58,8.57,3.57,12.53,10.95,10.49,20.17-1.26,5.7-3.06,11.29-5.61,16.57-3.13,6.46-8.29,10.26-15.56,9.88-7.97-.42-16.05-4.38-18.08-11.95-.18-.65-.53-1.28-.59-1.94-.1-1.22-.03-2.45-.03-3.68ZM371.86,684.04c3.34.24,5.46-2.2,6.84-5.34,1.97-4.47,3.44-9.13,4.57-13.9,1.22-5.16-.42-8.6-4.86-10.14-4.38-1.52-8,.2-10.09,5.05-2.04,4.74-3.66,9.65-4.75,14.69-1.14,5.27,2.35,9.5,8.29,9.63Z"/>
        <path class="cls-1" d="M419.06,655.94c5.34,1.22,10.83,1.1,16.24,1.49,8.18.6,13.8,3.76,15.97,9.8,2.5,6.96.48,13.14-6.13,18.71,0,0,.06,0,.06,0-.68.34-1.36.68-2.04,1.02-4.71,1-9.43,1.2-14.17.24-2.44-.49-3.47.31-3.45,2.92.02,2.71-.24,5.45-.68,8.12-.29,1.75,1.05,4.52-1.11,5.08-2.51.65-5.4.14-8.08-.2-1.86-.23-.24-2.52-1.49-3.31,1.32-4.41,1.06-9.01,1.53-13.51,1.04-10.08.98-20.26,2.75-30.28.23.15.43.12.6-.09ZM433.67,678.85c5.41.1,7.94-1.62,8.3-5.62.35-4.02-1.97-6.25-7.19-6.89q-7.05-.87-7.72,6.41-.55,5.89,4.99,6.09c.54.02,1.09,0,1.63,0Z"/>
        <path class="cls-1" d="M358.34,638.55c-.45.96-.78,1.69-1.13,2.42-5.85,12.21-11.8,24.37-17.47,36.66-1.35,2.92-2.63,2.98-5.15,1.67-5.57-2.89-5.62-2.8-2.93-8.45,5.38-11.28,10.89-22.51,16.09-33.88,1.35-2.94,2.78-3.02,5.11-1.56,1.77,1.12,4.03,1.45,5.48,3.13Z"/>
        <path class="cls-1" d="M593.38,663.55c-4.02.08-7.6-1.13-10.49-3.86-6.01-5.69-10.66-12.46-13.52-20.17-3.75-10.11,2.49-18.18,10.94-21.9,8.27-3.65,15.92-.92,21.41,6.36,2.7,3.58,5.22,7.26,7.45,11.13,3.36,5.83,4.97,11.91,1.26,18.11-3.81,6.37-9.63,9.78-17.05,10.33ZM602.65,646.21c-.21-.76-.36-1.86-.82-2.83-2.62-5.57-5.95-10.72-10.1-15.24-2.86-3.11-6.06-3.31-9.56-1.11-3.37,2.12-4.82,5.45-3.22,9.11,2.57,5.87,6.13,11.22,10.57,15.86,2.1,2.19,4.94,2.77,7.9,1.34,2.89-1.39,4.78-3.52,5.23-7.13Z"/>
        <g>
          <path class="cls-1" d="M350.02,228.07c2.23-4.02,3.95-8.3,6.51-12.17,3.63-5.49,8.54-8.69,15.03-9.9,11.35-2.12,22.55-5.11,34.36-5.54-4.33-1.53-8.66-3.07-14.04-4.97,8.41-.56,15.84.75,23.08-1.13,6.99-.15,13.34-2.6,19.28-5.96,7.68-4.34,15.63-5.07,24.05-2.99,8.23,2.03,16.82,1.32,25.09,3.28,9.58,2.27,17.26,7.05,22.24,15.9-9.5.83-16.18-1.12-23.12-6.36-9.18-6.92-19.58-8.21-30.61-6.34-1.49.03-3.03-.21-4.39.68,0,0-.11-.17-.11-.17-10.71,2.19-21.31,4.89-32.9,6.48,5.2,2.83,10.25,3.31,15.68,4-1.94,1.75-3.94,2.47-5.98,3.11-7.33,2.29-14.9,2.94-22.52,3.21-8.31.29-15.76,2.69-21.62,8.91-4.29,3.32-7.08,7.84-9.76,12.4-4.92,8.38-9.09,17.25-16.18,24.3,1.87,1.24,3.64.25,5.34.55-.06,1.45-1.19,2.18-1.93,3.05-8.98,10.65-13.39,22.74-12.29,36.8.5,6.47,1.03,13.05-1.71,19.29-.11.25.25.72.39,1.08-.32.03,0-1-.67-.41.22.14.44.27.66.41,3.18-3.23,7.67-5.17,9.75-9.75,1.28,13.9-.31,27.46-4.37,40.69-4.1,13.36-10.69,25.44-20.17,36.11,9.18-.05,24.77-15.82,35.74-36.07-.35,6.38-1.04,12.04-2.46,17.54-1.42,5.51-3.35,10.88-5.06,16.31-3.48,7.21-7.75,13.94-12.23,20.56-14.84,18.42-35.65,29.91-52.9,45.56-9.41,8.53-17.04,18.36-22.73,29.56-1.74,3.42-2.45,7.57-4.08,12.46-1.59-12.81,1.17-23.67,5.8-34.17,5.23-11.84,12.47-22.31,21.54-31.55,3.58-3.64,6.76-7.6,8.79-13.32-8.03,3.23-15.46,3.35-23.03,1.34-2.47-.65-5.3-1.71-5.76-3.75-.4-1.8,2.91-2.56,4.62-3.41,11.43-5.7,20.98-13.62,28.7-23.73,2.19-2.87,4-6.03,5.14-10.32-3.99,3.15-7.57,5.16-12.4,3.98,11.44-11.59,13.7-26.18,14.63-41.33.87-14.29,2.94-28.41,8.55-41.72,3.77-8.94,9.81-16.59,15.49-24.29,6.44-8.73,11-18.37,15.92-27.87,2.69-5.19,6.08-9.93,9.77-15.6-6.13,1.28-8.91,6.01-12.95,8.63-1.78-1.24.49-2.29-.15-3.35Z"/>
          <path class="cls-1" d="M417.43,230.5c-5.2-1.61-10.51-1.69-15.74-.47-6.39,1.49-9.28,5.65-9.08,12.2.11,3.54.73,7.07.28,10.63-.23,1.86-.4,3.73-2.36,5.48.31-4.64-1.56-8.42-2.14-12.53-1.32-9.35,1.15-16.3,10.15-20.24.52.05.9-.14,1.08-.66,0,0-.07.13-.07.13,10.19-4.92,20.85-8.58,31.95-12.89-1.62,3.18-3.95,4.68-5.75,6.75,11.77,4.56,30.06,8.16,36.95,3.95-1.73-1.29-3.34-2.5-5.58-4.18,3.81-.58,6.38-1.34,8.65-3.21,2.55-2.09,5.47-3.74,8.22-5.57,10.18-4.13,20.19-1.61,29.98,1.27,13.42,3.96,26.22,9.78,39.67,13.74,5.24,1.54,7.26,6.2,5.27,12.82-1.45,4.83.51,7.19,4.19,9.2,9.12,4.96,18.89,8.27,28.68,11.58,11.14,3.77,21.82,8.55,30.61,16.66,4.39,4.06,4.34,4.17-1.26,6.63-15.31,6.72-31.14,7.23-47.19,3.51-3.47-.8-3.37.07-2.5,2.78,2.34,7.27,8.23,10.74,15.86,9.11,3.73-.8,7.36-.57,10.66,1.45,7.79,4.77,14.79,10.31,17.03,19.83,2.25,9.56-2.52,22.4-13.11,27.9-4.95,2.57-9.86,5.21-14.85,7.69-5.38,2.68-10.67,5.46-15.53,10.62,1.25-4.19,2.22-7.47,3.22-10.85-10.86,4.7-18.87,23.44-17.94,34.99,4.17-2.73,8.85-3.38,13.49-4.22,9.06-1.63,15.28-7.47,20.72-14.27,4.52-5.67,9.3-10.95,15.9-14.26,1.63-.13,3.26-.32,4.9-.38,8.64-.33,14.9,4.27,17.27,12.62,1.42,5,1.11,10-.11,14.96-1.71,6.98-3.4,14.41-8.79,19.25-7.66,6.87-13.89,14.17-15.53,24.62-.16.99-.28,1.98-1.56,1.99-1.54,0-.96-1.36-1.23-2.14-1.51-4.35-.14-8.75.2-14.09-7.21,10.29-15.51,17.55-27.28,19.93,4.56-3.4,9.19-6.71,12.22-11.7.1-.31.39-.8.28-.9-.44-.45-.81-.14-1.1.29-4.46.82-8.64,4.15-13.87,1.71,8.02-4.72,10-6.25,11.06-11.03,2.52-11.4-1.76-15.85-12.19-13.89-4.1.77-8.12,1.99-11.98,3.65-11.6.57-17.63-4.27-17.89-14.15-.11-4.3.89-8.3,2.29-12.29.45-1.29,1.84-2.54.73-4.14,0,0,.06.17.06.17l.07-.21c-9.12,6.58-13.32,15.56-12.92,26.74-7.59-1.11-11.6-5.8-12.74-15.11-1.36,1.58-2.54,2.96-4.01,4.67-2.18-6.4-2.83-12.55-3.3-18.74-.17-2.22-.19-4.11-2.56-5.86-3.15-2.32-2.03-9.28,1.77-13.23,8.69-9.02,18.45-16.52,30.51-20.55.99-.33,2.17-.29,2.9-1.69-31.34-3.82-60.16,2.23-86.91,20.86.56-12.93,2.07-24.58,10.03-34.41.27-.34,1.15-.48.67-1.04-.34-.4-.98-.14-1.21.48-10.53,4.16-17.99,12-24.67,20.73-4.06,5.3-7.27,11.13-10.61,17.76-1.24-5.17.05-9.58.41-13.94.39-4.73,1.25-9.45,2.3-14.08,1.02-4.48,2.39-8.89,3.89-13.23,1.49-4.35,3.32-8.58,5.29-13.59-2.1,0-3.92.11-5.71-.02-8.14-.58-11.64-5.6-9.43-13.43,3.31-11.67,11.54-24,21.95-32.85-1.14-1.11-2.66-1.01-4.03-1.37-3.64-.96-4.09-2.81-1.44-5.62.7.05,1.42.16,1.87-.59,0,0-.06.08-.06.08,1.75-.66,3.71-.94,4.86-2.68.26.03.5-.03.72-.16.57.14.74-.24.87-.68l-.04.04c.63-.12,1.43.12,1.67-.81,3.11-.67,5.51-2.39,7.94-5.22-11.98-1.79-23.42-3.03-35.01-2.24ZM480.05,267.05c4.76,1.94,8.87,5.55,14.05,2.93,7.15-3.62,13.6-2.4,19.96,1.9,2.15,1.45,4.65,2.26,7.35,2.1,1.3-.08,2.09-.91,2.26-2,.15-.92-.38-1.91-1.42-2.24-1.81-.58-3.63-1.11-5.46-1.59-4.72-1.23-7.46-4.03-7.53-8.45-.16-9.72-1.67-7.55-8.45-5.54-1.04.31-2.1.58-3.1.99-6.58,2.73-12.76,6.04-17.65,11.91ZM526.37,246.97c.59-2.7-.57-4.4-2.01-5.85-1.23-1.25-2.81-2.14-4.07-3.36-2.96-2.86-8.18-3.68-8.31-9.14-.02-.78-.85-.31-1.3-.42-4.63-1.1-9.27-2.23-14.07-1.89-2.54.18-6.55-.85-6.57,2.78-.02,3.75,4.1,2.96,6.53,2.7,9.84-1.09,17.1,3.95,24.21,9.55,1.99,1.57,2.73,4.39,5.6,5.65Z"/>
          <g>
            <path class="cls-1" d="M273.97,211.58c20.93-15.02,43.18-27.63,67.15-37.15,10.22-4.06,20.66-7.44,31.19-10.55,15.9-4.03,31.94-7.23,48.31-8.82,17.54-1.7,35.07-2.12,52.64-.75,12.06.94,24.03,2.59,35.93,4.74,18.1,3.79,35.77,9,52.96,15.84,14.88,5.93,28.96,13.47,42.93,21.23.51.33,1.02.65,1.53.98.56.36,1.11.72,1.67,1.08,7.8,5.38,15.61,10.76,23.41,16.14,14.19,11.45,27.76,23.54,39.98,37.14,27.03,30.05,47.25,64.09,60.56,102.24.27.77.6,1.52.91,2.28.39,1.09.79,2.18,1.18,3.26.67,2.82,1.29,5.65,2.6,8.26,0,0-.02-.04-.02-.04.88,4.2,1.84,8.37,3.37,12.39,1.64,8.15,3.27,16.3,4.91,24.45-.02,3.54.57,6.99,1.58,10.37-.63.31-.41.67-.06,1.03.15,1.94.3,3.88.45,5.82.37,4.13.73,8.26,1.1,12.4.09.77.17,1.54.26,2.31.01.29.02.58.03.86,0,9,0,18,.01,27-.79,7.86-1.5,15.73-2.4,23.58-3.15,27.63-10.49,54.14-21.31,79.74-12.42,29.39-29.29,56.01-50.31,79.93-22.12,25.17-47.73,46.17-76.99,62.62-.81.45-1.53,1.05-2.29,1.58-20.19,10.56-40.95,19.72-62.99,25.71-5.22,1.42-10.46,2.76-15.69,4.14-14.95,3.01-29.98,5.35-45.23,6.4-39.32,2.7-77.58-2.3-114.99-14.65-19.65-6.49-38.25-15.13-56.05-25.6-45.59-26.8-81.36-63.33-107.72-109.09-14.1-24.48-24.4-50.49-30.96-78-3.92-16.44-6.42-33.07-7.39-49.93-.08-1.34-.45-2.66-.68-3.99.18-.26.16-.5-.06-.72-.02-.58-.04-1.15-.05-1.73.02-8.99.03-17.98.05-26.97,1.36-9.71,1.7-19.51,3.12-29.23,4.63-31.74,14.15-61.89,28.56-90.52,20.94-41.63,50.23-76.28,87.29-104.44.53-.41,1.01-.89,1.52-1.34ZM599.67,698.66l-.1.19c.51-.31,1.02-.63,1.52-.94.24-.13.48-.25.72-.38.28-.21.56-.41.84-.62.62-.27,1.29-.45,1.85-.81,28.86-18.18,53.71-40.82,74.75-67.64,13.32-16.98,24.56-35.28,33.65-54.85,4.97-10.71,9.77-21.52,12.76-33,.24-.46.55-.91.71-1.4,6.96-21.69,11.25-43.92,13.04-66.61,2.11-26.71.03-53.19-5.03-79.45-3.29-17.06-8.52-33.58-14.93-49.69-12.55-31.54-30.3-59.9-52.95-85.15-9.56-10.66-19.59-20.88-31.02-29.61-7.48-6.75-15.5-12.76-24.11-17.99-.58-.74-1.26-1.32-2.23-1.48l-.08-.2-.21.06c-1.83-1.71-3.91-3.04-6.22-4.01-.28-.71-.92-.83-1.56-.94-3.35-2.04-6.62-4.21-10.05-6.09-21-11.54-42.92-20.8-66.28-26.44-.46-.07-1.11-.84-1.24.33l-.13-.1c-1.8-1.98-4.32-1.83-6.66-2.25-5.15-1.41-10.32-2.69-15.67-3.09-10.06-2.49-20.36-3.14-30.63-3.98-16.2-1.33-32.4-.84-48.55.83-11.03,1.14-22.04,2.45-32.78,5.38l-.3-.03-.15.26c-2.29-.14-4.4.68-6.55,1.28-11.53,2.62-22.78,6.17-33.8,10.41-20.84,8.03-40.73,17.92-58.96,30.93-2.53,2.92-6.21,4.22-9.28,6.37-20.66,14.45-38.32,32.08-54.17,51.45-15.54,18.99-28.19,39.91-38.36,62.3-14.21,31.27-22.37,64.07-25,98.25-1.77,23.08-.57,46.07,3.26,68.9,4.51,26.87,12.53,52.64,24.39,77.2,10.4,21.55,23.21,41.51,38.54,59.9,13.47,16.16,28.42,30.83,45,43.68,21.13,16.36,44.15,29.61,69.02,39.58,29.29,11.74,59.65,18.5,91.16,20.46,15.73.98,31.38.47,47.01-1.04,7.02-.68,14.1-1.24,20.93-3.21,5.71-.46,11.23-1.92,16.76-3.25,27.73-6.64,53.93-17.08,78.4-31.78.65-.1,1.27-.24,1.54-.96.37-.25.74-.5,1.11-.76Z"/>
            <path class="cls-1" d="M397.68,456.72c4.61-.85,9.19-.92,13.72.51,10.43,3.29,14.64,11.41,16.66,21.3,1.24,6.09.74,12.24.76,18.36.07,20.74-.02,41.49.06,62.23.01,2.98.24,5.77-3.58,6.5-5.21-.54-10.39-1.43-15.67-.3-1.86.4-2.47-1.26-2.55-2.92-.11-2.17-.21-4.34-.31-6.51.08-3.53.23-7.06.23-10.6.03-19.47.07-38.94.02-58.41-.02-5.68-2.12-9.28-5.64-10.36-6.24-1.93-10.09-.78-13.34,4-1.82,2.46-1.82,5.31-1.82,8.19.02,24.02-.03,48.03.1,72.05.02,3.01-.67,4.09-3.82,3.9-4.62-.28-9.28-.24-13.91,0-3.04.15-3.95-.81-3.91-3.9.17-13.51.09-27.02.07-40.52,0-1.49-.15-2.99-.23-4.48.31-16.41.35-32.81-.03-49.22.45-1.17.1-2.64,1.96-3.15,6.23-1.72,12.4-3.63,18.9-5.55v7.68c3.61-4.83,7.77-7.14,12.32-8.8Z"/>
            <path class="cls-1" d="M325.05,556.6c-11.28,11.55-31.23,9.87-38.83-1.23-5.65-8.25-7.38-17.56-6.15-27.3,2.41-19.08,13.76-28.83,33.12-28.94q10.65-.06,10.6-10.65c0-1.23.04-2.47-.1-3.68-.73-6.15-3.81-9.18-9.35-9.29-5.96-.11-10.16,2.99-10.65,8.93-.29,3.53-1.71,3.86-4.55,3.74-4.22-.19-8.46-.16-12.69.04-2.68.12-3.48-.76-3.46-3.47.14-20.54,16.38-29.74,34.07-28.47,18.76,1.35,28.17,15.21,28.2,32.17.04,24.02-.02,48.05.09,72.07.02,3.08-.65,4.39-4.01,4.13-3.93-.3-7.93-.29-11.86,0-3.6.27-5.11-.86-4.45-4.53.16-.92.02-1.89.02-3.53ZM323.92,526.35c0-1.76,0-2.72,0-3.67q0-9.63-9.64-8.48c-6.97.83-10.86,3.89-12.11,10.13-.93,4.68-1.04,9.5-.05,14.19,1.21,5.75,5.28,9.11,10.45,9.07,5.15-.04,9.16-3.54,10.58-9.08,1.1-4.29.67-8.65.75-12.18Z"/>
            <path class="cls-1" d="M208.75,449.14c.64-45.71,12.5-87.01,35.56-125.13,1.86-3.08,2.85-3.81,5.61-.74,4.88,5.42,5.04,5.2,1.28,11.77-15.29,26.78-25.17,55.38-28.98,86.05-4.1,33.03-1.57,65.5,8.28,97.31,11.67,37.72,31.87,70.28,60.16,97.79,2.01,1.96,2.32,3,.17,5.09-5.92,5.73-5.81,5.83-11.61-.02-16.45-16.61-30.22-35.18-41.41-55.73-14.48-26.59-23.28-54.91-27.11-84.89-1.39-10.86-1.67-21.76-1.97-31.5Z"/>
            <path class="cls-1" d="M506.6,590.04c-12.31,14.62-34.29,17.41-48.13,6.11-5.04-4.12-8.01-9.53-9.86-15.66-.55-1.83-.4-2.91,1.87-3.49,5.4-1.36,10.73-3.01,16.04-4.68,1.96-.62,2.3-.16,2.63,1.85,1.38,8.55,7.4,12.48,14.38,9.64,4.67-1.91,6.33-6.08,6.56-10.52.39-7.29.11-14.62.11-22.57-4.36,3.47-8.29,6.32-13.58,6.93-8.96,1.04-16.29-1.44-21.86-8.6-4.61-5.93-6.18-13.01-6.87-20.23-1.5-15.66-1.71-31.38.24-47,.87-6.98,3.51-13.63,8.23-19.18,10.98-8.88,22.91-8.85,33.18.24,1.38,1.22,2.43,1.16,4,.65,4.91-1.6,9.92-2.89,14.8-4.54,2.4-.81,3.41-.75,3.4,2.21-.09,37.27-.01,74.54-.18,111.8-.03,6.02-2.36,11.64-4.97,17.04ZM487.88,479.69c-.4-1.23-1.16-2.11-2.41-2.54l.04.04c-5.28-3.31-10.46-2.38-14.04,2.51-.69.29-.82.92-.93,1.55-1.18,1.73-1.47,3.71-1.6,5.72-.79,12.41-.52,24.82-.14,37.23.08,2.61.46,5.15,1.38,7.6,2.11,5.63,5.82,7.98,11.26,7.16,5.28-.8,8.75-4.42,8.8-10.15.12-13.92-.07-27.83-.13-41.75.16-.92.14-1.79-.56-2.51.14-1.85-.41-3.47-1.66-4.85h0Z"/>
            <path class="cls-1" d="M610.83,455.96c2.21.61,4.46,1.11,6.62,1.85,10.66,3.68,15.47,12.11,17.89,22.37.97,4.1,1.65,8.28,1.67,12.51.04,11.86.46,23.75-.12,35.58-.5,10.29-2.07,20.5-9.94,28.44-5.76,5.81-13.14,7.28-20.72,8.05-3.42.35-6.92-.14-10.37-.84-12.27-2.46-18.88-10.52-21.76-22.04-1.67-6.67-2.49-13.53-2.58-20.44.06-1.35.17-2.7.17-4.05.06-11.42-.43-22.87,1.44-34.2,2.09-12.65,7.66-22.58,21.05-26.17,5.47-1.47,11.06-1.09,16.62-1.06ZM615.89,510.14c-.37-8.95.82-18.15-1.72-27.09-1.79-6.3-5.56-8.57-11.98-7.53-4.23.69-6.79,3.69-7.78,9.77-1.84,11.37-1.01,22.85-1.06,34.29-.02,5.57-.06,11.19,1.2,16.69,1.73,7.55,8.38,11.18,14.71,7.97,4-2.03,4.93-5.94,5.66-9.86,1.49-7.98.65-16.05.98-24.23Z"/>
            <path class="cls-1" d="M651.04,324.04c2.06-.34,2.74-2.58,4.75-3.45,7.48,11.37,13.68,23.42,18.94,35.96,13.35,31.8,19.56,64.97,18.86,99.44-.04,2.17.02,4.35.03,6.53-1.4,8.88-1.67,17.88-3.13,26.77-6.7,40.69-22.75,77.25-47.92,109.85-7.01,9.07-14.75,17.49-22.92,25.54-1.77,1.74-2.71,1.83-4.52.02-5.95-5.95-5.97-5.8-.08-11.82,34.24-34.98,56.01-76.4,63.87-124.83,9.05-55.83-1.25-108.06-30-156.68-1.21-2.05-1.1-3.36.24-4.95.64-.8,1.27-1.6,1.91-2.39v.02Z"/>
            <path class="cls-1" d="M535,435.67c5.21-1.51,10.48-2.86,15.61-4.6,3.13-1.07,4.33-1.08,4.31,2.93-.14,34.9-.06,69.8-.03,104.69,0,1.63.12,3.26.19,4.89,0,.58,0,1.16,0,1.74-.28,5.97-.35,11.93.04,17.89-.92,1.63-2.49,1.39-3.98,1.39-4.77,0-9.56-.24-14.32.08-3.43.23-3.98-1.17-3.97-4.19.09-30,.06-60.01.06-90.01,0-10.23-.01-20.46.03-30.69,0-1.28-.59-2.78.89-3.73.36-.14.72-.29,1.09-.43l.08.03Z"/>
          </g>
          <path class="cls-1" d="M619.3,354.97c-1.87-4.68-5.15-8.06-9.26-10.68-3.39-2.16-3.35-5.92-1.92-8.33,3.46-5.83,3.76-11.82,1.58-17.64-3.29-8.8-2.44-16.45,3.73-23.56,1.97-2.27,3.18-5.06,4.16-7.58,5.73,6.32,7.2,14.22,7.58,22.54.63,13.91,1.45,27.82-3.62,41.22-.52,1.38-.91,2.84-2.25,4.04Z"/>
        </g>
        <path class="cls-1" d="M537.73,651.68c-.13.01-.28,0-.4.04-4.85,1.79-7.08.38-8.09-4.99-.46-2.47,2.26-1.77,2.93-3.09,8.91-3.26,17.44-7.41,25.94-11.54,4.07-1.98,4.38.67,5.64,2.98,1.38,2.54,1.58,4.02-1.73,5.43-8.46,3.61-8.37,3.81-4.61,12.15,3.45,7.66,6.79,15.38,10.4,22.97,1.07,2.24,1.05,3.63-1.26,4.7-6.88,2.25-6.85,2.24-9.93-4.53-2.31-5.06-4.71-10.08-7.07-15.12-.85-2.07-1.65-4.17-2.57-6.21q-2.91-6.48-9.26-2.79Z"/>
        <path class="cls-1" d="M530.76,671.93c.5,1.96-1.01,1.94-2.13,2.24-4.06,1.11-8.12,2.23-12.2,3.27-1.88.48-2.53,1.1-1.91,3.35,2.08,7.58,1.94,7.62,9.65,5.56,2.76-.74,5.51-1.46,8.26-2.22,4.36-1.21,7.31,1.45,6.88,6.15-.12,1.3-1.06,1.41-1.96,1.66-8.65,2.34-17.32,4.63-25.95,7.06-1.77.5-2.5.04-2.94-1.62-3.64-13.64-7.27-27.29-11.01-40.91-.46-1.67-.35-2.49,1.44-2.96,8.79-2.33,17.57-4.71,26.33-7.14,1.31-.36,1.97-.08,2.55,1.15,2.54,5.37,1.89,6.87-3.74,8.37-4.07,1.09-8.1,2.31-12.2,3.25-2.12.49-2.94,1.01-2.24,3.51,2.01,7.19,1.87,7.23,9.14,5.22,1.57-.43,3.14-.87,4.72-1.28,5.64-1.47,7.09-.4,7.32,5.33Z"/>
      </g>
    </g>
  </g>
</svg>