<?xml version="1.0" encoding="UTF-8"?>
<svg xmlns="http://www.w3.org/2000/svg" version="1.1" viewBox="0 0 902 902">
  <defs>
    <style>
      .cls-1 {
        fill: #f6f6f6;
      }

      .cls-2 {
        fill: #fefefe;
      }

      .cls-3 {
        fill: #fdfdfd;
      }
    </style>
  </defs>
  <!-- Generator: Adobe Illustrator 28.6.0, SVG Export Plug-In . SVG Version: 1.2.0 Build 709)  -->
  <g>
    <g id="Camada_1">
      <g>
        <path class="cls-1" d="M10945.41,2284.81c2.81.8,5.75.69,8.61.89,16.03,1.11,31.86,3.52,47.57,6.85,3.8.8,4.31,1.84,3.33,5.63-4.54,17.53-9.07,35.06-13.59,52.59-.98,3.78-1.47,4.14-5.43,2.9-11.28-3.53-22.77-6.22-34.48-7.75-13.24-1.72-26.49-2.09-39.81-.29-17.87,2.42-34.33,8.39-49.24,18.54-5.65,3.85-11.01,8.11-15.67,13.12-2.18,2.35-4.44,2.76-7.34,2.2-10.85-2.13-21.5-5.08-32.14-8.04-8.08-2.25-16.13-4.62-24.24-6.76-2.35-.62-2.35-1.4-1.28-3.33,14.52-26.29,35.51-45.66,62.51-58.61,18.47-8.86,37.95-14.12,58.29-16.34,7.78-.85,15.58-1.37,23.41-1.6h19.49Z"/>
        <path class="cls-1" d="M11303.29,2686.17c-.68,3.2-1.17,6.46-2.08,9.6-6.25,21.58-20.2,35.72-41.99,41.09-30.74,7.57-62.09-10-70.19-42.37-6.97-27.83,6.47-55.54,32.56-67.52,9.97-4.58,20.54-5.96,31.39-4.38,23.78,3.47,39.44,16.82,47.47,39.34,1.47,4.13,1.8,8.51,2.82,12.74v11.5ZM11245.42,2712.7c11.1-.08,19.71-4.71,24.7-14.71,5.49-10.99,5.78-22.44.8-33.72-4.67-10.58-13.1-16.13-24.64-16.44-11.25-.31-20.02,4.33-25.51,14.32-4.17,7.6-5.22,15.82-3.92,24.38,2.36,15.58,13.05,26.4,28.57,26.16Z"/>
        <path class="cls-1" d="M10503.55,2673.17c1.23-1.97.91-4.29,1.37-6.43,4.57-21.06,17.66-34.25,37.75-40.91,12.04-3.99,24.49-4.32,37-3.45,6.54.46,13.02,1.48,19.45,2.78,1.71.34,2.48.56,2.07,2.77-1.14,6.11-1.88,12.3-2.71,18.47-.44,3.27-.44,3.38-3.74,2.75-9.45-1.8-18.99-2.36-28.56-1.84-6.07.33-12.01,1.45-17.56,4.18-7.17,3.53-12.04,9.03-14.34,16.68-2.48,8.28-2.5,16.66.39,24.78,4.3,12.07,13.55,17.98,25.88,19.65,5.64.76,11.27.66,16.94.11,1.88-.18,2.33-.77,2.31-2.55-.08-9.49.02-18.99-.08-28.48-.02-1.99.36-2.72,2.54-2.68,7.58.15,15.16.11,22.73.02,1.63-.02,2.09.41,2.08,2.06-.06,17.07-.05,34.14,0,51.22,0,1.43-.4,2.06-1.82,2.36-15.96,3.36-32.02,5.22-48.3,2.98-16.77-2.31-31.48-8.71-42.2-22.46-6.18-7.93-9.48-17.04-10.73-26.94-.07-.54.17-1.19-.47-1.57v-13.5Z"/>
        <path class="cls-1" d="M10980.9,2894.6c-.44-.91-2.25-.07-2.14-1.52.1-1.3.29-2.79,2.37-2,2.09.79,4.23.75,6.33-.04,1.03-.39,1.72-1.19,1.7-2.24-.02-1.19-.84-1.9-2.01-2.23-2.4-.67-4.79.1-7.42.02-.03-1.78.6-3.39,1.2-4.94.78-2.01.08-2.61-1.87-3.01-8.15-1.66-14.22-6.16-17.86-13.72-5.85-12.14-2.88-28.35,7.07-35.9,8.98-6.82,19.12-7.72,29.47-3.55,6.7,2.7,11.31,10.47,11.06,17.32-.03.81-.25,1.27-1.1,1.31-.08,0-.17,0-.25.02-1.95.39-4.17,1.53-5.78.95-1.65-.6-.87-3.35-1.47-5.1-1.85-5.34-6.3-8.68-11.98-8.89-4.13-.15-8.18.07-11.82,2.23-8.42,4.99-9.87,12.93-9.08,21.81.71,7.95,6.08,14.28,13.85,15.96,7.98,1.72,15.18-.31,21.58-5.14,1.68-1.27,2.3-1.29,3.43.52,2.9,4.7,2.97,4.61-1.87,7.67-5.32,3.37-11.12,5.09-17.38,5.38-1.44.07-2.96,2.18-2.63,3.53.19.76.73.48,1.16.51,1.08.07,2.18-.03,3.23.17,2.43.45,4.19,1.85,4.51,4.36.3,2.37-.95,4.11-2.99,5.32-.76.45-1.77.39-2.33,1.21h-7Z"/>
        <path class="cls-1" d="M10780.79,2452.19c-5-1.46-10.01-2.9-15.01-4.39-3.58-1.07-7.16-2.17-10.71-3.33-7.08-2.32-12.21-6.96-15.67-13.49-3.35-6.32-6.72-12.64-9.94-19.02-.87-1.71-2.02-2.6-3.82-3.16-5.31-1.66-10.57-3.5-15.76-5.53-5.63-2.21-9.99-5.85-13.3-10.87-10.02-15.23-20.06-30.43-30.08-45.66-.68-1.04-1.31-2.13-1.81-3.27-.39-.88-.95-1.91-.12-2.81.75-.8,1.75-.76,2.79-.51,4.52,1.1,9.06,2.13,13.59,3.23,36,8.76,71.99,17.55,107.99,26.31,35.67,8.68,71.35,17.33,107.02,25.99,19.62,4.76,39.33,9.16,58.78,14.57,11.81,3.29,23.28,7.43,33.74,14,15.17,9.53,24.8,23.35,30.88,39.91,5.17,14.06,7.78,28.68,9.46,43.5,1.85,16.35,3.65,32.71,5.45,49.07.43,3.88.72,7.78,1.17,11.66.16,1.38-.36,1.94-1.63,2.26-18.14,4.53-36.36,8.61-54.93,11.16-18.19,2.5-36.45,3.58-54.76,2.85-29.04-1.16-57.12-6.74-83.17-20.24-35.06-18.18-58.63-46.12-70.29-83.92-2.4-7.79-3.92-15.79-5.11-23.85-.23-1.58.47-2.12,1.81-2.34,2.64-.44,5.3-.54,7.97-.49,1.84.03,3.6-.29,5.3-.89l.12-.7ZM10817.45,2486.24c.05-.37-.2-.37-.45-.35-.07,0-.12.09-.19.14.21.07.43.14.64.21.21.23.37.56.64.69,3.96,1.93,7.94,3.83,11.9,5.76,1.95.95,3.7,2.11,5.13,3.84,7.83,9.48,16.67,17.88,26.92,24.77,20.66,13.89,43.82,19.1,68.28,19.85,9,.28,17.98-.23,26.95-.98,9.86-.83,19.66-2.18,29.44-3.65,1.6-.24,2.17-.77,1.87-2.59-.88-5.33-1.47-10.7-2.2-16.06-1.48-10.87-2.49-21.81-4.97-32.52-2.12-9.14-5.2-17.88-10.84-25.54-7.06-9.59-17-14.73-28.11-17.88-26.71-7.56-53.45-14.99-80.18-22.47-36.25-10.15-72.49-20.31-108.75-30.42-1.43-.4-2.85-1.19-4.81-.87,3.99,8.58,7.84,16.95,11.79,25.28,1.13,2.37,3.21,3.81,5.68,4.58,3.41,1.06,6.84,2.05,10.29,2.99,35.36,9.62,70.72,19.22,106.09,28.83,4.33,1.18,8.67,2.33,12.99,3.54.9.25,2.15.41,1.84,1.86-.34,1.59-1.56.57-2.2.46-4.09-.72-8.14-1.63-12.21-2.45-25.58-5.12-51.16-10.23-76.74-15.34-3.58-.72-7.16-1.48-10.76-2.11-.56-.1-2.35-.91-1.65.94,2.59,6.79,5.61,12.78,13.8,14.99,18.29,4.93,36.39,10.6,54.56,15.98,15.78,4.67,31.55,9.35,47.33,14.02.79.23,1.93.34,1.71,1.4-.25,1.21-1.35.54-2.06.4-3.84-.73-7.66-1.54-11.49-2.28-21.13-4.07-42.26-8.15-63.39-12.18-3.36-.64-6.67-1.59-10.23-1.75,2.87,8.12,4.61,9.97,11.74,12.26,18.75,6.04,37.52,12.04,56.28,18.06,14.01,4.5,28,9.04,42.03,13.48,1.67.53,2.23,1.59,1.8,2.96-.43,1.37-1.69.51-2.52.31-13.56-3.31-27.1-6.67-40.65-10.02-22.42-5.54-44.84-11.1-67.28-16.56-2.63-.64-5.19-1.78-8-1.59Z"/>
        <path class="cls-1" d="M10801.22,2677.35c5.99,1.95,11.04,4.57,14.89,9.05,8.3,9.67,8.95,25.09,1.55,36.25-6.07,9.16-14.8,13.79-25.62,13.91-21.32.23-42.65.05-63.97.12-1.77,0-2.19-.48-2.19-2.21.05-36.23.05-72.46,0-108.7,0-1.85.61-2.13,2.26-2.12,18.74.06,37.48.03,56.22.04,8.28,0,16.25,1.34,23.23,6.14,16.19,11.11,14.75,36.33-2.56,45.63-1.08.58-2.2,1.09-3.82,1.88ZM10770.49,2690.57c-5.18,0-9.43.07-13.67-.03-1.53-.04-1.98.39-1.95,1.94.1,5.41.04,10.81.04,16.22,0,4.97,0,5.07,5.07,4.95,8.05-.19,16.13.64,24.16-.46,6.04-.83,9.59-4.87,9.67-10.76.08-5.92-3.32-10.17-9.09-11.34-5.03-1.03-10.12-.24-14.24-.51ZM10768.06,2669c3.6-.1,7.86.31,12.08-.3,6.85-1,9.77-5.54,9.75-11.75-.02-6.1-4.06-9.87-10.25-10.3-7.65-.54-15.3-.12-22.95-.3-1.44-.04-1.83.45-1.82,1.85.07,6.32.09,12.65-.01,18.97-.03,1.68.68,1.89,2.07,1.86,3.49-.07,6.99-.02,11.12-.02Z"/>
        <path class="cls-1" d="M11046.01,2736.65c-12.06,0-23.64-.01-35.21.02-1.05,0-1.69-.37-2.27-1.18-11.97-16.69-23.96-33.36-35.95-50.04-1.61-2.25-2.23-4.72-2.21-7.5.01-1.81.38-2.42,2.32-2.38,5.91.14,11.83.12,17.74.02,6.1-.1,10.51-3.08,12.82-8.65,2.26-5.45,1.75-10.77-2.2-15.41-2.38-2.8-5.52-4.3-9.2-4.32-13.41-.1-26.82-.09-40.22-.19-1.49-.01-1.74.51-1.78,1.85-.09,3.02.59,5.72,2.41,8.19,2.72,3.68,5.29,7.46,7.98,11.16.81,1.12,1.21,2.23,1.21,3.65-.04,20.74-.06,41.47.02,62.21,0,2.03-.41,2.66-2.55,2.62-8.16-.14-16.32-.1-24.48-.02-1.59.01-2.1-.38-2.1-2.05.05-36.31.05-72.62,0-108.93,0-1.68.51-2.04,2.1-2.04,20.57.05,41.14-.04,61.71.07,12.77.07,23.59,4.48,31.12,15.27,11.82,16.94,6.56,42.83-10.88,53.61-1.5.93-1.69,1.44-.59,2.91,9.67,13.02,19.25,26.11,28.85,39.18.38.52.74,1.05,1.37,1.94Z"/>
        <path class="cls-1" d="M10722.01,2736.65c-9.26,0-18.26-.02-27.25.03-1.31,0-1.64-.66-2-1.7-2.07-5.87-4.25-11.69-6.28-17.57-.49-1.4-1.15-1.88-2.65-1.88-11.41.07-22.82.07-34.24,0-1.69-.01-2.49.45-3.06,2.08-2.01,5.79-4.23,11.52-6.29,17.29-.41,1.14-.82,1.79-2.21,1.78-8.91-.06-17.82-.03-27.11-.03,1.55-4.19,3.03-8.18,4.51-12.18,12.17-32.8,24.36-65.59,36.44-98.42.71-1.92,1.58-2.43,3.53-2.4,7.66.12,15.33.07,22.99.03,1.28,0,2.07.18,2.58,1.58,13.51,36.72,27.06,73.43,40.61,110.14.11.3.21.61.44,1.26ZM10666.77,2653c-.29.21-.39.25-.41.31-3.92,12.91-7.83,25.82-11.76,38.72-.45,1.47.27,1.62,1.49,1.61,6.91-.04,13.82-.06,20.72.01,1.68.02,1.92-.41,1.44-2-3.87-12.84-7.65-25.71-11.48-38.66Z"/>
        <path class="cls-1" d="M10929.99,2736.65c-9.28,0-18.19-.02-27.09.02-1.21,0-1.7-.43-2.1-1.57-2.07-5.95-4.3-11.84-6.38-17.79-.46-1.3-1.04-1.78-2.46-1.77-11.58.06-23.16.07-34.73-.01-1.58-.01-2.18.61-2.65,1.95-2.09,5.86-4.28,11.68-6.38,17.53-.37,1.03-.72,1.68-2.02,1.67-8.99-.06-17.98-.03-27.26-.03,1.94-5.3,3.79-10.42,5.68-15.52,11.75-31.63,23.52-63.25,35.2-94.9.71-1.93,1.54-2.63,3.65-2.59,7.66.14,15.33.09,22.99.02,1.38-.01,2.04.37,2.53,1.68,13.49,36.64,27.02,73.26,40.53,109.88.14.38.26.76.49,1.43ZM10874.71,2652.96c-.22.26-.45.42-.52.64-3.89,12.84-7.76,25.69-11.65,38.53-.4,1.33.2,1.52,1.35,1.52,6.99-.03,13.99-.06,20.98.02,1.57.02,1.84-.5,1.43-1.88-3.87-12.91-7.72-25.83-11.59-38.82Z"/>
        <path class="cls-1" d="M11135.98,2623.7c16.07,0,32.14.06,48.21-.07,2.42-.02,2.82.76,2.78,2.91-.13,6.91-.11,13.82,0,20.73.02,1.75-.48,2.24-2.22,2.23-10.66-.08-21.32.02-31.98-.09-2.01-.02-2.44.59-2.44,2.51.06,27.31.01,54.62.09,81.94,0,2.25-.53,2.89-2.83,2.85-7.91-.15-15.82-.13-23.73,0-2.06.03-2.61-.46-2.61-2.57.08-27.23.02-54.46.11-81.69,0-2.35-.46-3.09-2.95-3.05-10.49.15-20.98.02-31.47.11-1.88.02-2.39-.51-2.37-2.38.11-6.99.11-13.99,0-20.98-.03-1.92.43-2.51,2.45-2.5,16.32.09,32.64.05,48.96.05Z"/>
        <path class="cls-1" d="M11048.24,2679.91c0-17.74.06-35.48-.07-53.21-.02-2.63.76-3.1,3.17-3.06,7.99.15,15.99.1,23.98.02,1.62-.02,2.07.42,2.07,2.06-.05,36.31-.05,72.62,0,108.93,0,1.69-.52,2.05-2.1,2.04-8.16-.07-16.32-.11-24.48.02-2.06.03-2.63-.47-2.62-2.58.09-18.07.05-36.14.05-54.21Z"/>
        <path class="cls-1" d="M10895.53,2775.3c12.6,0,24.74-.15,36.87.03,22.15.33,44.3.73,66.44,1.34,22.72.63,45.43,1.49,68.12,2.86,12.88.78,25.77,1.27,38.64,2.14,16.43,1.11,32.85,2.44,49.27,3.74,10.69.85,21.38,1.73,32.06,2.74,11.92,1.13,23.82,2.4,35.72,3.66,8.59.91,17.19,1.84,25.77,2.84,6.68.78,13.35,1.67,20.02,2.5.57.07,1.32,0,1.31.8-.02.87-.82.66-1.35.63-5.4-.33-10.8-.68-16.2-1.04-9.3-.62-18.59-1.3-27.89-1.86-16.95-1.02-33.9-2.02-50.85-2.95-9.89-.54-19.79-.98-29.69-1.37-23.29-.92-46.59-1.86-69.88-2.67-37.37-1.3-74.76-1.9-112.14-2.44-16.74-.24-33.48-.13-50.22-.12-1.5,0-2.66-.38-3.84-1.34-3.88-3.14-7.86-6.15-12.16-9.49Z"/>
        <path class="cls-1" d="M10871.9,2786.35c-10.73,0-21.45-.13-32.18.03-23.57.34-47.14.7-70.7,1.28-23.64.59-47.28,1.25-70.91,2.31-17.47.79-34.94,1.36-52.41,2.18-13.89.66-27.76,1.55-41.64,2.34-12.47.71-24.93,1.37-37.39,2.14-8.22.51-16.44,1.17-24.65,1.77-.83.06-1.67.21-2.49.13-.82-.07-2.23.63-2.34-.52-.14-1.36,1.34-.77,2.13-.87,11.87-1.49,23.74-2.99,35.62-4.38,7.02-.82,14.06-1.42,21.09-2.14,7.61-.78,15.21-1.66,22.82-2.38,8.28-.78,16.57-1.43,24.86-2.14,9.2-.78,18.4-1.59,27.6-2.32,7.55-.6,15.11-1.12,22.67-1.61,12.79-.83,25.58-1.67,38.37-2.38,11.47-.64,22.95-1.11,34.43-1.63,23.63-1.07,47.27-1.73,70.91-2.31,5-.12,9.99-.14,14.99-.21.75-.01,1.44.05,2.14.45,5.72,3.21,11.46,6.38,17.19,9.57-.04.23-.07.46-.11.69Z"/>
        <path class="cls-1" d="M10736.99,2851.11c0-8.25.05-16.49-.04-24.74-.02-1.73.24-2.46,2.25-2.42,7.41.15,14.84-.21,22.24.16,18.83.95,27.81,15.03,25.71,31.91-1.74,13.97-12.89,22.57-27.13,22.61-7,.02-14-.05-20.99.04-1.63.02-2.09-.42-2.08-2.06.08-8.5.04-16.99.04-25.49ZM10745.38,2851.18c0,6.08.05,12.16-.03,18.23-.02,1.54.45,2,1.97,1.97,4.08-.09,8.16.05,12.24-.05,9.83-.24,16.58-5.39,18.67-14.14.86-3.61.87-7.22.2-10.88-1.46-7.94-7.8-13.72-15.82-14.72-5.07-.63-10.14-.23-15.2-.48-1.68-.08-2.09.48-2.06,2.09.09,5.99.04,11.99.04,17.98Z"/>
        <path class="cls-1" d="M11064.86,2851.22c.03-16.08,12.04-28.07,28.09-28.06,16.13.02,28.23,12.13,28.23,28.27,0,15.98-12.27,28.1-28.44,28.06-15.97-.04-27.91-12.15-27.89-28.28ZM11112.88,2851.53c.07-11.75-8.17-20.35-19.56-20.41-11.59-.06-20.07,8.33-20.28,20.07-.21,11.41,8.37,20.3,19.69,20.4,11.68.1,20.08-8.26,20.15-20.05Z"/>
        <path class="cls-1" d="M10685.7,2851.23c0-8.24.08-16.49-.05-24.73-.03-2.13.62-2.58,2.65-2.56,12.49.09,24.98.09,37.47,0,1.83-.01,2.42.38,2.37,2.31-.12,4.96-.02,4.97-4.91,4.97-9.08,0-18.15.04-27.23-.04-1.8-.02-2.52.39-2.44,2.34.15,3.74.12,7.5,0,11.24-.05,1.58.45,1.96,1.97,1.95,8.16-.07,16.32.03,24.48-.08,1.86-.02,2.41.45,2.38,2.34-.08,5.14,0,5.14-5.01,5.14-7.24,0-14.49.04-21.73-.03-1.56-.02-2.13.3-2.08,2.01.14,4.33.14,8.66,0,12.99-.05,1.82.6,2.19,2.27,2.18,9.91-.07,19.82.03,29.73-.08,2.14-.03,2.62.65,2.56,2.66-.14,4.8-.04,4.8-4.77,4.8-11.74,0-23.48-.05-35.22.05-1.96.02-2.51-.49-2.48-2.47.11-8.33.05-16.65.05-24.98Z"/>
        <path class="cls-1" d="M10795.44,2841.82c0-5.33.04-10.66-.03-15.99-.02-1.35.28-1.84,1.76-1.88,6.67-.16,6.67-.22,6.67,6.5,0,8.08.01,16.15,0,24.23,0,2.34.1,4.67.74,6.92,1.72,6.03,6.43,9.64,12.79,10,5.98.34,11.5-.49,15.26-5.86,2.08-2.96,2.82-6.35,2.83-9.9.04-9.74.11-19.48-.05-29.22-.04-2.32.7-2.72,2.8-2.67,5.72.13,5.73.04,5.72,5.88,0,8.66.12,17.32-.03,25.98-.15,8.55-3.12,15.76-10.79,20.37-9.5,5.71-24.33,4.19-31.54-3.22-4.3-4.41-5.9-9.93-6.09-15.89-.16-5.07-.03-10.16-.03-15.24h-.01Z"/>
        <path class="cls-1" d="M10851.91,2851.31c.02-21.05,19.2-34.12,38.46-26.2,7.07,2.91,11.6,9.65,11.74,17.32.02,1.16-.24,1.59-1.44,1.74-1.88.24-4.02,1.49-5.53.92-1.63-.61-.91-3.29-1.48-5.02-1.77-5.37-6.2-8.7-11.89-9-7.26-.38-13.78,1.21-17.78,7.72-4.98,8.09-4.96,16.62-.21,24.82,3.63,6.27,11.97,9.28,19.92,7.79,4.82-.9,9.25-2.69,13.01-5.87,1.28-1.08,1.94-.88,2.57.48.07.15.16.29.25.43,2.99,4.6,3.04,4.68-1.56,7.56-8.36,5.23-17.36,6.89-26.96,4.34-11.7-3.11-19.45-13.27-19.09-27.03Z"/>
        <path class="cls-1" d="M10957.22,2878.5q-8.13.57-11.02-6.62-2.12-5.28-7.78-5.28c-6.5,0-13,.08-19.49-.05-1.75-.04-2.48.59-3.04,2.11-1.04,2.8-2.33,5.51-3.36,8.31-.48,1.31-1.16,1.78-2.55,1.7-2.07-.12-4.16-.03-6.43-.03.41-2.32,1.53-4.23,2.36-6.23,6.38-15.49,12.8-30.96,19.16-46.45.58-1.42,1.27-2.11,2.9-1.99,2.56.2,5.7-.71,7.55.48,1.71,1.1,2.05,4.34,2.97,6.64,6,15.11,11.99,30.23,17.98,45.34.24.61.46,1.23.77,2.07ZM10941.85,2860.08c-3.7-9.27-7.29-18.28-11.07-27.74-4.04,9.54-7.84,18.53-11.74,27.74h22.81Z"/>
        <path class="cls-1" d="M11009.88,2878.63c2.58-6.22,5.05-12.18,7.52-18.14,4.77-11.49,9.56-22.97,14.27-34.48.57-1.4,1.17-2.19,2.83-2.04,2.56.23,5.7-.95,7.54.46,1.71,1.3,2.07,4.38,2.99,6.69,6.26,15.7,12.5,31.41,18.91,47.51-2.69,0-5.13-.03-7.57.01-1.19.02-1.24-.91-1.54-1.63-1.17-2.84-2.38-5.66-3.41-8.54-.48-1.35-1.08-1.93-2.62-1.91-7.83.09-15.66.08-23.49,0-1.49-.01-2.2.43-2.72,1.84-1.09,2.95-2.43,5.81-3.58,8.74-.37.94-.73,1.56-1.9,1.52-2.31-.08-4.62-.02-7.23-.02ZM11037.39,2832.34c-3.91,9.23-7.53,17.77-11.16,26.3-.38.9-.64,1.58.79,1.57,7.05-.02,14.1,0,21.45,0-3.68-9.26-7.25-18.22-11.08-27.86Z"/>
        <path class="cls-1" d="M11025.65,2816.58c-2.98-3.7-2.84-4.94.88-7.69,2.61-1.94,5.43-2.45,8.38-.87,1.9,1.01,3.68,2.23,5.57,3.28,2.68,1.49,5.07,1.03,7.19-1.14.44-.45.63-2.09,1.63-1.02.84.9,2.66,1.74,1.82,3.42-1.68,3.36-5.94,7.27-11.07,4.72-1.41-.7-2.77-1.5-4.09-2.34-4.74-3-6.68-2.72-10.31,1.64Z"/>
        <path class="cls-1" d="M10863.73,2775.79c4.28-.71,7.83-.45,11.32,1.8,4.59,2.96,9.5,5.4,14.23,8.32-4.85-.34-9.89,1.62-14.39-2.32-3.28-2.87-7.16-5.05-11.15-7.8Z"/>
        <path class="cls-1" d="M10904.47,2785.94c-5.26.34-9.84.68-13.91-2.95-3.15-2.81-6.94-4.92-10.89-7.65,4.63-.36,8.44-.46,12.02,2.27,3.91,2.98,8.24,5.41,12.78,8.33Z"/>
        <path class="cls-1" d="M10817.45,2486.24c-.21-.07-.43-.14-.64-.21.06-.05.12-.14.19-.14.25-.02.5-.02.45.35,0,0,0,0,0,0Z"/>
      </g>
      <g>
        <path class="cls-3" d="M708.07,378.88c0-22.08,0-43.59,0-65.1,0-10.55.08-21.1-.04-31.64-.03-2.75.55-3.98,3.65-3.86,6.37.24,12.77.18,19.15,0,2.79-.07,3.89.64,3.89,3.68-.08,55.23-.08,110.47-.03,165.71,0,2.48-.65,3.41-3.25,3.37-7.91-.14-15.82-.18-23.73.02-2.95.08-3.96-1.06-4.74-3.77-11.05-38.36-22.23-76.69-33.41-115.02-.4-1.36-.41-2.95-2.22-4.72,0,2.04,0,3.33,0,4.62,0,38.16-.04,76.33.09,114.49.01,3.4-.74,4.56-4.28,4.39-6.23-.3-12.49-.25-18.73,0-3.23.13-3.88-1-3.87-4.04.09-48.02.06-96.04.06-144.05,0-6.94.18-13.88-.06-20.81-.11-3.3,1.19-3.9,4.14-3.86,9.85.16,19.71.18,29.56,0,2.91-.05,4.05.92,4.84,3.69,8.76,30.67,17.65,61.3,26.56,91.92.44,1.51.42,3.3,2.43,4.99Z"/>
        <path class="cls-3" d="M358.89,278.37c5.83,0,11.68.31,17.48-.11,3.79-.27,4.65,1.36,5.19,4.55,3.66,21.46,7.47,42.9,11.21,64.35,5.77,33.07,11.46,66.15,17.37,99.19.67,3.75.05,4.87-3.86,4.71-7.21-.29-14.44-.28-21.64,0-3.33.13-4.2-1.21-4.63-4.15-1.16-7.96-2.72-15.86-3.84-23.83-.36-2.56-1.1-3.53-3.82-3.49-9.85.16-19.71.13-29.56.01-2.43-.03-3.38.75-3.73,3.2-1.16,8.1-2.74,16.14-3.79,24.25-.42,3.27-1.78,4.07-4.83,3.97-6.24-.21-12.5-.28-18.73.01-3.79.18-4.73-.77-4.03-4.63,4.58-25.24,8.95-50.53,13.36-75.8,5.03-28.83,9.95-57.68,15.12-86.48,1.23-6.87-.18-5.61,6.91-5.77,5.27-.12,10.55-.02,15.82-.02v.02ZM365.16,355.44c1.05-.75.43-1.27-.26-1.77-.18-1.08-.36-2.16-.53-3.24.93-.97.64-1.77-.36-2.46-.14-.96-.28-1.93-.42-2.89.61-.91.51-1.67-.46-2.26-.17-1.07-.35-2.13-.52-3.2.89-.72.61-1.29-.23-1.79-.21-1.07-.41-2.14-.62-3.2.78-.63.64-1.17-.17-1.64-.47-2.79-.94-5.58-1.41-8.37.88-.67.49-1.17-.23-1.63-.2-1.4-.41-2.8-.61-4.21.93-.75.55-1.3-.28-1.78-.18-.99-.36-1.97-.54-2.96.03-1.5.5-3.13-1.65-4.77-.11,2.17-1.47,3.52-.53,5.34-.22,1.4-.43,2.81-.65,4.21-.86.56-.89,1.27-.37,2.07-.24,1.79-.45,3.58-.73,5.36-3.49,21.78-6.91,43.57-10.56,65.32-.64,3.82.28,4.81,4.08,4.62,6.23-.31,12.5-.3,18.73,0,3.74.18,4.78-.71,4.08-4.61-2.14-12.02-3.87-24.1-5.76-36.16Z"/>
        <path class="cls-3" d="M846.87,450.97c-3.75,0-7.5-.13-11.24.05-2.61.12-3.59-.78-3.96-3.43-1.12-8.1-2.7-16.14-3.82-24.24-.41-3-1.59-3.82-4.54-3.76-9.57.2-19.16.14-28.73.02-2.49-.03-3.65.52-4.03,3.26-1.17,8.37-2.77,16.68-4.02,25.05-.36,2.44-1.33,3.17-3.77,3.11-6.8-.17-13.61-.2-20.4,0-3.11.09-3.71-.89-3.18-3.85,4.73-26.49,9.33-53,13.96-79.5,4.94-28.28,9.94-56.55,14.76-84.85.57-3.32,1.61-4.68,5.23-4.61,11.52.24,23.04.21,34.56.04,3.32-.05,4.77.74,5.38,4.34,5.39,31.87,11.01,63.7,16.58,95.53,3.99,22.81,7.94,45.64,12.12,68.42.65,3.56.11,4.79-3.65,4.5-3.72-.29-7.49-.06-11.24-.06h0ZM813.24,333.78c.97-1.02.57-1.86-.36-2.62-.2-1.06-.39-2.13-.59-3.19,1.05-.83.5-1.35-.35-1.8-.15-1.07-.3-2.13-.45-3.2,1.01-.78.59-1.33-.3-1.8-.21-1.34-.43-2.67-.64-4.01.94-.76.71-1.34-.27-1.81-.1-.38-.2-.76-.3-1.15.79-1.64.96-3.83-.84-4.13-1.67-.28-1.4,2.2-1.75,3.55-.07.28.34.68.53,1.03-.13.79-.26,1.58-.39,2.37-1.31.69-1.43,1.57-.42,2.63-.18,1.06-.35,2.13-.53,3.19-.92.44-1.33.99-.36,1.8-.15,1.07-.3,2.13-.44,3.2-1.19.7-1.41,1.56-.44,2.63-.18,1.07-.35,2.14-.53,3.21-.71.51-1.33,1.02-.27,1.8-.19,1.07-.38,2.13-.57,3.2-1.06.91-1.14,1.96-.43,3.11-2.65,16.56-5.28,33.12-7.98,49.67-.48,2.95-.66,4.98,3.53,4.77,6.78-.33,13.59-.2,20.38-.05,2.74.06,3.71-.55,3.14-3.51-1.11-5.7-1.85-11.48-2.75-17.22,1.02-1.05.62-1.88-.39-2.62-.17-1.07-.34-2.13-.5-3.2.89-.75.5-1.26-.33-1.67-.16-1.11-.31-2.22-.47-3.33.93-1.05.73-1.92-.43-2.63-.15-1.07-.29-2.13-.44-3.2,1-.82.62-1.38-.36-1.8-.19-1.34-.38-2.68-.56-4.01.95-.82.69-1.39-.37-1.8-.66-4.13-1.31-8.25-1.97-12.38.88-.72.43-1.21-.28-1.65-.17-1.12-.33-2.24-.5-3.35Z"/>
        <path class="cls-3" d="M531.21,364.64c0-27.33.04-54.66-.06-82-.01-3.06.5-4.4,4.02-4.38,24.28.16,48.56.15,72.84.02,3.29-.02,4.39.87,4.24,4.19-.25,5.54-.28,11.11-.01,16.64.17,3.58-1.17,4.36-4.53,4.32-14.15-.18-28.3.02-42.45-.15-3.27-.04-4.25.86-4.21,4.17.17,13.32.14,26.64,0,39.96-.03,2.95.93,3.75,3.79,3.71,10.96-.14,21.92.05,32.88-.1,2.96-.04,4.26.55,4.11,3.85-.26,5.82-.23,11.66-.03,17.48.11,2.97-.94,3.77-3.8,3.73-10.96-.14-21.92.03-32.88-.12-2.91-.04-4.13.47-4.09,3.81.2,14.01.21,28.03,0,42.04-.06,3.63,1.19,4.36,4.52,4.32,14.15-.16,28.3.03,42.45-.14,3.16-.04,4.43.6,4.26,4.04-.29,5.95-.21,11.93-.07,17.89.05,2.36-.71,3.15-3.06,3.14-24.97-.06-49.95-.09-74.92,0-3.23.01-3.07-1.76-3.07-4,.04-27.47.02-54.94.02-82.41h.04Z"/>
        <path class="cls-3" d="M447.23,377.13c0-23.04-.06-46.08.08-69.13.02-3.52-.76-4.9-4.57-4.74-7.76.31-15.54.04-23.32.16-2.48.04-3.49-.72-3.44-3.31.14-6.24.13-12.49.02-18.74-.04-2.41.92-3.05,3.2-3.05,28.59.06,57.19.08,85.78,0,2.42,0,3.13.76,3.09,3.08-.12,6.24-.16,12.49,0,18.74.06,2.6-.88,3.32-3.37,3.27-7.77-.14-15.55.09-23.32-.16-3.66-.12-4.62,1.09-4.61,4.73.13,46.22.05,92.45.17,138.67,0,3.42-.77,4.54-4.3,4.41-7.21-.27-14.44-.25-21.65.03-3.28.13-3.85-1.02-3.83-4.01.12-23.32.06-46.64.07-69.96Z"/>
        <path class="cls-3" d="M40.04,401.31c0-42.88,0-85.76,0-128.64q0-5.49,5.43-5.48c73.27,0,146.54,0,219.81,0,5.85,0,5.87-.02,5.87,5.85,0,86.04-.02,172.08.08,258.12,0,3.51-1,4.42-4.43,4.42-74.24-.09-148.49-.1-222.73,0-3.52,0-4.09-1.27-4.08-4.38.08-43.3.06-86.59.06-129.89h-.01ZM270.01,401.79c0-42.61,0-85.22,0-127.84q0-5.33-5.5-5.33c-72.04,0-144.07,0-216.11,0q-7.02,0-6.91,6.71c.02,1.39.01,2.78.01,4.16,0,83.42.03,166.84-.09,250.26,0,3.93,1.19,4.78,4.92,4.78,73.01-.1,146.02-.1,219.03.03,4.01,0,4.73-1.29,4.72-4.94-.11-42.61-.07-85.22-.07-127.84Z"/>
        <path class="cls-3" d="M861.66,569.28H40.93c0-.22,0-.45,0-.67h820.62c.04.22.07.45.11.67Z"/>
        <path class="cls-3" d="M343.01,497.98c0-6.51-.04-13.02.01-19.53.06-7,3.17-10.16,10.13-10.32,3.88-.09,7.76-.13,11.63,0,5.82.21,9.19,3.15,9.29,8.98.23,14.12.21,28.25,0,42.37-.08,5.04-2.94,7.89-7.98,8.54-5.09.66-10.24.66-15.33-.04-5.03-.68-7.61-3.85-7.7-9.23-.11-6.92-.03-13.85-.03-20.78h-.03ZM352.46,497.9c0,5.96.11,11.92-.04,17.88-.09,3.58,1.41,4.94,4.94,4.95,6.35.03,7.39-.32,7.43-4.47.12-12.06,0-24.12.03-36.18.01-4.8-3.32-4.61-6.62-4.68-3.5-.08-5.94.7-5.79,5.03.2,5.81.05,11.64.04,17.46Z"/>
        <path class="cls-3" d="M470.3,468.1c1.11,0,2.22-.01,3.33,0,8.26.11,13.1,6.82,10.77,14.83-.66,2.27-2.41,1.3-3.76,1.5-3.76.54-6.56.16-5.85-4.94.43-3.08-1.92-4-4.58-4.01-2.72,0-4.53.96-4.47,4.12.24,13.39-2.1,10.38,9.31,15.8,1.13.54,2.21,1.18,3.37,1.62,4.52,1.68,6.37,4.87,6.07,9.66-.27,4.29.02,8.61-.28,12.89-.35,5.05-2.68,7.49-7.66,8.38-4.26.77-8.59.66-12.84,0-5.36-.83-9.5-7.71-7.38-12.45,1.33-2.98,4.45-1,6.73-1.42,1.53-.29,2.75.31,2.65,2.24-.21,3.97,2.25,4.44,5.42,4.34,3.67-.12,3.42-2.66,3.84-5.2,1.25-7.53-1.29-12.54-8.9-14.59-8.25-2.22-11.22-7.7-9.88-15.94.31-1.89.03-3.88.03-5.82,0-7.79,2.99-10.86,10.74-11.02,1.11-.02,2.22,0,3.33,0Z"/>
        <path class="cls-3" d="M307.79,498.01c0-8.86.07-17.73-.05-26.59-.03-2.46.59-3.47,3.24-3.38,5.12.19,10.25-.03,15.37.09,6.3.15,9.59,3.09,9.87,9.33.29,6.49.3,13.02.02,19.52-.28,6.47-3.43,9.18-10.18,9.52q-8.69.44-8.7,9.11c0,2.77-.26,5.57.07,8.3.46,3.86-1.16,4.61-4.68,4.55-3.49-.06-5.23-.48-5.05-4.69.37-8.57.11-17.17.11-25.75h-.02ZM326.79,487.45s-.03,0-.05,0c0-2.9.29-5.83-.07-8.69-.54-4.32-4.19-3.03-6.87-3.3-2.92-.29-2.48,1.9-2.48,3.63-.02,5.66,0,11.32.04,16.98,0,1.31-.35,2.68,1.75,3.1,5.14,1.03,7.66-.81,7.69-5.93.01-1.93,0-3.87,0-5.8Z"/>
        <path class="cls-3" d="M409.28,497.79c0-8.74.09-17.48-.06-26.21-.05-2.69.67-3.71,3.47-3.62,5.68.18,11.37.17,17.06.02,2.68-.07,3.32,1.05,3.18,3.47-.13,2.32.14,4.35-3.37,4.19-3.26-.15-7.45-1.53-9.63.66-2.33,2.34-.81,6.59-.81,9.99,0,8.2-1.16,7.22,7.39,7.02,3.88-.09,5.06,1.08,4.72,4.85-.21,2.3-.84,3.03-3.2,3.08-8.99.17-8.98.26-8.97,9.31.01,9.94.01,10.07,9.87,9.95,3.16-.04,4.03.92,4.03,4,0,3.03-.74,4.21-3.97,4.05-5.26-.26-10.54-.25-15.8-.02-3.21.14-4.02-1.08-3.96-4.1.16-8.87.06-17.75.05-26.63Z"/>
        <path class="cls-3" d="M382.19,498.16c0-8.59.24-17.18-.11-25.76-.16-3.98,1.38-4.53,4.77-4.4,3.07.12,5.03.02,4.94,4.27-.31,14.67-.02,29.36-.2,44.04-.04,3.44.92,4.88,4.42,4.4,1.36-.19,2.8.15,4.15-.07,3.97-.64,4.69,1.35,4.4,4.75-.17,1.97-.46,3.05-2.78,2.99-5.54-.13-11.08-.13-16.62-.02-2.39.05-3.04-.91-3.02-3.2.11-9,.04-18,.05-27.01Z"/>
        <path class="cls-3" d="M448.78,498.32c0,8.74-.21,17.5.09,26.23.14,4.12-2.03,4.11-4.92,3.95-2.58-.14-5.13.65-5.07-3.78.24-17.62.25-35.26-.02-52.88-.07-4.32,2.25-3.88,4.92-3.82,2.52.06,5.26-.84,5.1,3.65-.32,8.87-.09,17.76-.1,26.65Z"/>
        <path class="cls-3" d="M472.3,613.98c0,3.51-.04,7.03.02,10.54.03,1.87-.13,3.22-2.61,3.18-2.5-.05-2.5-1.48-2.48-3.29.06-5.54-.04-11.08.09-16.61.03-1.41-1.19-3.66,1.44-4.04,2.29-.33,4.6-.61,6.01,2.23,1.83,3.72,4.03,7.25,6.12,10.84.37.64.58,1.63,2.23,1.4,0-3.86.02-7.79-.01-11.73-.01-1.65.01-2.99,2.34-2.91,2.05.07,2.54.98,2.52,2.84-.07,5.81.04,11.63-.06,17.45-.02,1.32.86,3.45-1.5,3.65-2.05.18-4.42,1.02-5.83-1.71-1.84-3.56-3.9-7.01-5.9-10.49-.33-.57-.87-1.03-1.31-1.54-.36.07-.72.13-1.07.2Z"/>
        <path class="cls-3" d="M729.86,602.8c10.15,2.27,13.34,6.15,12.58,14.73-.55,6.18-5.26,10.39-11.79,10.55-6.67.16-11.33-3.7-12.12-10.04-.9-7.22,1.38-11.37,7.83-14.2.84-.37,1.48-.37,1.71-1.76.68-4.12,3.39-5.5,8.28-4.19-2.21,1.67-4.11,3.11-6.49,4.91ZM737.17,615.74c.01-4.88-2.45-7.94-6.47-8.05-4.39-.11-7.02,2.85-7.02,7.9,0,4.99,2.65,8.09,6.92,8.08,4.01,0,6.56-3.09,6.57-7.94Z"/>
        <path class="cls-3" d="M662.76,617.83c0-3.03-.22-6.08.08-9.08.18-1.79-1.69-4.88,2.19-5.05,4.16-.19,2.22,3.11,2.31,4.8.27,5.12.16,10.25.04,15.38-.03,1.3.99,3.42-1.33,3.67-2.05.23-4.4.9-5.76-1.87-1.59-3.22-3.51-6.29-5.31-9.41-.6-1.03-.87-2.33-2.52-2.94-1.05,3.67-.34,7.36-.53,10.97-.09,1.7.2,3.37-2.4,3.37-2.58,0-2.42-1.57-2.4-3.33.05-5.68,0-11.36.08-17.05.02-1.35-.83-3.41,1.58-3.56,1.95-.12,4.14-.79,5.46,1.74,2.06,3.92,4.34,7.73,6.55,11.57.24.42.66.74.99,1.1.32-.11.65-.21.97-.32Z"/>
        <path class="cls-3" d="M762.98,614.65c1.79.82,4.94-1.13,5.21,1.85.29,3.15,1.75,6.97-2.24,9.37-4.63,2.8-12.75,3.02-16.64,0-4.65-3.62-4.94-8.67-4.02-13.96.74-4.26,3.36-7.17,7.46-7.99,4.61-.93,9.44-1.32,13.26,2.55.96.97,2.31,2.34,1.03,3.48-1.06.94-3.08,1.93-4.5.38-2.96-3.23-6.24-3.41-9.64-1.17-2.49,1.64-3.21,6.9-1.8,10.41,1.6,3.98,8.09,5.56,11.33,2.78.69-.59.98-1.3.87-2.19-.1-.81-.67-1.1-1.4-1.26-1.61-.36-4.59,1.03-4.03-2.36.52-3.16,3.49-.9,5.12-1.89Z"/>
        <path class="cls-3" d="M233.5,602.72c-2.79-.81-4.33-4.51-7.08-.88-.4.52-1.45.5-1.88-.05-.35-.46-.48-1.35-.29-1.92.98-3.08,3.13-3.53,5.92-2.48,1.33.5,2.6,1.93,4.17.52.84-.76,1.85-1.81,2.73-.49.85,1.29.22,3.21-.95,3.67-3.42,1.36-2.01,3.28-1.2,5.43,2.2,5.84,4.32,11.71,6.34,17.62.36,1.06,2.03,2.76-.28,3.36-1.55.4-4,.89-4.38-1.71-.63-4.31-3.59-4.03-6.73-4.06-2.4-.02-4.06.57-4.51,3.14-.29,1.67-.98,2.72-2.96,2.79-2.33.08-3.46-.27-2.43-2.97,2.38-6.22,4.78-12.43,6.8-18.77,1.07-3.35,3.92-1.69,6.73-3.22ZM231.3,610.03c-.32,0-.64,0-.96,0-.51,1.39-1.07,2.76-1.51,4.16-.3.97-1.38,2.13-.2,2.96,1.13.79,2.76.79,3.95.24,1.67-.76.45-2.11.13-3.18-.42-1.41-.94-2.78-1.41-4.17Z"/>
        <path class="cls-3" d="M303.99,615.53c0-2.63.25-5.29-.06-7.89-.43-3.5,1.14-4.25,4.21-4.02,3.03.22,6.1-.07,9.13.12,3.17.19,6.16,1.2,7.33,4.5,1.15,3.28.52,6.4-2.48,8.5-1.61,1.13-1.37,2.13-.5,3.43.77,1.15,1.68,2.23,2.28,3.47.57,1.18,2.72,2.56.95,3.68-1.44.91-3.88,1.04-5.26-.87-1.29-1.78-2.39-3.72-3.46-5.65-1.18-2.14-3.09-2.15-5.04-1.82-2.29.38-1.4,2.32-1.55,3.68-.1.96-.05,1.94-.01,2.91.06,2.04-1.3,2.11-2.79,2.1-1.51,0-2.78-.14-2.75-2.16.05-3.32.01-6.65.01-9.97ZM313.84,614.43c2.57-.06,5.9.39,5.69-3.43-.2-3.66-3.56-2.99-6.09-3.17-2.41-.17-4.13-.05-4.17,3.29-.05,3.79,2.24,3.35,4.58,3.31Z"/>
        <path class="cls-3" d="M439.87,615.31c.1-7.85,4.52-11.95,12.75-11.82,7.29.12,11.64,4.72,11.55,12.26-.08,7.52-5.21,12.53-12.65,12.36-7.21-.17-11.75-5.15-11.65-12.8ZM458.52,615.7c.01-4.95-2.44-7.91-6.55-7.9-4.13,0-6.55,2.9-6.58,7.87-.03,4.78,2.57,7.92,6.58,7.94,4.07.03,6.53-2.95,6.55-7.9Z"/>
        <path class="cls-3" d="M206.84,603.47c3.6-.28,6.71.71,8.96,3.51.73.9,2.41,2.23.61,3.45-1.12.76-2.77,1.71-4.13.1-2.81-3.33-6.11-3.73-9.54-1.3-2.46,1.74-3.06,7.58-1.47,10.91,1.9,3.95,7.54,4.83,10.41,1.18,1.9-2.42,3.73-1.99,5.16-.57,1.65,1.64-.54,2.91-1.51,4.08-.68.82-1.65,1.53-2.64,1.96-1.93.83-4.5.99-2.4,4.22.58.9-.08,2.19-1.19,2.8-1.5.82-3.11,1.28-4.79.78-.73-.22-.97-.91-.56-1.68,1.66-3.17,1.23-4.31-2.17-5.83-7.26-3.25-9.14-15.63-3.19-20.97,2.42-2.18,5.35-2.8,8.45-2.64Z"/>
        <path class="cls-3" d="M546.49,614.85c.29-3.1-1.58-7.84.65-10.25,2.46-2.66,7.34-.6,11.15-.92,1.65-.14,3.32,0,4.98-.02,1.47-.02,2.36.42,2.29,2.13-.07,1.58-.78,2.21-2.33,2.19-2.91-.04-5.81.04-8.72,0-1.76-.02-2.85.37-2.85,2.52,0,2.16.79,3.01,2.94,2.89,2.07-.11,4.15-.01,6.23-.02,1.65,0,3.44-.39,3.39,2.29-.06,2.86-2.12,1.93-3.58,2.01-2.07.11-4.15.09-6.23.05-1.88-.04-2.74.67-2.73,2.68.01,2.08.68,3.06,2.88,2.98,3.04-.1,6.09.04,9.14-.03,1.71-.04,2.62.51,2.55,2.35-.07,1.72-1.11,1.94-2.52,1.93-4.85-.02-9.69-.04-14.54.07-2.31.05-2.79-1.13-2.73-3.11.09-3.04.02-6.09.02-9.75Z"/>
        <path class="cls-3" d="M74.17,615.59c0-2.78.15-5.56-.04-8.32-.18-2.6.48-3.8,3.39-3.66,4.29.22,8.6.04,12.9.04,1.39,0,2.82-.19,2.87,1.96.05,2.25-1.29,2.39-2.98,2.35-2.5-.05-5,.08-7.49-.03-2.03-.09-3.06.49-3.09,2.76-.04,2.34,1.08,2.79,3.07,2.7,2.35-.1,4.72.06,7.07-.04,1.52-.06,2.39.39,2.5,2,.13,1.91-.96,2.37-2.59,2.34-2.22-.04-4.44.05-6.66-.04-2.07-.09-3.38.22-3.41,2.85-.03,2.65,1.29,2.92,3.35,2.86,2.77-.08,5.55.02,8.32-.01,1.6-.02,2.71.37,2.64,2.3-.06,1.72-1.08,1.97-2.5,1.97-4.99-.02-9.99,0-14.98.04-1.78.02-2.44-.76-2.4-2.53.09-3.19.03-6.38.03-9.57Z"/>
        <path class="cls-3" d="M599.7,614.75c.28-3.04-1.59-7.84.66-10.21,2.45-2.58,7.35-.56,11.16-.86,1.52-.12,3.05-.02,4.57,0,1.3.01,2.55.06,2.62,1.87.07,1.8-.83,2.49-2.53,2.45-2.22-.04-4.45-.15-6.65,0-1.92.14-4.74-1.13-4.63,2.78.12,3.92,3,2.3,4.85,2.55,1.77.24,3.6.15,5.4.06,1.6-.07,2.32.58,2.29,2.16-.02,1.58-.79,2.19-2.35,2.15-2.49-.06-4.99.09-7.48,0-1.89-.07-2.77.5-2.72,2.57.04,1.95.35,3.18,2.71,3.09,2.91-.12,5.82,0,8.73,0,1.57,0,3.05-.14,2.99,2.26-.05,2.15-1.37,2.04-2.79,2.04-4.57,0-9.15-.06-13.72.05-2.3.05-3.26-.76-3.14-3.15.15-3.04.04-6.1.04-9.82Z"/>
        <path class="cls-3" d="M395.57,603.43c2.39-.04,4.8.08,6.67,1.74,1.19,1.05,3.03,2.65,1.71,4.1-1.06,1.17-3.4,1.99-5.05-.16-1.49-1.95-3.56-1.82-5.68-1.44-1.22.22-2.09.92-2.23,2.13-.14,1.29.81,2.09,1.89,2.42,2.38.72,4.83,1.2,7.22,1.89,3.45,1,5.47,3.2,5.23,6.97-.24,3.71-2.48,5.84-5.94,6.48-4.41.82-8.88,1.16-12.64-2.05-1.21-1.04-2.97-2.69-1.62-4.1,1.15-1.2,3.52-1.72,5.12.32,1.81,2.31,4.3,2.2,6.83,1.86,1.35-.18,2.42-.83,2.64-2.24.26-1.68-.88-2.56-2.27-3-1.58-.5-3.22-.83-4.83-1.21-5.37-1.28-7.54-3.55-7.22-7.55.3-3.75,3.3-5.93,8.51-6.16.55-.03,1.11,0,1.66,0Z"/>
        <path class="cls-3" d="M256.79,603.46c7.51.08,11.99,4.79,11.84,12.43-.15,7.36-5.12,12.24-12.39,12.18-7.63-.07-11.98-4.82-11.82-12.91.16-7.8,4.37-11.79,12.37-11.7ZM249.76,615.39c-.08,5.18,2.34,8.22,6.59,8.26,4.2.04,6.64-2.76,6.7-7.69.06-5.04-2.22-8.1-6.18-8.27-4.49-.19-7.02,2.55-7.11,7.7Z"/>
        <path class="cls-3" d="M96.99,615.75c0-.97-.3-2.06.05-2.89,1.25-2.98-3.12-8.4,2.72-9.05,11.93-1.34,17.74,2.02,18.67,9.46,1.12,8.92-3.66,14.37-12.65,14.41q-8.78.04-8.79-8.61c0-1.11,0-2.22,0-3.32ZM102.45,615.55c0,.97-.12,1.96.03,2.91.25,1.66-1.01,4.05,1.17,4.79,2.37.81,4.99.43,7.06-1.32,3.04-2.57,3.44-8.88.74-11.78-2.08-2.24-4.94-2.88-7.65-2.15-2.55.68-.95,3.33-1.32,5.07-.17.79-.03,1.66-.03,2.49Z"/>
        <path class="cls-3" d="M683.28,603.48c7.63.11,11.94,4.61,11.86,12.34-.08,7.41-4.98,12.32-12.25,12.27-7.51-.05-12.26-5.11-12.04-12.82.22-7.72,4.63-11.9,12.43-11.78ZM689.72,615.89c.07-5.1-2.5-8.22-6.75-8.21-4.16.02-6.68,2.91-6.76,7.78-.08,5.01,2.52,8.17,6.77,8.19,4.11.02,6.67-2.93,6.74-7.76Z"/>
        <path class="cls-3" d="M417.78,628.1c-3.3-.24-6.54-.47-8.84-3.12-.86-1-2.26-2.53-1.11-3.58,1.2-1.09,3.49-1.74,4.83-.04,1.73,2.17,3.84,2.51,6.28,2.33,1.73-.12,3.48-.44,3.68-2.56.18-1.95-1.46-2.51-2.94-2.95-2.12-.63-4.31-1.04-6.43-1.69-3.49-1.06-5.34-3.33-4.9-7.14.42-3.67,2.88-5.3,6.17-5.66,3.56-.4,7.28-.93,10.44,1.44,1.27.95,3.11,2.57,1.94,4.03-1.08,1.37-3.48,1.82-5.11,0-1.62-1.8-3.56-1.91-5.7-1.53-1.19.21-2.1.76-2.26,2.07-.16,1.34.66,2.11,1.78,2.46,1.98.61,4.01,1.07,6.02,1.61,4.89,1.33,6.74,3.39,6.53,7.25-.21,3.86-2.85,6.23-7.57,6.79-.96.12-1.93.19-2.81.28Z"/>
        <path class="cls-3" d="M328,615.17c.21-8.14,4.56-12.01,13.15-11.71,6.81.23,11.15,5.15,10.98,12.43-.18,7.56-5.35,12.49-12.77,12.19-7.37-.3-11.56-5.07-11.35-12.91ZM346.54,615.79c.03-5.21-2.42-8.16-6.73-8.12-4.12.04-6.53,2.95-6.55,7.9-.02,5.08,2.53,8.11,6.79,8.08,4.18-.03,6.46-2.8,6.48-7.86Z"/>
        <path class="cls-3" d="M142.6,612.81c0,1.38,0,2.77,0,4.15-.05,9.18-8.06,14.07-16.41,10.02-3.23-1.57-4.5-4.4-4.58-7.79-.1-4.29,0-8.58-.09-12.86-.04-1.88.47-2.74,2.55-2.72,2.09.01,3.02.6,2.94,2.82-.13,3.59-.05,7.19-.02,10.79.02,3.3.68,6.19,4.81,6.36,3.6.15,5.28-1.81,5.34-6.25.05-3.73.11-7.47,0-11.2-.06-2.13.96-2.51,2.79-2.5,1.84.01,2.88.42,2.73,2.56-.15,2.2-.03,4.42-.04,6.64Z"/>
        <path class="cls-3" d="M621.52,615.21c.14-5.81,2.53-9.66,6.93-11.2,4.66-1.63,11.07-.51,13.57,2.57.82,1.01,2.8,2.3,1.05,3.75-1.25,1.04-2.9,1.68-4.69-.25-2.85-3.07-7.15-3.04-9.53-.47-2.69,2.89-2.51,9.52.34,12.27,2.72,2.62,6.55,2.46,9.39-.94,1.71-2.05,3.24-1.44,4.6-.34,1.78,1.45.05,2.77-.83,3.83-2.85,3.44-8.96,4.64-13.82,2.84-4.58-1.69-7.15-6.11-7.01-12.06Z"/>
        <path class="cls-3" d="M157.65,603.48c3.18-.21,6.35.53,8.67,3.34.79.95,2.47,2.15.87,3.41-1.29,1.01-3.07,2.1-4.67-.1-1.91-2.63-4.68-2.85-7.48-1.88-3.08,1.07-3.85,3.83-3.96,6.7-.12,3.11.21,6.25,3.46,7.85,3.09,1.53,6.09,1.14,8.1-1.79,1.54-2.24,3.16-1.46,4.56-.45,1.93,1.4.21,2.76-.67,3.76-3.41,3.9-7.9,4.3-12.57,3.3-4.54-.97-7.14-4.02-8.02-8.52-1.84-9.49,2.63-15.59,11.7-15.62Z"/>
        <path class="cls-3" d="M781.1,613.31c.06-3.02,1.46-7.41,6.54-9.04,4.72-1.52,9.65-1.74,13.62,2.09,1,.96,3.12,2.4,1.28,4.04-1.22,1.09-2.99,1.41-4.75-.36-3.07-3.08-7.19-3.03-9.53-.37-2.61,2.96-2.36,9.73.44,12.31,2.67,2.45,6.6,2.19,9.41-1.12,1.75-2.07,3.24-1.24,4.63-.22,1.7,1.26.1,2.52-.63,3.5-2.7,3.66-8.98,4.98-14.09,3.1-4.57-1.68-7.12-6.1-6.91-13.94Z"/>
        <path class="cls-3" d="M502.46,621.9c-3.07-.65-5.14.28-5.78,3.57-.54,2.79-2.87,2.56-4.59,2.02-2.55-.79-.52-2.58-.14-3.7,2-5.89,4.29-11.67,6.28-17.56.71-2.12,1.81-2.73,3.95-2.63,1.91.09,3.38.08,4.15,2.37,2.07,6.15,4.44,12.2,6.57,18.34.36,1.04,1.91,2.81-.55,3.24-1.61.29-3.79.8-4.32-1.85-.62-3.09-2.3-4.62-5.56-3.81ZM502.28,608.8c-.9,2.63-1.45,4.03-1.85,5.48-.26.96-1.64,2.03-.29,2.92,1.16.76,2.8.71,4,.15,1.68-.79.42-2.14.09-3.22-.44-1.41-1-2.78-1.94-5.33Z"/>
        <path class="cls-3" d="M281.12,615.47c0-.69-.08-1.39.01-2.07.44-3.17-1.64-8.28,1.1-9.15,4.62-1.46,10.12-1.61,14.99.55,2.98,1.32,4.02,3.98,3.83,7.19-.21,3.44-2.02,5.65-5.16,6.81-.89.33-1.93.59-2.84.45-4.76-.72-7.41.56-6.4,6.02.39,2.13-1.11,2.4-2.86,2.43-1.97.04-2.74-.73-2.68-2.69.09-3.18.02-6.36.02-9.54h-.02ZM289.97,615.16c3.08.24,5.7-.27,5.65-3.82-.05-3.47-2.92-3.29-5.41-3.55-2.92-.3-3.78.89-3.73,3.72.04,2.71.56,4.33,3.49,3.64Z"/>
        <path class="cls-3" d="M816.68,603.78c2.42-.52,3.51.35,4.22,2.45,2.04,6.01,4.35,11.94,6.46,17.93.39,1.1,1.87,2.79-.35,3.38-1.6.43-3.51.6-4.52-1.7-1.62-3.68-4.83-4.97-8.67-4.01-1.74.44-1.86,1.84-2.34,3.08-.56,1.43-.99,2.82-3.05,2.77-2.17-.05-3.5-.15-2.39-2.97,2.42-6.17,4.63-12.43,6.82-18.68.74-2.1,1.95-2.94,3.83-2.24ZM816.55,609.37c-.67,1.88-1.3,3.38-1.72,4.94-.26.94-1.29,2.13.09,2.91,1.23.7,2.76.65,3.94-.02,1.33-.75.3-1.97-.02-2.91-.52-1.53-.67-3.23-2.29-4.93Z"/>
        <path class="cls-3" d="M190.29,627.59c-2.41.43-3.15-1.06-3.46-2.8-.58-3.28-2.98-3-5.38-3.02-2.45-.02-4.8-.08-5.42,3.06-.31,1.58-.81,2.86-2.87,2.87-2.4.02-3.69-.18-2.47-3.2,2.38-5.9,4.48-11.91,6.51-17.94.74-2.2,1.85-3,4.19-2.99,2.3,0,3.44.65,4.2,2.92,2.06,6.16,4.35,12.25,6.66,18.33.86,2.27.32,3.19-1.96,2.78ZM181.19,609.6c-.66,1.7-1.34,3.13-1.76,4.63-.27.95-1.4,2.19-.2,2.95,1.25.78,3,.73,4.28.05,1.32-.7.27-1.97-.07-2.88-.56-1.47-.63-3.19-2.25-4.74Z"/>
        <path class="cls-3" d="M355.16,615.69c0-3.05.13-6.11-.04-9.15-.13-2.23.73-2.95,2.85-2.91,4.16.09,8.32.05,12.49.02,1.53,0,2.74.14,2.68,2.18-.06,2-1.25,2.16-2.79,2.11-1.8-.05-3.62.13-5.41-.01-2.79-.22-4.31.3-4.29,3.74.02,3.58,2.1,3.23,4.35,3.21,1.8-.01,3.61,0,5.41,0,1.39,0,2.45.29,2.46,2.03.01,1.66-.82,2.2-2.34,2.11-.83-.05-1.66-.01-2.5-.01-6.48,0-6.57,0-7.23,6.37-.2,1.91-1.07,2.28-2.68,2.27-1.68-.01-3.04-.14-2.98-2.39.09-3.19.02-6.38.02-9.57,0,0,0,0-.01,0Z"/>
        <path class="cls-3" d="M587.46,603.64c2.49,0,4.98.05,7.47-.02,1.63-.05,2.64.29,2.6,2.24-.04,1.7-.96,2.34-2.37,2.08-5.19-.94-5.55,2.05-5.29,6,.24,3.58-.04,7.2.09,10.79.07,2.11-.56,2.94-2.81,2.96-2.41.01-2.67-1.17-2.63-3.1.09-4.15-.17-8.32.08-12.45.2-3.29-.92-4.54-4.21-4.21-1.18.12-2.99.73-3.4-1.33-.32-1.65-.16-3.06,2.16-2.98,2.77.09,5.54.02,8.3.02Z"/>
        <path class="cls-3" d="M698.48,615.83c0-3.18.08-6.36-.03-9.54-.08-2.29,1.06-2.73,3.06-2.72,2.19,0,2.46,1.17,2.43,2.92-.07,3.46-.07,6.91-.02,10.37.09,6.93-1.12,6.53,6.33,6.51,1.24,0,2.49.01,3.73,0,1.34-.02,2.5.09,2.52,1.9.03,1.83-.91,2.42-2.57,2.41-4.29-.03-8.57-.09-12.86,0-2.04.05-2.66-.83-2.61-2.73.08-3.04.02-6.08.02-9.12Z"/>
        <path class="cls-3" d="M516.6,615.8c0-2.91,0-5.81,0-8.72,0-1.84-.19-3.55,2.68-3.51,2.59.04,2.93,1.28,2.9,3.36-.07,4.15.14,8.31-.07,12.45-.15,2.98.7,4.42,3.92,4.05,1.91-.22,3.87-.05,5.8-.08,1.47-.02,2.78-.01,2.79,2.06.01,1.89-.89,2.3-2.58,2.26-4.29-.1-8.58-.12-12.87-.03-2.02.04-2.66-.79-2.6-2.72.11-3.04.03-6.09.03-9.13Z"/>
        <path class="cls-3" d="M376.06,615.51c0-3.04.08-6.08-.02-9.11-.08-2.2.85-2.85,2.97-2.81,1.97.04,2.68.72,2.65,2.68-.09,6.21-.16,12.43-.02,18.64.05,2.33-.92,2.8-2.93,2.79-1.91-.01-2.76-.63-2.68-2.65.12-3.17.03-6.35.03-9.53Z"/>
        <path class="cls-3" d="M772.51,615.48c0-3.05.09-6.1-.03-9.14-.08-1.95.56-2.82,2.59-2.74,1.67.06,2.93.14,2.89,2.41-.09,6.37-.04,12.74.03,19.12.02,2.03-.89,2.59-2.81,2.55-1.9-.04-2.78-.59-2.7-2.64.12-3.18.03-6.37.03-9.56Z"/>
        <path class="cls-3" d="M432.5,627.36c-1.55.38-1.52-.7-1.53-1.69-.02-6.49,0-12.98-.02-19.48,0-1.83.6-2.9,2.67-2.66,1.41.16,3.23-.55,3.22,1.97-.02,6.91.01,13.81-.01,20.72,0,.71-.3,1.36-1.27,1.08.07-6.78.14-13.56.2-20.34.01-1.14.01-2.28-1.58-2.38-1.82-.11-1.98,1.1-1.96,2.44.09,6.78.18,13.56.28,20.34Z"/>
        <path class="cls-3" d="M432.5,627.36c-.09-6.78-.19-13.56-.28-20.34-.02-1.34.14-2.55,1.96-2.44,1.59.1,1.59,1.24,1.58,2.38-.06,6.78-.14,13.56-.2,20.34-1.02.02-2.04.04-3.06.06Z"/>
        <path class="cls-3" d="M358.51,314.05c-.88-.37-1.55,0-2.18.57-.95-1.82.41-3.17.53-5.34,2.15,1.64,1.68,3.27,1.65,4.77Z"/>
        <path class="cls-3" d="M364.37,350.43c-.79-.72-.73-1.57-.36-2.46,1,.69,1.29,1.49.36,2.46Z"/>
        <path class="cls-3" d="M361.75,334.63c-.51-.5-.68-1.04-.17-1.64.8.47.95,1.01.17,1.64Z"/>
        <path class="cls-3" d="M355.69,318.83c.52.8.38,1.49-.37,2.07-.52-.8-.49-1.51.37-2.07Z"/>
        <path class="cls-3" d="M359.34,318.79c-.65-.51-.71-1.1-.28-1.78.83.48,1.21,1.03.28,1.78Z"/>
        <path class="cls-3" d="M363.59,345.08c-.7-.64-.92-1.38-.46-2.26.97.59,1.07,1.35.46,2.26Z"/>
        <path class="cls-3" d="M362.6,339.62c-.55-.54-.58-1.14-.23-1.79.84.5,1.12,1.07.23,1.79Z"/>
        <path class="cls-3" d="M360.17,324.62c-.68-.46-.65-1.01-.23-1.63.72.45,1.1.95.23,1.63Z"/>
        <path class="cls-3" d="M365.16,355.44c-.61-.51-.63-1.11-.26-1.77.68.5,1.3,1.02.26,1.77Z"/>
        <path class="cls-3" d="M809.97,314.19c-.84-.56-1.45-.05-2.06.45-.19-.35-.6-.75-.53-1.03.35-1.35.08-3.84,1.75-3.55,1.79.3,1.62,2.49.84,4.13Z"/>
        <path class="cls-3" d="M813.24,333.78c-.8-.78-.7-1.68-.36-2.62.93.76,1.34,1.59.36,2.62Z"/>
        <path class="cls-3" d="M805.78,327.84c.38.96.29,1.85-.44,2.63-.97-1.06-.75-1.92.44-2.63Z"/>
        <path class="cls-3" d="M818.16,364.61c-.68-.79-.91-1.65-.43-2.63,1.16.71,1.36,1.58.43,2.63Z"/>
        <path class="cls-3" d="M803.97,338.66c.42,1.12.45,2.18-.43,3.11-.71-1.16-.63-2.2.43-3.11Z"/>
        <path class="cls-3" d="M807.53,317.02c.43.97.23,1.84-.42,2.63-1.01-1.06-.89-1.94.42-2.63Z"/>
        <path class="cls-3" d="M819.85,375.44c-.79-.78-.79-1.67-.39-2.62,1.01.74,1.41,1.58.39,2.62Z"/>
        <path class="cls-3" d="M812.29,327.97c-.61-.5-.67-1.12-.35-1.8.86.46,1.4.97.35,1.8Z"/>
        <path class="cls-3" d="M806.58,322.84c.41.71.21,1.29-.36,1.8-.97-.82-.57-1.36.36-1.8Z"/>
        <path class="cls-3" d="M811.48,322.97c-.6-.52-.74-1.11-.3-1.8.89.47,1.31,1.02.3,1.8Z"/>
        <path class="cls-3" d="M810.54,317.16c-.55-.54-.76-1.12-.27-1.81.98.47,1.21,1.06.27,1.81Z"/>
        <path class="cls-3" d="M818.96,369.62c-.7-.44-.89-.98-.33-1.67.83.42,1.22.92.33,1.67Z"/>
        <path class="cls-3" d="M817.29,358.79c-.57-.51-.79-1.09-.36-1.8.98.43,1.36.98.36,1.8Z"/>
        <path class="cls-3" d="M816.37,352.97c-.58-.51-.77-1.1-.37-1.8,1.06.41,1.32.98.37,1.8Z"/>
        <path class="cls-3" d="M814.02,338.79c-.67-.45-.72-1.01-.28-1.65.71.45,1.16.94.28,1.65Z"/>
        <path class="cls-3" d="M804.81,333.67c.39.67.31,1.27-.27,1.8-1.06-.77-.44-1.29.27-1.8Z"/>
        <path class="cls-3" d="M270.01,401.79c0,42.61-.04,85.22.07,127.84,0,3.64-.71,4.94-4.72,4.94-73.01-.14-146.02-.13-219.03-.03-3.73,0-4.93-.85-4.92-4.78.12-83.42.09-166.84.09-250.26,0-1.39,0-2.78-.01-4.16q-.11-6.71,6.91-6.71c72.04,0,144.07,0,216.11,0q5.5,0,5.5,5.33c0,42.61,0,85.22,0,127.84ZM43.93,401.28h-.04c0,42.06,0,84.12-.02,126.18,0,2.65-.15,4.64,3.77,4.63,72.04-.12,144.09-.11,216.13-.04,3.15,0,3.94-.98,3.94-4.03-.08-84.4-.09-168.8-.01-253.2,0-3.26-.87-4.24-4.2-4.23-71.63.1-143.26.12-214.88-.01-4.03,0-4.78,1.28-4.77,4.93.11,41.92.07,83.84.07,125.76Z"/>
        <path class="cls-3" d="M78.49,471.85c-.52-.41-1.04-.82-1.56-1.23-2.61-2.16-5.21-4.32-7.82-6.48,0,0-.31-.23-.31-.23-1.31-1.87-2.93-3.42-4.79-4.74,0,0-.19-.22-.19-.22-3.06-3.79-6.12-7.59-9.18-11.38,0,0-.05-.06-.05-.06-1.4-1.97-1.05-5.45-4.7-5.5-.25-.06-.49-.13-.74-.2.27-2.31.93-4.53.93-6.92-.07-29.9-.04-59.81,0-89.71,0-2.09-.07-4.14-.95-6.08.31-.36.63-.71.94-1.07,1.96.08,1.96-1.75,2.55-2.82,14.91-26.95,36.36-46.38,65.38-57.18,1.01-.38,2.28-.43,2.08-2.03.4-.49.79-.98,1.19-1.46,0,0,.01,0,.01-.01,1.86,1.8,4.17,1.84,6.57,1.83,22.67-.04,45.34-.05,68.01-.02,1.78,0,3.56.31,5.34.47-.18.38-.37.76-.55,1.15-1.61.59-2.88,1.53-3.31,3.31-.64.17-.93.61-1,1.24-.86.44-1.45,1.06-1.44,2.1h0c-.75.28-1.01.85-.94,1.62h0c-1.28.64-1.39,1.99-1.83,3.12-2.96,7.52-3.39,15.38-2.97,23.32.29,5.47.4,5.4-4.53,3.81-26.43-8.51-52.63-9.22-78.05,3.34-12.66,6.25-22.9,15.52-31.81,26.66-8.88,11.11-15.42,23.19-18.57,36.86-6.2,26.87-.91,51.51,15.79,73.64,6.26,8.29,14.11,14.78,22.31,20.96-.13.89-.54,1.52-1.5,1.64-1.67-.64-3.33-1.28-5-1.92l-.07.25s.04-.26.04-.25c-1.6-1.72-3.66-2.68-5.79-3.52-.64-.4-1.29-.8-1.93-1.21-.23-.78-.78-1.09-1.56-1.05Z"/>
        <path class="cls-3" d="M261.32,525.36c.1-.68.29-1.36.29-2.04,0-32.2,0-64.39-.01-96.59,0-.83-.14-1.66-.21-2.48.03-4.13.06-8.26.1-12.39.02-.77.48-1.57-.15-2.29.09-.96.27-1.92.27-2.88.01-42.18-.03-84.37.09-126.55.01-3.55-1.38-4.04-4.39-4.02-17.21.11-34.41.04-51.62.08-1.5,0-3,.4-4.5.61-1.78-.16-3.56-.47-5.34-.47-22.67-.03-45.34-.02-68.01.02-2.4,0-4.71-.04-6.57-1.83,1.26-.86,2.7-.47,4.05-.47,44.83-.02,89.67.02,134.5-.09,3.25,0,4.22.75,4.22,4.12-.1,82.31-.09,164.62-.04,246.93,0,2.76-.42,4.4-3.63,3.47.12-.52.25-1.05.37-1.57.41-.44,1.1-.77.58-1.56Z"/>
        <path class="cls-3" d="M235.69,492.04c.47,3.65.11,6.88-3.7,8.79-1.46.73-1.2,2.35-1.17,3.72.1,4.28.22,8.56-.79,12.76-.64,2.63-1.59,5.02-4.47,5.97-5.91,1.32-11.88,1.13-17.86.79-6.09-1.29-12.04-3.03-17.68-5.7-1.02-.48-2.16-1.17-2.88.16-1.04,1.93-2.02,3.93-2.66,6.01-.59,1.9.77,2,2.19,1.67.04.21.06.42.06.63.03.57.06,1.14.09,1.71-2.02.4-4.03.68-6.01-.19-.35-.52-.69-1.03-1.04-1.55.27-.5.55-.99.82-1.49.36-1.37.73-2.75,1.09-4.12.64-.44.73-1.04.52-1.73,2.48-3.27,1.33-5.44-2.11-6.88-1.41-.59-2.61-1.44-3.48-2.74.82-1.26,1.74-.53,2.5-.12,7.16,3.85,14.7,7.02,22.47,9.07,6.95,1.84,14.34,2.51,21.63.76,2.33-.56,3.05-2.3,3.28-4.27.49-4.11.85-8.24,1.15-12.37.15-2.04.43-3.86,2.68-4.64,3.07-1.07,3.85-3.3,3.08-6.27.76.26,1.52.61,2.28.01Z"/>
        <path class="cls-3" d="M49.13,339.1c.87,1.94.95,3.99.95,6.08-.03,29.9-.06,59.81,0,89.71,0,2.4-.65,4.61-.93,6.93-.08.72-.63.85-1.19.96,0-34.6,0-69.21,0-103.81.39.04.78.09,1.17.13Z"/>
        <path class="cls-3" d="M47.96,442.78c.57-.11,1.12-.24,1.19-.96.24.07.49.14.74.2.15,1.44.3,2.87.45,4.31.02,26.36.05,52.73.07,79.09h-.29s-.29-.06-.29-.06c-.65.04-1.29.08-1.94.11-.09-3.32-.26-6.63-.26-9.95-.02-22.74-.02-45.48,0-68.22,0-1.51.21-3.02.33-4.52Z"/>
        <path class="cls-3" d="M54.91,527.07h123.89c-2.27,2.09-119.98,2.5-123.89,0Z"/>
        <path class="cls-3" d="M121.27,274.53c-.4.49-.79.98-1.19,1.46-7.58.06-15.17.12-22.75.16-15.73.09-31.46.16-47.19.24-.68.03-1.36.05-2.04.08-.5-2.01.73-2.44,2.3-2.44,23.5.09,47.01.2,70.51.31.12,0,.24.12.37.19Z"/>
        <path class="cls-3" d="M48.09,276.47c.68-.03,1.36-.05,2.04-.08-.08,16.9-.17,33.81-.25,50.71-.66-.02-1.32-.03-1.99-.05-.07-16.86-.46-33.73.2-50.59Z"/>
        <path class="cls-3" d="M260.74,526.92c-.12.52-.25,1.05-.37,1.57-14.79.08-29.59.17-44.38.22-.6,0-1.41.07-1.7-1.79h46.45Z"/>
        <path class="cls-3" d="M205.06,526.42c.8.06,1.6.13,2.4.19.63.21,1.48.35,1.49,1.13.01,1.26-1.12.98-1.83.97-6.77-.02-13.54-.1-20.3-.15-.03-.57-.06-1.14-.09-1.71,6.11-.42,12.24.42,18.34-.43Z"/>
        <path class="cls-3" d="M47.89,327.06c.66.02,1.32.03,1.99.05.64,3.63.32,7.28.2,10.92-.31.35-.63.71-.94,1.07-.39-.04-.78-.08-1.17-.13-.62-3.97-.48-7.94-.07-11.91Z"/>
        <path class="cls-3" d="M47.9,525.47c.65-.04,1.29-.08,1.94-.11.22,1,1.72,1.66.93,2.84-.25.38-1.3.52-1.85.34-1.62-.51-1.06-1.91-1.02-3.07Z"/>
        <path class="cls-3" d="M179.77,526.83c.35.52.69,1.03,1.04,1.55-1.3.13-1.66-.38-1.04-1.55Z"/>
        <path class="cls-3" d="M53.4,527.47c-.18.09-.36.22-.56.26-.07.01-.18-.17-.27-.26.19-.09.36-.22.56-.26.07-.02.18.17.28.26Z"/>
        <path class="cls-3" d="M235.69,492.04c-.76.6-1.52.25-2.28-.01-2-.55-3.97.1-5.95.17-.58-1.61,1.08-1.79,1.69-2.64.54-.07,1.08-.14,1.63-.21.58-.02,1.17-.04,1.75-.07.52,0,1.04,0,1.57,0,1.57.1,2.27-.83,2.59-2.21,1.52-1.77,1.07-3.82.84-5.84.71-1.24,3.19-1.98,1.13-4,.8.19,1.58.29,2.1-.56,2.55,1.79,4.79.31,6.7-1.03,1.27-.89.33-2.47-.42-3.63-.64-1.94-1.29-3.87-1.93-5.81.19-.97.04-1.84-.75-2.53-.95-3.86-1.9-7.72-2.84-11.58.26-.68.13-1.28-.43-1.76-.16-1.07-.32-2.15-.48-3.22.35-.89.22-1.72-.37-2.47-.1-2.52-.2-5.04-.29-7.55,0-1.19,1.39-1.93,1.07-3.23.77-2.91,3.06-5.27,3.13-8.44,1.26-2.8-1.07-4.38-2.37-6.06-5.28-6.8-12.3-11.09-20.61-13.21-14-3.58-27.82-1.21-41.58,1.57-1.36.28-3.72-.28-3.96,1.48-.26,1.92,2.02,2.29,3.5,2.96.25.12.5.25.74.37-.76.51-1.51,1.01-2.27,1.52-2.03-.62-3.73-1.73-5.09-3.37-.9-1.09-2.08-.9-2.97-.2-1.21.95.08,1.7.57,2.38,1.05,1.49,2.51,2.56,4.08,3.47,8.58,4.99,17.85,2.76,25.36-5.99.97-1.13,1.49-3.26,3.79-2.38-.86,2.2-1.71,4.4-2.57,6.6-3.09,4.51-7.17,7.72-12.44,9.33-.81.13-1.61.25-2.42.38-1.97-.09-3.95-.17-5.92-.26-1.36-.4-2.73-.79-4.09-1.19-.41-.65-.93-.99-1.72-.64-.82-.56-1.64-1.13-2.46-1.69-1.23-2.65-2.59-3.85-5.5-1.56-1.62,1.28-3.97,1.9-6.22.76.02-.56.05-1.12.07-1.69,2.67.35,4.92-.43,6.63-2.55.77-.95.92-2.02.35-3.1-.73-1.38-1.87-.86-2.9-.48-2.47.9-4.92,1.85-7.37,2.78-1.35-.08-1.72.76-1.78,1.89-2.14-.79-3.61.82-5.29,1.55-1.21.52-1.38,1.35-.59,2.63,3.23,5.21,8.54,7.27,14.56,5.78,2.65-.65,4.89-2.6,7.78-2.38-.21.68-.43,1.36-.64,2.03-1.55.74-3.09,1.5-4.19,2.9-1.66.68-3.31,1.35-4.97,2.02-7.01-.26-13.26-3.16-19.35-6.16-2.63-1.29-3.64.12-4.9,1.33-1.84,1.76.21,2.67,1.25,3.52,2.62,2.14,5.49,3.39,9.07,3.51,2.68.09,5.54-1.21,8.9.57-3.84,1.23-4.3,3.12-2.46,5.91.63.96.68,2.36.81,3.58.1.92.31,2.06-.68,2.64-1.18.7-1.67-.52-2.37-1.09-.94-.76-1.73-1.78-3.24-.92-1.12.64-1.9,1.75-1.61,2.67,1.66,5.3,3.56,10.53,8.01,14.3.79.47,1.59.94,2.38,1.41,2.1,2.59,4.49,5.06,3.43,8.87-.48-.02-.97-.05-1.45-.07-.82-5.08-5.08-6.55-8.91-8.42-10.97-5.35-14.29-15.65-12.55-24.19.86-4.21-1.06-6.05-3.73-9.42-.16,6.01-.41,10.94.22,15.87,1.33,10.43,7.21,18.62,13.02,26.9,2.25,3.21,4.87,5.25,8.8,4.72,1.99-.27,2.47.55,2.65,2.11.19,1.6,1.22,3.11.49,4.8-2.31.13-1.33-2.76-2.97-3.25-.17-.31-.34-.63-.51-.94-1.03-2.56-3.06-1.12-4.71-1.17-2.98-.07-4.48-2.52-6.13-4.29-10.56-11.27-15.92-24.41-13.57-40.1.49-.72.71-1.79-.19-1.93-1.05-.17-1.75.88-2.08,1.93l-.03.03c-1.76.8-2.76,2.31-3.64,3.93-.22.27-.44.54-.66.81-3.23,2.84-5.67,6.25-7.35,10.2-.25.06-.33.21-.24.45-1.07.63-1.57,1.59-1.67,2.8,0,0-.19.33-.19.33-.75.56-1.24,1.27-1.22,2.25-.15.35-.31.71-.46,1.06-2.94,4.81-4.69,10.01-5.16,15.63-.08.28-.17.56-.25.83-1.89.14-3.49-.79-5.17-1.41-6.83-2.5-12.81-6.54-18.86-10.45-.78-.78-1.53-1.59-2.34-2.33-11.73-10.56-18.26-23.76-20.28-39.36-2.74-21.21,2.5-40.72,12.62-59.12,8.22-14.96,20.15-26.07,36.17-32.22,21.07-8.1,42.95-8.95,65.14-6.57,3.02.32,3.73,1.27,2.82,4.17-.61,1.94-2.21,4.29.16,6.14,3.15,2.46,5.81,5.56,9.5,7.32.52,1.13,1.5,1.73,2.55,2.26.31.86.9,1.39,1.83,1.52.54.85,1.19,1.58,2.2,1.89.26.97.94,1.45,1.9,1.58.43.34.86.69,1.28,1.03,1.6,2.11,3.62,3.72,5.94,4.97l.07.07c7.18,6.55,14.47,12.97,22.41,18.61,0,.2.11.29.31.26,1.89,2.31,3.98,4.38,6.72,5.67.21.71.77.97,1.43,1.08.14.84.98,1.63.22,2.55-1.76-.09-3.36.56-4.98,1.09-.94-.28-1.83-.28-2.52.56-.54.16-1.09.32-1.63.48-1.58-.32-2.97.22-4.33.91-.73-.26-1.46-.53-2.19-.79-1.13-1.33-2.55-2.16-4.24-2.55l.03.02c-.33-.86-1-1.2-1.88-1.23l-1.18-.58c-.96-1.19-2.28-1.82-3.68-2.31l.02.02c-.78-1.38-2.09-1.86-3.53-2.13-.85-1.29-2.19-1.79-3.56-2.25-.67-1.2-1.75-1.76-3.04-2.03-.04-.27-.19-.39-.46-.35-.44-.82-1.27-.97-2.06-1.19-.92-1.12-1.99-1.27-3.2-.49-7.63.96-14.92,3.27-22.65,5.09,1.98,2.58,4.66,2.91,6.68,4.28,4.27,2.9,8.63,3.08,13.25.88,2.12-1.01,4.38-1.76,6.79-.88.5,1,1.39,1.46,2.43,1.69.33.81.86,1.35,1.8,1.35,1.09,1.35,2.58,2.1,4.12,2.77.16.98.84,1.27,1.72,1.29,2.43,2.18,5.14,3.95,7.99,5.52.94,1.18,1.99,2.19,3.55,2.46,1.13,1.09,2.31,2.11,3.84,2.6,2.2,2.45,4.01.26,5.95-.49,2.66-.69,5.26-1.53,7.65-2.94,2.05-.27,3.51.57,5.03,2,2.69,2.53,4.96,5.53,8.2,7.45.03.28.18.4.46.38,2.81,3.54,6.07,6.6,9.66,9.33l-.02-.02c.26,1.37,1.41,1.72,2.48,2.16-.03,4.13-.06,8.26-.1,12.39-.73.06-1.46.12-2.19.18-2.61-.41-5.27-.33-7.79.25-1.79.42-4.24-.98-5.36,1.63-.07.54-.14,1.08-.21,1.62-.63.45-.71,1.04-.44,1.72-5.07,12.3.65,23.54,3.48,35.06.69,2.81,1.73,5.54,2.73,8.26,1.22,3.31,0,5.32-3.15,6.44-1.69.6-3.39,1.2-5.08,1.79-1.21.42-2.35.85-2.34,2.47.02,3.92-2.54,6.23-5.35,8.36ZM145.04,452.9c.12.2.24.41.36.61.07-.18.14-.36.21-.53-.21,0-.42.01-.63.02.08-.52.33-1.08.2-1.54-.66-2.4-1.49-4.7-.08-7.19,1.48-2.6,4-2.76,6.91-2.87-.98-1.73-.73-3.84-2.31-4.24-2.76-.7-5.67-.85-8.53-1.07-.72-.05-1.09.83-1.03,1.56.44,5.47.64,11.02,4.91,15.26ZM147.93,424.7c-.86-1.5-.22-4.08-2.66-4-.91.03-2.88,1.11-2.46,2.25.75,2.06,3.08,1.66,5.12,1.75Z"/>
        <path class="cls-3" d="M226.45,434.81c1.23.4,2.18,1.15,2.79,2.31-.31.56-.62,1.13-.93,1.69-5.65-4.4-12.1-3.94-18.58-3.2,6.33.6,12.41,1.94,17.75,5.66-.16,2.26-1.49,3.87-2.96,5.42-.4-.43-.8-.86-1.19-1.29,2.14-3,1.23-4.08-2.28-5.01-5-1.33-9.98-1.53-15.05-1.49-1.19-.52-1.97.38-2.88.83-.39-.37-.78-.74-1.16-1.11-.3-.52-.6-1.05-.91-1.57-.44-3.75,3.28-2.56,4.77-4.02,2.63.45,5.08-.81,7.67-.79,2.99.11,5.88,1.46,8.94.7l.09.05c.92,1.44,2.53,1.42,3.93,1.85Z"/>
        <path class="cls-3" d="M203.13,439.71c.91-.45,1.69-1.35,2.88-.83-.31,4.28,3.45,5.65,5.9,7.69,4.7,3.94,7.11,3.57,11.01-.78.46.46.92.92,1.38,1.38-2.99,5-5.5,5.86-10.47,3.18-4.58-2.47-8.2-6.03-10.7-10.65Z"/>
        <path class="cls-3" d="M231.69,479.48c-3.17-3.63-3.48-6.91-.8-8.9,1.44-1.06,3.53-1.62,4.56-.39,1.7,2.03-1.17,1.62-1.9,2.38-1.2,1.26-1.31,2.66-.87,4.21.14,1.08.81,2.35-1,2.7Z"/>
        <path class="cls-3" d="M161.16,488.66c2.31,1.82,2.71,5.11,5.2,6.8.64,1.48,1.29,2.97,1.98,4.56-3.3-.83-6.77-5.46-8.66-11.37.49,0,.99,0,1.48.01Z"/>
        <path class="cls-3" d="M94.31,477.91c1.52.68,3.03,1.35,4.55,2.03,0,0,.11.03.11.02.62.92,1.51,1.39,2.6,1.52.49.26.98.53,1.47.79.43.75,1.26,1.29,1.16,2.3-2.75-.96-5.5-1.93-8.24-2.89-1.05-.71-2.1-1.42-3.15-2.13.96-.12,1.37-.75,1.5-1.64Z"/>
        <path class="cls-3" d="M156.45,480.3c1.64.49.65,3.37,2.97,3.25,0,0-.11.09-.11.09-.16,1.04-.32,2.07-.47,3.11-1.42-1.92-2.15-4.09-2.38-6.44Z"/>
        <path class="cls-3" d="M151.23,478.19c1.66.05,3.68-1.39,4.71,1.17-1.51-.65-3.38.18-4.71-1.17Z"/>
        <path class="cls-3" d="M158.83,486.75c.16-1.04.32-2.07.47-3.11,2.39,1.02,1.12,3.39,1.86,5.02-.49,0-.99,0-1.48-.01-.28-.63-.56-1.27-.85-1.9Z"/>
        <path class="cls-3" d="M224.3,447.17c-.46-.46-.92-.92-1.38-1.38.13-.14.27-.28.42-.41.4.43.8.86,1.19,1.29.09.25.01.41-.23.5Z"/>
        <path class="cls-3" d="M156.75,414.66c-.08,2.27,1.99,2.43,3.29,3.36-.02.56-.05,1.12-.07,1.69-2.35.04-3.75-1.44-4.99-3.15.06-1.13.43-1.97,1.78-1.89Z"/>
        <path class="cls-3" d="M160.87,471.25c.15,1.63-.58,2.81-1.9,3.81-.79-1.49-.02-2.67.45-3.87.48.02.97.05,1.45.07Z"/>
        <path class="cls-3" d="M178.7,413.88c-.29.55-.69.48-1.13.19.75-.51,1.51-1.01,2.27-1.52,0,0,.12.07.12.07-.42.42-.84.84-1.26,1.26Z"/>
        <path class="cls-3" d="M231.45,431.52c.8,4.7-2.69,1.37-3.99,2.13-1.48-1.41-3.22-.97-4.93-.7,0,0-.09-.05-.09-.05-2.12-2.55-5.14-2.37-8.01-2.6-2.66.66-5.36-.13-7.65-.92-4.24-1.46-8.38-1.1-12.61-.87.03-.39.05-.78.08-1.17,8.06-3.28,16.04-1.71,24.03.32,4.41,1.12,8.53,3.23,13.1,3.81l.08.05Z"/>
        <path class="cls-3" d="M182.43,413.17c5.28.28,9.85-1.56,14.47-5.92-2.45,5.91-7.88,8.41-14.47,7.64,0-.57,0-1.15,0-1.72Z"/>
        <path class="cls-3" d="M214.42,430.3c2.88.24,5.89.06,8.01,2.6-3.06.77-5.95-.58-8.94-.7.47-.56,1.29-.95.93-1.91Z"/>
        <path class="cls-3" d="M222.52,432.96c1.72-.28,3.46-.72,4.93.7-.33.39-.67.77-1.01,1.16-1.4-.43-3.01-.41-3.93-1.85Z"/>
        <path class="cls-3" d="M194.24,427.34c-.03.39-.05.78-.08,1.17-.58.49-1.52,1.2-1.8.25-.24-.81.88-1.4,1.88-1.42Z"/>
        <path class="cls-3" d="M182.43,413.17c0,.57,0,1.15,0,1.72-1.34.03-2.81.5-3.73-1.02.42-.42.84-.84,1.26-1.26.82.18,1.64.37,2.46.55Z"/>
      </g>
      <g>
        <path class="cls-2" d="M12431.7,2762.46c-.86.57-1.11,1.34-.76,2.3-3.97,7.11-7.73,14.34-11.99,21.26-1.85,3.02-1.34,9.86-8.35,6.47-32.5-68.29-64.91-136.62-97.52-204.86-31.37-65.65-62.93-131.21-94.5-196.77-1.82-3.79-2.42-8.48-6.69-10.79,5.14-4.05,11.2-2.44,16.87-2.54,23.72-.39,47.45-.48,71.18-.68,1.86,1.17,3.71,2.34,5.57,3.51,6.1,16.84,13.9,32.86,23.07,48.23l-.15.82.7.45c10.22,24.5,21.45,48.5,34.49,71.64l-.22.82.69.49c2.45,8.55,6.3,16.42,11.43,23.68l-.08-.13c12.25,26.52,24.5,53.03,38.14,82.55,29.16-58.9,56.74-114.61,84.32-170.31.84-.47,1.09-1.16.75-2.06,11.32-21.73,22.68-43.44,33.9-65.22,1.69-3.28,4.3-7.34-2.38-8.51-4.76-5.18-10.99-2.84-16.52-2.85-95.75-.14-191.5-.27-287.25.14-12.4.05-20.89-3.5-24.55-15.5-2.93-9.62-8.16-18.15-11.96-27.32-10.8-26.08-10.54-26.19,17.67-27.9,3.21-1.19,6.42-1.18,9.64,0,5.55,0,11.09,0,16.64,0,5.31-.28,10.62-.81,15.93-.81,113.18-.05,226.35-.05,339.53,0,5.31,0,10.62.53,15.93.82,7.5,0,14.99.01,22.49.02,8.21-1.33,16.41-1.35,24.62.02,8.67,1.68,5.08,6.51,3.87,11.96-3.57,15.92-20.8,26.5-17.3,45.01.18.84-.12,1.44-.91,1.78-13.84,4.4-14.89,15.24-13.7,27.21.26.89,0,1.57-.79,2.06-6.07-.04-7.94,4.66-10.05,9-9.94,20.45-18.97,41.42-30.2,61.13-4.1,7.2-6.96,13.31-5.65,21.29-.81,1.57-1.63,3.15-2.44,4.72-3.11.63-5.1,2.61-6.5,5.33-13.64,26.67-27.48,53.25-40.79,80.08-3.1,6.25-8.43,12.26-5.86,20.31-2.35,5.27-4.52,10.62-7.08,15.78-26.74,53.88-53.54,107.74-80.32,161.6-.82.47-1.09,1.16-.81,2.07-.7,1.23-1.41,2.46-2.11,3.69Z"/>
        <path class="cls-2" d="M12925.13,2707.55c.8.15,1.52-.03,2.16-.52,25.92-2.16,26.06-2.4,26.06-27.04-.01-79.73-.46-159.46.46-239.17.2-17.23-2.31-29.06-21.63-31.25-2.2-.25-4.88-1.2-4.42-6.44,18.1,0,36.36-.1,54.61.02,28.52.19,40.78,12.27,40.84,40.88.17,77.78.12,155.56.16,233.34q0,22.78,21.91,30.09c1.97.66,3.49,1.54,2.62,4.3-1.13.44-2.42,1.38-3.71,1.38-36.93.12-73.86.19-110.8.12-3.74,0-8.2.05-8.26-5.72Z"/>
        <path class="cls-2" d="M12610.26,2491.65c.72.45,1.35.34,1.87-.33,5.87,1.13,11.71.99,17.52-.39,8.73,1.19,17.46,1.16,26.2,0,43.82,4.55,49.39,10.76,49.43,55.57.03,47.1.17,94.21-.26,141.31-.09,10.45,2.94,16.28,13.89,17.9,4.51.67,11.53-.82,12.55,7.02-.84.58-1.68,1.16-2.52,1.74-34.95-.25-69.9-.29-104.84-1-5.05-.1-13.48,4.41-14.63-6.2,0,0-.1.08-.1.08q25.85-3.63,25.77-29.21c-.05-52.83-.36-105.67.22-158.5.12-11.23-2.93-17.02-14.33-18.71-4.71-.7-13.27.77-10.77-9.26Z"/>
        <path class="cls-2" d="M13352.54,2841.57c.41,1.84.81,3.67,1.22,5.51,1.03,13.11-1.4,25.57-7.1,37.4,0,0,.12-.13.12-.13-2.66,1.97-5.26,4.01-7.98,5.89-14.77,10.21-39.09,9.13-51.42-2.24-14.14-13.04-17.24-34.51-7.47-51.75,8.59-15.16,28.03-21.73,46.92-16.67,12.33,3.3,18.67,12.89,25.72,21.99ZM13314.16,2882c12.27-.25,23.23-11.22,23.33-23.35.12-14.67-10.49-25.71-24.28-25.26-13.41.43-22.42,10.87-22.07,25.56.31,12.98,10.61,23.31,23.02,23.06Z"/>
        <path class="cls-2" d="M13128.43,2893.81c-.12-1.95-.25-3.89-.37-5.84.34-13,.91-26,.99-39,.21-32.37,6.31-36.97,38.88-28.85,1.4.35,2.8.67,4.21,1l-.05-.11c.29,1.8,1.35,2.58,3.15,2.44,1.08,1.09,2.17,2.19,3.25,3.28-.18,1.83.66,2.88,2.44,3.22l-.15-.11c3.7,11.59,1.33,22.08-5.72,31.72,0,0,.04-.04.04-.04-12.72,8.09-.44,12.39,2.75,18.06,0,0-.08-.04-.08-.04-.31,5.8,6.14,9.66,4.42,16.47h-15.31c-1.01-1.74-2.02-3.49-3.02-5.23-.87-1.41-1.73-2.81-2.6-4.22l.14-.91-.72-.57c-2.26-6.9-3.39-17.47-12.09-15.9-6.87,1.25-2.48,11.49-3.47,17.67-.37,2.28.09,4.7.18,7.05-2.99,3.36-7.34,1.96-10.95,3.13-.86-.62-1.78-.72-2.76-.31-1.05-.98-2.09-1.95-3.14-2.93ZM13152.87,2834.59c-4.53-.48-7.91,1.95-7.65,9.01.22,6.04,3.11,9.06,8.87,8.62,5.88-.44,11.96-1.75,11.96-9.48,0-7.39-5.78-7.68-13.18-8.15Z"/>
        <path class="cls-2" d="M13213.56,2893.87c-1.09,1.03-2.18,2.06-3.27,3.09-4.16-2.95-16.39,3.98-12.96-6.73,7.88-24.6,18.54-48.31,28.09-72.4,6.19,2.39,6.38,6.26,7.56,9.15,9.11,22.41,17.96,44.93,27.11,67.95-8.07,1.92-12.93,1.53-19.55-3.25-7.54-5.44-18.95-9.66-26.96,2.19ZM13227.89,2857.94c-2.21,4.94-8.78,8.81-4.33,14.71.84,1.11,5.32,1.11,6.64-.06,6.04-5.32-1.09-9.54-2.31-14.65Z"/>
        <path class="cls-2" d="M13033.17,2818.42c1.64-.24,3.27-.48,4.91-.71,10.72.24,21.44.49,32.15.73,0,0,1.07.13,1.08.12.28,4.92.56,9.83.84,14.75-4.72.43-9.43,1.18-14.15,1.21-6.18.03-9.65,1.95-10.21,8.87-.66,8.23,5.07,6.23,9.3,6.66,3.31.33,6.66.16,10,.22h.01c.13,4.82.27,9.63.4,14.44l-.17.15c-1.93.04-3.91-.14-5.8.17-5.68.92-13.73-1.81-13.85,8.26-.12,9.92,7.27,8.26,13.41,8.4,1.45.03,2.9-.03,4.35-.04,4.42-.03,7.34,1.3,7.33,6.57-.01,5.03-1.03,8.49-7.06,8.37-7.74-.16-15.5-.32-23.22.08-7.45.39-10.38-2.43-10.19-10.06.56-22.72.62-45.46.88-68.19Z"/>
        <path class="cls-2" d="M12763.83,2733.13c23.3-4.93,36.11.03,42.42,16.43,5.97,15.5,1.01,34.01-11.18,41.74-11.27,7.15-28.71,5.18-37.65-4.26-11.03-11.65-12.08-32.74-2.12-45.67,2.05-2.66,4.6-4.93,6.92-7.37.8.2,1.34-.09,1.61-.87ZM12796.02,2763.75c-.02-15.22-6.23-24.2-16.92-24.49-10.88-.3-17.87,8.86-17.92,23.51-.05,14.68,6.68,24.38,17.1,24.67,11.05.3,17.76-8.66,17.74-23.68Z"/>
        <path class="cls-2" d="M12513.63,2791.37c-18.95-23.71-14.99-44.54,9.05-60.67,10.77-7.22,16.71,4.47,25.25,2.41.89.31,1.79.55,2.71.73,10.77,14.25,16.16,29.59,7.41,46.67-8.49,16.55-23.61,16.01-39.05,13.69,0,0,.17.13.17.13-1.09-.65-2.17-1.3-3.26-1.95-.53-.85-1.29-1.19-2.28-1.02ZM12549.66,2763.45c-.24-14.87-6.83-24.02-17.42-24.19-10.39-.17-18.87,10.16-19.04,23.19-.17,12.69,9.39,25.44,18.93,25.26,10.56-.19,17.76-10.15,17.53-24.27Z"/>
        <path class="cls-2" d="M12711.49,2742.87c-1.45-.06-3.08.3-4.31-.25-9.8-4.42-19.89-7.03-27.65,2.72-8.46,10.63-7.22,22.48-1.07,34.03,3.37,6.32,9.02,8.85,15.71,7.78,7.04-1.13,11.47-5.95,10.83-13.18-.57-6.54,1.96-11.17,7.74-11.24,8.23-.11,3.3,7.18,4.32,11.06,4.78,18.23-11.1,16.96-20.68,20.54-5.07,1.89-11.41.39-17.17.42l-.77-.74s-1.06.09-1.06.09c-3.35-2.81-6.7-5.62-10.04-8.42-.74-1.16-1.47-2.32-2.21-3.47.11-.97-.21-1.76-.97-2.37-.64-1.31-1.29-2.62-1.93-3.93-3.08-12.83,2-24.63,4.59-36.75,7.48-11.28,19.72-6.8,29.93-9.03.96.06,1.93.11,2.89.17.75.63,1.58.74,2.47.33,2.08.76,4.15,1.52,6.23,2.28,4.33,2.29,6.7,5.2,3.14,9.97Z"/>
        <path class="cls-2" d="M12207.56,2289.4c-28.21,1.7-28.47,1.81-17.67,27.9,3.8,9.16,9.03,17.7,11.96,27.32,3.66,12,12.15,15.56,24.55,15.5,95.75-.41,191.5-.28,287.25-.14,5.53,0,11.76-2.33,16.52,2.85-6.29.23-12.58.64-18.88.66-62.69.27-125.39.47-188.08.69-2.9-.02-5.8-.03-8.71-.05-36.09-.05-72.17-.1-108.26-.15-1-1.35-2.01-2.71-3.01-4.06.28-1.79-.48-2.92-2.2-3.44,0,0,.12.08.12.08-.88-4.61-2.37-8.93-5.91-12.27.21-.9-.1-1.57-.91-2.01-.66-1.33-1.33-2.66-1.99-3.99.34-.79.12-1.39-.64-1.79.22-1.74-.28-3.05-2.11-3.57,0,0,.14.05.14.06-4.65-13.35-10.62-26.08-18.19-38.03-1.19-4.88.26-7.11,5.73-6.75,10.08.65,20.19.83,30.29,1.2Z"/>
        <path class="cls-2" d="M13055.59,2794.55c-7.44.88-13.44-.18-14.59-9.39-.93-7.47-6.18-8.27-12.68-8.38-6.89-.11-10.86,1.87-12.33,8.94-.97,4.68-2.91,11-9.12,8.19-5.01-2.26-.66-7.4.52-11.02,5.41-16.5,11.06-32.92,16.63-49.37,3.25-.87,6.51-1.73,9.76-2.6,6.93,18.41,13.87,36.82,20.8,55.23.33,2.8.67,5.6,1,8.4ZM13026.9,2749.26c.37,8.22-6.65,12.91-1.21,18.26,1.31,1.29,7.6.18,7.67-.34.73-5.56-1.03-10.63-6.46-17.92Z"/>
        <path class="cls-2" d="M13107.26,2819.84c.24,1.33.48,2.66.72,3.98-1.06,4.88-1.15,9.74.25,14.57-.02,4.86-.04,9.71-.06,14.57-1.78,13.6-1.17,27.23-.38,40.86l-.61.66s.31.85.31.85c-12.49,3.67-17.26-.35-16.66-13.89.86-19.18-.2-38.44-.44-57.67.37-1.3.75-2.59,1.12-3.89,5.24-1.18,10.49-1.62,15.74-.03Z"/>
        <path class="cls-2" d="M12840.74,2755.59c-1-8.47-6.75-15.71-6.37-24.54,0,0-.04.03-.04.03,2.76-.17,5.52-.34,8.28-.52.48.68,1.07.79,1.76.31,11.06,11.43,5.83,29.67,16.99,41.2,5.15-13.79,10.23-27.37,15.3-40.94,0,0,1.03-.19,1.03-.19,7.85.49,6.4,4.9,4.39,9.91-6.18,15.45-12.23,30.95-18.27,46.45-1.06,2.72,1.19,6.92-4.23,7.59-5.56.69-5.09-4.78-7.88-6.83-1.26-3.68-2.52-7.35-3.78-11.03-.62-1.52-1.24-3.05-1.85-4.57l.21-.71s-.57-.48-.57-.48c-.63-2.09-1.26-4.18-1.9-6.27-.64-1.82-1.28-3.64-1.93-5.47-.43-1.22-.86-2.44-1.29-3.66l.13-.29Z"/>
        <path class="cls-2" d="M13352.04,2783.91c-8.43,12.49-20.44,13.46-33.53,10.05-3.29-.86-8.46-1.3-6.22-7.33,2.01-5.41,5.11-2.32,8.07-1.07,1.32.56,2.84.65,4.25,1.02,6.09,1.58,11.8,1.56,14.56-5.29,2.7-6.69-2.28-9.82-7.02-12.39-10.62-5.76-24.42-10.18-18.13-26.29,6.1-15.63,20.46-8.14,31.76-8.59.48-.02,1.02,1.36,1.92,2.64-2.23,4.29-6.43,2.59-9.8,2.66-4.89.1-10.27-.73-12.03,5.42-2.02,7.05,3.89,8.94,8.43,11.46,6.34,3.52,13.1,6.44,17.46,12.68,1.62,4.98,1.25,10,.27,15.03Z"/>
        <path class="cls-2" d="M12635.48,2795.1c-14.99,2.25-20.19-4.11-18.17-18.93,1.23-8.95.99-18.3-.02-27.31-1.18-10.49,2.82-13.53,12.68-12.59,6.62.63,13.39-.21,20.09-.39,1.99,1.1,3.98,2.21,5.97,3.31-2.09,9.89-9.97,4.57-15.33,5.8-4.48,1.03-11.26-2.81-11.54,6.45-.25,8.29,3.5,11.37,11.32,11.01,3.13-.15,6.66-.7,9.03,3.09-2.94,5.2-7.74,3.98-11.59,3.66-7.55-.62-8.66,3.17-8.84,9.55-.21,7.27,4.12,6.46,9.02,7.7,5.79,1.46,16.93-7.07,16.72,7.62-2.57.3-5.13.59-7.7.89-.96.01-1.92.02-2.88.04-2.92.04-5.83.07-8.75.11Z"/>
        <path class="cls-2" d="M12474.96,2732.78c4.79.18,9.62.09,14.36.66,2.58.31,5.98,1.59,5.07,4.94-.71,2.63-3.5,5.25-6.72,3.66-10.04-4.98-19.39-4.7-24.48,6.01-5.67,11.93-5.1,24.24,4.2,34.94,7.38,6.71,14.75,6.07,22.11-.03,10.33,2.21,7.3,6.39,1.63,10.97-.77-.25-1.28,0-1.55.76-7.79.08-15.57.16-23.36.24-1.33-.47-2.66-.94-3.99-1.41-20.76-18.51-20.33-42.39,1.13-62.92,3.73,1.45,7.31,3.72,11.61,2.18Z"/>
        <path class="cls-2" d="M13098.13,2737.41c-.29,12.51-.12,25.05-1.03,37.51-.66,9.01,2.47,12,11.39,11.34,4.55-.34,13.02-3.09,12.87,4.35-.14,6.93-8.96,1.87-13.24,4.38-1.96.06-3.93.13-5.89.19-10.49.3-20.68.22-17.81-15.17-.01-2.93-.03-5.86-.04-8.8.48-13.46.96-26.92,1.45-40.39,3.9,1.07,8.55-1.16,11.82,2.69-.12.43-.44.92-.33,1.27.25.79.71,1.51,1.08,2.26l-.28.36Z"/>
        <path class="cls-2" d="M12974.4,2733.32c-.09,13.12.61,26.3-.52,39.33-.97,11.23,3.03,14.71,13.75,13.67,3.95-.38,11.47-3.04,11.15,4.62-.26,6.19-7.02,3.35-10.81,3.51-25.86,1.06-25.96.93-25.84-24.46.07-13.09.57-26.18.88-39.27l1.12.13,1.02-.48c1.95,0,3.9.02,5.84.03,1.13.97,2.26,1.94,3.39,2.92Z"/>
        <path class="cls-2" d="M12582.97,2795.16c-8.95.73-12.53-2.64-12.01-12.29.94-17.34.49-34.76.62-52.15,0,0-.1.05-.1.05,3.56.22,7.11.43,10.67.65,0,0-.19-.21-.19-.21.48,12.36.95,24.72,1.42,37.08,0,3.9,0,7.8,0,11.7-.81,9.86,6.85,4.63,10.77,6,4.21,1.48,12.16-3.49,12.1,4.64-.05,6.68-7.9,2.14-11.65,4.35-3.87.05-7.75.1-11.62.16Z"/>
        <path class="cls-2" d="M12903.15,2730.78c.33,18.93.62,37.86,1.02,56.79.1,4.67-1.31,7.34-6.6,7.12-4.61-.19-5.59-2.79-5.59-6.64.03-16.53.39-33.08-.18-49.59-.26-7.54,4.73-6.97,9.18-8.02.66.53,1.38.64,2.17.34Z"/>
        <path class="cls-2" d="M12729.15,2794.49c-.4-18.45-.8-36.89-1.2-55.34.06-10.91,5.95-9.19,12.59-5.8-.25,20.32-.51,40.64-.76,60.96-.88-.17-1.62.08-2.23.73-.97-.33-1.92-.28-2.85.14-1.85-.23-3.7-.46-5.56-.69Z"/>
        <path class="cls-2" d="M12667.91,2289.81c-9.67,18.87-19.34,37.73-29.01,56.6-3.5-18.51,13.73-29.09,17.3-45.01,1.22-5.44,4.81-10.27-3.87-11.96,5.21-.5,10.45-2.72,15.58.37Z"/>
        <path class="cls-2" d="M12627.72,2289.42c-7.5,0-14.99-.01-22.49-.02,7.5-1.74,14.99-1.72,22.49.02Z"/>
        <path class="cls-2" d="M12233.84,2289.4c-5.54,0-11.09,0-16.64,0,5.54-1.67,11.09-1.66,16.64,0Z"/>
        <path class="cls-2" d="M12575.16,2473.6c-5.73,12.23-11.45,24.46-17.18,36.69-11.99,23.01-23.98,46.03-35.97,69.04-2.57-8.05,2.76-14.06,5.86-20.31,13.31-26.84,27.15-53.41,40.79-80.08,1.39-2.73,3.39-4.7,6.5-5.33Z"/>
        <path class="cls-2" d="M12623.5,2377.46c-14.42,30.91-29.41,61.55-45.9,91.42-1.31-7.98,1.55-14.09,5.65-21.29,11.23-19.71,20.27-40.68,30.2-61.13,2.11-4.34,3.98-9.04,10.05-9Z"/>
        <path class="cls-2" d="M12637.99,2348.19c-3.25,9.73-7.76,18.83-13.7,27.21-1.19-11.97-.14-22.81,13.7-27.21Z"/>
        <path class="cls-2" d="M13213.5,2427.39c7.73-1.31,8.33,5.36,10.46,9.78,33.92,70.43,67.58,140.98,101.69,211.32,5.1,10.52,2.51,12.09-8.35,13.37-26.23,3.1-42.32-4.15-52.28-31.34-12.27-33.49-30.3-64.87-47.6-100.81-10.9,21.2-20.4,39.32-29.58,57.6-11.75,23.42-22.83,47.18-35.01,70.36-5.95,11.32-2.81,14.11,8.86,14.04,52.98-.36,105.97-.36,158.95-.29,6.02,0,13.68-2.55,17.33,4.31,5.67,10.65,11.71,21.57,14.5,33.12,1.65,6.83-7.19,4.16-11.25,4.18-58.82.24-117.63.19-176.45.19-25.76,0-51.53-.33-77.29.12-11.39.2-15.84-.78-9.22-13.8,38.5-75.67,76.26-151.73,114.14-227.71,7.33-14.71,14.13-29.69,21.17-44.55,0,0-.07.12-.07.12Z"/>
        <path class="cls-2" d="M13213.09,2795.14c-14.95,3.64-18.03-3.45-17.12-16.95,1-14.88-.14-29.9-.34-44.87.72-.42.9-1.01.54-1.77,14.01.16,28.72-3.34,40.67,7.71,1.84,6.79,1.67,13.06-4.35,17.97-2.43,1.98-3.85,3.64.17,5.99,8.97,5.24,8.82,13.72,7.05,22.53-2.08,1.98-4.15,3.96-6.23,5.93-6.8,1.15-13.6,2.3-20.39,3.45ZM13208.37,2776.22c-.98,6.45.57,10.23,8.1,9.92,7.34-.3,12.07-2.5,11.58-10.77-.49-8.34-6.41-9.53-13-9.92-9.01-.53-6.02,6.38-6.68,10.77ZM13225.3,2747.5c-.68-6.09-5.16-7.24-10.22-7.51-7.33-.4-6.72,4.71-6.87,9.64-.18,6.09,3.24,7.07,8.22,6.75,5.59-.37,8.99-2.7,8.87-8.87Z"/>
        <path class="cls-2" d="M12962.3,2818.01c7.14.15,14.32.78,21.43.32,11.32-.73,20.44,2.88,27.46,11.77,0,0,.05-.03.06-.03,3.61,10.6-3.96,21.23-1.02,31.02,2.49,8.3,3.4,15.74,1.43,23.86,0,0,.04-.07.04-.07-12.23,15.47-29.33,11.66-45.45,11.3-7.28-.16-6.23-6.21-6.21-10.79.08-22.23.37-44.45.58-66.67.78.28,1.34.04,1.68-.71ZM12989.15,2865.44c-8.49-.3-13.3-.34-13.61,6.75-.29,6.81,2.67,9.97,9.41,9.32,5.29-.51,11.36-.81,11.69-7.94.34-7.31-5.49-7.92-7.49-8.13ZM12984.45,2849.96c6.34.04,11.87-.96,11.85-8-.03-6.91-5.54-8.12-11.21-8.22-5.46-.09-9.22,1.37-8.99,8.09.22,6.22,3.03,8.7,8.35,8.13Z"/>
        <path class="cls-2" d="M12852.15,2818.76c8.68-.08,17.35-.11,26.03-.26,11.19-.19,19.02,5.45,25.14,14.19.37,1.93.74,3.86,1.11,5.79,0,2.86,0,5.72,0,8.57-.49,1.85-.98,3.7-1.46,5.54-10.51,9.23-16.09,18.87-2.51,30.1,0,0-.15.2-.15.2,1.32,4.05,2.64,8.11,3.97,12.21-12.25,4.12-18.56-1.09-21.55-12.22-.74-2.75-1.49-5.84-3.27-7.87-2.67-3.05-4.9-8.22-10-6.84-4.9,1.32-2.52,6.49-3.58,9.91-1.95,6.28,5.5,17.94-7.39,17.88-12.82-.05-7.08-11.69-7.07-17.94.02-19.75-1.98-39.56.74-59.27ZM12875.26,2832.82c-8.16-.4-11.85,2.94-11.95,11.08-.11,9.11,6.06,8.35,11.81,8.48,6.23.14,13.35-2.02,13.11-8.24-.23-5.96-4.11-13.25-12.97-11.32Z"/>
        <path class="cls-2" d="M12938.12,2821.21c-.03,21.08,0,42.16-.17,63.24-.03,4.06,1.65,9.56-3.66,11.27-4.98,1.61-10.66,1.95-13.09-4.84-.03-2.9-.06-5.79-.09-8.69.21-20.44.42-40.88.63-61.32,1.84-1,3.67-2,5.51-3,2.81.28,5.62.56,8.43.83.81.83,1.62,1.66,2.43,2.49Z"/>
        <path class="cls-2" d="M12929.99,2747.91c-.26,6.26-.1,12.57-.88,18.76-1.69,13.5.5,22.88,17.54,19.44,2.55-.51,6.1-.63,6.53,3.57.54,5.33-3.43,4.71-6.72,4.91-.48.03-.97-.02-1.45.01q-27.95,1.93-28.1-26.21c-.04-8.7.55-17.47-.26-26.1-.99-10.53,3.08-13.17,12.45-9.88.3,5.16.59,10.33.88,15.5Z"/>
        <path class="cls-2" d="M13251.32,2742.21c10.46-13.67,25.74-10.71,38.45-7.9,12.07,2.67,16.05,16.22,16.56,27.58.66,14.68-6.72,26.26-20.31,33.12-1.82.22-3.63.43-5.45.65-3.03-.01-6.05-.02-9.08-.03-6.7-1.38-12.31-4.92-17.7-8.91,0,0-.54-.63-.54-.63-9.28-14.25-8.51-28.94-1.93-43.89ZM13294.43,2764.31c.23-13.22-8.41-24.74-18.81-25.07-9.74-.31-17.95,9.16-18.45,21.27-.6,14.55,8.82,27.26,20.01,27.01,9.49-.21,17.03-10.36,17.25-23.21Z"/>
        <path class="cls-2" d="M13241.6,2811.53c-10.99-.55-24,6.63-31.28-8.15.91-1.1,1.82-2.19,2.73-3.29,9.8-4.58,19.57,2.35,29.36.06.24.73.74,1.02,1.5.86.14,2.49.28,4.98.42,7.47,0,0,.33-.14.33-.13-.99,1.12-1.99,2.23-2.98,3.34l-.07-.16Z"/>
        <path class="cls-2" d="M12889.21,2707.25c.33,5.57-3.44,6.24-7.61,6.23-35.96-.08-71.92-.18-107.88-.38-1.22,0-2.43-1.06-4.23-1.9.88-1.42,1.31-3.1,2.22-3.42,21.75-7.63,21.68-7.61,21.68-30.26-.03-81.17.02-162.34-.01-243.51,0-9.88,2.63-21.38-13.22-22.12-1.57-.07-4.19-3.37-4.22-5.2-.06-4.07,3.83-3.56,6.55-3.55,17.5.04,35.03-.48,52.47.6,14.56.9,25.82,12.53,28.08,27.33,1.02,6.69,1.21,13.55,1.22,20.34.08,76.31.03,152.62.07,228.93q.01,23.93,24.83,26.88s.07.04.07.04Z"/>
        <path class="cls-2" d="M13128.02,2763.8c-.06-23.15,6.95-30.46,29.31-30.57,18.2-.09,29.45,10.77,29.78,28.76.37,20.21-11.94,33.68-30.57,33.44-18.45-.23-28.47-11.35-28.52-31.63ZM13140.41,2762.39c-.12,17.82,4.33,24.64,16.39,25.09,10.71.4,17.95-8.92,18.01-23.19.06-13.51-8.28-24.92-18.33-25.1-11.54-.2-15.95,6.17-16.07,23.2Z"/>
        <path class="cls-2" d="M12635.49,2434.13c-.23-18.01,11.71-30.58,29.28-30.85,18.07-.27,31.88,13,31.77,30.52-.11,16.71-13.58,30.06-30.76,30.48-17.26.42-30.07-12.33-30.3-30.15Z"/>
      </g>
    </g>
  </g>
</svg>