<?xml version="1.0" encoding="UTF-8"?>
<svg xmlns="http://www.w3.org/2000/svg" version="1.1" viewBox="0 0 902 902">
  <defs>
    <style>
      .cls-1 {
        fill: #f5fbfa;
      }
    </style>
  </defs>
  <!-- Generator: Adobe Illustrator 28.6.0, SVG Export Plug-In . SVG Version: 1.2.0 Build 709)  -->
  <g>
    <g id="Camada_1">
      <g>
        <path class="cls-1" d="M681.61,261.13c3.78.82,7.61.88,11.45.67.85.61,1.76.66,2.71.28,1.7.87,3.52.84,5.35.76.83.67,1.75.69,2.71.32,1.03.7,2.16.92,3.37.7.54.09,1.08.17,1.62.26,2.05.96,4.19,1.56,6.46,1.63,0,0,.27.24.27.24l.34-.12c.18.26.42.33.71.21,0,0-.15-.04-.15-.04,8.41,3.32,17.16,6.03,24.71,11.09,27.65,18.53,40.2,45.14,38.17,77.79-2.62,42.26-23.2,74.12-59.83,95.45-3.74,2.18-7.88,3.67-11.83,5.48-.55-.21-.96-.05-1.19.51-4.13.33-7.97,1.7-11.76,3.24-.95-.25-1.79-.12-2.36.78-.97-.51-1.86-.22-2.71.3-.69-.14-1.27-.06-1.49.74-.92-.82-1.69-.29-2.46.26-.28-.22-.53-.19-.75.1-1.88-.33-3.61.17-5.31.89-1.27-.27-2.5-.29-3.49.76-1.54-.67-3.03-.37-4.52.17-.98-.37-1.93-.33-2.84.23-15.24.03-30.48.06-45.71.09-1.87-.55-3.75-.85-5.68-.3-1.74-.81-3.59-.81-5.45-.71-2.49-.62-4.99-.58-7.5-.06-13.59-.26-27.16-.07-40.73.82-6.62-.58-13.23-.29-19.84.22-3.89-2.19-2.16-4.36.03-6.52.64.15,1.1-.07,1.37-.67,2.03.3,3.84-.43,5.65-1.16.98.27,1.88.22,2.54-.69,1.23.8,2.35.33,3.45-.29,0,0,.4.13.4.13l.35-.24c2.32.2,4.55-.02,6.6-1.24.61.25,1.12.17,1.46-.47,7.4-1.81,10.42-6.03,10.45-14.61.83-.26.96-.87.81-1.63,1.2-2.6,1.83-5.33,1.8-8.2.11-.64.22-1.29.33-1.93.42-.44.6-.89.05-1.37.68-.28.76-.82.61-1.45.13-1.05.26-2.11.39-3.16,1.13-1.59.96-3.37.78-5.16,3.01-13.28,3.92-26.87,5.87-40.31,2.96-20.43,5.4-40.93,7.98-61.41,1.24-9.88,2.51-19.77,3.36-29.69.62-7.15-.48-8.94-7.13-11.49-5.15-1.97-10.65-2.98-15.93-4.63-4.45-1.38-4.89-3.09-2.1-6.71,1.26-.11,2.53-.21,3.79-.32,3.79.62,7.59.46,11.38.02,0,0,.38.17.38.17l.39-.16c18.89,1.93,37.81,2.94,56.8,1.97,1.65-.08,3.29-.39,4.93-.59.62.45,1.22.47,1.78-.11,8.14-.32,16.27-.63,24.41-.95,1.57.69,3.16.71,4.76.08ZM653.54,455.64c1.5,0,3.04.23,4.5,0,33.92-5.29,59.62-23.24,77.04-52.31,11.94-19.92,14.28-42.29,12-65.22-1.89-18.98-9.73-34.86-24.66-46.74-25.7-20.46-55.72-23.07-86.86-19.66-8.7.95-10.71,3.62-11.52,12.5-2.36,26.08-6.55,51.94-9.65,77.93-2.78,23.32-6.28,46.57-7.11,70.1-.26,7.25,2.75,12.6,8.58,16.59,11.37,7.78,24.1,8.2,37.16,6.83l.26.23.25-.25Z"/>
        <path class="cls-1" d="M627.44,221.72c-2.07-.57-4.14-.55-6.21.03-4.63-.6-9.26-.46-13.87.24-.77.02-1.54.03-2.31.05-.26-.24-.51-.22-.73.06-18.34.48-36.56,2.24-54.69,5.03-36.24,5.58-71.56,14.53-105.3,29.09-22.02,9.5-43.07,20.66-59.94,38.28-4.66,4.87-8.68,10.28-11.12,16.61-5.54,14.38-1.05,27.7,12.32,37.37,16.19,11.7,34.65,17.98,53.86,22.32,9.3,2.1,18.53,4.66,28.12,5.24.86.68,1.72,1.37,2.58,2.05-18.06-1.4-36.12-2.67-53.99-6.04-19.21-3.62-37.96-8.85-55.64-17.06-12.62-5.86-23.51-14.29-31.35-26.4-7.1-10.95-7.94-29.16,3.38-42.97,12.69-15.48,28.82-26.07,46.38-34.68,41.6-20.4,86.04-31.03,131.65-37.37,37.2-5.17,74.55-6.67,112.02-3.85,30.72,2.32,60.97,7.31,90.24,17.31,4.44,1.52,8.78,3.28,13.02,5.25-1.23-1.91-3.36-1.26-5.02-1.55-12.02-2.12-23.88-5.1-36.23-5.31-7.21-.12-14.39-1.78-21.59-2.76-7.53-1.02-15.05,0-22.58.04-4.18-2.41-8.63-1.31-13.02-1Z"/>
        <path class="cls-1" d="M512.08,459.36c-2.02-.58-3.57.6-5.19,1.42-16.16,8.12-32.79,15.14-50.15,20.18-15.22,4.42-30.32,9.19-46,12.1-9.51,1.76-19.03,4.33-28.58,5.41-16.3,1.84-32.58,3.99-48.98,5.05-18.61,1.2-37.25,1.12-55.86,1.17-11.21.03-22.42-1.99-33.65-2.93-16.37-1.36-32.46-4.29-48.41-8.12-10.84-2.61-21.5-5.82-31.91-9.81,0-.6,0-1.2,0-1.8,10.12,3.24,20.67,4.26,31.1,5.63,56.13,7.33,111.96,4.77,167.26-6.85,33.7-7.08,66.61-17.15,97.08-33.6,15.98-8.63,31.6-18.09,43.44-32.49,11.83-14.37,13.49-29.11,4.28-41.4-4.5-6.01-10.42-10.42-16.85-14.14-17.83-10.3-37.49-15.26-57.37-19.63-7.34-1.61-14.88-2.22-20.1-3.93,7.48-.42,16.91.17,26.34,1.19,21.92,2.37,43.55,6.17,64.43,13.39,15.43,5.34,30.28,11.9,42.33,23.47,18.38,17.64,18.87,39.87,1.28,58.57-1.13,1.2-2.69,2.07-3.05,3.88,0,0,0,.07,0,.07-2.04.58-3.28,2.05-4.22,3.85l.28.24-.26-.26c-1.74.57-3.22,1.44-3.73,3.38v.03c-1.75,1.23-4.31,1.41-5.16,3.86l.19.14c-.87-.15-1.41.2-1.6,1.07-.8-.63-1.19-.12-1.52.55-2.06.57-3.73,1.7-4.99,3.42h-.02c-3.69,1.93-8.1,2.79-10.35,6.88h-.03Z"/>
        <g>
          <path class="cls-1" d="M56.06,588c-2.66-1.47-1.98-4.03-1.99-6.3-.04-15.12,0-30.24-.01-45.35q0-7.51,7.29-7.52c46.03-.02,92.05-.04,138.08-.04,213.16,0,426.32,0,639.48,0,10.93,0,8.92-.11,8.98,8.83.09,14.28.02,28.56.03,42.83,0,7.18.01,7.21-7.17,7.21-89.53,0-179.06-.01-268.59-.02-169.65-.01-339.31-.02-508.96-.02-2.17,0-4.35.23-6.52.35,0,0-.31-.18-.31-.18l-.3.19ZM75.08,567.24c-.28-.44-.57-.88-.85-1.33l.17-.1h-.21c-.06-1.36-.13-2.71-.19-4.06l-.07.12c0-1.41.02-2.82.03-4.22l-.04.16c.51-.9.71-1.83.34-2.84.81-1.86,1.62-3.72,2.43-5.57l.31-.05.1-.3c2.88-2.1,5.91-3.71,9.69-3.19,3.53.49,6.05,2.71,8.67,4.79.74.59,1.37,1.67,2.55.97,1.33-.79.89-2.02.55-3.14-.54-1.77-.97-4.01-3.02-4.3-7.07-1-14.27-2.58-20.91,1.79-2.1.41-3.41,2.1-5.11,3.15l.35-.27c-.62,1.05-1.24,2.09-1.86,3.14-1.58,1.38-2.06,3.17-1.91,5.18-.06.76-.12,1.53-.18,2.29-.65,2.17-.55,4.24.85,6.13.13.35.25.69.38,1.04-.13.65.09,1.1.72,1.35.92,2.98,3,4.76,5.89,5.72,6.95,4.4,14.36,3.19,21.78,1.78,1.36-.26,2.42-1.25,2.98-2.5.69-1.52,1.56-3.57.41-4.74-1.7-1.72-2.91.56-4.06,1.51-6.62,5.49-10.25,5.86-17.66,1.65-.32-.43-.64-.85-.96-1.28l.13-.38-.39-.08c-.34-.89-.68-1.77-1.01-2.66l.19.02-.08.21ZM305.76,568.57c-.05.64.21,1.06.88,1.16l.02.13c6.5,8.52,21.2,9.23,30.34,1.47.34-.31.69-.62,1.03-.93,6.47-5.68,6.5-15.3.07-21.08-5.93-6.69-18.23-8.07-27.16-3.08-4.34,2.43-7.02,5.97-7.56,11-.57,1.43-.61,2.87-.03,4.31-.29,2.66.52,4.95,2.34,6.9l.08.12ZM582.23,565.58l.07-.08c2.64-5.37,2.06-10.28-2.07-14.69-1.43-1.23-1.78-3.64-4.16-3.84-7.68-5.35-15.76-4.73-23.63-.89-8.95,4.37-11.29,15.36-5.43,23.48,5.92,8.21,20.68,9.68,29.77,2.97,1.73-1.32,3.95-2.17,4.42-4.68.82-.54,1.24-1.26,1.03-2.26ZM532.54,550.23c.05-.64-.36-.78-.87-.81l-.18-.15c-2.18-3.39-5.62-4.6-9.3-5.18-7.66-1.2-15.32-1.03-22.93.48-.97.19-2.51-.13-2.65,2.35,5.98-1.45,5.15,2.81,5.25,6.32.08,3.01.11,6.02.04,9.03-.12,5.02,1.71,10.84-6.93,13.12,4,.99,6.24.81,8.49.33,2.02.66,4.02.53,6.01-.12,6.99.51,14.15,2.23,20.31-2.96.3-.21.6-.43.9-.64,7.4-5.81,8.19-14.33,1.99-21.57l-.12-.2ZM268.87,568.36c.15-2.5,1.21-4.6,4.02-6.78-5.87-.6-10.61-.63-15.57.32,3.19,1.24,4.48,3.47,4.67,6.47-.02.77-.05,1.54-.07,2.3-.73,2.62-2.5,3.64-5.18,3.79-6.27.34-10.7-2.73-12.77-9.11-2.01-6.19.47-14.42,5.3-17.59,4.69-3.07,10.51-2.08,15.46,2.62.92.87,1.65,2.62,3.19,1.73,1.66-.95.6-2.72.48-4.14-.16-2.03-1.66-2.73-3.34-3.25-7.16-2.21-14.3-2.15-21.08,1.09-6.32,3.02-9.49,8.36-9.35,15.38.13,6.7,3.49,11.56,9.67,13.95,7.48,2.9,15.15,1.96,22.68-.16,1.54-.43,2.59-1.58,1.9-3.47.46-1.06.46-2.12,0-3.17ZM650.86,570.68c-.12,2.88-3.66,2.71-5.35,5.55,3.34-.26,5.76-.45,8.18-.64.62,0,1.25,0,1.87,0,2.34.35,4.71,1.11,8.3-.61-6.14-.87-5.9-4.5-5.75-8.22.15-3.66,0-7.34.08-11,.08-4.2-1.38-8.97,4.6-11.2-5.86-.62-11.14-.87-16.54.31,2.16,1.39,4.94,1.88,4.69,5.12-.46,6.9-.57,13.8-.08,20.7ZM384.42,567.04c-.39.55-.18,1,.25,1.41-1.78,4.9-4.64,6.49-9.56,5.56-2.9-.55-4.7-2.32-6.2-4.68-.67-1.06-2.06-2.79-2.93-.9-.96,2.1-1.54,4.98,1.24,6.72,4.6,2.88,15.15,1.77,19.12-1.95,3.8-3.55,3.9-8.58.27-12.81-2.73-3.58-7.12-3.87-10.87-5.41-3.08-1.26-5.83-2.63-5.28-6.7,5.65-3.99,7.62-3.68,12.48,2.03,1,1.18,2.45,2.84,3.2.48.7-2.21.78-5.38-2.29-6.44-5.28-1.82-10.69-1.97-15.36,1.52-3.14,2.35-4.58,5.69-2.4,9.64.11.34.22.67.33,1.01-.17.58.08.89.64.99.67,2.05,2.39,3.18,4.15,3.9,3.86,1.58,7.86,2.83,11.8,4.22.22.72.58,1.29,1.4,1.41ZM204.21,555.28c.15-1.15.57-2.34.41-3.45-.71-5.02,1.97-5.85,6.2-5.74,5.35.14,10.54.17,13.51,7.01,1.7-8.42,1.2-9.19-5.18-9.11-5.34.06-10.68.38-16.01.59-1.74-.43-3.47-.31-5.2.09-2.21-.51-4.4-.64-6.92.3,5.83.98,5.94,5,5.67,9.3-.06.97.23,1.96.36,2.93-.44,4.47-.59,8.95.06,13.42-.3,3.76-3.92,3.29-6.19,4.45.78,1.8,2.09,1.26,3.17,1.26,8.53.01,17.06-.01,25.59-.03,7.07,0,7.98-1.15,6.92-8.66-1.74-.19-2.1,1.43-2.96,2.33-3.27,3.4-12.28,5.53-16.83,3.43-4.07-1.89-1.15-6.03-2.23-8.97-.11-.31-.2-.64-.3-.96.15-.75.31-1.49.46-2.24,5.08-.39,10.74-2.78,13.78,5.43,1.18-5.15,1.36-8.87-.27-13.72-2.9,7.49-8.48,5.51-13.41,5.53-.21-1.07-.42-2.13-.63-3.2ZM165.51,569.55c.42-1.13.4-2.27,0-3.4.18-2.49.3-5,.55-7.48.51-5.1-2.69-11.45,4.7-14.4h-18.29q5.84,3.92,5.78,10.63c-.03,3.19-.02,6.38-.11,9.57-.12,4.4,1.33,9.61-5.7,11.1,10.98-.08,21.56.55,32.16.51,1.79,0,3.34-7.14,1.96-8.36-.81-.72-1.69-.39-2.12.38-3.2,5.73-8.67,5.39-14.1,5.63-3.25.14-4.6-1.17-4.83-4.16ZM707.1,566.67c-1.6-.15-2.54-1.22-3.68-2.24-6.2-5.55-12.53-10.95-18.82-16.4l-.11-.44h-.43c-.78-1.25-1.63-2.42-3.25-2.61-3.9-2.01-7.76-.76-12.75-.3,2.94,1.68,4.87,2.78,6.79,3.88.23,1.26.46,2.51.69,3.77-.15,5.15-.45,10.31-.39,15.46.05,3.8-.35,6.98-5.32,7.6,4.79,1.19,9.3,1.09,14.11.15-5.53-.75-5.77-4.5-5.73-8.55.03-3.17-.18-6.34-.22-9.51-.02-1.82-.26-3.82,2.25-4.37,4.75,4.37,9.37,8.88,14.73,12.53.18.98.74,1.57,1.75,1.68,2.05,2.57,4.42,4.78,7.27,6.43,1.13,1.68,2.37,3.73,4.65,3,2.61-.84,1.42-3.47,1.42-5.27,0-5.52-.3-11.04-.5-16.55-.14-4-1.76-8.59,4.71-10.25-4.58-.61-8.48-1.15-12.74.74,4.53.5,4.8,3.57,4.93,6.72.21,4.84.43,9.69.65,14.53ZM418.87,554.75c-1.4-2.98-2.72-6-4.22-8.93-1.81-3.52-3.72-2.98-5.22.21-1.57,3.33-2.63,6.93-4.41,10.13-3.67,6.58-3.72,15.3-11.95,19.43h13.51c-2.84-1.78-5.64-2.07-4.26-5.28,1.1-2.55,1.39-5.66,5.32-5.62,3.98.04,7.74-.73,9.8,4.55,1.44,3.69-.4,4.74-3.89,6.45h17.44c-5.2-2.67-6.69-7.39-8.09-12.22-.56-1.93-1.33-3.8-2.76-5.3-.42-1.14-.84-2.28-1.25-3.42ZM734.57,547.37c6.43-2.04,12.43-2.1,17.17,3.72.51.63,1.21,1.31,2.13.98,1.23-.45.95-1.6.95-2.58.02-2.24-.82-3.97-3.11-4.56-6.52-1.71-13.05-2.84-19.47.45-7.32,2.31-11.46,8.16-11.21,15.83.25,7.36,4.81,13.04,12.07,14.79,5.65,1.36,11.33.76,17,.01,3.74-.5,5.76-2.33,5.32-6.37-.32-2.89,0-5.65,4.31-8.06-6.44-.37-11.17-.79-16.9.03,4.95,2.89,6.55,6.83,4.67,10.44-1.91,3.67-5.45,2.59-8.49,2.2-3.62-.45-5.61-3.39-7.85-5.86.08-1.07-.22-1.98-1.1-2.64-.25-2.6-.5-5.21-.75-7.81,1.12-1.65,1.51-3.52,1.67-5.46,1.2-1.7,2.4-3.4,3.59-5.1ZM596.37,550.59c-.33,5.16-.67,10.32-.99,15.48-.23,3.67-.06,7.51-4.4,9.67,4.14-.42,8.01,1.38,12.94-.41-6.02-1.95-6.05-5.97-5.73-10.33.28-3.82.16-7.67.22-11.51,2.33.22,2.66,2.35,3.48,3.87,2.84,5.31,5.53,10.7,8.29,16.05.53,1.02.8,2.44,2.17,2.53,1.77.11,1.87-1.63,2.4-2.76.99-2.13,1.76-4.36,2.79-6.46,2.3-4.65,4.15-9.59,8.23-13.55.68,4.39.69,8.68.68,12.97-.01,3.61,1.24,7.72-3.69,9.66h16.14c-4.68-1.79-4.69-5.69-4.84-9.51-.16-4.02-.27-8.04-.47-12.06-.19-3.76-1.27-7.86,4.82-9.09-9.27-2.75-12.53-1.41-15.81,5.88-2.17,4.82-4.42,9.6-7.87,14.58-2.86-5.54-5.36-10.45-7.91-15.33-3.4-6.5-7.36-7.89-15.41-5.21,2.25,1.5,5.29,2.17,4.96,5.52ZM454.47,576.59c12.02.24,20.63-6.53,20.82-16.35.14-7.38-4.39-13.45-11.73-15.71-10.13-3.12-21.04-.22-25.51,6.71-1.89,2.93-2.73,6.07-2.53,9.55.48,8.47,6.41,15.94,18.95,15.81ZM822.74,576.85c7.75-.16,12.48-3.19,13.53-8.9,1.06-5.73-1.61-8.96-9.7-11.87-2.04-.73-4.12-1.44-6.04-2.44-1.69-.88-2.97-2.28-2.42-4.49.57-2.3,2.25-3.19,4.44-3.4,3.67-.35,5.96,1.55,7.73,4.53.78,1.32,2.42,2.9,3.13.37.68-2.41.96-5.64-2.69-6.59-3.96-1.03-7.99-1.27-11.89.22-3.67,1.41-6.46,3.73-6.39,8.1.07,4.33,2.29,7.28,6.25,8.88,3.11,1.26,6.27,2.38,9.42,3.56,2.12.8,3.31,2.31,3.23,4.58-.08,2.57-1.79,3.81-4.05,4.51-4.72,1.46-8.11-.3-10.78-4.21-.81-1.19-2.25-3.81-3.45-.85-.98,2.41-1.3,5.9,2.77,6.82,2.28.51,4.6.8,6.91,1.19ZM785.11,576.61c.62-.05,2.48-.08,4.3-.35,7.86-1.18,13.66-6.84,14.81-14.36,1.05-6.87-2.42-13.44-9.07-16.32-6.54-2.83-13.3-3.2-20.07-.51-9.49,3.78-13.46,13.78-8.59,22.72,3.67,6.73,10.03,8.99,18.62,8.82ZM126.69,576.62c1.02-.09,2.89-.09,4.69-.46,6.93-1.4,12.24-5.2,14.19-12.07,1.71-6.03-.03-11.65-4.83-16.01-7.58-6.87-23.51-6.24-30.59,1.21-2.28,2.4-3.46,5.32-3.84,8.57-1.29,11.11,6.89,18.96,20.39,18.75ZM296.08,575.76c-8.62-4.15-5.11-10.8-5.12-15.95,0-5.11-3.53-11.82,4.33-15.27-5.68-.65-11.01-.87-17.28-.26,6.99,4.3,7.05,26.19.55,31.48h17.52ZM403.1,540.58c4.05-2.87,6.79-1.15,9.64-.51,5.28,1.19,7.61-.35,8.06-5.57-3.11,2.54-6.03.89-9,.08-4.18-1.15-6.97.18-8.69,6ZM216.22,535.18c-6.39-1.96-8.35-.64-8.65,4-.04.59.07,1.51.43,1.71.41.23,1.32.02,1.76-.33,2.2-1.74,4.32-3.58,6.46-5.39Z"/>
          <path class="cls-1" d="M128.52,643.01c-.09-.69-.19-1.38-.28-2.06,13.97-2.65,27.92-5.4,41.91-7.94,33.25-6.04,66.48-12.19,99.9-17.31,23.49-3.6,47.04-6.77,70.63-9.49,17.79-2.05,35.68-3.38,53.57-4.64,23.98-1.69,47.95-2.28,71.96-1.99,44.25.54,88.05,5.02,131.43,14.06,54.86,11.44,107.19,29.9,157.49,54.42,13.73,6.69,27.37,13.54,40.58,21.21,2.52,1.46,4.94,3.08,7.5,4.42-12.87-4.14-25.13-9.87-37.72-14.76-21.93-8.52-44.18-16.07-66.6-23.12-29.62-9.31-59.8-16.5-90.25-22.45-14.04-2.74-28.37-3.96-42.44-6.51-14.06-2.55-28.25-3.87-42.44-5.06-17.83-1.49-35.7-2.36-53.57-3.29-28.7-1.49-57.36-1.34-86.03-.65-40.46.97-80.82,3.87-121.07,8.02-19.82,2.04-39.64,4.22-59.42,6.65-25.1,3.08-50.21,6.11-75.13,10.5Z"/>
        </g>
        <path class="cls-1" d="M281.09,448.06c-1.76,6.19-6.23,8.54-12.23,10.08-25.65,6.57-51.58,7.22-77.46,3.04-15.69-2.54-30.17-9.43-42.62-19.57-18.04-14.7-25.33-34.81-26.2-57.26-1.77-45.28,18.58-79.61,54.02-106.1,1.19-.89,2.29-1.91,3.43-2.88,12.76-7.25,25.95-13.62,40.6-15.71,25.68-3.66,51.23-4.38,75.76,6.37,7.47,3.27,7.87,3.91,7.92,11.94.05,6.75-.96,13.39-1.66,20.06-.19,1.77-.49,3.73-3.01,4-2.54.28-3.69-1.06-4.31-3.25-7.46-26.52-31.33-35.48-54.49-34.07-30.14,1.84-52,17.78-67.55,42.47-18.55,29.45-24.11,62.25-19.44,96.29,4.35,31.68,22.15,51,57.72,52.85,30.96,1.61,56.26-10.35,73.9-36.7,1.36-2.03,2.37-6.1,5.58-4.25,2.74,1.57.56,4.9-.33,7.3-3.14,8.49-6.42,16.93-9.64,25.39Z"/>
        <path class="cls-1" d="M466.33,560.19c0,8.93-4.06,14.05-10.75,14.14-4.68.07-7.8-2.15-9.46-6.17-2.61-6.36-2.73-12.87,1.12-18.81,2.38-3.68,6.3-4.15,10.36-3.27,5.74,1.24,8.87,6.34,8.73,14.1Z"/>
        <path class="cls-1" d="M795.68,560.97c-.11,3.46-.82,6.65-2.9,9.47-4,5.41-12.47,5.33-16.31-.15-3.19-4.55-3.49-9.69-2.68-14.89.91-5.83,4.47-9.29,9.31-9.57,5.91-.35,10.11,2.71,11.68,8.73.54,2.08.62,4.27.91,6.41Z"/>
        <path class="cls-1" d="M135.53,569.48c-5.81,5.63-11.39,6.57-15.76,2.65-5.15-4.63-6.26-17.62-1.95-22.78,3.87-4.63,9.78-4.62,16.54.04,0,0,.09.05.09.05,2.94,5.71,3.09,11.73,2.07,17.89-.33.72-.66,1.43-.99,2.15Z"/>
        <path class="cls-1" d="M409.84,553.65c1.62,2.97,4.51,5.15,2.61,8.2-.82,1.32-4.2,1.05-4.97-.12-1.96-2.98.78-5.17,2.35-8.08Z"/>
        <path class="cls-1" d="M570.84,548.45c4.71,6.64,5.21,13.7,2.09,21.12-2.73,4.12-6.69,5.51-11.35,4.68-4.52-.81-6.51-4.3-7.86-8.3-2.46-7.27-.64-15.64,3.99-18.53,4.66-2.91,8.95-1.78,13.13,1.02Z"/>
        <path class="cls-1" d="M528.08,565.44c-3.34,6.67-6.3,8.57-12.18,8.1-3.95-.31-6.11-2.16-6.25-6.24-.15-4.31-.38-8.61-.58-12.91.49-1.72.49-3.44-.05-5.15,1.99-3.66,6.04-4.65,11.15-2.58,1.52.62,2.91,1.58,4.36,2.38,0,0,.13.26.13.26,0,0,.29-.04.29-.05,1.02,1.95,2.04,3.89,3.07,5.84.17.77.33,1.54.5,2.32-.51,1.98-.46,3.96.03,5.94-.16.69-.31,1.39-.47,2.08Z"/>
        <path class="cls-1" d="M312.65,552.26c5.14-7.78,10.25-8.61,18.41-2.98,2.8,5.18,3.86,10.8,2.21,16.38-2.7,9.16-10.02,11.23-18.2,5.59-.87-1.65-1.73-3.31-2.6-4.96-.25-1.22-.51-2.43-.76-3.65.02-2.12.05-4.25.07-6.37.28-.23.33-.5.14-.81.24-1.06.49-2.13.73-3.19Z"/>
      </g>
    </g>
  </g>
</svg>