<?xml version="1.0" encoding="UTF-8"?>
<svg xmlns="http://www.w3.org/2000/svg" version="1.1" viewBox="0 0 902 902">
  <defs>
    <style>
      .cls-1 {
        fill: #fdfdfe;
      }
    </style>
  </defs>
  <!-- Generator: Adobe Illustrator 28.6.0, SVG Export Plug-In . SVG Version: 1.2.0 Build 709)  -->
  <g>
    <g id="Camada_1">
      <g>
        <path class="cls-1" d="M474.53,226.27c-.52-.23-1.29-.8-1.52-.63-10.61,7.59-21.09,15.41-29.04,25.9-5.89,7.78-4.09,12.39,5.5,14.52,15.26,3.39,30.98,2.1,46.39,4.09,6.6.85,13.13,1.82,19.35,4.2,13.04,5,17.5,13.67,13.76,27.09-2.67,9.59-7.83,17.97-13.62,25.94-22.45,30.92-51.12,55.88-78.15,82.52-14.02,13.82-28.54,20.33-48.35,18.49-17.92-1.66-36.12-.35-54.88-.35,1.33-2.47,3.44-3.2,5.17-4.35,37.92-25.17,75.53-50.75,109.3-81.47,8.12-7.38,16.03-15,22.64-23.82,1.77-2.36,3.47-4.84,4.8-7.47,4.73-9.28,2.26-15.13-7.84-18.19-7.47-2.27-15.25-2.89-23.02-3.27-11.63-.57-23.34-.37-34.81-2.79-14.85-3.13-18.16-11.14-9.45-23.54,9.19-13.1,21.75-22.76,34.5-32.09,15.5-11.35,31.91-21.3,48.67-30.66,8.17-4.56,16.95-1.16,26.02-.99-5.06,3.47-10.13,6.92-15.16,10.43-6,4.19-12.01,8.36-17.89,12.7-1.12.83-3.69,1.19-2.36,3.74h0Z"/>
        <path class="cls-1" d="M474.53,226.27c12.84,2.67,24.53,8.36,35.98,14.4,31.09,16.38,57.98,37.6,75.04,69.08,10.85,20.04,15.23,41.21,5.73,63.15-8.38,19.37-24.59,30.07-43.66,37.01-27.61,10.05-73.62,8.88-101.64-2.36,5.87-10.08,10.02-11.99,20.83-10.01,25.32,4.64,50.51,5.36,75.04-3.92,20.3-7.68,35.76-20.51,40.58-42.77,3.54-16.35-.51-31.77-8.35-46.16-15.19-27.88-38.83-46.89-66.18-61.82-9.02-4.92-18.42-9.05-28.14-12.46-2.15-.75-4.91-.96-5.23-4.13,0,0,0,0,0,0Z"/>
        <path class="cls-1" d="M403.25,373.54c-.29.48-.37.72-.53.87-10.8,9.93-10.88,10.04-22.5,1.59-24.8-18.04-45.83-39.21-55.85-69.14-11.16-33.34,1.3-63.47,32.86-79.17,21.67-10.78,44.86-13.36,68.7-11.48,5.65.45,11.42.31,17.28,2.46-2.26,3.35-5.24,1.79-7.84,1.52-20.95-2.16-41.57-1.05-61.31,6.96-36.01,14.6-48.99,46.64-33.18,82.06,11.58,25.96,31.68,44.27,54.88,59.65,2.46,1.63,5,3.13,7.5,4.69Z"/>
        <path class="cls-1" d="M373.32,584.83c-5.74,14.54-11.49,29.07-17.77,44.99-6.95-16.43-13.44-31.76-19.92-47.08-.37.06-.74.12-1.12.19,0,13.3.08,26.61-.09,39.91-.02,1.84,1.83,5.17-1.94,5.41-4.35.27-2.7-3.45-2.72-5.51-.14-15.76-.15-31.51.01-47.27.02-2.08-1.74-5.96,2.25-5.9,3.99.06,9.13-2.77,11.65,3.59,4.62,11.64,9.67,23.11,15.06,35.87,4.88-12.16,9.34-23.3,13.8-34.43,1.83-4.56,7.58-6.96,11.87-5.16,2.1.88,1.57,2.57,1.57,4.02.05,16.9-.12,33.8.13,50.7.07,4.8-2.67,4.19-5.69,4.28-3.27.1-5.6.08-5.5-4.48.28-12.98.1-25.98.1-38.97-.56-.05-1.13-.1-1.69-.15Z"/>
        <path class="cls-1" d="M208.81,598.63c0-8.22-.02-16.43.01-24.65,0-2.19-.57-4.84,3.13-4.64,8.63.45,17.35-1.03,25.91,1.29,15.03,4.06,23.08,17.2,21.04,34.51-1.65,13.96-12.25,22.95-27.53,23.23-5.71.11-11.46-.36-17.13.13-4.95.43-5.63-1.78-5.51-5.9.24-7.98.07-15.98.07-23.96ZM248.17,600.25c-.05-17.62-8.72-27.28-23.66-26.86-3.73.11-4.53,1.34-4.49,4.75.16,13.88.19,27.77-.02,41.66-.06,3.75,1.31,4.42,4.74,4.51,15.68.38,23.49-7.49,23.44-24.06Z"/>
        <path class="cls-1" d="M455.37,597.55c9.27,4.86,12.56,10.91,10.53,18.77-1.97,7.64-8.19,11.93-17.7,12.05-7.08.09-14.17-.18-21.24.09-3.7.14-4.59-1.18-4.56-4.69.16-16.65.18-33.31,0-49.96-.04-3.72,1.24-4.65,4.72-4.53,6.62.23,13.25-.03,19.87.09,8.12.15,14.68,4.56,16.53,10.9,2.01,6.92-.26,11.87-8.15,17.28ZM440.14,599.56c-5.61-1.45-7.34,1.53-6.53,7.35.34,2.46.06,5,.06,7.51q0,10.93,10.95,9.76c8.46-.9,12.21-6.58,9.9-15-1.93-7.05-5.5-9.57-14.38-9.62ZM433.67,584.27c0,11.88,1.1,12.97,10.87,10.85,6.12-1.33,9.1-5.99,8.2-12.8-.83-6.23-6.63-9.62-15.3-8.8-7.22.68-2.27,6.35-3.74,9.4-.18.37-.02.9-.02,1.35Z"/>
        <path class="cls-1" d="M698.37,599.34c-.62,17.98-13.6,31.08-30.14,30.41-16.73-.67-28.93-14.15-28.38-31.36.58-18.21,13.58-31.06,30.8-30.43,15.87.58,28.29,14.64,27.72,31.37ZM686.29,601.88c.04-8.95-.66-15.3-3.53-21.14-2.58-5.24-6.68-8.64-12.89-8.59-6.44.05-11.79,2.43-14.42,8.51-5.21,12.08-5.69,24.49.14,36.4,5.56,11.36,19.84,11.55,26.48.72,3.46-5.64,4.12-11.97,4.21-15.9Z"/>
        <path class="cls-1" d="M135.02,480.16c16.47.08,29.3,13.67,29.05,30.76-.26,17.62-12.74,31.03-28.88,31.02-17.14,0-29.87-13.19-29.68-30.75.19-17.88,12.78-31.12,29.51-31.04ZM151.95,514.07c.03-9.01-.67-15.37-3.55-21.2-2.59-5.24-6.71-8.61-12.92-8.55-6.44.06-11.77,2.48-14.39,8.56-5.11,11.84-5.34,23.93-.18,35.83,2.32,5.36,6.56,8.81,12.66,9.01,6.49.21,11.38-2.67,14.56-8.41,3.08-5.56,3.75-11.63,3.83-15.25Z"/>
        <path class="cls-1" d="M291.42,567.97c16.52,0,29.38,13.45,29.24,30.57-.14,17.57-12.6,31.14-28.69,31.21-17.15.08-29.96-13.01-29.88-30.55.08-17.87,12.63-31.23,29.32-31.23ZM308.55,601.85c.02-9.02-.68-15.37-3.57-21.2-2.6-5.24-6.73-8.59-12.94-8.51-6.44.08-11.76,2.52-14.37,8.6-5.1,11.85-5.3,23.93-.14,35.83,2.32,5.36,6.58,8.8,12.67,8.98,6.49.2,11.38-2.7,14.54-8.44,3.07-5.57,3.74-11.63,3.82-15.25Z"/>
        <path class="cls-1" d="M400.32,511.2c-.42,17.94-13.31,31.23-29.83,30.74-16.76-.49-29.07-13.79-28.72-31.03.37-18.18,13.3-31.24,30.48-30.76,15.94.44,28.47,14.3,28.07,31.04ZM388.21,514.06c.03-9.01-.67-15.36-3.55-21.19-2.59-5.24-6.71-8.61-12.92-8.54-6.44.07-11.77,2.48-14.39,8.56-5.11,11.84-5.34,23.93-.18,35.83,2.32,5.36,6.57,8.81,12.66,9.01,6.49.21,11.38-2.68,14.56-8.41,3.08-5.56,3.75-11.63,3.83-15.26Z"/>
        <path class="cls-1" d="M854.99,511.1c-.36,17.93-13.23,31.27-29.74,30.84-16.79-.44-29.11-13.66-28.82-30.93.31-18.17,13.23-31.3,30.38-30.86,15.95.41,28.52,14.2,28.18,30.94ZM842.9,511.61c.07-6.46-.68-12.8-3.53-18.65-2.56-5.25-6.65-8.66-12.86-8.63-6.44.03-11.8,2.4-14.44,8.48-5.24,12.07-5.7,24.48.1,36.4,5.54,11.38,19.82,11.61,26.48.79,3.47-5.63,4.14-11.97,4.24-18.39Z"/>
        <path class="cls-1" d="M500.09,567.97c16.55-.04,29.43,13.31,29.37,30.45-.06,17.56-12.5,31.2-28.57,31.34-17.16.15-30-12.89-30-30.43,0-17.85,12.54-31.31,29.2-31.35ZM517.37,600.39c-.05-7.43-.66-14.01-3.78-20.03-2.72-5.26-6.94-8.4-13.11-8.22-6.15.18-11.29,2.5-13.86,8.3-5.35,12.05-5.53,24.33-.14,36.42,2.39,5.36,6.74,8.63,12.85,8.69,6.2.06,10.93-2.71,14.03-8.15,3.15-5.53,3.87-11.59,4.01-17.01Z"/>
        <path class="cls-1" d="M312.11,522.97c0,11.63-3.93,15.37-19.39,18.44-13.25,2.64-26.66-3.49-33.19-15.18-6.39-11.43-4.24-26.98,5.1-36.82,8.76-9.23,22.47-11.85,34.02-6.51,3.15,1.46,5.94,3.43,8.2,6.05,1.09,1.27,3.2,2.61,1.05,4.5-1.87,1.65-2.85-.45-3.83-1.47-3.38-3.55-7.17-6.43-12.05-7.43-8.29-1.7-17.59,2.78-21,10.65-4.69,10.81-4.57,21.8.8,32.39,2.82,5.56,7.55,9.13,13.88,10.08,10.1,1.53,14.85-2.55,14.86-12.58,0-2.06.11-4.12-.02-6.16-.3-4.44-.37-7.59,6.12-7.48,6.41.11,5.52,3.59,5.46,7.42-.02,1.37,0,2.74,0,4.11Z"/>
        <path class="cls-1" d="M782.98,519.68c0-10.84-.09-21.68.08-32.51.03-2.05-1.65-5.85,2.71-5.46,3.56.32,1.84,3.65,1.85,5.54.15,15.99.13,31.98.01,47.97-.01,1.75,1.4,4.35-1.52,5.23-2.64.79-4.11-.94-5.57-2.89-9.44-12.61-18.96-25.17-28.47-37.73-1.33-1.75-2.74-3.43-5.22-6.53,0,14.83.09,27.95-.09,41.06-.03,2.08,1.79,5.92-2.07,5.99-4.71.09-2.34-4.2-2.37-6.33-.25-15.3-.2-30.61-.05-45.91.02-2.17-1.65-5.76,1.77-6.3,3.52-.55,7.44-1.54,10.46,2.64,8.7,12.01,17.82,23.72,26.78,35.54.57-.1,1.14-.2,1.71-.3Z"/>
        <path class="cls-1" d="M449.08,541.93c-4.26-.24-9.66-2.22-13.8-7.03-1.36-1.58-1.91-2.93.15-4.54,1.9-1.49,2.79-.44,3.86.91,2.05,2.61,4.67,4.39,7.97,4.89,5.28.79,9.91-.9,11.94-5.83,1.97-4.79.74-9.67-4.06-12.54-3.29-1.97-6.99-3.26-10.52-4.82-10.42-4.6-14.47-12.76-10.79-21.77,3.51-8.59,14.94-13.26,24.27-9.94,4,1.42,7.27,3.76,9.62,7.32.95,1.43,1.52,2.63-.27,4.07-2.08,1.68-2.71.1-3.56-1.17-1.86-2.78-4.42-4.7-7.64-5.41-4.97-1.11-9.29.19-11.52,5.01-2.24,4.84-.78,9.02,3.9,11.65,3.37,1.89,6.99,3.33,10.48,4.99,9.94,4.72,13.8,11.18,11.85,19.76-1.96,8.61-10.13,14.53-21.89,14.46Z"/>
        <path class="cls-1" d="M634.24,541.92c-3.6-.19-8.69-1.92-12.65-6.12-1.23-1.3-3.55-2.65-1.14-5.06,2.38-2.39,3.48-.43,4.82,1.14,2.7,3.14,6.18,4.84,10.27,4.44,4.29-.41,8.17-2.2,9.4-6.72,1.21-4.48.12-8.57-3.84-11.57-3.71-2.82-8.29-3.72-12.38-5.7-8.1-3.93-11.44-9.36-10.36-17.26,1.04-7.64,6.94-13.09,15.89-14.7,7-1.26,16,2.73,19.01,8.3.85,1.58,1.28,2.69-.46,4.05-2.19,1.71-2.72-.2-3.52-1.35-1.92-2.75-4.47-4.65-7.7-5.33-4.98-1.06-9.28.3-11.46,5.15-2.18,4.87-.63,9.02,4.06,11.61,3.38,1.87,7,3.3,10.49,4.97,9.87,4.71,13.72,11.25,11.7,19.83-2.02,8.59-10.23,14.46-22.14,14.33Z"/>
        <path class="cls-1" d="M552.09,629.74c-4.27-.24-9.69-2.2-13.78-7.06-1.03-1.22-2.12-2.42-.36-4.07,1.79-1.69,3-1.42,4.4.48,1.96,2.67,4.66,4.4,7.96,4.89,5.28.78,9.91-.91,11.92-5.85,1.96-4.8.72-9.67-4.08-12.53-3.29-1.97-6.99-3.26-10.52-4.82-10.41-4.6-14.45-12.77-10.76-21.78,3.41-8.33,14.55-13.14,23.65-10.16,4.24,1.39,7.77,3.78,10.26,7.58.95,1.45,1.47,2.63-.3,4.07-2.1,1.7-2.71.04-3.55-1.2-1.88-2.78-4.43-4.69-7.65-5.4-4.97-1.1-9.29.21-11.51,5.04-2.23,4.84-.76,9.02,3.93,11.64,3.37,1.89,6.99,3.32,10.48,4.99,9.93,4.72,13.79,11.19,11.82,19.77-1.97,8.61-10.15,14.52-21.9,14.43Z"/>
        <path class="cls-1" d="M76.58,541.94c-13.62-.03-24.44-8.57-28.42-22.03-3.74-12.66,1.79-27.67,12.83-34.87,10.9-7.11,24.97-6.51,34.47,1.52,1.39,1.17,2.65,2.51,3.84,3.88.8.92,1.03,2.02-.07,2.99-1.12.99-2.04.55-2.91-.38-.94-1-1.85-2.03-2.84-2.96-10.36-9.72-26.28-6.7-31.77,6.29-4.01,9.48-3.75,19.29.56,28.58,6.54,14.07,24.34,15.29,34.39,2.69,1.17-1.47,1.67-5.24,4.81-2.54,2.39,2.06-.33,3.73-1.32,5.15-5.82,8.31-13.86,12.27-23.57,11.67Z"/>
        <path class="cls-1" d="M610.78,629.75c-13.33,0-24.05-8.25-28.17-21.68-3.81-12.41,1.23-27.13,11.85-34.62,10.56-7.45,24.84-7.37,34.53.24,1.25.98,2.4,2.12,3.49,3.28,1.04,1.1,2.8,2.29,1.3,3.97-2.04,2.28-3.21-.12-4.27-1.32-6.06-6.88-13.31-9.32-22.13-6.14-1.07.38-2.14.82-3.11,1.4-8.75,5.22-10.88,13.74-10.76,22.96.12,9.35,1.85,18.41,10.91,23.65,9.07,5.25,19.71,2.55,26.75-6.28,1.09-1.36,1.47-4.59,4.37-2.53,2.79,1.98.1,3.69-.83,5.12-5.36,8.27-12.92,11.95-23.93,11.95Z"/>
        <path class="cls-1" d="M499.26,479.9c8.78,21.31,16.74,40.65,24.75,60.1-11.15,1.3-11.58,1.44-14.65-8.07-1.76-5.44-4.52-7.37-9.86-6.48-1.11.19-2.33.23-3.42,0-7.74-1.64-11.95,1.65-13.36,9.2-.29,1.54-1.07,3-1.76,4.44-.89,1.85-2.78,1.86-4.16,1.26-1.82-.79-.46-2.29-.02-3.42,7.23-18.39,14.49-36.77,22.48-57.03ZM496.31,499.6c-3.11,8.07-5.62,14.61-8.19,21.3h16.72c-2.8-6.99-5.37-13.43-8.52-21.3Z"/>
        <path class="cls-1" d="M710.81,479.94c8.77,21.3,16.73,40.64,24.75,60.11-11.18,1.2-11.64,1.35-14.67-8.15-1.76-5.51-4.61-7.31-9.89-6.43-.45.07-.91,0-1.37,0q-11.52,0-15.91,10.46c-.61,1.45-1.15,3.06-2.2,4.13-.58.6-2.27.61-3.23.27-1.55-.56-.64-1.88-.26-2.84,7.34-18.59,14.7-37.16,22.78-57.57ZM699.63,520.87h16.73c-2.81-7.01-5.38-13.44-8.49-21.21-3.08,7.94-5.59,14.38-8.24,21.21Z"/>
        <path class="cls-1" d="M214.86,510.43c0-8.23.13-16.46-.06-24.68-.08-3.25.89-4.37,4.23-4.29,8.69.21,17.39.01,26.08.12,1.55.02,4.14-1.07,4.22,1.87.09,3.56-2.9,2.1-4.59,2.17-4.8.2-9.62.31-14.4,0-3.78-.25-4.43,1.29-4.52,4.71-.45,17.07-.55,17.07,16.56,17.28.46,0,.93-.08,1.37.02,1.55.34,4.05-1.03,4.22,1.93.18,3.1-2.37,2.13-3.95,2.17-4.34.12-8.72.37-13.03-.05-4.49-.44-5.42,1.42-5.17,5.44.38,6.13-2,14.08,1.02,17.94,3.21,4.08,11.55.77,17.6,1.43,1.86.2,5.34-1.63,5.08,2.3-.2,3.08-3.25,1.69-4.99,1.72-8.23.16-16.47-.1-24.7.15-3.75.11-5.21-.83-5.07-4.86.3-8.44.09-16.91.09-25.36Z"/>
        <path class="cls-1" d="M574.75,510.37c0-8,.1-16.01-.05-24.01-.06-3.18.27-5.05,4.3-4.92,8.92.29,17.85.07,26.78.12,1.45,0,3.44-.55,3.5,2,.06,2.59-1.91,2.04-3.4,2.11-1.6.08-3.21-.08-4.81.04-4.95.37-12.61-2.21-14.24,1.06-2.49,4.96-.87,11.96-1.05,18.09-.1,3.36,2.33,2.7,4.27,2.72,5.04.05,10.07.01,15.11.03,1.41,0,2.78.08,2.76,2.08-.02,2-1.4,2.04-2.8,2.04-5.04.02-10.08.19-15.11-.04-3.25-.15-4.44.87-4.3,4.21.27,6.39-2.17,14.38.83,18.77,3.29,4.83,11.83.85,18,1.76,1.77.26,4.81-1.31,4.98,1.78.22,3.9-3.27,2.22-5.11,2.26-8.24.19-16.49-.1-24.72.16-3.81.12-5.17-.93-5.03-4.9.29-8.45.09-16.92.09-25.38Z"/>
        <path class="cls-1" d="M183.93,508.34c0,6.85.42,13.74-.13,20.55-.44,5.49,1.7,6.64,6.57,6.23,4.54-.38,9.14-.07,13.71-.08,1.93,0,3.63.04,3.63,2.78,0,2.75-1.73,2.75-3.65,2.75-9.15,0-18.29-.09-27.44.05-3.07.05-3.87-1.2-3.86-4.06.09-16.9.19-33.81-.06-50.7-.07-4.72,2.52-4.4,5.63-4.36,2.99.04,5.9-.62,5.67,4.24-.35,7.52-.09,15.07-.09,22.61Z"/>
        <path class="cls-1" d="M532.7,511.24c0-8.22.27-16.46-.11-24.66-.21-4.59,1.71-5.24,5.62-5.16,3.64.08,5.85.16,5.73,4.97-.34,14.15.17,28.33-.27,42.48-.17,5.41,1.63,6.69,6.56,6.25,4.54-.4,9.14-.08,13.71-.08,1.91,0,3.65,0,3.66,2.74.01,2.73-1.68,2.79-3.61,2.79-9.15,0-18.3-.14-27.44.06-3.77.08-3.91-1.93-3.88-4.73.09-8.22.03-16.45.03-24.67Z"/>
        <path class="cls-1" d="M433.76,687.15c-6.74,4.54-6.39,14.89-15.99,15.98,3.61-5.43,7.05-10.99,10.89-16.25,2.08-2.85,2.15-5.04,0-7.85-3.18-4.14-5.99-8.55-9.53-13.67,9.21.38,8.59,9.67,13.76,12.75,5.56-2.55,3.66-12.86,12.95-12.88-.6,1.33-.83,1.96-1.15,2.53-2.86,5.14-9.47,9.94-8.35,15.09,1.63,7.47,7.59,13.74,12.97,20.71,5.34-10.97,9.01-21.68,13.05-32.25.81-2.13.34-5.63,3.74-5.79,3.75-.17,2.92,3.53,3.69,5.6,3.57,9.61,6.94,19.3,10.27,29.01.36,1.04,2.11,2.46.28,3.41-1.5.78-3.16.32-3.88-1.6-.64-1.71-1.55-3.36-1.87-5.13-.79-4.4-3.24-5.3-7.57-5.55-6.51-.38-10.33,1.36-11.2,8.16-.28,2.18-.75,5.09-4,4.27-3.19-.8-7.23,2.13-9.62-2.69-2.39-4.82-5.58-9.25-8.43-13.87ZM459.94,688.5h12.09c-2.46-5.38-2.59-11.18-6.48-16-2.35,5.28-4.42,10.23-5.61,16Z"/>
        <path class="cls-1" d="M544.46,669.21c-1.37,11.32-2.48,20.78-3.7,30.23-.23,1.76.79,4.75-2.68,4.28-3.54-.48-1.56-3.27-1.38-4.87,1.12-9.75,2.5-19.47,3.79-29.19.25-1.9-.48-4.27,2.86-4.3,2.92-.03,5.02.05,6.01,3.74,2.27,8.53,5.16,16.9,8.28,26.87,3.86-9.33,5.75-17.49,7.74-25.61.75-3.06,1.47-5.31,5.62-5.11,4.58.22,3.58,3.23,3.75,5.73.62,9.13,2.08,18.13,3.69,27.13.32,1.79,2.69,4.75-.95,5.54-3.9.85-2.75-2.81-3.01-4.64-1.32-9.23-2.39-18.5-3.8-29.8-4.51,10.21-6.09,19.15-8.65,27.8-.71,2.4.55,6.84-4.07,6.71-3.92-.11-2.93-4.01-3.73-6.3-3.07-8.76-5-17.92-9.75-28.22Z"/>
        <path class="cls-1" d="M333.24,511.72c0,8.22-.26,16.46.1,24.67.22,4.89-2.71,4.21-5.66,4.19-2.92-.01-5.76.75-5.68-4.16.28-16.9.28-33.81,0-50.71-.08-4.88,2.69-4.21,5.65-4.19,2.92.02,5.89-.75,5.69,4.17-.35,8.67-.1,17.36-.1,26.04Z"/>
        <path class="cls-1" d="M666.89,510.36c0-8.22.27-16.46-.1-24.67-.22-4.91,2.73-4.18,5.66-4.18,2.94,0,5.76-.71,5.68,4.18-.27,16.9-.27,33.81,0,50.71.08,4.9-2.75,4.17-5.69,4.17-2.94,0-5.86.72-5.66-4.18.37-8.67.1-17.36.1-26.04Z"/>
        <path class="cls-1" d="M369.79,685.33c5.62,4.8,7.43,11.82,10.85,17.92-3.61,1.56-5.1-.01-6.16-3.17-1.59-4.74-3.23-9.58-7.72-12.58-1.98-1.32-4.34-2.19-6.48-1.13-1.9.95-.84,3.28-.92,4.98-.15,3.42-.04,6.85-.09,10.27-.01.85.02,1.89-1.26,2.03-1.5.16-2.01-.76-2.02-2.02-.03-11.19-.05-22.38,0-33.56,0-.79.37-1.87.96-2.31,3.97-2.95,17.71.77,19.84,5.29,2.39,5.08.26,9.48-7.02,14.29ZM359.25,675.53c1,2.88-2.56,8.51,4.76,7.7,4.98-.55,10.09-1.38,10.09-7.79,0-6.61-5.19-6.9-10.21-7.34-6.73-.59-3.92,4.34-4.63,7.43Z"/>
        <path class="cls-1" d="M348.03,703.44c-6.34,1.31-6.07-3.76-6.56-6.3-1.48-7.59-7.05-5.09-11.62-5.74-5.37-.77-5.56,3.06-6.8,6.43-1,2.73-.48,7.7-6.19,5.43,4.34-11.51,8.66-22.96,12.97-34.42.63-1.68.89-3.74,3.46-3.37,2.04.29,2.15,2.04,2.58,3.56,3.36,11.59,7.37,22.95,12.17,34.42ZM332.57,672.55c-3.03,5.18-4.71,10.32-5.89,15.94h11.54c-1.44-5.52-2.62-10.79-5.66-15.94Z"/>
        <path class="cls-1" d="M415.27,703.22c-5.58,2.03-5.89-2.66-6.19-5.08-1.06-8.39-7.08-6.25-12.26-6.74-5.96-.56-5.4,4.15-6.71,7.43-.58,1.46-.86,3.14-1.79,4.32-.49.63-2.15.74-3.15.5-1.82-.44-.69-1.68-.34-2.61,4.21-11.05,8.46-22.09,12.63-33.15.53-1.4,1.08-2.48,2.77-2.45,2.14.04,2.43,1.68,2.87,3.23,3.34,11.74,7.4,23.23,12.17,34.55ZM399.8,672.36c-2.91,5.63-4.73,10.61-5.78,16.15h11.48c-1.35-5.51-2.62-10.75-5.7-16.15Z"/>
        <path class="cls-1" d="M613.11,694.29c-.48,2.63,1.52,6.42-2.82,7.94-6.53,2.29-13.08,2.8-19.01-1.45-6.85-4.92-8.59-16.9-4.07-25.73,3.53-6.87,14.45-11.66,21.77-9.62.96.27,1.92.52,1.72,1.57-.21,1.11-1.35,2.35-2.33,1.88-2-.95-4-.78-5.97-.66-8.82.52-14.23,7.47-13.97,17.76.23,9.19,5.22,14.81,13.4,15.1,4.98.18,8.76-.91,7.63-7.21-.12-.66-.16-1.41.01-2.05.52-1.94-1.52-5.56,1.88-5.48,3.2.08,1.21,3.67,1.73,5.64.17.64.03,1.36.03,2.32Z"/>
        <path class="cls-1" d="M227.33,476.3q7.45-13.16,13.87-12.98c-2.91,6.67-8.66,12.26-13.87,12.98Z"/>
        <path class="cls-1" d="M506.82,693.09c-1.92-1.4-6.27,1.92-6.22-2.48.04-3.51,4.03-1.89,6.03-1.7,2.17.2,6.41-2.36,6.36,2.06-.04,3.62-4.02,1-6.17,2.13Z"/>
      </g>
    </g>
  </g>
</svg>