<?xml version="1.0" encoding="UTF-8"?>
<svg xmlns="http://www.w3.org/2000/svg" version="1.1" viewBox="0 0 902 902">
  <defs>
    <style>
      .cls-1 {
        fill: #fff;
      }

      .cls-2 {
        fill: #fefefe;
      }
    </style>
  </defs>
  <!-- Generator: Adobe Illustrator 28.6.0, SVG Export Plug-In . SVG Version: 1.2.0 Build 709)  -->
  <g>
    <g id="Camada_1">
      <g>
        <path class="cls-1" d="M495.41,145.81c2.81.8,5.75.69,8.61.89,16.03,1.11,31.86,3.52,47.57,6.85,3.8.8,4.31,1.84,3.33,5.63-4.54,17.53-9.07,35.06-13.59,52.59-.98,3.78-1.47,4.14-5.43,2.9-11.28-3.53-22.77-6.22-34.48-7.75-13.24-1.72-26.49-2.09-39.81-.29-17.87,2.42-34.33,8.39-49.24,18.54-5.65,3.85-11.01,8.11-15.67,13.12-2.18,2.35-4.44,2.76-7.34,2.2-10.85-2.13-21.5-5.08-32.14-8.04-8.08-2.25-16.13-4.62-24.24-6.76-2.35-.62-2.35-1.4-1.28-3.33,14.52-26.29,35.51-45.66,62.51-58.61,18.47-8.86,37.95-14.12,58.29-16.34,7.78-.85,15.58-1.37,23.41-1.6h19.49Z"/>
        <path class="cls-1" d="M853.29,547.17c-.68,3.2-1.17,6.46-2.08,9.6-6.25,21.58-20.2,35.72-41.99,41.09-30.74,7.57-62.09-10-70.19-42.37-6.97-27.83,6.47-55.54,32.56-67.52,9.97-4.58,20.54-5.96,31.39-4.38,23.78,3.47,39.44,16.82,47.47,39.34,1.47,4.13,1.8,8.51,2.82,12.74v11.5ZM795.42,573.7c11.1-.08,19.71-4.71,24.7-14.71,5.49-10.99,5.78-22.44.8-33.72-4.67-10.58-13.1-16.13-24.64-16.44-11.25-.31-20.02,4.33-25.51,14.32-4.17,7.6-5.22,15.82-3.92,24.38,2.36,15.58,13.05,26.4,28.57,26.16Z"/>
        <path class="cls-1" d="M53.55,534.17c1.23-1.97.91-4.29,1.37-6.43,4.57-21.06,17.66-34.25,37.75-40.91,12.04-3.99,24.49-4.32,37-3.45,6.54.46,13.02,1.48,19.45,2.78,1.71.34,2.48.56,2.07,2.77-1.14,6.11-1.88,12.3-2.71,18.47-.44,3.27-.44,3.38-3.74,2.75-9.45-1.8-18.99-2.36-28.56-1.84-6.07.33-12.01,1.45-17.56,4.18-7.17,3.53-12.04,9.03-14.34,16.68-2.48,8.28-2.5,16.66.39,24.78,4.3,12.07,13.55,17.98,25.88,19.65,5.64.76,11.27.66,16.94.11,1.88-.18,2.33-.77,2.31-2.55-.08-9.49.02-18.99-.08-28.48-.02-1.99.36-2.72,2.54-2.68,7.58.15,15.16.11,22.73.02,1.63-.02,2.09.41,2.08,2.06-.06,17.07-.05,34.14,0,51.22,0,1.43-.4,2.06-1.82,2.36-15.96,3.36-32.02,5.22-48.3,2.98-16.77-2.31-31.48-8.71-42.2-22.46-6.18-7.93-9.48-17.04-10.73-26.94-.07-.54.17-1.19-.47-1.57v-13.5Z"/>
        <path class="cls-1" d="M530.9,755.6c-.44-.91-2.25-.07-2.14-1.52.1-1.3.29-2.79,2.37-2,2.09.79,4.23.75,6.33-.04,1.03-.39,1.72-1.19,1.7-2.24-.02-1.19-.84-1.9-2.01-2.23-2.4-.67-4.79.1-7.42.02-.03-1.78.6-3.39,1.2-4.94.78-2.01.08-2.61-1.87-3.01-8.15-1.66-14.22-6.16-17.86-13.72-5.85-12.14-2.88-28.35,7.07-35.9,8.98-6.82,19.12-7.72,29.47-3.55,6.7,2.7,11.31,10.47,11.06,17.32-.03.81-.25,1.27-1.1,1.31-.08,0-.17,0-.25.02-1.95.39-4.17,1.53-5.78.95-1.65-.6-.87-3.35-1.47-5.1-1.85-5.34-6.3-8.68-11.98-8.89-4.13-.15-8.18.07-11.82,2.23-8.42,4.99-9.87,12.93-9.08,21.81.71,7.95,6.08,14.28,13.85,15.96,7.98,1.72,15.18-.31,21.58-5.14,1.68-1.27,2.3-1.29,3.43.52,2.9,4.7,2.97,4.61-1.87,7.67-5.32,3.37-11.12,5.09-17.38,5.38-1.44.07-2.96,2.18-2.63,3.53.19.76.73.48,1.16.51,1.08.07,2.18-.03,3.23.17,2.43.45,4.19,1.85,4.51,4.36.3,2.37-.95,4.11-2.99,5.32-.76.45-1.77.39-2.33,1.21h-7Z"/>
        <path class="cls-1" d="M330.79,313.19c-5-1.46-10.01-2.9-15.01-4.39-3.58-1.07-7.16-2.17-10.71-3.33-7.08-2.32-12.21-6.96-15.67-13.49-3.35-6.32-6.72-12.64-9.94-19.02-.87-1.71-2.02-2.6-3.82-3.16-5.31-1.66-10.57-3.5-15.76-5.53-5.63-2.21-9.99-5.85-13.3-10.87-10.02-15.23-20.06-30.43-30.08-45.66-.68-1.04-1.31-2.13-1.81-3.27-.39-.88-.95-1.91-.12-2.81.75-.8,1.75-.76,2.79-.51,4.52,1.1,9.06,2.13,13.59,3.23,36,8.76,71.99,17.55,107.99,26.31,35.67,8.68,71.35,17.33,107.02,25.99,19.62,4.76,39.33,9.16,58.78,14.57,11.81,3.29,23.28,7.43,33.74,14,15.17,9.53,24.8,23.35,30.88,39.91,5.17,14.06,7.78,28.68,9.46,43.5,1.85,16.35,3.65,32.71,5.45,49.07.43,3.88.72,7.78,1.17,11.66.16,1.38-.36,1.94-1.63,2.26-18.14,4.53-36.36,8.61-54.93,11.16-18.19,2.5-36.45,3.58-54.76,2.85-29.04-1.16-57.12-6.74-83.17-20.24-35.06-18.18-58.63-46.12-70.29-83.92-2.4-7.79-3.92-15.79-5.11-23.85-.23-1.58.47-2.12,1.81-2.34,2.64-.44,5.3-.54,7.97-.49,1.84.03,3.6-.29,5.3-.89l.12-.7ZM367.45,347.24c.05-.37-.2-.37-.45-.35-.07,0-.12.09-.19.14.21.07.43.14.64.21.21.23.37.56.64.69,3.96,1.93,7.94,3.83,11.9,5.76,1.95.95,3.7,2.11,5.13,3.84,7.83,9.48,16.67,17.88,26.92,24.77,20.66,13.89,43.82,19.1,68.28,19.85,9,.28,17.98-.23,26.95-.98,9.86-.83,19.66-2.18,29.44-3.65,1.6-.24,2.17-.77,1.87-2.59-.88-5.33-1.47-10.7-2.2-16.06-1.48-10.87-2.49-21.81-4.97-32.52-2.12-9.14-5.2-17.88-10.84-25.54-7.06-9.59-17-14.73-28.11-17.88-26.71-7.56-53.45-14.99-80.18-22.47-36.25-10.15-72.49-20.31-108.75-30.42-1.43-.4-2.85-1.19-4.81-.87,3.99,8.58,7.84,16.95,11.79,25.28,1.13,2.37,3.21,3.81,5.68,4.58,3.41,1.06,6.84,2.05,10.29,2.99,35.36,9.62,70.72,19.22,106.09,28.83,4.33,1.18,8.67,2.33,12.99,3.54.9.25,2.15.41,1.84,1.86-.34,1.59-1.56.57-2.2.46-4.09-.72-8.14-1.63-12.21-2.45-25.58-5.12-51.16-10.23-76.74-15.34-3.58-.72-7.16-1.48-10.76-2.11-.56-.1-2.35-.91-1.65.94,2.59,6.79,5.61,12.78,13.8,14.99,18.29,4.93,36.39,10.6,54.56,15.98,15.78,4.67,31.55,9.35,47.33,14.02.79.23,1.93.34,1.71,1.4-.25,1.21-1.35.54-2.06.4-3.84-.73-7.66-1.54-11.49-2.28-21.13-4.07-42.26-8.15-63.39-12.18-3.36-.64-6.67-1.59-10.23-1.75,2.87,8.12,4.61,9.97,11.74,12.26,18.75,6.04,37.52,12.04,56.28,18.06,14.01,4.5,28,9.04,42.03,13.48,1.67.53,2.23,1.59,1.8,2.96-.43,1.37-1.69.51-2.52.31-13.56-3.31-27.1-6.67-40.65-10.02-22.42-5.54-44.84-11.1-67.28-16.56-2.63-.64-5.19-1.78-8-1.59Z"/>
        <path class="cls-1" d="M351.22,538.35c5.99,1.95,11.04,4.57,14.89,9.05,8.3,9.67,8.95,25.09,1.55,36.25-6.07,9.16-14.8,13.79-25.62,13.91-21.32.23-42.65.05-63.97.12-1.77,0-2.19-.48-2.19-2.21.05-36.23.05-72.46,0-108.7,0-1.85.61-2.13,2.26-2.12,18.74.06,37.48.03,56.22.04,8.28,0,16.25,1.34,23.23,6.14,16.19,11.11,14.75,36.33-2.56,45.63-1.08.58-2.2,1.09-3.82,1.88ZM320.49,551.57c-5.18,0-9.43.07-13.67-.03-1.53-.04-1.98.39-1.95,1.94.1,5.41.04,10.81.04,16.22,0,4.97,0,5.07,5.07,4.95,8.05-.19,16.13.64,24.16-.46,6.04-.83,9.59-4.87,9.67-10.76.08-5.92-3.32-10.17-9.09-11.34-5.03-1.03-10.12-.24-14.24-.51ZM318.06,530c3.6-.1,7.86.31,12.08-.3,6.85-1,9.77-5.54,9.75-11.75-.02-6.1-4.06-9.87-10.25-10.3-7.65-.54-15.3-.12-22.95-.3-1.44-.04-1.83.45-1.82,1.85.07,6.32.09,12.65-.01,18.97-.03,1.68.68,1.89,2.07,1.86,3.49-.07,6.99-.02,11.12-.02Z"/>
        <path class="cls-1" d="M596.01,597.65c-12.06,0-23.64-.01-35.21.02-1.05,0-1.69-.37-2.27-1.18-11.97-16.69-23.96-33.36-35.95-50.04-1.61-2.25-2.23-4.72-2.21-7.5.01-1.81.38-2.42,2.32-2.38,5.91.14,11.83.12,17.74.02,6.1-.1,10.51-3.08,12.82-8.65,2.26-5.45,1.75-10.77-2.2-15.41-2.38-2.8-5.52-4.3-9.2-4.32-13.41-.1-26.82-.09-40.22-.19-1.49-.01-1.74.51-1.78,1.85-.09,3.02.59,5.72,2.41,8.19,2.72,3.68,5.29,7.46,7.98,11.16.81,1.12,1.21,2.23,1.21,3.65-.04,20.74-.06,41.47.02,62.21,0,2.03-.41,2.66-2.55,2.62-8.16-.14-16.32-.1-24.48-.02-1.59.01-2.1-.38-2.1-2.05.05-36.31.05-72.62,0-108.93,0-1.68.51-2.04,2.1-2.04,20.57.05,41.14-.04,61.71.07,12.77.07,23.59,4.48,31.12,15.27,11.82,16.94,6.56,42.83-10.88,53.61-1.5.93-1.69,1.44-.59,2.91,9.67,13.02,19.25,26.11,28.85,39.18.38.52.74,1.05,1.37,1.94Z"/>
        <path class="cls-1" d="M272.01,597.65c-9.26,0-18.26-.02-27.25.03-1.31,0-1.64-.66-2-1.7-2.07-5.87-4.25-11.69-6.28-17.57-.49-1.4-1.15-1.88-2.65-1.88-11.41.07-22.82.07-34.24,0-1.69-.01-2.49.45-3.06,2.08-2.01,5.79-4.23,11.52-6.29,17.29-.41,1.14-.82,1.79-2.21,1.78-8.91-.06-17.82-.03-27.11-.03,1.55-4.19,3.03-8.18,4.51-12.18,12.17-32.8,24.36-65.59,36.44-98.42.71-1.92,1.58-2.43,3.53-2.4,7.66.12,15.33.07,22.99.03,1.28,0,2.07.18,2.58,1.58,13.51,36.72,27.06,73.43,40.61,110.14.11.3.21.61.44,1.26ZM216.77,514c-.29.21-.39.25-.41.31-3.92,12.91-7.83,25.82-11.76,38.72-.45,1.47.27,1.62,1.49,1.61,6.91-.04,13.82-.06,20.72.01,1.68.02,1.92-.41,1.44-2-3.87-12.84-7.65-25.71-11.48-38.66Z"/>
        <path class="cls-1" d="M479.99,597.65c-9.28,0-18.19-.02-27.09.02-1.21,0-1.7-.43-2.1-1.57-2.07-5.95-4.3-11.84-6.38-17.79-.46-1.3-1.04-1.78-2.46-1.77-11.58.06-23.16.07-34.73-.01-1.58-.01-2.18.61-2.65,1.95-2.09,5.86-4.28,11.68-6.38,17.53-.37,1.03-.72,1.68-2.02,1.67-8.99-.06-17.98-.03-27.26-.03,1.94-5.3,3.79-10.42,5.68-15.52,11.75-31.63,23.52-63.25,35.2-94.9.71-1.93,1.54-2.63,3.65-2.59,7.66.14,15.33.09,22.99.02,1.38-.01,2.04.37,2.53,1.68,13.49,36.64,27.02,73.26,40.53,109.88.14.38.26.76.49,1.43ZM424.71,513.96c-.22.26-.45.42-.52.64-3.89,12.84-7.76,25.69-11.65,38.53-.4,1.33.2,1.52,1.35,1.52,6.99-.03,13.99-.06,20.98.02,1.57.02,1.84-.5,1.43-1.88-3.87-12.91-7.72-25.83-11.59-38.82Z"/>
        <path class="cls-1" d="M685.98,484.7c16.07,0,32.14.06,48.21-.07,2.42-.02,2.82.76,2.78,2.91-.13,6.91-.11,13.82,0,20.73.02,1.75-.48,2.24-2.22,2.23-10.66-.08-21.32.02-31.98-.09-2.01-.02-2.44.59-2.44,2.51.06,27.31.01,54.62.09,81.94,0,2.25-.53,2.89-2.83,2.85-7.91-.15-15.82-.13-23.73,0-2.06.03-2.61-.46-2.61-2.57.08-27.23.02-54.46.11-81.69,0-2.35-.46-3.09-2.95-3.05-10.49.15-20.98.02-31.47.11-1.88.02-2.39-.51-2.37-2.38.11-6.99.11-13.99,0-20.98-.03-1.92.43-2.51,2.45-2.5,16.32.09,32.64.05,48.96.05Z"/>
        <path class="cls-1" d="M598.24,540.91c0-17.74.06-35.48-.07-53.21-.02-2.63.76-3.1,3.17-3.06,7.99.15,15.99.1,23.98.02,1.62-.02,2.07.42,2.07,2.06-.05,36.31-.05,72.62,0,108.93,0,1.69-.52,2.05-2.1,2.04-8.16-.07-16.32-.11-24.48.02-2.06.03-2.63-.47-2.62-2.58.09-18.07.05-36.14.05-54.21Z"/>
        <path class="cls-1" d="M445.53,636.3c12.6,0,24.74-.15,36.87.03,22.15.33,44.3.73,66.44,1.34,22.72.63,45.43,1.49,68.12,2.86,12.88.78,25.77,1.27,38.64,2.14,16.43,1.11,32.85,2.44,49.27,3.74,10.69.85,21.38,1.73,32.06,2.74,11.92,1.13,23.82,2.4,35.72,3.66,8.59.91,17.19,1.84,25.77,2.84,6.68.78,13.35,1.67,20.02,2.5.57.07,1.32,0,1.31.8-.02.87-.82.66-1.35.63-5.4-.33-10.8-.68-16.2-1.04-9.3-.62-18.59-1.3-27.89-1.86-16.95-1.02-33.9-2.02-50.85-2.95-9.89-.54-19.79-.98-29.69-1.37-23.29-.92-46.59-1.86-69.88-2.67-37.37-1.3-74.76-1.9-112.14-2.44-16.74-.24-33.48-.13-50.22-.12-1.5,0-2.66-.38-3.84-1.34-3.88-3.14-7.86-6.15-12.16-9.49Z"/>
        <path class="cls-1" d="M421.9,647.35c-10.73,0-21.45-.13-32.18.03-23.57.34-47.14.7-70.7,1.28-23.64.59-47.28,1.25-70.91,2.31-17.47.79-34.94,1.36-52.41,2.18-13.89.66-27.76,1.55-41.64,2.34-12.47.71-24.93,1.37-37.39,2.14-8.22.51-16.44,1.17-24.65,1.77-.83.06-1.67.21-2.49.13-.82-.07-2.23.63-2.34-.52-.14-1.36,1.34-.77,2.13-.87,11.87-1.49,23.74-2.99,35.62-4.38,7.02-.82,14.06-1.42,21.09-2.14,7.61-.78,15.21-1.66,22.82-2.38,8.28-.78,16.57-1.43,24.86-2.14,9.2-.78,18.4-1.59,27.6-2.32,7.55-.6,15.11-1.12,22.67-1.61,12.79-.83,25.58-1.67,38.37-2.38,11.47-.64,22.95-1.11,34.43-1.63,23.63-1.07,47.27-1.73,70.91-2.31,5-.12,9.99-.14,14.99-.21.75-.01,1.44.05,2.14.45,5.72,3.21,11.46,6.38,17.19,9.57-.04.23-.07.46-.11.69Z"/>
        <path class="cls-1" d="M286.99,712.11c0-8.25.05-16.49-.04-24.74-.02-1.73.24-2.46,2.25-2.42,7.41.15,14.84-.21,22.24.16,18.83.95,27.81,15.03,25.71,31.91-1.74,13.97-12.89,22.57-27.13,22.61-7,.02-14-.05-20.99.04-1.63.02-2.09-.42-2.08-2.06.08-8.5.04-16.99.04-25.49ZM295.38,712.18c0,6.08.05,12.16-.03,18.23-.02,1.54.45,2,1.97,1.97,4.08-.09,8.16.05,12.24-.05,9.83-.24,16.58-5.39,18.67-14.14.86-3.61.87-7.22.2-10.88-1.46-7.94-7.8-13.72-15.82-14.72-5.07-.63-10.14-.23-15.2-.48-1.68-.08-2.09.48-2.06,2.09.09,5.99.04,11.99.04,17.98Z"/>
        <path class="cls-1" d="M614.86,712.22c.03-16.08,12.04-28.07,28.09-28.06,16.13.02,28.23,12.13,28.23,28.27,0,15.98-12.27,28.1-28.44,28.06-15.97-.04-27.91-12.15-27.89-28.28ZM662.88,712.53c.07-11.75-8.17-20.35-19.56-20.41-11.59-.06-20.07,8.33-20.28,20.07-.21,11.41,8.37,20.3,19.69,20.4,11.68.1,20.08-8.26,20.15-20.05Z"/>
        <path class="cls-1" d="M235.7,712.23c0-8.24.08-16.49-.05-24.73-.03-2.13.62-2.58,2.65-2.56,12.49.09,24.98.09,37.47,0,1.83-.01,2.42.38,2.37,2.31-.12,4.96-.02,4.97-4.91,4.97-9.08,0-18.15.04-27.23-.04-1.8-.02-2.52.39-2.44,2.34.15,3.74.12,7.5,0,11.24-.05,1.58.45,1.96,1.97,1.95,8.16-.07,16.32.03,24.48-.08,1.86-.02,2.41.45,2.38,2.34-.08,5.14,0,5.14-5.01,5.14-7.24,0-14.49.04-21.73-.03-1.56-.02-2.13.3-2.08,2.01.14,4.33.14,8.66,0,12.99-.05,1.82.6,2.19,2.27,2.18,9.91-.07,19.82.03,29.73-.08,2.14-.03,2.62.65,2.56,2.66-.14,4.8-.04,4.8-4.77,4.8-11.74,0-23.48-.05-35.22.05-1.96.02-2.51-.49-2.48-2.47.11-8.33.05-16.65.05-24.98Z"/>
        <path class="cls-1" d="M345.44,702.82c0-5.33.04-10.66-.03-15.99-.02-1.35.28-1.84,1.76-1.88,6.67-.16,6.67-.22,6.67,6.5,0,8.08.01,16.15,0,24.23,0,2.34.1,4.67.74,6.92,1.72,6.03,6.43,9.64,12.79,10,5.98.34,11.5-.49,15.26-5.86,2.08-2.96,2.82-6.35,2.83-9.9.04-9.74.11-19.48-.05-29.22-.04-2.32.7-2.72,2.8-2.67,5.72.13,5.73.04,5.72,5.88,0,8.66.12,17.32-.03,25.98-.15,8.55-3.12,15.76-10.79,20.37-9.5,5.71-24.33,4.19-31.54-3.22-4.3-4.41-5.9-9.93-6.09-15.89-.16-5.07-.03-10.16-.03-15.24h-.01Z"/>
        <path class="cls-1" d="M401.91,712.31c.02-21.05,19.2-34.12,38.46-26.2,7.07,2.91,11.6,9.65,11.74,17.32.02,1.16-.24,1.59-1.44,1.74-1.88.24-4.02,1.49-5.53.92-1.63-.61-.91-3.29-1.48-5.02-1.77-5.37-6.2-8.7-11.89-9-7.26-.38-13.78,1.21-17.78,7.72-4.98,8.09-4.96,16.62-.21,24.82,3.63,6.27,11.97,9.28,19.92,7.79,4.82-.9,9.25-2.69,13.01-5.87,1.28-1.08,1.94-.88,2.57.48.07.15.16.29.25.43,2.99,4.6,3.04,4.68-1.56,7.56-8.36,5.23-17.36,6.89-26.96,4.34-11.7-3.11-19.45-13.27-19.09-27.03Z"/>
        <path class="cls-1" d="M507.22,739.5q-8.13.57-11.02-6.62-2.12-5.28-7.78-5.28c-6.5,0-13,.08-19.49-.05-1.75-.04-2.48.59-3.04,2.11-1.04,2.8-2.33,5.51-3.36,8.31-.48,1.31-1.16,1.78-2.55,1.7-2.07-.12-4.16-.03-6.43-.03.41-2.32,1.53-4.23,2.36-6.23,6.38-15.49,12.8-30.96,19.16-46.45.58-1.42,1.27-2.11,2.9-1.99,2.56.2,5.7-.71,7.55.48,1.71,1.1,2.05,4.34,2.97,6.64,6,15.11,11.99,30.23,17.98,45.34.24.61.46,1.23.77,2.07ZM491.85,721.08c-3.7-9.27-7.29-18.28-11.07-27.74-4.04,9.54-7.84,18.53-11.74,27.74h22.81Z"/>
        <path class="cls-1" d="M559.88,739.63c2.58-6.22,5.05-12.18,7.52-18.14,4.77-11.49,9.56-22.97,14.27-34.48.57-1.4,1.17-2.19,2.83-2.04,2.56.23,5.7-.95,7.54.46,1.71,1.3,2.07,4.38,2.99,6.69,6.26,15.7,12.5,31.41,18.91,47.51-2.69,0-5.13-.03-7.57.01-1.19.02-1.24-.91-1.54-1.63-1.17-2.84-2.38-5.66-3.41-8.54-.48-1.35-1.08-1.93-2.62-1.91-7.83.09-15.66.08-23.49,0-1.49-.01-2.2.43-2.72,1.84-1.09,2.95-2.43,5.81-3.58,8.74-.37.94-.73,1.56-1.9,1.52-2.31-.08-4.62-.02-7.23-.02ZM587.39,693.34c-3.91,9.23-7.53,17.77-11.16,26.3-.38.9-.64,1.58.79,1.57,7.05-.02,14.1,0,21.45,0-3.68-9.26-7.25-18.22-11.08-27.86Z"/>
        <path class="cls-1" d="M575.65,677.58c-2.98-3.7-2.84-4.94.88-7.69,2.61-1.94,5.43-2.45,8.38-.87,1.9,1.01,3.68,2.23,5.57,3.28,2.68,1.49,5.07,1.03,7.19-1.14.44-.45.63-2.09,1.63-1.02.84.9,2.66,1.74,1.82,3.42-1.68,3.36-5.94,7.27-11.07,4.72-1.41-.7-2.77-1.5-4.09-2.34-4.74-3-6.68-2.72-10.31,1.64Z"/>
        <path class="cls-1" d="M413.73,636.79c4.28-.71,7.83-.45,11.32,1.8,4.59,2.96,9.5,5.4,14.23,8.32-4.85-.34-9.89,1.62-14.39-2.32-3.28-2.87-7.16-5.05-11.15-7.8Z"/>
        <path class="cls-1" d="M454.47,646.94c-5.26.34-9.84.68-13.91-2.95-3.15-2.81-6.94-4.92-10.89-7.65,4.63-.36,8.44-.46,12.02,2.27,3.91,2.98,8.24,5.41,12.78,8.33Z"/>
        <path class="cls-1" d="M367.45,347.24c-.21-.07-.43-.14-.64-.21.06-.05.12-.14.19-.14.25-.02.5-.02.45.35,0,0,0,0,0,0Z"/>
      </g>
      <g>
        <path class="cls-2" d="M12431.7,2762.46c-.86.57-1.11,1.34-.76,2.3-3.97,7.11-7.73,14.34-11.99,21.26-1.85,3.02-1.34,9.86-8.35,6.47-32.5-68.29-64.91-136.62-97.52-204.86-31.37-65.65-62.93-131.21-94.5-196.77-1.82-3.79-2.42-8.48-6.69-10.79,5.14-4.05,11.2-2.44,16.87-2.54,23.72-.39,47.45-.48,71.18-.68,1.86,1.17,3.71,2.34,5.57,3.51,6.1,16.84,13.9,32.86,23.07,48.23l-.15.82.7.45c10.22,24.5,21.45,48.5,34.49,71.64l-.22.82.69.49c2.45,8.55,6.3,16.42,11.43,23.68l-.08-.13c12.25,26.52,24.5,53.03,38.14,82.55,29.16-58.9,56.74-114.61,84.32-170.31.84-.47,1.09-1.16.75-2.06,11.32-21.73,22.68-43.44,33.9-65.22,1.69-3.28,4.3-7.34-2.38-8.51-4.76-5.18-10.99-2.84-16.52-2.85-95.75-.14-191.5-.27-287.25.14-12.4.05-20.89-3.5-24.55-15.5-2.93-9.62-8.16-18.15-11.96-27.32-10.8-26.08-10.54-26.19,17.67-27.9,3.21-1.19,6.42-1.18,9.64,0,5.55,0,11.09,0,16.64,0,5.31-.28,10.62-.81,15.93-.81,113.18-.05,226.35-.05,339.53,0,5.31,0,10.62.53,15.93.82,7.5,0,14.99.01,22.49.02,8.21-1.33,16.41-1.35,24.62.02,8.67,1.68,5.08,6.51,3.87,11.96-3.57,15.92-20.8,26.5-17.3,45.01.18.84-.12,1.44-.91,1.78-13.84,4.4-14.89,15.24-13.7,27.21.26.89,0,1.57-.79,2.06-6.07-.04-7.94,4.66-10.05,9-9.94,20.45-18.97,41.42-30.2,61.13-4.1,7.2-6.96,13.31-5.65,21.29-.81,1.57-1.63,3.15-2.44,4.72-3.11.63-5.1,2.61-6.5,5.33-13.64,26.67-27.48,53.25-40.79,80.08-3.1,6.25-8.43,12.26-5.86,20.31-2.35,5.27-4.52,10.62-7.08,15.78-26.74,53.88-53.54,107.74-80.32,161.6-.82.47-1.09,1.16-.81,2.07-.7,1.23-1.41,2.46-2.11,3.69Z"/>
        <path class="cls-2" d="M12925.13,2707.55c.8.15,1.52-.03,2.16-.52,25.92-2.16,26.06-2.4,26.06-27.04-.01-79.73-.46-159.46.46-239.17.2-17.23-2.31-29.06-21.63-31.25-2.2-.25-4.88-1.2-4.42-6.44,18.1,0,36.36-.1,54.61.02,28.52.19,40.78,12.27,40.84,40.88.17,77.78.12,155.56.16,233.34q0,22.78,21.91,30.09c1.97.66,3.49,1.54,2.62,4.3-1.13.44-2.42,1.38-3.71,1.38-36.93.12-73.86.19-110.8.12-3.74,0-8.2.05-8.26-5.72Z"/>
        <path class="cls-2" d="M12610.26,2491.65c.72.45,1.35.34,1.87-.33,5.87,1.13,11.71.99,17.52-.39,8.73,1.19,17.46,1.16,26.2,0,43.82,4.55,49.39,10.76,49.43,55.57.03,47.1.17,94.21-.26,141.31-.09,10.45,2.94,16.28,13.89,17.9,4.51.67,11.53-.82,12.55,7.02-.84.58-1.68,1.16-2.52,1.74-34.95-.25-69.9-.29-104.84-1-5.05-.1-13.48,4.41-14.63-6.2,0,0-.1.08-.1.08q25.85-3.63,25.77-29.21c-.05-52.83-.36-105.67.22-158.5.12-11.23-2.93-17.02-14.33-18.71-4.71-.7-13.27.77-10.77-9.26Z"/>
        <path class="cls-2" d="M13352.54,2841.57c.41,1.84.81,3.67,1.22,5.51,1.03,13.11-1.4,25.57-7.1,37.4,0,0,.12-.13.12-.13-2.66,1.97-5.26,4.01-7.98,5.89-14.77,10.21-39.09,9.13-51.42-2.24-14.14-13.04-17.24-34.51-7.47-51.75,8.59-15.16,28.03-21.73,46.92-16.67,12.33,3.3,18.67,12.89,25.72,21.99ZM13314.16,2882c12.27-.25,23.23-11.22,23.33-23.35.12-14.67-10.49-25.71-24.28-25.26-13.41.43-22.42,10.87-22.07,25.56.31,12.98,10.61,23.31,23.02,23.06Z"/>
        <path class="cls-2" d="M13128.43,2893.81c-.12-1.95-.25-3.89-.37-5.84.34-13,.91-26,.99-39,.21-32.37,6.31-36.97,38.88-28.85,1.4.35,2.8.67,4.21,1l-.05-.11c.29,1.8,1.35,2.58,3.15,2.44,1.08,1.09,2.17,2.19,3.25,3.28-.18,1.83.66,2.88,2.44,3.22l-.15-.11c3.7,11.59,1.33,22.08-5.72,31.72,0,0,.04-.04.04-.04-12.72,8.09-.44,12.39,2.75,18.06,0,0-.08-.04-.08-.04-.31,5.8,6.14,9.66,4.42,16.47h-15.31c-1.01-1.74-2.02-3.49-3.02-5.23-.87-1.41-1.73-2.81-2.6-4.22l.14-.91-.72-.57c-2.26-6.9-3.39-17.47-12.09-15.9-6.87,1.25-2.48,11.49-3.47,17.67-.37,2.28.09,4.7.18,7.05-2.99,3.36-7.34,1.96-10.95,3.13-.86-.62-1.78-.72-2.76-.31-1.05-.98-2.09-1.95-3.14-2.93ZM13152.87,2834.59c-4.53-.48-7.91,1.95-7.65,9.01.22,6.04,3.11,9.06,8.87,8.62,5.88-.44,11.96-1.75,11.96-9.48,0-7.39-5.78-7.68-13.18-8.15Z"/>
        <path class="cls-2" d="M13213.56,2893.87c-1.09,1.03-2.18,2.06-3.27,3.09-4.16-2.95-16.39,3.98-12.96-6.73,7.88-24.6,18.54-48.31,28.09-72.4,6.19,2.39,6.38,6.26,7.56,9.15,9.11,22.41,17.96,44.93,27.11,67.95-8.07,1.92-12.93,1.53-19.55-3.25-7.54-5.44-18.95-9.66-26.96,2.19ZM13227.89,2857.94c-2.21,4.94-8.78,8.81-4.33,14.71.84,1.11,5.32,1.11,6.64-.06,6.04-5.32-1.09-9.54-2.31-14.65Z"/>
        <path class="cls-2" d="M13033.17,2818.42c1.64-.24,3.27-.48,4.91-.71,10.72.24,21.44.49,32.15.73,0,0,1.07.13,1.08.12.28,4.92.56,9.83.84,14.75-4.72.43-9.43,1.18-14.15,1.21-6.18.03-9.65,1.95-10.21,8.87-.66,8.23,5.07,6.23,9.3,6.66,3.31.33,6.66.16,10,.22h.01c.13,4.82.27,9.63.4,14.44l-.17.15c-1.93.04-3.91-.14-5.8.17-5.68.92-13.73-1.81-13.85,8.26-.12,9.92,7.27,8.26,13.41,8.4,1.45.03,2.9-.03,4.35-.04,4.42-.03,7.34,1.3,7.33,6.57-.01,5.03-1.03,8.49-7.06,8.37-7.74-.16-15.5-.32-23.22.08-7.45.39-10.38-2.43-10.19-10.06.56-22.72.62-45.46.88-68.19Z"/>
        <path class="cls-2" d="M12763.83,2733.13c23.3-4.93,36.11.03,42.42,16.43,5.97,15.5,1.01,34.01-11.18,41.74-11.27,7.15-28.71,5.18-37.65-4.26-11.03-11.65-12.08-32.74-2.12-45.67,2.05-2.66,4.6-4.93,6.92-7.37.8.2,1.34-.09,1.61-.87ZM12796.02,2763.75c-.02-15.22-6.23-24.2-16.92-24.49-10.88-.3-17.87,8.86-17.92,23.51-.05,14.68,6.68,24.38,17.1,24.67,11.05.3,17.76-8.66,17.74-23.68Z"/>
        <path class="cls-2" d="M12513.63,2791.37c-18.95-23.71-14.99-44.54,9.05-60.67,10.77-7.22,16.71,4.47,25.25,2.41.89.31,1.79.55,2.71.73,10.77,14.25,16.16,29.59,7.41,46.67-8.49,16.55-23.61,16.01-39.05,13.69,0,0,.17.13.17.13-1.09-.65-2.17-1.3-3.26-1.95-.53-.85-1.29-1.19-2.28-1.02ZM12549.66,2763.45c-.24-14.87-6.83-24.02-17.42-24.19-10.39-.17-18.87,10.16-19.04,23.19-.17,12.69,9.39,25.44,18.93,25.26,10.56-.19,17.76-10.15,17.53-24.27Z"/>
        <path class="cls-2" d="M12711.49,2742.87c-1.45-.06-3.08.3-4.31-.25-9.8-4.42-19.89-7.03-27.65,2.72-8.46,10.63-7.22,22.48-1.07,34.03,3.37,6.32,9.02,8.85,15.71,7.78,7.04-1.13,11.47-5.95,10.83-13.18-.57-6.54,1.96-11.17,7.74-11.24,8.23-.11,3.3,7.18,4.32,11.06,4.78,18.23-11.1,16.96-20.68,20.54-5.07,1.89-11.41.39-17.17.42l-.77-.74s-1.06.09-1.06.09c-3.35-2.81-6.7-5.62-10.04-8.42-.74-1.16-1.47-2.32-2.21-3.47.11-.97-.21-1.76-.97-2.37-.64-1.31-1.29-2.62-1.93-3.93-3.08-12.83,2-24.63,4.59-36.75,7.48-11.28,19.72-6.8,29.93-9.03.96.06,1.93.11,2.89.17.75.63,1.58.74,2.47.33,2.08.76,4.15,1.52,6.23,2.28,4.33,2.29,6.7,5.2,3.14,9.97Z"/>
        <path class="cls-2" d="M12207.56,2289.4c-28.21,1.7-28.47,1.81-17.67,27.9,3.8,9.16,9.03,17.7,11.96,27.32,3.66,12,12.15,15.56,24.55,15.5,95.75-.41,191.5-.28,287.25-.14,5.53,0,11.76-2.33,16.52,2.85-6.29.23-12.58.64-18.88.66-62.69.27-125.39.47-188.08.69-2.9-.02-5.8-.03-8.71-.05-36.09-.05-72.17-.1-108.26-.15-1-1.35-2.01-2.71-3.01-4.06.28-1.79-.48-2.92-2.2-3.44,0,0,.12.08.12.08-.88-4.61-2.37-8.93-5.91-12.27.21-.9-.1-1.57-.91-2.01-.66-1.33-1.33-2.66-1.99-3.99.34-.79.12-1.39-.64-1.79.22-1.74-.28-3.05-2.11-3.57,0,0,.14.05.14.06-4.65-13.35-10.62-26.08-18.19-38.03-1.19-4.88.26-7.11,5.73-6.75,10.08.65,20.19.83,30.29,1.2Z"/>
        <path class="cls-2" d="M13055.59,2794.55c-7.44.88-13.44-.18-14.59-9.39-.93-7.47-6.18-8.27-12.68-8.38-6.89-.11-10.86,1.87-12.33,8.94-.97,4.68-2.91,11-9.12,8.19-5.01-2.26-.66-7.4.52-11.02,5.41-16.5,11.06-32.92,16.63-49.37,3.25-.87,6.51-1.73,9.76-2.6,6.93,18.41,13.87,36.82,20.8,55.23.33,2.8.67,5.6,1,8.4ZM13026.9,2749.26c.37,8.22-6.65,12.91-1.21,18.26,1.31,1.29,7.6.18,7.67-.34.73-5.56-1.03-10.63-6.46-17.92Z"/>
        <path class="cls-2" d="M13107.26,2819.84c.24,1.33.48,2.66.72,3.98-1.06,4.88-1.15,9.74.25,14.57-.02,4.86-.04,9.71-.06,14.57-1.78,13.6-1.17,27.23-.38,40.86l-.61.66s.31.85.31.85c-12.49,3.67-17.26-.35-16.66-13.89.86-19.18-.2-38.44-.44-57.67.37-1.3.75-2.59,1.12-3.89,5.24-1.18,10.49-1.62,15.74-.03Z"/>
        <path class="cls-2" d="M12840.74,2755.59c-1-8.47-6.75-15.71-6.37-24.54,0,0-.04.03-.04.03,2.76-.17,5.52-.34,8.28-.52.48.68,1.07.79,1.76.31,11.06,11.43,5.83,29.67,16.99,41.2,5.15-13.79,10.23-27.37,15.3-40.94,0,0,1.03-.19,1.03-.19,7.85.49,6.4,4.9,4.39,9.91-6.18,15.45-12.23,30.95-18.27,46.45-1.06,2.72,1.19,6.92-4.23,7.59-5.56.69-5.09-4.78-7.88-6.83-1.26-3.68-2.52-7.35-3.78-11.03-.62-1.52-1.24-3.05-1.85-4.57l.21-.71s-.57-.48-.57-.48c-.63-2.09-1.26-4.18-1.9-6.27-.64-1.82-1.28-3.64-1.93-5.47-.43-1.22-.86-2.44-1.29-3.66l.13-.29Z"/>
        <path class="cls-2" d="M13352.04,2783.91c-8.43,12.49-20.44,13.46-33.53,10.05-3.29-.86-8.46-1.3-6.22-7.33,2.01-5.41,5.11-2.32,8.07-1.07,1.32.56,2.84.65,4.25,1.02,6.09,1.58,11.8,1.56,14.56-5.29,2.7-6.69-2.28-9.82-7.02-12.39-10.62-5.76-24.42-10.18-18.13-26.29,6.1-15.63,20.46-8.14,31.76-8.59.48-.02,1.02,1.36,1.92,2.64-2.23,4.29-6.43,2.59-9.8,2.66-4.89.1-10.27-.73-12.03,5.42-2.02,7.05,3.89,8.94,8.43,11.46,6.34,3.52,13.1,6.44,17.46,12.68,1.62,4.98,1.25,10,.27,15.03Z"/>
        <path class="cls-2" d="M12635.48,2795.1c-14.99,2.25-20.19-4.11-18.17-18.93,1.23-8.95.99-18.3-.02-27.31-1.18-10.49,2.82-13.53,12.68-12.59,6.62.63,13.39-.21,20.09-.39,1.99,1.1,3.98,2.21,5.97,3.31-2.09,9.89-9.97,4.57-15.33,5.8-4.48,1.03-11.26-2.81-11.54,6.45-.25,8.29,3.5,11.37,11.32,11.01,3.13-.15,6.66-.7,9.03,3.09-2.94,5.2-7.74,3.98-11.59,3.66-7.55-.62-8.66,3.17-8.84,9.55-.21,7.27,4.12,6.46,9.02,7.7,5.79,1.46,16.93-7.07,16.72,7.62-2.57.3-5.13.59-7.7.89-.96.01-1.92.02-2.88.04-2.92.04-5.83.07-8.75.11Z"/>
        <path class="cls-2" d="M12474.96,2732.78c4.79.18,9.62.09,14.36.66,2.58.31,5.98,1.59,5.07,4.94-.71,2.63-3.5,5.25-6.72,3.66-10.04-4.98-19.39-4.7-24.48,6.01-5.67,11.93-5.1,24.24,4.2,34.94,7.38,6.71,14.75,6.07,22.11-.03,10.33,2.21,7.3,6.39,1.63,10.97-.77-.25-1.28,0-1.55.76-7.79.08-15.57.16-23.36.24-1.33-.47-2.66-.94-3.99-1.41-20.76-18.51-20.33-42.39,1.13-62.92,3.73,1.45,7.31,3.72,11.61,2.18Z"/>
        <path class="cls-2" d="M13098.13,2737.41c-.29,12.51-.12,25.05-1.03,37.51-.66,9.01,2.47,12,11.39,11.34,4.55-.34,13.02-3.09,12.87,4.35-.14,6.93-8.96,1.87-13.24,4.38-1.96.06-3.93.13-5.89.19-10.49.3-20.68.22-17.81-15.17-.01-2.93-.03-5.86-.04-8.8.48-13.46.96-26.92,1.45-40.39,3.9,1.07,8.55-1.16,11.82,2.69-.12.43-.44.92-.33,1.27.25.79.71,1.51,1.08,2.26l-.28.36Z"/>
        <path class="cls-2" d="M12974.4,2733.32c-.09,13.12.61,26.3-.52,39.33-.97,11.23,3.03,14.71,13.75,13.67,3.95-.38,11.47-3.04,11.15,4.62-.26,6.19-7.02,3.35-10.81,3.51-25.86,1.06-25.96.93-25.84-24.46.07-13.09.57-26.18.88-39.27l1.12.13,1.02-.48c1.95,0,3.9.02,5.84.03,1.13.97,2.26,1.94,3.39,2.92Z"/>
        <path class="cls-2" d="M12582.97,2795.16c-8.95.73-12.53-2.64-12.01-12.29.94-17.34.49-34.76.62-52.15,0,0-.1.05-.1.05,3.56.22,7.11.43,10.67.65,0,0-.19-.21-.19-.21.48,12.36.95,24.72,1.42,37.08,0,3.9,0,7.8,0,11.7-.81,9.86,6.85,4.63,10.77,6,4.21,1.48,12.16-3.49,12.1,4.64-.05,6.68-7.9,2.14-11.65,4.35-3.87.05-7.75.1-11.62.16Z"/>
        <path class="cls-2" d="M12903.15,2730.78c.33,18.93.62,37.86,1.02,56.79.1,4.67-1.31,7.34-6.6,7.12-4.61-.19-5.59-2.79-5.59-6.64.03-16.53.39-33.08-.18-49.59-.26-7.54,4.73-6.97,9.18-8.02.66.53,1.38.64,2.17.34Z"/>
        <path class="cls-2" d="M12729.15,2794.49c-.4-18.45-.8-36.89-1.2-55.34.06-10.91,5.95-9.19,12.59-5.8-.25,20.32-.51,40.64-.76,60.96-.88-.17-1.62.08-2.23.73-.97-.33-1.92-.28-2.85.14-1.85-.23-3.7-.46-5.56-.69Z"/>
        <path class="cls-2" d="M12667.91,2289.81c-9.67,18.87-19.34,37.73-29.01,56.6-3.5-18.51,13.73-29.09,17.3-45.01,1.22-5.44,4.81-10.27-3.87-11.96,5.21-.5,10.45-2.72,15.58.37Z"/>
        <path class="cls-2" d="M12627.72,2289.42c-7.5,0-14.99-.01-22.49-.02,7.5-1.74,14.99-1.72,22.49.02Z"/>
        <path class="cls-2" d="M12233.84,2289.4c-5.54,0-11.09,0-16.64,0,5.54-1.67,11.09-1.66,16.64,0Z"/>
        <path class="cls-2" d="M12575.16,2473.6c-5.73,12.23-11.45,24.46-17.18,36.69-11.99,23.01-23.98,46.03-35.97,69.04-2.57-8.05,2.76-14.06,5.86-20.31,13.31-26.84,27.15-53.41,40.79-80.08,1.39-2.73,3.39-4.7,6.5-5.33Z"/>
        <path class="cls-2" d="M12623.5,2377.46c-14.42,30.91-29.41,61.55-45.9,91.42-1.31-7.98,1.55-14.09,5.65-21.29,11.23-19.71,20.27-40.68,30.2-61.13,2.11-4.34,3.98-9.04,10.05-9Z"/>
        <path class="cls-2" d="M12637.99,2348.19c-3.25,9.73-7.76,18.83-13.7,27.21-1.19-11.97-.14-22.81,13.7-27.21Z"/>
        <path class="cls-2" d="M13213.5,2427.39c7.73-1.31,8.33,5.36,10.46,9.78,33.92,70.43,67.58,140.98,101.69,211.32,5.1,10.52,2.51,12.09-8.35,13.37-26.23,3.1-42.32-4.15-52.28-31.34-12.27-33.49-30.3-64.87-47.6-100.81-10.9,21.2-20.4,39.32-29.58,57.6-11.75,23.42-22.83,47.18-35.01,70.36-5.95,11.32-2.81,14.11,8.86,14.04,52.98-.36,105.97-.36,158.95-.29,6.02,0,13.68-2.55,17.33,4.31,5.67,10.65,11.71,21.57,14.5,33.12,1.65,6.83-7.19,4.16-11.25,4.18-58.82.24-117.63.19-176.45.19-25.76,0-51.53-.33-77.29.12-11.39.2-15.84-.78-9.22-13.8,38.5-75.67,76.26-151.73,114.14-227.71,7.33-14.71,14.13-29.69,21.17-44.55,0,0-.07.12-.07.12Z"/>
        <path class="cls-2" d="M13213.09,2795.14c-14.95,3.64-18.03-3.45-17.12-16.95,1-14.88-.14-29.9-.34-44.87.72-.42.9-1.01.54-1.77,14.01.16,28.72-3.34,40.67,7.71,1.84,6.79,1.67,13.06-4.35,17.97-2.43,1.98-3.85,3.64.17,5.99,8.97,5.24,8.82,13.72,7.05,22.53-2.08,1.98-4.15,3.96-6.23,5.93-6.8,1.15-13.6,2.3-20.39,3.45ZM13208.37,2776.22c-.98,6.45.57,10.23,8.1,9.92,7.34-.3,12.07-2.5,11.58-10.77-.49-8.34-6.41-9.53-13-9.92-9.01-.53-6.02,6.38-6.68,10.77ZM13225.3,2747.5c-.68-6.09-5.16-7.24-10.22-7.51-7.33-.4-6.72,4.71-6.87,9.64-.18,6.09,3.24,7.07,8.22,6.75,5.59-.37,8.99-2.7,8.87-8.87Z"/>
        <path class="cls-2" d="M12962.3,2818.01c7.14.15,14.32.78,21.43.32,11.32-.73,20.44,2.88,27.46,11.77,0,0,.05-.03.06-.03,3.61,10.6-3.96,21.23-1.02,31.02,2.49,8.3,3.4,15.74,1.43,23.86,0,0,.04-.07.04-.07-12.23,15.47-29.33,11.66-45.45,11.3-7.28-.16-6.23-6.21-6.21-10.79.08-22.23.37-44.45.58-66.67.78.28,1.34.04,1.68-.71ZM12989.15,2865.44c-8.49-.3-13.3-.34-13.61,6.75-.29,6.81,2.67,9.97,9.41,9.32,5.29-.51,11.36-.81,11.69-7.94.34-7.31-5.49-7.92-7.49-8.13ZM12984.45,2849.96c6.34.04,11.87-.96,11.85-8-.03-6.91-5.54-8.12-11.21-8.22-5.46-.09-9.22,1.37-8.99,8.09.22,6.22,3.03,8.7,8.35,8.13Z"/>
        <path class="cls-2" d="M12852.15,2818.76c8.68-.08,17.35-.11,26.03-.26,11.19-.19,19.02,5.45,25.14,14.19.37,1.93.74,3.86,1.11,5.79,0,2.86,0,5.72,0,8.57-.49,1.85-.98,3.7-1.46,5.54-10.51,9.23-16.09,18.87-2.51,30.1,0,0-.15.2-.15.2,1.32,4.05,2.64,8.11,3.97,12.21-12.25,4.12-18.56-1.09-21.55-12.22-.74-2.75-1.49-5.84-3.27-7.87-2.67-3.05-4.9-8.22-10-6.84-4.9,1.32-2.52,6.49-3.58,9.91-1.95,6.28,5.5,17.94-7.39,17.88-12.82-.05-7.08-11.69-7.07-17.94.02-19.75-1.98-39.56.74-59.27ZM12875.26,2832.82c-8.16-.4-11.85,2.94-11.95,11.08-.11,9.11,6.06,8.35,11.81,8.48,6.23.14,13.35-2.02,13.11-8.24-.23-5.96-4.11-13.25-12.97-11.32Z"/>
        <path class="cls-2" d="M12938.12,2821.21c-.03,21.08,0,42.16-.17,63.24-.03,4.06,1.65,9.56-3.66,11.27-4.98,1.61-10.66,1.95-13.09-4.84-.03-2.9-.06-5.79-.09-8.69.21-20.44.42-40.88.63-61.32,1.84-1,3.67-2,5.51-3,2.81.28,5.62.56,8.43.83.81.83,1.62,1.66,2.43,2.49Z"/>
        <path class="cls-2" d="M12929.99,2747.91c-.26,6.26-.1,12.57-.88,18.76-1.69,13.5.5,22.88,17.54,19.44,2.55-.51,6.1-.63,6.53,3.57.54,5.33-3.43,4.71-6.72,4.91-.48.03-.97-.02-1.45.01q-27.95,1.93-28.1-26.21c-.04-8.7.55-17.47-.26-26.1-.99-10.53,3.08-13.17,12.45-9.88.3,5.16.59,10.33.88,15.5Z"/>
        <path class="cls-2" d="M13251.32,2742.21c10.46-13.67,25.74-10.71,38.45-7.9,12.07,2.67,16.05,16.22,16.56,27.58.66,14.68-6.72,26.26-20.31,33.12-1.82.22-3.63.43-5.45.65-3.03-.01-6.05-.02-9.08-.03-6.7-1.38-12.31-4.92-17.7-8.91,0,0-.54-.63-.54-.63-9.28-14.25-8.51-28.94-1.93-43.89ZM13294.43,2764.31c.23-13.22-8.41-24.74-18.81-25.07-9.74-.31-17.95,9.16-18.45,21.27-.6,14.55,8.82,27.26,20.01,27.01,9.49-.21,17.03-10.36,17.25-23.21Z"/>
        <path class="cls-2" d="M13241.6,2811.53c-10.99-.55-24,6.63-31.28-8.15.91-1.1,1.82-2.19,2.73-3.29,9.8-4.58,19.57,2.35,29.36.06.24.73.74,1.02,1.5.86.14,2.49.28,4.98.42,7.47,0,0,.33-.14.33-.13-.99,1.12-1.99,2.23-2.98,3.34l-.07-.16Z"/>
        <path class="cls-2" d="M12889.21,2707.25c.33,5.57-3.44,6.24-7.61,6.23-35.96-.08-71.92-.18-107.88-.38-1.22,0-2.43-1.06-4.23-1.9.88-1.42,1.31-3.1,2.22-3.42,21.75-7.63,21.68-7.61,21.68-30.26-.03-81.17.02-162.34-.01-243.51,0-9.88,2.63-21.38-13.22-22.12-1.57-.07-4.19-3.37-4.22-5.2-.06-4.07,3.83-3.56,6.55-3.55,17.5.04,35.03-.48,52.47.6,14.56.9,25.82,12.53,28.08,27.33,1.02,6.69,1.21,13.55,1.22,20.34.08,76.31.03,152.62.07,228.93q.01,23.93,24.83,26.88s.07.04.07.04Z"/>
        <path class="cls-2" d="M13128.02,2763.8c-.06-23.15,6.95-30.46,29.31-30.57,18.2-.09,29.45,10.77,29.78,28.76.37,20.21-11.94,33.68-30.57,33.44-18.45-.23-28.47-11.35-28.52-31.63ZM13140.41,2762.39c-.12,17.82,4.33,24.64,16.39,25.09,10.71.4,17.95-8.92,18.01-23.19.06-13.51-8.28-24.92-18.33-25.1-11.54-.2-15.95,6.17-16.07,23.2Z"/>
        <path class="cls-2" d="M12635.49,2434.13c-.23-18.01,11.71-30.58,29.28-30.85,18.07-.27,31.88,13,31.77,30.52-.11,16.71-13.58,30.06-30.76,30.48-17.26.42-30.07-12.33-30.3-30.15Z"/>
      </g>
    </g>
  </g>
</svg>