<?xml version="1.0" encoding="UTF-8"?>
<svg xmlns="http://www.w3.org/2000/svg" version="1.1" viewBox="0 0 902 902">
  <defs>
    <style>
      .cls-1 {
        fill: #fff;
      }
    </style>
  </defs>
  <!-- Generator: Adobe Illustrator 28.6.0, SVG Export Plug-In . SVG Version: 1.2.0 Build 709)  -->
  <g>
    <g id="Camada_1">
      <g>
        <path class="cls-1" d="M433.38,334.31c.72,1.99.71,3.91-.66,5.64-.52.66-.75,1.4-.8,2.18-.3,5.29-2.11,10.32-3.21,15.42-1.32,6.14-1.53,12.21-1.93,18.35-.03.44.03.93-.15,1.29-.44.9.07,2.56-1.18,2.64-1.19.08-2.78-.38-3.61-1.2-4.12-4.04-8-8.34-12.07-12.43-3.38-3.39-6.96-6.58-10.35-9.96-3.39-3.38-6.51-7.05-10.02-10.3-3.58-3.31-6.93-6.87-10.37-10.3-3.39-3.38-6.75-6.85-10.1-10.28-3.97-4.05-8-8.06-12.02-12.08-5.08-5.07-10.06-10.25-15.16-15.3-4.96-4.92-10.07-9.7-15.02-14.64-4.84-4.83-9.54-9.8-14.33-14.68-3.25-3.31-6.52-6.59-9.81-9.86-4.25-4.25-8.53-8.46-12.78-12.71-4.86-4.86-9.68-9.74-14.54-14.6-4.97-4.98-9.97-9.94-14.95-14.92-1.7-1.7-3.34-3.46-5.05-5.15-.68-.67-1.65-.55-2.5-.55-24.36-.02-48.72-.02-73.08-.02-.59,0-1.33-.21-1.7.39-.5.82.46.96.83,1.34,7.48,7.73,15.1,15.31,22.78,22.85,7.24,7.11,14.18,14.54,21.34,21.73,6.38,6.4,12.93,12.63,19.32,19.01,5.62,5.61,11.09,11.36,16.69,16.99,6.51,6.54,13.12,12.98,19.64,19.51,4.67,4.67,9.26,9.42,13.9,14.12,4.22,4.27,8.45,8.52,12.68,12.78,5.74,5.79,11.45,11.62,17.22,17.39,5.71,5.7,11.48,11.33,17.21,17.02,4.61,4.59,9.21,9.19,13.77,13.84,1.51,1.54,1.24,3.59-.37,5.21-7.13,7.22-14.21,14.49-21.36,21.7-4.13,4.16-8.4,8.16-12.52,12.33-7.21,7.3-14.29,14.73-21.53,22.01-6.44,6.48-13.07,12.78-19.53,19.25-7.11,7.13-14.05,14.43-21.19,21.53-5.73,5.7-11.61,11.28-17.25,17.06-20.17,20.67-40.81,40.88-61.13,61.39-.54.55-1.45,1.09-1.18,1.9.36,1.07,1.5.64,2.31.64,23.83.02,47.67-.02,71.5.05,3.53,0,4.82-2.9,6.77-4.79,8.1-7.87,15.87-16.08,24.02-23.89,3.6-3.45,7.74-6.47,10.8-10.36,2.23-2.84,5.01-5.03,7.36-7.7,3.29-3.74,7.22-6.9,10.82-10.37,1.36-1.31,2.44-2.9,3.85-4.14,4.24-3.73,7.98-7.97,11.89-12.01,4.58-4.73,9.8-8.83,14.07-13.76,5.05-5.84,10.67-11.05,16.04-16.53,8.93-9.11,18.04-18.04,27.06-27.05,9.49-9.48,18.97-18.95,28.43-28.45,3.32-3.33,6.57-6.72,9.82-10.12.96-1,2.13-.83,3.18-.58,1.19.28,1.42,1.47,1.47,2.54.22,4.19.4,8.39.57,12.59.06,1.49-.03,2.98,1.18,4.17.27.27.41.8.41,1.21-.07,5.17,1.48,10.1,2.91,14.92,1.18,3.97,1.61,8.25,3.84,11.9.14.22.4.46.38.67-.36,3.41,2.05,5.97,2.95,8.99.7,2.35,1.47,5.03,3.26,7.1,1.24,1.43,1.52,3.46,2.26,5.16,1.65,3.79,3.99,7.19,5.72,10.93,1.25,2.71,2.97,5.39,4.87,7.75,2.11,2.62,3.79,5.51,5.77,8.2,6.37,8.66,13.5,16.61,21.35,23.9,2.69,2.5,4.83,5.48,7.79,7.77,3.45,2.68,6.71,5.55,10.48,7.85,3.12,1.9,6.38,3.66,9.01,6.35,2.01,2.06,4.74,1.97,6.74-.05,6.27-6.32,12.46-12.72,18.76-19.01,5.6-5.6,11.32-11.07,16.94-16.65,5.76-5.73,11.46-11.52,17.19-17.28,5.55-5.58,11.05-11.22,16.73-16.67,1.09-1.05,1.41-2.82,3.17-3.24-2.13-.15-3.63,1.35-4.86,2.42-2.5,2.17-5.45,3.68-8.09,5.57-1.77,1.27-4.16,2.41-6.51,3.23-2.37.83-4.8,1.77-7.08,2.85-1.7.81-3.66.87-5.07,1.69-4.37,2.53-9.69,1.02-13.92,3.71-.41.26-1.01.25-1.53.29-9.01.65-18.17,1.49-26.96-.29-4.76-.96-10.14-.4-14.43-3.54-.26-.19-.67-.22-1.01-.23-4.2-.14-7.59-2.62-11.4-3.9-5.46-1.83-10.4-4.8-15.03-7.97-4.54-3.11-9.17-6.23-13.1-10.3-3.3-3.43-6.94-6.59-9.72-10.44-2.24-3.09-4.62-6.08-6.62-9.41-1.78-2.96-3.28-6.14-5.37-8.94-1.22-1.63-2.05-3.78-2.54-5.59-.89-3.23-2.41-6.21-3.35-9.41-1.15-3.91-1.57-7.89-2.49-11.75-.68-2.85-1.43-5.61-1.71-8.56-.31-3.31,1.42-5.54,3.58-7.47,1.74-1.56,1.13-2.68-.17-3.87-.44-.41-.87-.79-1.26-1.27-3.62-4.5-2.46-9.15-.48-13.82.39-.93.43-1.87.47-2.82.1-2.7.03-5.41,1.89-7.71.4-.5.48-1.32.55-2,.39-3.84,2.24-7.09,3.94-10.45.87-1.73,1.61-3.57,2.39-5.35,2.56-5.86,6.33-10.93,9.92-16.07,2.57-3.68,5.89-6.9,9.17-10.01,3.91-3.7,7.85-7.44,12.4-10.36,2.94-1.89,5.88-3.81,8.91-5.59,2.16-1.27,4.4-2.53,6.63-3.41,2.77-1.09,5.27-3.13,8.39-3.17,2.5-.03,4.33-1.68,6.53-2.44,7.26-2.5,14.94-1.95,22.31-3.57,3.42-.75,7.15-.63,10.69.26,2.82.71,5.67,1.07,8.57,1.06,2.89,0,5.79-.06,8.33,1.73.33.24.83.3,1.26.34,4.89.44,9.19,2.65,13.72,4.25,2.41.85,4.6,2.19,7.07,2.92,2.14.63,4.06,2.12,5.97,3.39.74.49,1.35,1.1,2.29,1.05.24-.01.56-.11.69-.28.24-.32.04-.59-.24-.87-3.8-3.83-7.58-7.69-11.38-11.52-5.02-5.07-10.03-10.16-15.09-15.19-4.15-4.12-8.41-8.12-12.54-12.26-4.86-4.87-9.62-9.84-14.42-14.76-4.49-4.6-9.01-9.17-13.47-13.8-1.35-1.4-2.79-.93-4.03-.16-3.62,2.28-7.25,4.58-10.66,7.16-4.48,3.38-8.8,6.98-13.11,10.59-2.04,1.71-3.91,3.61-5.78,5.51-.69.7-1.23,1.47-2.36,1.09,1.54-3.24,4.69-4.94,7.09-7.36,2.79-2.82,5.7-5.57,8.84-7.99,3.82-2.94,7.7-5.81,11.85-8.3,1.68-1.02,3.34-2.1,5-3.15,1.52-.96,2.31-1.06,3.72.37,9.52,9.61,19.44,18.82,28.7,28.67,6.17,6.57,12.95,12.56,18.76,19.42,4.67,5.52,9.89,10.47,14.94,15.57,5.5,5.55,11.44,10.7,16.77,16.43,4.04,4.34,8.45,8.29,12.59,12.52,6.52,6.66,13.01,13.35,19.59,19.95,11.19,11.22,22.49,22.32,33.62,33.59,2.86,2.89,6.04,5.5,8.42,8.86,1.08,1.53,1.34,2.7-1.11,2.81.56-1.63-.17-3.03-1.39-3.75-2.63-1.55-4.37-3.99-6.53-5.99-3.53-3.29-6.88-6.78-10.29-10.21-3.46-3.49-6.88-7.02-10.35-10.51-3.35-3.36-6.77-6.66-10.12-10.03-2.63-2.65-5.24-5.33-7.79-8.05-2.43-2.59-4.79-5.26-7.18-7.9-.31.26-.62.52-.92.78.56,2.73,2.69,4.72,3.75,7.23.92,2.18,2.67,4.1,3.21,6.33.74,3.01,1.98,5.92,3.13,8.62,1.63,3.85,2.31,7.94,3.37,11.81,1.43,5.24.86,10.97,2.02,16.47,1.44,6.77-1.86,13.36-1.54,20.17.21,4.45-2.82,8.3-2.77,12.78,0,.08-.06.17-.12.23-2.45,2.35-1.85,5.9-3.53,8.72-1.69,2.84-2.47,6.3-4.52,9.11-.69.94-1.09,2.36-.21,3.15.96.86,1.67-.48,2.28-1.1,5.96-6.02,11.82-12.14,17.83-18.11,7.93-7.89,15.96-15.68,23.96-23.5,1.48-1.45,2.84-3.06,5.03-3.49.39,2.13-1.71,2.69-2.69,3.71-7.51,7.81-15.32,15.33-22.88,23.09-5.48,5.63-11.09,11.13-16.6,16.72-7.44,7.55-15,14.98-22.49,22.48-3.37,3.38-6.63,6.94-10,10.31-3.4,3.39-6.68,6.93-10.26,10.17-3.56,3.23-6.69,6.94-10.09,10.35-3.34,3.35-6.83,6.56-10.2,9.89-3.38,3.34-6.68,6.75-10.02,10.13-2.61,2.65-5.19,5.35-7.83,7.97-2.58,2.56-5.27,5.01-7.84,7.59-3.47,3.48-6.84,7.06-10.29,10.55-2.63,2.66-5.46,5.15-7.96,7.93-1.76,1.96-3.54,1.37-5.14.37-4.37-2.72-8.76-5.47-12.84-8.59-5.05-3.86-10.08-7.78-14.71-12.17-5.08-4.81-10-9.77-14.65-14.99-2.07-2.32-3.99-4.76-5.88-7.23-2.77-3.61-5.54-7.23-8.12-10.97-2.05-2.98-3.87-6.12-5.7-9.24-2-3.42-3.94-6.87-5.82-10.36-1.1-2.03-2.14-4.11-3-6.25-1.25-3.1-2.44-6.23-4.02-9.19-1.06-1.99-1.59-4.29-2.16-6.34-1-3.66-2.39-7.25-3.54-10.8-1.35-4.19-1.09-8.73-3.24-12.67-.91-1.66-.79-3.6-.76-5.42.11-5.55-2.7-10.66-2.39-16.24.07-1.28-.48-1.75-1.69-.52-6.08,6.21-12.2,12.37-18.38,18.46-11.03,10.87-22.17,21.62-33.16,32.53-9.5,9.43-18.82,19.03-28.29,28.5-8.71,8.71-17.55,17.3-26.26,26.02-10.24,10.26-20.38,20.61-30.6,30.89-9.79,9.84-19.6,19.66-29.45,29.44-1.28,1.27-3.03,1.72-4.83,1.72-24.71,0-49.42,0-74.13,0-1.21,0-2.32-.14-2.8-1.45-.46-1.26.48-1.78,1.26-2.55,4.91-4.86,9.72-9.83,14.59-14.74,4.08-4.11,8.21-8.17,12.31-12.27,5.74-5.75,11.44-11.53,17.19-17.27,4.95-4.95,9.95-9.85,14.91-14.79,4.83-4.83,9.63-9.7,14.45-14.53,5.68-5.69,11.36-11.38,17.05-17.06,1.65-1.65,3.33-3.26,4.96-4.92.2-.21.35-.65.27-.91-.16-.53-.67-.48-1.09-.32-.72.28-1.4.54-2.07,1.02-3.17,2.26-6.6,4.11-10.05,5.93-4.32,2.28-8.79,4.22-13.39,5.69-4.03,1.28-8.13,2.45-12.32,3.34-9.18,1.96-18.43,2.51-27.67,1.67-5.94-.54-11.85-1.75-17.71-3.27-5.35-1.39-10.38-3.46-15.42-5.52-4.47-1.83-8.73-4.22-12.75-6.92-7.54-5.08-14.47-10.87-20.41-17.82-4.46-5.22-8.33-10.81-12.07-16.58-2.41-3.71-4.46-7.64-6.04-11.57-1.26-3.15-2.24-6.79-3.44-9.95-1.71-4.5-.83-9.38-3.1-13.6-.38-.71-.27-1.72-.3-2.59-.33-7.53-.91-15.16.18-22.57.74-5.02.46-10.43,3.23-15.08.17-.29.23-.67.26-1.01.43-4.53,2.77-8.39,4.3-12.54,1.92-5.22,4.72-9.95,7.6-14.57,2.24-3.59,4.89-7.01,7.73-10.26,3.18-3.64,6.59-7.01,10.12-10.26,3.26-3,6.78-5.65,10.52-8.08,2.8-1.83,5.65-3.56,8.57-5.16,2.7-1.48,5.57-2.68,8.35-4,2.81-1.33,6.03-1.55,8.59-3.43.21-.15.47-.31.71-.31,4.49,0,8.37-3,12.9-2.68,4.6.32,8.95-1.26,13.47-1.63,3.96-.33,7.81-.14,11.62.97.83.24,1.73.41,2.59.38,5.52-.17,10.74,1.65,15.9,3.02,5,1.33,9.99,3.16,14.73,5.61,4.17,2.16,8.34,4.18,12.05,7.11,1.11.88,3.12.43,3.8,2.26.11.28.62.32.92.04.33-.3.19-.63-.06-.91-.92-1.04-1.81-2.12-2.79-3.11-19.85-19.93-39.72-39.83-59.55-59.77-10.85-10.91-21.66-21.87-32.47-32.81-.37-.37-.72-.78-.95-1.24-.45-.92-1.28-1.88-.75-2.93.53-1.06,1.73-.58,2.63-.58,24.53-.02,49.07.01,73.6-.07,2.48,0,4.11,1.29,5.59,2.77,12.32,12.26,24.56,24.61,36.83,36.92,12.02,12.06,24.03,24.12,36.07,36.16,15.54,15.55,31.13,31.06,46.66,46.62,9.48,9.51,18.87,19.11,28.34,28.63,5.77,5.8,11.69,11.45,17.43,17.28,1.43,1.46,1.76.92,2.02-.62.54-3.19,1.32-6.37,1.54-9.58.64-9.49,3.47-18.52,5.52-27.71.34-1.53.98-3.12,2.18-4.32ZM310.75,378.47c.72.31.6.99.67,1.58.94,7.25.84,14.49-.13,21.73-.38,2.86-.18,5.79-1.05,8.59-1.85,5.98-3.11,12.12-5.69,17.9-1.91,4.29-3.71,8.6-6.25,12.56-1.66,2.6-3.32,5.2-4.94,7.83-.3.49-.73,1.15-.15,1.67.66.59,1.12-.09,1.51-.51,4.3-4.57,8.67-9.06,13.05-13.55,6.96-7.14,13.83-14.37,21.1-21.22,7.61-7.17,14.76-14.83,22.34-22.04,2.24-2.13,1.45-3.35-.17-4.97-17.33-17.41-34.63-34.84-51.98-52.23-2.43-2.43-5.04-4.67-7.57-7,1.84,2.57,3.11,5.38,4.84,7.88,4.17,6.05,7.18,12.72,9.83,19.5,1.83,4.69,2.96,9.66,4.2,14.55.56,2.23,1.18,4.56.34,6.91-1.5-.75-.71-2.34-1.25-3.48-2.09-4.42-1.86-9.44-3.59-14.05-1.03-2.77-2.15-5.64-3.23-8.38-.97-2.46-2.12-5.05-3.57-7.43-1.97-3.21-3.77-6.56-5.85-9.71-2.9-4.38-6.45-8.25-9.99-12.11-3.82-4.17-8.12-7.9-12.7-11.13-4.25-3-8.7-5.77-13.43-8.13-4.23-2.11-8.53-4.19-12.94-5.51-3.89-1.17-7.7-3.32-12-2.97-2.73.22-4.92-1.7-7.59-1.81-7.87-.33-15.75-.27-23.62.04-.78.03-1.64.05-2.31.38-4.59,2.27-10.01,1.15-14.57,3.7-1.1.61-2.83.26-4.03.95-3.95,2.26-8.35,3.51-12.37,5.71-3.33,1.82-6.81,3.52-9.84,5.7-6.43,4.63-12.7,9.54-17.82,15.7-3.87,4.66-7.72,9.32-10.77,14.6-1.72,2.97-3.37,5.92-4.75,9.07-1.55,3.53-3.59,6.84-4.18,10.75-.09.59-.31,1.24-.69,1.68-1.17,1.38-1.32,2.99-1.37,4.68-.06,1.85-.29,3.66-1.4,5.23-.58.82-.6,1.8-.68,2.77-.58,7.78-.43,15.57-.56,23.36-.11,6.89,1.69,13.43,3.14,20,.57,2.6,1.28,5.45,2.62,7.82,1.41,2.5,2.16,5.23,3.46,7.77,1.79,3.52,3.54,7.12,5.71,10.36,3.68,5.49,7.61,10.86,12.44,15.47,3.73,3.56,7.39,7.16,11.64,10.15,3.81,2.68,7.68,5.17,11.79,7.37,2.88,1.54,5.91,2.76,8.78,4.24,2.38,1.23,5.1,1.34,7.23,2.61,3.64,2.17,8.14,1.04,11.56,3.56,11.69,1.12,23.39,1.52,35.09.19,1.37-.16,2.83.08,4.11-.65,3.65-2.09,7.97-1.88,11.85-3.52,2.79-1.17,5.79-2.24,8.56-3.47,3.61-1.61,7.19-3.47,10.56-5.7,4.03-2.67,8-5.38,11.77-8.39,3.88-3.1,7.44-6.56,10.62-10.34,2.72-3.23,5.21-6.68,7.57-10.19,2.11-3.15,4.23-6.32,5.8-9.8,1.16-2.57,2.43-5.09,3.48-7.71,1.15-2.86,1.85-5.95,2.99-8.75,1.89-4.64,2.37-9.55,3.33-14.29,1.47-7.28.55-14.84.57-22.28,0-1.1-.4-2.29.5-3.27ZM529.23,292.61c-8.2-.95-16.08.49-23.9,2.35-3.41.81-6.89,1.58-10.1,2.93-3.06,1.28-6.18,2.42-9.2,3.83-2.09.98-4.3,1.84-6.17,3.11-3.93,2.68-7.95,5.24-11.83,8.01-5.14,3.67-9.8,7.76-13.85,12.51-5.95,6.98-11.46,14.27-14.42,23.19-.53,1.6-1.17,3.87-2.08,4.69-2.75,2.48-.94,6.66-3.9,8.76-.08,5.01-2.93,9.52-2.64,14.61.06,1.13.03,2.31-.24,3.4-.72,3.02.05,5.31,2.4,7.48,1.52,1.4,3.64,3.46.55,5.65-3.34,2.38-2.71,5.86-2.53,9.21.11,2.1.23,4.2.41,6.29.06.68.19,1.42.52,2,2.12,3.73,1.85,8.13,3.54,12.07,1.19,2.77,2.3,5.72,3.5,8.51,1.47,3.43,3.47,6.69,5.41,9.95,1.95,3.27,4.22,6.28,6.38,9.38,2.82,4.04,6.36,7.45,9.92,10.79,3.03,2.84,5.96,5.81,9.63,7.97,2.63,1.55,4.99,3.54,7.67,5.1,2.21,1.28,4.38,2.61,6.73,3.61,2.28.98,4.83,1.74,6.78,2.96,2.87,1.8,6.12,2.24,9.07,3.41,4.42,1.76,9.26,2.81,14.23,3.12,6.71.41,13.37,1.91,20.11.59,5.72-1.12,11.57-.9,17.3-2.72,3.76-1.2,7.75-2.13,11.39-3.6,5.25-2.12,10.22-4.94,15.11-7.95,5.85-3.6,11.09-7.9,16.33-12.25,4.72-3.92,8.26-8.95,11.96-13.72,2.21-2.85,4.16-6.08,5.94-9.34,2.19-4.01,3.93-8.23,6.14-12.21,1.42-2.55,1.76-5.47,2.79-8.11,1.88-4.78,2.62-9.81,3.39-14.75,1.23-7.88.72-15.91.36-23.87-.23-5.05-1.83-9.93-2.77-14.88-.82-4.31-2.6-8.47-4.26-12.57-1.27-3.13-2.64-6.35-4.67-9-2.99-3.9-5.46-8.14-8.23-12.16-2.86-4.14-5.89-8.11-9.53-11.42-5.92-5.36-12.19-10.32-19.2-14.37-7.68-4.44-15.76-7.81-24.24-10.06-7.76-2.06-15.73-3.52-23.79-2.51ZM613.84,443.79c.69-.2.87-.48.86-.85-.01-.4-.27-.64-.67-.55-.39.08-.52.42-.51.78.02.38.19.65.32.62Z"/>
        <path class="cls-1" d="M531.28,648.6c0-17.77,0-35.55,0-53.32,0-3.51.76-4.34,4.29-4.35,8.23-.03,16.46.01,24.69-.03,2.13-.01,3.02,1.1,3.15,3.02.08,1.13,0,2.28,0,3.41,0,34.67,0,69.35,0,104.02,0,.87,0,1.76-.12,2.62-.23,1.7-1.12,2.6-2.98,2.58-8.14-.05-16.29,0-24.43-.04-3.93-.02-4.59-.76-4.59-4.59,0-17.77,0-35.55,0-53.32Z"/>
        <path class="cls-1" d="M607.14,208.32c5.61,0,11.26-.44,16.81.12,5.97.6,12.05.96,17.85,2.3,3.1.71,6.67.61,9.23,2.08,3.41,1.95,7.41,1.32,10.68,3.62,1.84,1.29,4.55,1.78,6.77,2.27,3.17.71,5.85,2.47,8.96,3.26,1.83.46,3.89,1.53,5.76,2.49,2.77,1.41,5.63,2.69,8.3,4.19,2.64,1.49,5.24,3.18,7.83,4.84,6.31,4.03,12.58,8.1,18.46,12.75,9.89,7.82,19.09,16.32,27.25,26,6.3,7.48,12.08,15.33,17.15,23.65,3.83,6.29,7.21,12.85,10.22,19.62,2.02,4.53,3.97,9.11,5.63,13.74,1.16,3.24,2.25,6.59,3.23,9.93,1.45,4.94,2.6,9.97,3.75,14.96,1.43,6.2,2.44,12.59,2.73,18.94.59,12.51,1.02,25.09-.34,37.55-.7,6.46-1.93,12.93-3.23,19.36-1.06,5.27-2.66,10.41-3.77,15.66-.59,2.79-1.16,6.09-3.25,8.54-.27.32-.51.77-.54,1.18-.31,3.98-3.12,6.98-4.15,10.58-.69,2.44-2.17,4.41-3.06,6.67-.73,1.87-1.81,3.92-2.97,5.77-2.14,3.4-4.17,6.86-6.26,10.29-2.31,3.81-4.84,7.44-7.54,11-2.46,3.24-4.97,6.42-7.62,9.5-4.55,5.28-9.27,10.39-14.4,15.1-3.79,3.47-7.66,6.87-11.71,10.03-3.79,2.96-7.68,5.79-11.75,8.4-4.37,2.8-8.95,5.26-13.44,7.78-3.78,2.12-7.7,4.15-11.8,5.81-2.28.92-4.66,2.11-6.95,3.05-2.99,1.23-6.07,2.32-9.12,3.47-3.89,1.47-7.84,3-11.9,3.73-5.74,1.03-11.31,2.75-17.04,3.82-7.32,1.37-14.75,1.29-22.07,2.62-6.06,1.1-12.48,1.13-18.71-.37-3.24-.78-6.61-.64-9.94-.67-4.28-.05-8.55-.08-12.45-2.3-1.31-.75-2.37-1.13-.73-2.74,6.19-6.08,12.28-12.25,18.4-18.4,6.31-6.34,12.59-12.7,18.9-19.02,7.23-7.25,14.49-14.47,21.73-21.71,7.11-7.11,14.22-14.23,21.33-21.35,6.49-6.5,12.98-13.01,19.47-19.51,5.63-5.64,11.27-11.29,16.92-16.92,7.3-7.28,14.64-14.53,21.92-21.83,4.9-4.91,9.7-9.91,14.6-14.82,5.63-5.65,11.31-11.24,16.96-16.86,1.48-1.47,2.87-3.03,4.44-4.38,1.42-1.22,1-2.43.05-3.4-4.46-4.56-9.02-9.02-13.53-13.53-5.32-5.32-10.59-10.69-15.91-15.99-6.11-6.09-12.21-12.2-18.31-18.3-6.64-6.63-13.15-13.39-19.79-20.01-6.46-6.44-13.06-12.74-19.52-19.18-5.17-5.16-10.19-10.48-15.34-15.67-5.27-5.29-10.65-10.47-15.93-15.76-5.1-5.11-9.99-10.45-15.26-15.37-4.27-3.98-7.98-8.49-12.41-12.33-4.28-3.71-8.06-7.99-12.05-12.02-4.9-4.95-9.71-9.98-14.73-14.79-1.23-1.17-1.56-2.61-1.82-3.9-.27-1.3,1.45-1.48,2.51-1.6,2.43-.28,4.9.05,7.32-.53,7.98-1.93,16.12-1.36,24.21-1.37ZM575.16,568.51c7.24.36,14.43,2.87,22.04,2.36,5.15-.34,10.34.04,15.5-.08,4.67-.11,9.27.1,13.97-1.33,5.65-1.72,11.94-.25,17.61-2.82,1.97-.89,4.46.05,6.4-1.05,3.58-2.04,7.85-1.67,11.49-3.6,1.35-.72,3.04-.99,4.57-1.61,2.54-1.03,5.09-2.34,7.67-2.89,2.08-.45,3.38-2.11,5.27-2.34,2.84-.34,5.02-2.15,7.4-3.29,3.38-1.62,6.66-3.68,9.96-5.54,3.51-1.98,6.89-4.14,10.22-6.34,4.41-2.92,8.57-6.21,12.71-9.54,5.79-4.67,11.6-9.38,16.55-14.87,5.26-5.84,10.43-11.79,15.02-18.25,3.45-4.87,6.82-9.79,9.99-14.83.84-1.34,2.15-2.53,2.51-4.07.57-2.39,2.16-4.28,3.24-6.33.88-1.68,1.06-3.7,2.25-5.1,1.89-2.22,2.74-4.99,3.54-7.52.91-2.92,3.25-5.37,3-8.67-.02-.22.2-.48.35-.69,2.09-3.05,2.49-6.77,3.42-10.16,1.28-4.69,3.43-9.3,3.06-14.38-.02-.32.11-.74.32-.99,1.54-1.84,1.42-4.05,1.47-6.24.05-2.36.22-4.71.42-7.06.26-3.06,1.87-5.73,1.77-8.92-.24-8.14-.09-16.3-.08-24.45,0-1.5.04-3.04-.54-4.41-1.58-3.73-1.49-7.66-1.6-11.58-.04-1.31.34-2.79-.39-3.88-2.84-4.23-1.67-9.39-3.46-14.02-1.38-3.57-3.33-7.45-3.15-11.65.01-.23-.14-.54-.31-.71-2.44-2.34-2.32-5.82-3.54-8.68-1.84-4.31-3.66-8.71-5.76-12.85-2.41-4.75-5.07-9.46-7.87-14.05-3.73-6.13-7.87-11.92-12.2-17.6-5.56-7.29-11.93-13.86-18.61-20.13-3.46-3.25-6.97-6.41-10.77-9.29-2.37-1.79-4.65-3.82-7.06-5.53-2.5-1.77-5.04-3.55-7.62-5.22-1.8-1.17-3.79-2.06-5.59-3.22-3.55-2.3-7.37-4.1-11.09-6.09-2.12-1.13-4.38-1.92-6.47-3.05-2.56-1.39-5.21-2.61-7.95-3.46-3.03-.94-6.29-1.84-8.88-3.23-3.29-1.76-7.38-.67-10.08-3.55-4.97.54-9.21-3.08-14.16-2.54-2.76.3-4.84-1.73-7.46-1.9-17.33-1.17-34.66-.78-51.99-.2-1.32.04-2.65.19-3.71,1.07-.81.67-1.62,1.24-.21,2.4,1.94,1.58,3.59,3.53,5.37,5.31,7.73,7.72,15.32,15.59,23.24,23.11,4.36,4.14,8.62,8.35,12.83,12.64,4.29,4.38,8.55,8.81,13.11,12.95,6.72,6.12,12.96,12.78,19.38,19.24,4.86,4.89,9.55,9.94,14.52,14.72,5.84,5.61,11.5,11.4,17.13,17.22,2.51,2.59,5.09,5.11,7.57,7.74,3.41,3.62,7.1,6.98,10.66,10.46,3.49,3.42,7.05,6.79,10.42,10.32,2.37,2.48,4.89,4.81,7.22,7.32,3.29,3.54,6.67,7.03,10.11,10.39,3.41,3.34,6.83,6.71,10.24,10.04,3.75,3.66,7.31,7.54,11.18,11.09,2.51,2.3,2.31,2.96.59,6.05-.85,1.53-2.3,1.67-3.28,2.72-3.88,4.19-7.88,8.28-11.93,12.31-5.02,5-10.29,9.76-15.16,14.9-3.99,4.2-8.18,8.19-12.14,12.42-5.54,5.9-11.6,11.31-17.35,17.02-4.11,4.08-8.01,8.36-12.11,12.45-5.01,5-10.19,9.85-15.2,14.86-4.81,4.81-9.44,9.8-14.26,14.61-5,4.99-10.19,9.78-15.16,14.8-7,7.06-13.69,14.43-20.85,21.33-6.24,6.02-12.4,12.1-18.41,18.34-6.26,6.5-12.52,13-18.91,19.63Z"/>
        <path class="cls-1" d="M492.74,145.1c-.94.59-.83,1.55-1.03,2.33-2.54,9.91-5.14,19.81-7.52,29.77-.55,2.28-1.55,2.93-3.72,2.72-1.91-.18-3.86-.15-5.78,0-1.84.14-2.7-.35-3.18-2.34-2.49-10.29-5.18-20.52-7.81-30.78-.21-.81-.45-1.61-.73-2.61-.76,1.01-.44,1.89-.44,2.7-.02,10.25-.06,20.5.03,30.74.02,1.87-.51,2.4-2.34,2.3-2.79-.15-5.61-.11-8.41-.01-1.38.05-1.8-.39-1.79-1.77.04-15.42.04-30.83,0-46.25,0-1.28.42-1.65,1.66-1.63,5.61.05,11.21.1,16.82-.02,1.8-.04,1.89,1.07,2.19,2.27,2.28,8.98,4.57,17.96,6.98,27.39,1.32-2.98,1.73-5.79,2.44-8.49,1.65-6.26,3.24-12.53,4.76-18.83.41-1.69,1.02-2.42,2.96-2.36,5.25.17,10.51.11,15.76.03,1.48-.02,1.94.4,1.93,1.9-.05,15.33-.05,30.66,0,45.99,0,1.35-.34,1.84-1.75,1.78-2.89-.11-5.79-.18-8.67.02-1.98.14-2.05-.8-2.04-2.3.04-9.99.03-19.97.01-29.96,0-.83.24-1.71-.33-2.57Z"/>
        <path class="cls-1" d="M372.28,156.77c0-7.85.09-15.69-.06-23.54-.05-2.35.49-3.21,2.97-3.02,3.14.24,6.31.11,9.46.03,1.4-.04,2.01.25,2,1.85-.06,15.33-.06,30.67,0,46,0,1.64-.67,1.84-2.03,1.81-3.33-.08-6.66-.13-9.99.02-1.7.08-2.67-.47-3.61-1.88-5.13-7.73-10.38-15.38-15.6-23.05-.38-.56-.77-1.1-1.26-1.81-.57.88-.34,1.67-.34,2.39-.02,7.36-.05,14.72.02,22.08.02,1.61-.23,2.37-2.1,2.28-3.5-.16-7.01-.1-10.51-.02-1.36.03-1.81-.35-1.81-1.75.04-15.42.04-30.84,0-46.26,0-1.27.42-1.66,1.67-1.64,3.68.07,7.36.1,11.04-.02,1.42-.05,2.01.73,2.66,1.7,5.34,7.9,10.7,15.8,16.05,23.69.29.43.6.84.91,1.27.17-.04.35-.08.52-.12Z"/>
        <path class="cls-1" d="M172.08,759.34c0-6.75-.03-13.49.01-20.24.02-3.44.29-3.64,3.75-3.63,1.31,0,2.64.13,3.94-.02,3.19-.39,5.59.36,7.32,3.44,2.46,4.38,5.32,8.53,8.02,12.77,1.53,2.41,3.59,4.46,4.84,7.08.35.73,1.12.55,1.3-.23.22-.92.27-1.91.27-2.87.02-5.43-.01-10.87.02-16.3.02-3.65.29-3.88,3.8-3.88,1.93,0,3.86-.02,5.78,0,3.06.04,3.68.64,3.69,3.73.02,12.44,0,24.89,0,37.33,0,6.19-.06,5.64-6.27,6.34-6.19.7-9.1-2.28-11.73-7.09-2.74-5.01-6.07-9.71-9.16-14.53-.63-.98-1.3-.72-1.77.15-.53.95-.49,2.03-.49,3.08,0,5.08-.08,10.17.04,15.25.05,1.89-.55,2.84-2.43,2.88-3.06.05-6.13.09-9.19.09-1.79,0-1.75-1.29-1.75-2.59.02-6.92,0-13.84.01-20.77Z"/>
        <path class="cls-1" d="M259.21,155.02c0-7.53,0-15.05,0-22.58,0-1.13-.28-2.23,1.6-2.2,7.61.11,15.24-.17,22.84.16,12.05.52,18.57,6.52,20.43,18.46.89,5.75.85,11.55-.88,17.16-2.63,8.56-9.83,13.47-20.46,13.79-7.26.22-14.53,0-21.79.1-1.71.02-1.77-.77-1.76-2.06.04-7.61.02-15.23.02-22.84ZM274.43,155.03v7.36q0,6.63,6.74,6.07c4.34-.36,6.75-2.46,7.53-6.7.8-4.35.78-8.71-.05-13.06-.74-3.87-3.09-6.25-6.95-6.89-1.97-.33-4.02-.17-6.02-.3-1.4-.09-1.25.82-1.25,1.71,0,3.94,0,7.88,0,11.82Z"/>
        <path class="cls-1" d="M421.04,755.52c2.54,0,5.08.03,7.62,0,2.22-.03,3.2,1.12,3.21,3.23.02,4.99.03,9.98,0,14.98-.01,1.66-.64,3.07-2.06,4.02-6.96,4.64-14.63,6.71-22.95,5.93-6.43-.6-12.51-2.75-15.93-8.47-4.09-6.83-6.05-14.3-3.73-22.48,1.16-4.08,2.31-8.04,5.3-11.16,3.89-4.06,8.64-6.39,14.32-6.58,3.32-.11,6.65-.11,9.97.15,6.72.53,10.86,4.49,13.71,10.14,1.16,2.3.65,2.96-1.94,3.51-2.47.53-4.89,1.28-7.36,1.81-1.65.36-3.02.34-4.2-1.53-2.4-3.82-6.36-3.69-10.09-2.72-3.2.83-4.8,3.45-5.46,6.66-.95,4.63-.67,9.24.22,13.82.77,3.94,7.06,7.37,11.06,6.09,1.66-.53,3.27-1.25,4.94-1.75,1.75-.52,1.98-1.9,1.88-3.32-.1-1.56-1.28-1.92-2.65-1.85-.26.01-.54.05-.79,0-1.69-.39-4.11,1.11-5.01-.98-1.15-2.67-.7-5.7-.15-8.54.2-1.01,1.32-.97,2.21-.97,2.63,0,5.25,0,7.88,0Z"/>
        <path class="cls-1" d="M638,759.45c0-6.66-.01-13.32,0-19.97.01-3.5.5-3.99,3.89-4,6.13,0,12.27-.07,18.4.07,3.7.09,7.12,1.27,10.26,3.32,5.08,3.32,7.33,8.27,8.04,14,.56,4.52.62,9.14-.04,13.64-.95,6.51-4.07,11.59-10.44,14.47-2.51,1.13-4.96,1.62-7.57,1.66-6.31.09-12.61.11-18.92.07-3.45-.02-3.62-.28-3.62-3.8,0-6.48,0-12.97,0-19.45ZM651.82,759.18s-.03,0-.04,0c0,3.23.02,6.47-.01,9.7-.01,1.26.26,2.38,1.61,2.64,5.72,1.09,10.93.11,11.55-7.06.26-3.03.19-6.12.04-9.16-.29-5.97-4.61-9.5-10.52-8.85-1.77.19-2.68.88-2.64,2.78.08,3.32.02,6.64.02,9.96Z"/>
        <path class="cls-1" d="M391.66,179.88c5.52-14.74,10.87-29.06,16.25-43.36,2.35-6.25,2.37-6.24,8.97-6.24,2.8,0,5.6.04,8.4-.02,1.1-.02,1.74.24,2.16,1.36,5.94,15.96,11.91,31.9,18.04,48.27-5.19,0-10.11,0-15.03.01-.63,0-.98-.28-1.18-.81-.12-.32-.17-.68-.28-1.01-.69-2.07-.8-4.88-2.23-6-1.67-1.31-4.53-.35-6.87-.4-2.8-.06-5.6.05-8.4-.04-1.25-.04-2.02.28-2.2,1.57-.01.09-.04.17-.08.25-.82,2.09-.57,5.09-2.38,6.14-1.64.96-4.25.27-6.43.28-2.79.01-5.58,0-8.73,0ZM423.79,161.01c-1.81-5.96-3.52-11.61-5.4-17.81-1.78,5.85-3.36,11.09-4.98,16.32-.35,1.13-.11,1.55,1.15,1.52,2.96-.07,5.93-.02,9.24-.02Z"/>
        <path class="cls-1" d="M643.99,179.88c-4.82,0-9.55-.04-14.28.03-1.1.01-1.55-.43-1.82-1.4-.49-1.77-1.17-3.49-1.57-5.28-.29-1.32-.96-1.61-2.2-1.6-4.56.06-9.11.07-13.67,0-1.33-.02-1.99.32-2.43,1.68-.71,2.2-.49,5.29-2.48,6.34-1.79.94-4.45.23-6.73.24-1.23,0-2.45,0-3.68,0q-4.65,0-3.07-4.24c5.4-14.42,10.84-28.82,16.17-43.27.58-1.57,1.25-2.18,2.96-2.13,4.2.13,8.41.08,12.62.02,1.27-.02,2.02.21,2.53,1.59,5.84,15.75,11.75,31.46,17.64,47.19.06.15,0,.34,0,.85ZM617.21,143.15c-1.79,5.91-3.32,11.09-4.95,16.23-.4,1.28-.21,1.69,1.19,1.66,2.96-.08,5.92-.02,9.15-.02-1.75-5.81-3.45-11.43-5.39-17.86Z"/>
        <path class="cls-1" d="M565.56,180.51c-9.15.3-17.21-2.11-21.76-10.73-5.31-10.05-5.24-20.44.34-30.36,3.69-6.55,10.15-9.08,17.37-9.78,3.59-.35,7.18-.21,10.72.5,7.58,1.51,12.23,6.32,14.97,13.3.46,1.18.05,1.56-1.02,1.79-3.51.74-7.02,1.47-10.5,2.32-1.1.27-1.49-.05-1.96-1-2.19-4.4-5.1-6.01-9.66-5.5-4.01.44-6.9,3.13-7.97,7.59-1.06,4.41-.96,8.87.02,13.28,1.03,4.59,3.48,6.81,7.79,7.24,4.64.46,7.66-1.34,9.67-5.59.6-1.26.26-3.34,1.83-3.65,1.21-.24,2.65.68,3.99,1.09,2.34.71,4.66,1.53,7.04,2.09,1.59.37,1.61,1.1,1.24,2.43-2.4,8.69-9.06,14.23-18.18,14.97-1.3.11-2.62.01-3.94.01Z"/>
        <path class="cls-1" d="M469.44,663.01c0-13.4-.06-26.8.05-40.2.02-2.53-.77-3.34-3.29-3.28-6.21.15-12.44-.02-18.65.07-2.37.04-3.36-.91-3.35-3.23.03-7.71-.05-15.41.01-23.12.02-2.9.93-3.69,3.83-3.69,25.57-.01,51.14-.01,76.71,0,3.57,0,4.34.75,4.35,4.29.04,7.18.04,14.36,0,21.54-.02,3.8-.4,4.14-4.29,4.16-5.95.03-11.91.12-17.86-.03-2.58-.07-3.26.89-3.26,3.36.07,26.36.04,52.72.04,79.08,0,4.68-1.23,5.91-5.86,5.91-7.71,0-15.41,0-23.12,0-4.33,0-5.3-.96-5.3-5.19,0-13.22,0-26.45,0-39.67ZM501.08,662.15c0-13.31,0-26.62,0-39.93,0-3.88.95-4.87,4.77-4.88,5.87-.03,11.73-.03,17.6,0,2.37.01,3.51-.89,3.45-3.45-.13-4.9-.04-9.81-.04-14.71q0-6.93-7.03-6.93c-23.56,0-47.11,0-70.67,0-3.68,0-3.68.03-3.68,3.57,0,5.78,0,11.56,0,17.34,0,3.73.38,4.13,4.24,4.15,5.6.03,11.21,0,16.81.01,4.36,0,5.29.91,5.29,5.17,0,26.36,0,52.72,0,79.08,0,3.36.24,3.6,3.57,3.6,7.53,0,15.06-.09,22.59.05,2.44.04,3.16-.73,3.14-3.15-.1-13.31-.05-26.62-.05-39.93Z"/>
        <path class="cls-1" d="M237.37,648.49c0-17.78,0-35.57,0-53.35,0-1.05,0-2.11.17-3.14.25-1.57,1.16-2.47,2.87-2.45,14.09.2,28.23-.77,42.26.72,4.22.45,8.66.33,12.64,1.53,6.2,1.86,12.12,4.43,16.37,10.05,5.39,7.11,7.23,15.08,5.76,23.44-1.06,6-3.59,11.91-9.7,15.1-1.15.6-1.85,1.81-3.2,2.21-.79.24-.48,1-.09,1.52.53.71,1.19,1.27,2.04,1.6,5.37,2.06,9.11,5.67,11.94,10.79,4.36,7.91,5.09,16.24,3.37,24.67-1.29,6.3-3.96,12.41-9.09,16.75-3,2.53-6.34,4.66-10.28,5.82-13.9,4.09-28.16,4.14-42.44,4.12-5.96-.01-11.91,0-17.87,0-4.08,0-4.73-.62-4.74-4.72-.02-18.22,0-36.44,0-54.67ZM238.69,648.55c0,17.87.02,35.74-.03,53.61,0,1.93.34,2.81,2.58,2.79,15.94-.12,31.89-.12,47.83-.15,1.5,0,3.03-.03,4.35-.8,1.57-.92,3.26-1.18,5.02-1.28,1.05-.06,2.12-.01,3.07-.57,3.38-1.98,7.11-3.24,10.06-6.12,3.65-3.55,6.7-7.82,7.34-12.42,1.14-8.14,2.36-16.56-1.67-24.58-3.24-6.45-7.58-11.19-15.06-12.36-1.5-.23-3.28-.48-3.34-2.66-.06-2.05,1.61-2.21,3-2.67,3.23-1.07,6.1-2.92,8.29-5.4,2.85-3.23,4.64-7.02,4.8-11.6.25-7.28.43-14.32-4.42-20.58-3.82-4.93-8.6-7.9-14.62-9.1-1.02-.2-2.12-.36-3.01-.85-1.76-.99-3.61-1.2-5.57-1.2-15.24-.01-30.48,0-45.73-.13-2.36-.02-2.94.71-2.93,2.99.09,17.69.05,35.39.05,53.08Z"/>
        <path class="cls-1" d="M583.37,590.49c4.21,0,8.41-.05,12.62.02,2.78.04,5.06.35,6.09,3.91,1.19,4.07,3.19,7.9,4.44,12.04.76,2.51,1.88,5.17,3.27,7.6,1.45,2.53,2.55,5.35,3.31,8.17.77,2.86,2.38,5.34,3.18,8.15.95,3.33,3.14,6.12,3.76,9.69.46,2.65,2.05,5.1,2.84,7.79.86,2.91,2.24,5.66,3.36,8.5.18.45.34.81.84.83.77.04.59-.67.85-1.06,2.61-3.97,2.8-8.81,4.9-13.02,2.52-5.06,3.83-10.64,6.1-15.88,1.93-4.43,3.93-8.94,5.31-13.65.53-1.8,1.7-3.4,2.47-5.14,1.81-4.1,3.07-8.38,4.33-12.67,1.06-3.63,3.27-5.26,7.02-5.27,8.41-.01,16.82-.02,25.24,0,4.1.01,4.21.86,3,4.63-.83,2.57-2.01,5.02-2.71,7.63-.74,2.73-2.16,5.21-3.2,7.82-1.17,2.92-2.19,5.95-3.69,8.72-1.47,2.73-1.99,5.84-3.72,8.44-1.19,1.79-1.57,4-2.39,5.96-1.09,2.57-2.32,5.2-3.31,7.86-.95,2.54-1.71,5.27-3.32,7.68-1.33,2-1.74,4.62-2.83,6.9-1.56,3.27-3.03,6.63-4.46,9.93-1.07,2.49-2.17,5.14-3.17,7.74-1.64,4.25-3.59,8.38-5.42,12.56-.21.48-.6.89-.73,1.39-1.53,5.99-4.48,11.38-6.97,16.97-.84,1.89-2.52,2.14-4.14,2.16-6.31.09-12.62.12-18.93,0-2.91-.05-3.74-2.66-4.64-4.75-2.54-5.91-4.5-12.1-7.4-17.81-2.58-5.1-3.61-10.82-6.59-15.65-2.73-4.44-3.66-9.55-6.13-14.12-2.28-4.22-4.48-8.7-5.31-13.62-.31-1.82-1.42-3.43-2.29-4.94-2.97-5.16-3.74-11.21-6.8-16.22-1.66-2.7-2.24-5.78-3.9-8.42-.98-1.55-.69-3.46-1.62-5.16-2.07-3.8-3.76-7.82-5.36-11.85-.98-2.46.12-3.85,2.7-3.86,4.47-.03,8.94,0,13.41,0ZM568.62,593.05c1.63,1.57,1.19,3.95,2.4,5.71,1.64,2.38,2.29,5.22,3.47,7.8,1.38,3.04,2.6,6.17,3.92,9.25,1.02,2.37,2.22,4.73,2.93,7.16.83,2.85,2.24,5.44,3.37,8.1,1.1,2.58,2.35,5.23,3.3,7.81,1.67,4.53,3.94,8.81,5.49,13.4.65,1.94,1.51,4.02,2.42,5.97,2.04,4.37,4.14,8.73,5.78,13.25,1.65,4.55,3.69,8.94,5.46,13.43,2.04,5.19,4.49,10.23,6.38,15.49,1.51,4.21,2.24,4.75,6.78,4.75,4.82,0,9.63.02,14.45-.01,1.04,0,2.08-.21,3.13-.29.92-.08,1.38-.52,1.51-1.47.39-2.79,2.08-5.12,3.1-7.67.79-1.99,1.21-4.21,2.39-6,1.59-2.41,2.29-5.21,3.32-7.79,1.05-2.61,2.4-5.14,3.34-7.84.71-2.05,1.26-4.35,2.51-6.24,1.59-2.41,2.29-5.2,3.34-7.8,1.82-4.46,3.74-8.91,5.58-13.36,1.03-2.49,1.95-5.15,3.25-7.61.96-1.81,1.94-3.83,2.57-5.86.87-2.82,2.17-5.47,3.24-8.19,2.04-5.2,4.52-10.22,6.44-15.49.73-1.99,1.5-4.1,2.54-5.88,1.55-2.66,2.19-5.62,3.62-8.31,1.24-2.34.5-3.11-2.17-3.12-7.71-.02-15.42.02-23.12-.02-2.7-.01-5.62-.56-5.71,3.56,0,.16-.14.32-.24.46-1.92,2.74-2.12,6.14-3.49,9.14-1.2,2.62-2.2,5.46-3.31,8.13-.85,2.04-1.34,4.26-2.4,6.25-1.37,2.57-2.73,5.23-3.48,8.02-.74,2.78-2.06,5.34-3.11,7.93-.87,2.15-1.12,4.59-2.39,6.51-1.81,2.73-2.5,5.93-3.38,8.89-.83,2.82-2.58,5.3-2.91,8.27-.08.69-.64,1.32-1.38,1.45-.81.14-1.22-.53-1.6-1.13-2.28-3.63-3.13-7.82-4.49-11.79-.95-2.78-2.03-5.55-3.17-8.19-.94-2.16-1.33-4.48-2.37-6.58-1.3-2.61-2.67-5.23-3.53-7.99-1.45-4.71-3.63-9.13-5.41-13.7-.83-2.13-1.41-4.42-2.45-6.52-1.37-2.76-2.61-5.65-3.44-8.61-1.05-3.75-1.14-4.06-5.1-4.07-7.88-.01-15.77,0-23.65,0-1.23,0-2.44.03-3.71.8Z"/>
        <path class="cls-1" d="M439.82,759.18c0-6.92-.05-13.84.02-20.76.03-3.36.5-3.76,3.86-3.77,7.71-.02,15.42-.08,23.13.04,6.41.1,11.17,3.07,14.04,8.86,2.34,4.73-.36,13.76-4.94,16.78-1.97,1.3-2.03,2.44-.5,4.12,1.68,1.84,2.73,4.1,3.93,6.29,1.48,2.72,2.34,5.76,4.24,8.26.19.25.49.55.76.58.54.05.67-.45.77-.88,1.22-5.09,3.29-9.95,5.14-14.78,1.95-5.09,3.46-10.37,5.6-15.42,1.26-2.96,2.82-6.1,3.12-9.55.22-2.51,2.58-4.28,5.13-4.3,3.24-.03,6.48-.04,9.72.02,2.11.04,3.12,1.01,4.1,3.15,1.45,3.14,1.62,6.75,3.73,9.58.15.21.32.48.32.71-.13,3.61,2.04,6.59,3.15,9.78,1.04,3.01,1.63,6.27,3.33,9.18,1.19,2.05,1.62,4.66,2.57,6.98.73,1.79.82,3.76,2.03,5.52,1.29,1.88.3,3.51-1.94,3.58-3.76.12-7.53.04-11.3.05-1.93,0-2.74-.99-2.98-2.88-.46-3.76-.85-4.02-4.64-4.03-1.84,0-3.68,0-5.52,0-4.96,0-5.35.21-6.84,4.88-.45,1.4-1.07,2.14-2.54,2.07-4.1-.18-8.21-.1-12.31-.23-3.88-.12-7.83.22-11.76.24-5.74.03-6.47-.73-8.57-6.16-1.33-3.43-3.19-6.67-5.01-9.88-.53-.93-1.4-2.3-2.88-1.76-1.25.46-.83,1.8-.84,2.79-.04,3.85-.11,7.71.02,11.56.07,2.28-1.08,3.32-3.08,3.39-3.59.12-7.18.02-10.77.01-1.85,0-2.34-1.03-2.33-2.72.05-7.1.02-14.19.02-21.29h.02ZM441.68,759.73c0,6.48.08,12.96-.04,19.44-.04,2.23.81,2.98,2.92,2.88,2.1-.1,4.21-.14,6.3.01,2.04.15,2.54-.72,2.48-2.61-.12-4.02-.05-8.06-.03-12.08,0-1.64-.29-3.62,1.78-4.19,2.2-.6,4.55.2,5.56,2.04,1.82,3.32,4.06,6.43,5.32,10.09.63,1.84,1.89,3.48,2.7,5.31.45,1.01,1.56,1.38,2.67,1.39,3.24.02,6.48,0,9.72.02,1.67.01,1.72-.62.96-1.9-1.27-2.15-2.61-4.29-3.53-6.59-1.43-3.59-3.3-6.76-6.32-9.25-2.15-1.78-1.74-3.72.9-4.7,2.89-1.07,4.49-3.08,5.52-6.01,1.28-3.64.72-7.03-.33-10.49-.73-2.4-4.28-5.04-6.83-5.32-8.82-.96-17.67-.27-26.5-.51-2.33-.06-3.32.91-3.29,3.29.08,6.39.03,12.78.03,19.18ZM525.08,782.04c.96,0,1.94-.1,2.88.02,2.56.33,3.05-.92,2.52-3.09-.72-3.02-1.98-5.89-2.97-8.8-1.28-3.79-2.73-7.54-4.08-11.33-.95-2.67-1.72-5.45-2.87-8.04-1.49-3.38-2.68-6.86-3.63-10.39-.55-2.06-1.48-3.06-3.47-3.1-2.36-.06-4.72-.02-7.09-.03-4.1,0-5.36.67-6.27,4.55-1.31,5.56-4.36,10.52-5.22,16.2-.08.5-.35.98-.61,1.43-1.61,2.77-2.3,5.91-3.45,8.86-1.44,3.65-2.29,7.54-4.12,11.07-.9,1.73-.41,2.59,1.55,2.63,2.45.05,4.9-.09,7.35.03,2.09.1,2.89-.66,3.04-2.81.29-4.28,1.92-5.61,6.21-5.62,2.54,0,5.07,0,7.61,0,3.91.02,4.85.81,5.58,4.63.54,2.86,1.66,3.76,4.67,3.78.79,0,1.57,0,2.36,0Z"/>
        <path class="cls-1" d="M231.59,649.07c0,2.23.11,4.6-.02,6.95-.27,4.88-2.04,9.35-3.82,13.84-.8,2.01-1.64,3.96-2.61,5.89-1.67,3.32-3.58,6.46-5.92,9.33-3.24,3.99-6.85,7.72-11.03,10.65-3.06,2.15-6.35,4.08-9.71,5.87-2.89,1.54-6.27,1.47-8.84,3.52-.26.2-.64.31-.98.33-6.42.45-12.77,3.42-19.15,1.83-4.68-1.16-9.53-1.1-14.2-3.01-4.05-1.66-8.13-3.23-11.93-5.37-4.6-2.59-8.54-6.08-12.28-9.8-3.37-3.35-6.15-7.21-8.46-11.27-1.18-2.08-2.16-4.51-3.28-6.63-1.8-3.4-1.69-7.24-3.39-10.57-.5-.98-.73-2.18-.77-3.3-.25-6.38-1.16-12.92.51-19.08.94-3.48,1.28-7.21,3.16-10.6,1.14-2.05,2.03-4.51,3.08-6.72,1.39-2.93,3.24-5.71,5.27-8.27,3.21-4.04,6.88-7.68,11.06-10.73,3.2-2.33,6.69-4.18,10.11-6.16,2.85-1.66,6.28-1.48,8.82-3.59.24-.2.66-.25,1-.27,6.33-.49,12.5-2.98,18.93-1.93,6.22,1.02,12.63,1.75,18.38,4.33,8.84,3.97,16.67,9.43,22.87,17.16,3.82,4.77,6.76,9.86,9.13,15.47,2.98,7.08,4.75,14.26,4.07,22.1ZM173.06,704.84c4.61-.4,9.5,1.16,13.75-1.89.31-.22.86-.2,1.29-.14,3.75.49,6.67-1.97,9.71-3.29,4.4-1.9,8.41-4.84,12.16-8.04,4.34-3.7,8.14-7.93,11.1-12.63,2.33-3.7,4.23-7.81,5.67-12.14,2.09-6.27,3.52-12.51,3.65-19.12.07-3.68-1.35-7.04-1.66-10.58-.32-3.63-1.97-6.85-3.33-9.96-2.51-5.76-5.82-11.16-10.16-15.99-6.79-7.54-15.08-12.54-24.31-16.21-5.31-2.11-10.9-3.01-16.67-2.62-2.53.17-5.09.23-7.62.07-2.68-.17-4.83,1.84-7.09,1.94-4.13.18-7.38,2.18-10.79,3.81-2.07.99-4.16,2.04-6.17,3.22-4.24,2.49-8.15,5.37-11,9.29-2.46,3.37-5.41,6.33-7.37,10.22-1.11,2.2-2.77,4.66-3.46,6.82-1.25,3.9-2.21,8.06-3.29,12.03-2.23,8.25-.2,15.95,1.12,23.83.07.42.23.86.47,1.2,1.63,2.38,1.03,5.73,3.5,7.79.66.55-.52,2.06.3,2.72,2.86,2.32,3.74,5.94,5.96,8.72,4.67,5.85,10.13,10.7,16.81,13.9,4.51,2.16,8.86,5.13,14.21,5.14.4,0,.88.23,1.19.51,1.43,1.27,3.14,1.4,4.93,1.38,2.36-.02,4.73,0,7.09,0Z"/>
        <path class="cls-1" d="M313.12,155.09c0-7.53.05-15.07-.04-22.6-.02-1.68.36-2.32,2.16-2.25,3.67.14,7.36.11,11.04,0,1.54-.04,2.13.27,2.13,1.98-.07,15.24-.07,30.49,0,45.73,0,1.73-.6,2-2.13,1.96-3.68-.11-7.36-.14-11.04.01-1.81.07-2.18-.56-2.16-2.23.08-7.53.04-15.07.04-22.6Z"/>
        <path class="cls-1" d="M531.04,155.09c0,7.44-.1,14.88.06,22.31.05,2.2-.67,2.61-2.65,2.52-3.58-.15-7.17-.1-10.76-.01-1.44.04-1.97-.31-1.96-1.87.06-15.31.06-30.62,0-45.93,0-1.59.58-1.88,1.98-1.86,3.67.07,7.35.12,11.02-.01,1.79-.07,2.39.39,2.36,2.28-.11,7.52-.05,15.05-.05,22.57Z"/>
        <path class="cls-1" d="M375.76,648.63c0-17.79,0-35.57,0-53.36,0-4.06.45-4.5,4.55-4.5,18.14,0,36.27,0,54.41,0,5.35,0,5.57.24,5.57,5.69,0,5.96.02,11.92,0,17.87-.02,3.89-.92,4.79-4.83,4.81-8.06.03-16.12,0-24.18.02-4.07,0-4.19.14-4.19,4.06,0,2.54,0,5.08,0,7.62,0,4.59.21,4.8,4.96,4.8,5.96,0,11.92,0,17.87,0,4.49,0,5.63,1.12,5.63,5.51,0,5.34.01,10.69,0,16.03-.01,3.13-1.1,4.24-4.29,4.27-6.31.04-12.62,0-18.93.02-4.75.02-5.25.54-5.25,5.25,0,2.45,0,4.91,0,7.36,0,3.7,0,3.72,3.86,3.73,6.75.02,13.49,0,20.24,0,1.58,0,3.15-.02,4.73.02,1.88.04,2.87.91,2.85,2.93-.04,7.53-.02,15.07,0,22.61,0,2.5-1.34,3.31-3.69,3.3-18.49-.04-36.97-.02-55.46-.03-3.16,0-3.84-.68-3.84-3.89-.01-18.05,0-36.1,0-54.15ZM377.05,648.72c0,17.7.03,35.39-.03,53.09,0,2.13.4,3.16,2.87,3.14,18.22-.09,36.44-.08,54.66,0,2.11,0,2.71-.68,2.68-2.73-.11-6.74-.13-13.49,0-20.23.05-2.41-.71-3.12-3.13-3.08-8.41.14-16.82,0-25.23.06-2.46.02-3.48-.93-3.39-3.44.13-3.94,0-7.88.06-11.82.05-3.22.89-4.04,4.08-4.05,6.83-.03,13.67-.08,20.5.02,2.32.04,3.34-.58,3.26-3.1-.16-5.25-.13-10.51,0-15.77.06-2.31-.79-3.07-3.06-3.03-6.92.1-13.84.06-20.76.02-2.93-.02-3.89-.82-3.98-3.69-.13-4.55-.1-9.11-.02-13.66.04-1.93.89-3.37,3.13-3.47,1.39-.07,2.78-.34,4.17-.35,7.27-.04,14.54-.01,21.81-.02,3.29,0,3.47-.18,3.48-3.37.01-5.78-.13-11.57.06-17.34.09-2.7-.79-3.41-3.42-3.4-18.13.1-36.27.11-54.4,0-2.69-.02-3.42.79-3.4,3.43.1,17.61.05,35.21.05,52.82Z"/>
        <path class="cls-1" d="M370.76,634.68c0,11.47.06,22.94-.03,34.41-.03,4.28-.14,8.6-.69,12.84-.52,3.99-2.66,7.38-5.08,10.58-2.74,3.62-6.19,6.55-10.21,8.33-6.54,2.88-13.22,5.67-20.63,5.54-2.27-.04-4.55.11-6.82.15-2.03.03-3.08-.95-3.08-3.03.01-7.71.03-15.41-.02-23.12,0-1.72.77-2.48,2.38-2.88,7.86-1.94,11.51-6.6,11.52-14.67.01-22.42,0-44.83,0-67.25,0-4.09.98-5.07,5.13-5.07,7.79-.01,15.59-.01,23.38,0,3.25,0,4.17.94,4.17,4.25.01,13.31,0,26.62,0,39.93h-.01ZM355.04,592.53c-3.59,0-7.18,0-10.77,0q-3.65,0-3.66,3.64c0,20.15.09,40.3-.07,60.44-.04,4.74.93,9.49-1.81,14.21-2.12,3.66-5.5,7.61-9.67,7.96-1.48.12-2.27.62-2.26,2.21.03,7.27.02,14.54,0,21.81,0,1.42.72,1.9,2.09,2.1,6.09.87,11.48-2.58,17.39-2.75.15,0,.33-.13.45-.25,2.19-2.23,5.62-1.63,8.03-3.7,1.56-1.33,3.59-2.3,5.21-3.65,2.22-1.87,4.12-4.02,5.41-6.76,1.64-3.46,3.55-6.75,3.55-10.76-.02-21.37-.03-42.75.02-64.12.01-6.04-.3-12.09.22-18.12.15-1.77-.67-2.31-2.31-2.29-3.94.06-7.88.02-11.83.02Z"/>
        <path class="cls-1" d="M566.11,757.84c.95-1,.7-1.97.69-2.92-.03-5.25-.11-10.51-.03-15.76.06-3.99.45-4.39,4.34-4.48,2.53-.06,5.07.19,7.6.25,1.77.05,2.5,1.01,2.52,2.67.02,1.84.06,3.68.06,5.52,0,12.17-.06,24.35.06,36.52.03,2.64-.89,3.68-3.46,3.62-2.89-.07-5.78-.06-8.67.02-1.67.04-2.96-.63-3.8-1.94-2.69-4.21-5.25-8.5-7.92-12.73-1.38-2.19-2.86-4.31-4.3-6.46-.19-.28-.36-.63-.79-.51-.55.16-.52.67-.52,1.07-.04,2.28-.06,4.55-.06,6.83,0,3.68-.06,7.36.02,11.03.03,1.67-.72,2.51-2.28,2.55-3.41.09-6.83.12-10.24.06-1.72-.03-2.07-1.28-2.07-2.76.02-4.55,0-9.11,0-13.66,0-9.02-.01-18.04,0-27.06.01-4.46.29-4.78,4.61-5.03,1.83-.11,3.68.05,5.51-.05,3.65-.19,5.39,2.11,6.8,4.96,1.42,2.86,3.41,5.4,5.11,8.07,2.16,3.39,4.24,6.88,6.8,10.18ZM538.81,759.84c0,6.48.05,12.97-.03,19.45-.02,1.8.57,2.59,2.39,2.51,1.66-.07,3.34-.11,4.99.03,2.25.2,3.1-.59,3.05-2.95-.14-6.31-.05-12.62-.05-18.92,0-1.17-.06-2.41,1.63-2.42,1.36,0,2.93-.38,3.34,1.62.46,2.28,2.24,3.8,3.46,5.6.8,1.17,1.11,2.51,1.95,3.63,2.27,3.03,4.41,6.16,6.35,9.43.93,1.57,1.26,4.01,3.73,4.13,2.27.11,4.55-.14,6.82-.12,1.59.02,2.16-.66,2.15-2.21-.03-13.14-.03-26.28,0-39.43,0-1.75-.62-2.62-2.46-2.55-1.93.07-3.86.07-5.78,0-1.56-.05-2.19.59-2.16,2.18.07,3.5.03,7.01.02,10.51,0,2.89-.04,5.78-.04,8.67,0,1.2-.62,2.23-1.62,2.47-1.18.29-1.79-.84-2.08-1.87-.2-.72-.72-1.14-1.09-1.7-1.82-2.76-3.91-5.4-5.44-8.26-1.69-3.15-4.18-5.74-5.58-9.1-.96-2.28-3.14-3.47-5.97-2.95-1.53.28-3.15.07-4.72.05-2.05-.03-2.95.81-2.92,3.01.11,6.39.04,12.79.04,19.19Z"/>
        <path class="cls-1" d="M293.61,764.35c.2-3.54,2.29-6.23,3.12-9.38,1.1-4.17,1.78-8.52,3.84-12.42.54-1.03.58-2.18.66-3.32.26-3.51,1.41-4.57,4.99-4.59,2.71-.02,5.43-.02,8.14.02,1.1.02,2.51-.31,3.04.97.57,1.37.74,3.02-.31,4.23-1.06,1.23-.99,2.76-1.56,4.06-1.35,3.11-1.7,6.59-3.55,9.49-.19.29-.51.61-.49.9.25,3.72-2.06,6.76-3.14,10.04-.99,2.99-1.65,6.25-3.31,9.18-1.34,2.37-1.66,5.37-2.88,7.97-.53,1.12-1,1.71-2.23,1.71-4.2,0-8.41.09-12.61.01-2.62-.05-3.39-2.36-3.95-4.23-1.21-4.03-3.07-7.85-4.17-11.84-.9-3.25-2.17-6.39-3.35-9.44-1.18-3.05-2.18-6.25-3.27-9.3-1.3-3.65-3.39-7.22-3.38-11.33,0-1.66.65-2.46,2.31-2.45,3.42,0,6.83-.05,10.25.03,2.06.05,3.89,2.48,4.37,5.15.8,4.39,2.11,8.65,3.78,12.79.53,1.32.89,2.71.85,4.08-.09,2.97,2.81,4.67,2.86,7.69ZM293.27,782.03h0c1.31-.01,2.63.02,3.94-.02,1.75-.05,3.48-.88,3.53-2.53.11-3.44,2.39-6.05,3.01-9.33.45-2.41,1.38-4.99,2.38-7.27,1.76-4,3.11-8.09,4.17-12.27.46-1.81,2.47-2.73,2.2-4.86-.2-1.57.14-3.09,1.49-4.27.85-.75.82-1.96.52-2.97-.37-1.25-1.58-.84-2.48-.87-1.84-.05-3.68-.02-5.52-.01-.71,0-1.56-.05-1.88.66-.94,2.01-2.78,3.63-2.48,6.18.12,1.02.23,2.26-.49,3.05-2.63,2.87-2.02,6.84-3.34,10.19-1.27,3.21-2.62,6.74-3.12,10.36-.1.72-.54,1.35-1.36,1.38-.63.02-1.42-.32-1.49-.88-.34-2.64-2.74-4.43-2.8-7.16-.09-3.66-2.31-6.74-2.79-10.43-.29-2.27-1.48-4.66-1.89-7.16-.3-1.81-2.11-3.13-2.09-5.23,0-.74-.92-.95-1.67-.95-2.45,0-4.9-.01-7.36.01-.71,0-1.72.21-1.45,1.06.63,1.96-.27,4.33,1.56,5.93.89.78.88,1.84,1.01,2.88.1.86.04,2.02.56,2.5,2.75,2.54,2.38,6.37,3.65,9.45,1.13,2.74,3.17,5.62,2.92,8.98-.03.37.31.81.57,1.16,1.95,2.71,2.46,6.1,3.4,9.1.9,2.89,2.06,3.34,4.39,3.31.96,0,1.93,0,2.89,0Z"/>
        <path class="cls-1" d="M673.56,648.05c-.72-5.96.76-12.32,2.91-18.4,3.81-10.78,10.33-19.71,19.39-26.85,6.42-5.06,13.62-8.57,21.39-10.54,6.67-1.69,13.62-1.87,20.58-1.25,8.55.76,16.38,3.54,23.58,7.89,7.06,4.26,13.02,9.8,17.79,16.71,3.67,5.31,6.64,10.99,8.15,17.07,1.69,6.83,2.05,14.01,1.41,21.13-.13,1.48-.38,2.95-.44,4.44-.28,7.09-3.18,13.27-6.55,19.32-3.4,6.09-7.69,11.42-13.15,15.76-4.16,3.3-8.59,6.09-13.46,8.37-11.41,5.35-23.32,5.84-35.39,3.94-5.73-.9-11.12-3.21-16.31-6.05-6.6-3.62-12.09-8.4-16.91-14.06-3.75-4.4-6.48-9.38-8.75-14.72-3.02-7.12-4.6-14.42-4.25-22.77ZM731.49,592.39c-19.96.34-35.75,8.9-46.97,25.17-6.24,9.05-9.78,19.58-9.54,30.71.41,19.38,8.35,35.26,24.29,46.57,9.41,6.67,20,10.06,31.76,10.15,19.33.14,34.44-8.03,45.91-22.98,7.39-9.63,10.3-20.8,10.46-33.17.24-18.4-7.08-32.84-20.79-44.16-10.01-8.26-21.83-12.56-35.11-12.29Z"/>
        <path class="cls-1" d="M609.15,734.63c1.05,0,2.11.05,3.15,0,2.87-.16,4.8.11,5.98,3.71,1.34,4.08,2.69,8.26,4.44,12.18,1.26,2.83,2.19,5.82,3.24,8.66,1.12,3,2.27,6.11,3.25,9.21,1.03,3.28,1.68,6.78,3.59,9.78.77,1.21,1.21,2.64.63,4-.61,1.42-2.09,1.04-3.27,1.06-3.15.05-6.31-.06-9.46.04-2.65.08-4.03-1.11-3.88-3.71.15-2.77-1.23-3.41-3.67-3.3-3.06.13-6.13.05-9.2.02-1.3-.01-2.31.3-2.33,1.81-.03,1.83-1.67,2.81-2.19,4.39-.25.75-1.11.77-1.82.78-3.5,0-7.01,0-10.51,0-1.81,0-2.59-.86-2.2-2.67.88-4.01,2.34-7.83,4.01-11.57.14-.32.44-.64.42-.94-.23-3.56,1.94-6.51,3.06-9.56,1.02-2.78.97-6.22,3.37-8.51.12-.11.25-.31.24-.46-.24-3.62,2.69-6.27,2.92-9.83.2-3.16,2.8-5.07,6.03-5.07,1.4,0,2.8,0,4.21,0ZM609.23,737.64c-1.49,0-2.98.08-4.46-.02-1.7-.12-2.46.4-3.19,2.15-1.03,2.48-1.39,5.29-2.76,7.46-1.8,2.87-2.15,6.18-3.29,9.18-1.12,2.94-3.08,5.84-3,9.26,0,.38-.4.75-.55,1.15-1.22,3.26-2.53,6.49-3.6,9.8-.37,1.14-.33,2.39-1.13,3.42-1.18,1.52-.38,1.97,1.14,1.98,2.27,0,4.56-.09,6.82.03,2.17.12,3.34-.3,3.45-2.9.14-3.18,2.56-5.81,4.93-5.87,3.32-.08,6.65-.08,9.97.02,2.36.07,3.94.9,4.57,3.66,1.07,4.69,1.87,5.06,6.58,5.06.79,0,1.57,0,2.36,0,3.88,0,4.45-.31,3.14-3.98-1.29-3.6-2.45-7.28-3.92-10.85-1.67-4.06-3.03-8.3-4.51-12.46-1.55-4.35-2.96-8.76-4.68-13.06-1.58-3.97-1.39-4.04-5.78-4.05-.7,0-1.4,0-2.1,0Z"/>
        <path class="cls-1" d="M354.87,783.24c-1.23,0-2.45,0-3.68,0-3.85-.04-3.9-.03-4.66-3.89-.42-2.14-1.67-3.23-3.78-3.28-3.06-.06-6.13-.09-9.19,0-2.8.09-3.54,2.43-3.96,4.49-.43,2.13-1.47,2.73-3.41,2.69-2.98-.06-5.95.04-8.93-.02-2.8-.05-3.21-.73-2.64-3.34.91-4.22,2.91-8.06,4.11-12.11.92-3.12,2.24-6.11,3.18-9.22.98-3.23,2.22-6.48,3.47-9.67,1.15-2.92,2.44-5.89,3.06-9.01.76-3.8,2.28-5.25,6.2-5.25,2.8,0,5.6-.02,8.4.02,2.44.03,3.58,1.09,4.61,3.59,1.3,3.17,2.23,6.5,3.49,9.68,1.15,2.91,2.16,5.98,3.17,8.99,1.14,3.4,1.96,6.94,3.73,10.11.21.38.46.77.55,1.19.84,4.15,2.38,8.03,4.23,11.83.85,1.74.02,2.96-1.9,3.08-2,.13-4.02.03-6.03.03,0,.04,0,.07,0,.11ZM354.7,782.04c.96,0,1.94-.1,2.89.02,2.54.33,3.22-.94,2.51-3.06-.96-2.85-1.95-5.71-2.98-8.52-1.32-3.62-2.51-7.29-3.89-10.89-1.05-2.75-1.84-5.6-2.99-8.27-1.45-3.39-2.65-6.87-3.59-10.38-.67-2.48-1.79-3.63-4.23-3.65-2.36-.02-4.73,0-7.09,0-3.31,0-5.19,1.4-5.66,4.75-.48,3.4-2.17,6.38-3.21,9.54-.77,2.34-1,4.98-2.33,7.07-1.89,2.98-2.18,6.48-3.63,9.62-1.63,3.53-2.29,7.53-4.15,11.05-.9,1.69-.38,2.66,1.5,2.71,2.27.05,4.56-.09,6.82.04,2.51.14,3.64-.73,3.65-3.42.01-3.37,1.92-4.97,5.37-5.01,2.54-.02,5.08,0,7.61,0,4.86,0,5.55.5,6.54,5.14.47,2.22,1.62,3.41,3.97,3.28.96-.05,1.92,0,2.89,0Z"/>
        <path class="cls-1" d="M703.92,734.63c.96,0,1.93,0,2.89,0,5.15,0,4.61.25,6.73,4.73,1.41,2.97,1.97,6.17,3.31,9.15,1.27,2.83,2.35,6.02,3.3,9.11.95,3.11,1.6,6.48,3.42,9.32.18.29.48.61.46.91-.2,3.71,3.11,6.38,2.96,10.08-.02.52.5,1.08.83,1.58,1.53,2.29,1.13,3.45-1.56,3.58-4.01.19-8.04.05-12.07.08-1.33,0-1.75-.75-2.04-1.91-1.12-4.54-1.74-5-6.36-5-1.93,0-3.85,0-5.78,0-2.92.01-4.55,1.31-4.84,4.21-.2,1.96-.99,2.8-2.98,2.76-3.41-.07-6.83.08-10.24-.03-2.95-.09-3.14-.79-2.07-3.41.92-2.28,1.58-4.77,2.21-7.07.88-3.23,2.24-6.35,3.31-9.44,1.03-2.98,1.18-6.5,3.5-9.04.11-.12.24-.31.23-.46-.16-3.5,2.39-6.14,2.93-9.49.42-2.63,2.08-5.01,2.65-7.74.29-1.37,1.76-1.86,3.17-1.89,2.01-.04,4.02,0,6.04,0v-.02ZM703.76,736.92c-.88,0-1.75,0-2.63,0-4.11,0-5.27.99-6.17,5.12-.22,1.01-.59,2-.95,2.98-1.13,2.99-2.6,5.89-3.36,8.97-.8,3.23-2.21,6.23-3.29,9.32-.8,2.28-1.01,4.82-2.27,6.88-1.76,2.87-1.73,6.33-3.47,9.21-.95,1.58-.34,2.81,1.91,2.66,2.18-.14,4.38-.14,6.56,0,2.61.17,3.79-.8,3.95-3.52.19-3.17,1.75-4.45,4.95-4.54,2.71-.07,5.43-.02,8.14-.02,4.19.01,5.43,1,6.03,5.14.31,2.15,1.34,3.04,3.49,2.92,1.83-.1,3.67-.01,5.51-.01,4.19,0,4.73-.79,3.18-4.7-.1-.24-.27-.45-.36-.69-1.2-3.06-2.74-6.05-3.47-9.22-.75-3.25-2.29-6.18-3.24-9.34-.66-2.19-1.22-4.52-2.2-6.63-1.62-3.48-2.84-7.09-3.85-10.76-.72-2.64-2.12-3.85-4.79-3.77-1.22.04-2.45,0-3.68,0Z"/>
        <path class="cls-1" d="M245.35,734.55c1.84,0,3.7-.2,5.51.04,6.71.87,11.84,4,15.04,10.25,2.73,5.33,4.57,10.94,3.67,16.76-.9,5.82-1.77,12.09-6.5,16.36-2.77,2.5-5.66,4.8-9.87,5.6-3.43.65-6.81,1.57-10.2,1.07-5.62-.82-11.31-1.96-15.19-6.73-1.71-2.11-2.93-4.55-4.22-6.98-3.29-6.23-1.97-12.71-1.52-18.98.28-3.98,2.72-7.67,5.6-10.97,2.52-2.89,5.76-4.31,8.85-5.91,2.58-1.34,5.85-.45,8.82-.52ZM267.12,759.36c0-.88-.03-1.75,0-2.63.27-6.09-2-11.11-6.21-15.42-3.41-3.49-7.88-4.6-12.36-5.42-4.28-.79-8.44.3-12.56,1.71-2.31.79-4.34,2.02-5.99,3.53-4.75,4.36-6.3,10.37-6.81,16.46-.47,5.51.98,10.8,3.65,15.78,2.44,4.55,6.39,7.49,10.99,8.36,6.34,1.19,12.91,1.71,19.17-1.6,3.45-1.83,5.81-4.46,7.6-7.62,2.29-4.02,3.08-8.49,2.51-13.14Z"/>
        <path class="cls-1" d="M406.16,127.14c2.47-3.08,4.7-5.85,6.92-8.65.47-.59.98-.97,1.77-.87.26.03.54.06.78,0,8.18-2.07,11.17,4.17,15.16,9.68-2.75,0-5.26.32-7.65-.1-1.83-.32-2.49-2.52-3.67-3.87-.73-.84-1.33-1.21-1.9-.02-2.38,4.92-6.69,4.26-11.42,3.82Z"/>
        <path class="cls-1" d="M474.13,265.56c.8,2.23-1.46,2.87-2.4,3.83-4.1,4.22-7.48,8.99-11.05,13.62-.52.67-.9,1.31-1.85.78,2.38-4.78,6.06-8.59,9.5-12.55,1.76-2.03,3.08-4.59,5.8-5.68Z"/>
        <path class="cls-1" d="M458.75,283.91c.41,2.82-2.12,4.14-3.23,6.18-1.82,3.34-3.96,6.52-5.94,9.78-.55.91-.61,2.32-2.25,1.97-.49-1.65,1-2.52,1.64-3.59,2.99-4.96,5.58-10.2,9.78-14.34Z"/>
        <path class="cls-1" d="M440.2,316.44c.46.43.36.93.14,1.42-2.27,4.94-3.57,10.26-6.05,15.11-.13.25-.51.37-.77.55-.13-.2-.42-.47-.36-.6,2.3-5.52,3.3-11.59,7.05-16.49Z"/>
        <path class="cls-1" d="M447.19,302.28c.46.76.42,1.57-.15,2.16-1.83,1.9-1.65,4.91-3.7,6.64-.99.83-.02,2.04-.77,2.85-.63.68-1.1,1.57-2.16,1.73-.86-2.1,1.17-3.23,1.83-4.73,1.32-3.01,2.3-6.34,4.95-8.64Z"/>
        <path class="cls-1" d="M478.82,260.8c-.09,2.02-2.66,4.62-4.67,4.73.93-2.2,2.46-3.8,4.67-4.73Z"/>
        <path class="cls-1" d="M665.54,394.3c0-1.01.53-1.48,1.51-1.48.35,1.37-.21,1.8-1.51,1.48Z"/>
        <path class="cls-1" d="M613.84,443.79c-.14.03-.31-.24-.32-.62-.02-.36.12-.7.51-.78.41-.09.66.15.67.55.01.37-.17.65-.86.85Z"/>
        <g>
          <path class="cls-1" d="M310.75,378.47c-.9.97-.5,2.17-.5,3.27-.02,7.44.9,15-.57,22.28-.96,4.74-1.43,9.64-3.33,14.29-1.14,2.8-1.84,5.88-2.99,8.75-1.05,2.61-2.32,5.14-3.48,7.71-1.58,3.48-3.69,6.66-5.8,9.8-2.36,3.51-4.85,6.96-7.57,10.19-3.19,3.78-6.75,7.24-10.62,10.34-3.77,3.01-7.75,5.72-11.77,8.39-3.37,2.23-6.95,4.09-10.56,5.7-2.76,1.23-5.77,2.29-8.56,3.47-3.88,1.63-8.19,1.43-11.85,3.52-1.29.73-2.74.49-4.11.65-11.7,1.34-23.4.93-35.09-.19-3.42-2.52-7.92-1.39-11.56-3.56-2.12-1.27-4.85-1.38-7.23-2.61-2.87-1.49-5.89-2.7-8.78-4.24-4.11-2.2-7.99-4.69-11.79-7.37-4.25-3-7.91-6.6-11.64-10.15-4.83-4.61-8.76-9.98-12.44-15.47-2.17-3.24-3.92-6.84-5.71-10.36-1.29-2.54-2.05-5.27-3.46-7.77-1.34-2.37-2.05-5.22-2.62-7.82-1.45-6.57-3.26-13.11-3.14-20,.13-7.79-.02-15.58.56-23.36.07-.97.1-1.95.68-2.77,1.12-1.58,1.35-3.39,1.4-5.23.05-1.69.2-3.3,1.37-4.68.37-.44.6-1.09.69-1.68.59-3.91,2.63-7.22,4.18-10.75,1.38-3.15,3.04-6.1,4.75-9.07,3.06-5.28,6.9-9.94,10.77-14.6,5.12-6.16,11.39-11.08,17.82-15.7,3.03-2.18,6.51-3.88,9.84-5.7,4.02-2.2,8.41-3.45,12.37-5.71,1.2-.69,2.93-.34,4.03-.95,4.56-2.55,9.98-1.43,14.57-3.7.67-.33,1.53-.35,2.31-.38,7.87-.31,15.74-.36,23.62-.04,2.67.11,4.85,2.03,7.59,1.81,4.31-.35,8.11,1.81,12,2.97,4.41,1.32,8.72,3.4,12.94,5.51,4.73,2.36,9.18,5.13,13.43,8.13,4.58,3.23,8.88,6.95,12.7,11.13,3.53,3.87,7.09,7.73,9.99,12.11,2.08,3.15,3.88,6.49,5.85,9.71,1.46,2.38,2.61,4.97,3.57,7.43,1.08,2.74,2.2,5.61,3.23,8.38,1.73,4.62,1.5,9.64,3.59,14.05.54,1.14-.25,2.73,1.25,3.48.02.28.04.55.06.83Z"/>
          <g>
            <path class="cls-1" d="M433.38,334.31c.05-.26.1-.52.15-.78.26-.18.65-.3.77-.55,2.48-4.85,3.78-10.17,6.05-15.11.23-.49.32-.99-.14-1.42.07-.26.14-.52.21-.78,1.06-.16,1.53-1.04,2.16-1.73.74-.8-.23-2.01.77-2.85,2.05-1.72,1.87-4.74,3.7-6.64.56-.59.61-1.4.15-2.16,0-.16.06-.31.15-.45,1.64.35,1.7-1.06,2.25-1.97,1.98-3.26,4.11-6.43,5.94-9.78,1.11-2.04,3.64-3.36,3.23-6.18,0,0,.08-.12.08-.12.95.53,1.34-.11,1.85-.78,3.57-4.63,6.95-9.4,11.05-13.62.93-.96,3.2-1.6,2.4-3.83,0,0,.02-.03.02-.03,2.01-.11,4.58-2.71,4.67-4.73,0,0,.04-.04.04-.04,1.14.38,1.67-.39,2.36-1.09,1.87-1.89,3.75-3.8,5.78-5.51,4.31-3.61,8.63-7.21,13.11-10.59,3.41-2.58,7.04-4.87,10.66-7.16,1.23-.78,2.68-1.24,4.03.16,4.46,4.63,8.98,9.2,13.47,13.8,4.81,4.92,9.57,9.89,14.42,14.76,4.13,4.14,8.39,8.14,12.54,12.26,5.06,5.03,10.07,10.12,15.09,15.19,3.8,3.84,7.58,7.69,11.38,11.52.28.28.48.55.24.87-.13.17-.45.27-.69.28-.94.05-1.56-.56-2.29-1.05-1.91-1.27-3.83-2.76-5.97-3.39-2.47-.73-4.66-2.07-7.07-2.92-4.53-1.6-8.83-3.8-13.72-4.25-.43-.04-.92-.1-1.26-.34-2.53-1.79-5.44-1.74-8.33-1.73-2.91,0-5.76-.35-8.57-1.06-3.54-.89-7.27-1.01-10.69-.26-7.37,1.62-15.05,1.07-22.31,3.57-2.19.75-4.03,2.41-6.53,2.44-3.12.04-5.63,2.08-8.39,3.17-2.24.88-4.48,2.14-6.63,3.41-3.03,1.78-5.96,3.7-8.91,5.59-4.55,2.92-8.49,6.66-12.4,10.36-3.28,3.11-6.6,6.32-9.17,10.01-3.59,5.14-7.36,10.21-9.92,16.07-.77,1.77-1.51,3.61-2.39,5.35-1.7,3.36-3.55,6.61-3.94,10.45-.07.69-.15,1.51-.55,2-1.86,2.3-1.78,5.01-1.89,7.71-.04.96-.07,1.9-.47,2.82-1.98,4.67-3.14,9.32.48,13.82.39.48.81.86,1.26,1.27,1.3,1.19,1.91,2.31.17,3.87-2.16,1.93-3.89,4.16-3.58,7.47.27,2.95,1.02,5.71,1.71,8.56.93,3.86,1.34,7.84,2.49,11.75.94,3.2,2.46,6.18,3.35,9.41.5,1.81,1.32,3.96,2.54,5.59,2.1,2.81,3.6,5.98,5.37,8.94,1.99,3.32,4.38,6.31,6.62,9.41,2.79,3.85,6.42,7.01,9.72,10.44,3.93,4.07,8.56,7.19,13.1,10.3,4.64,3.18,9.58,6.15,15.03,7.97,3.81,1.27,7.2,3.76,11.4,3.9.34.01.75.04,1.01.23,4.3,3.14,9.68,2.58,14.43,3.54,8.79,1.78,17.95.94,26.96.29.52-.04,1.12-.03,1.53-.29,4.23-2.69,9.55-1.18,13.92-3.71,1.41-.82,3.37-.88,5.07-1.69,2.28-1.08,4.72-2.02,7.08-2.85,2.35-.83,4.74-1.96,6.51-3.23,2.64-1.9,5.59-3.4,8.09-5.57,1.23-1.07,2.73-2.57,4.86-2.42-1.75.42-2.07,2.19-3.17,3.24-5.68,5.45-11.17,11.09-16.73,16.67-5.73,5.76-11.43,11.55-17.19,17.28-5.62,5.58-11.34,11.05-16.94,16.65-6.3,6.29-12.49,12.69-18.76,19.01-2,2.01-4.73,2.11-6.74.05-2.63-2.69-5.89-4.45-9.01-6.35-3.77-2.3-7.03-5.17-10.48-7.85-2.95-2.29-5.09-5.28-7.79-7.77-7.85-7.29-14.98-15.24-21.35-23.9-1.98-2.69-3.66-5.58-5.77-8.2-1.9-2.36-3.61-5.04-4.87-7.75-1.73-3.74-4.07-7.14-5.72-10.93-.74-1.7-1.02-3.73-2.26-5.16-1.8-2.07-2.57-4.75-3.26-7.1-.89-3.02-3.31-5.58-2.95-8.99.02-.21-.24-.45-.38-.67-2.23-3.65-2.66-7.93-3.84-11.9-1.43-4.82-2.98-9.74-2.91-14.92,0-.41-.13-.94-.41-1.21-1.21-1.18-1.12-2.68-1.18-4.17-.17-4.2-.35-8.39-.57-12.59-.06-1.07-.28-2.25-1.47-2.54-1.05-.25-2.22-.42-3.18.58-3.25,3.4-6.51,6.79-9.82,10.12-9.46,9.5-18.95,18.98-28.43,28.45-9.02,9.01-18.14,17.94-27.06,27.05-5.37,5.48-11,10.69-16.04,16.53-4.26,4.93-9.49,9.03-14.07,13.76-3.91,4.04-7.65,8.28-11.89,12.01-1.41,1.24-2.49,2.83-3.85,4.14-3.6,3.47-7.53,6.64-10.82,10.37-2.35,2.67-5.12,4.86-7.36,7.7-3.06,3.89-7.2,6.91-10.8,10.36-8.15,7.81-15.92,16.02-24.02,23.89-1.94,1.89-3.23,4.8-6.77,4.79-23.83-.07-47.67-.03-71.5-.05-.81,0-1.96.43-2.31-.64-.27-.81.64-1.35,1.18-1.9,20.33-20.51,40.97-40.72,61.13-61.39,5.64-5.78,11.51-11.36,17.25-17.06,7.14-7.1,14.08-14.4,21.19-21.53,6.46-6.47,13.08-12.77,19.53-19.25,7.23-7.28,14.32-14.71,21.53-22.01,4.11-4.17,8.39-8.18,12.52-12.33,7.15-7.2,14.23-14.48,21.36-21.7,1.61-1.63,1.88-3.67.37-5.21-4.56-4.64-9.16-9.25-13.77-13.84-5.72-5.69-11.5-11.32-17.21-17.02-5.77-5.77-11.48-11.59-17.22-17.39-4.22-4.26-8.46-8.51-12.68-12.78-4.64-4.7-9.23-9.45-13.9-14.12-6.52-6.53-13.13-12.97-19.64-19.51-5.6-5.62-11.07-11.38-16.69-16.99-6.39-6.38-12.94-12.61-19.32-19.01-7.17-7.19-14.1-14.62-21.34-21.73-7.67-7.54-15.3-15.12-22.78-22.85-.37-.39-1.33-.52-.83-1.34.36-.6,1.11-.39,1.7-.39,24.36,0,48.72,0,73.08.02.86,0,1.82-.12,2.5.55,1.71,1.69,3.35,3.45,5.05,5.15,4.97,4.98,9.97,9.94,14.95,14.92,4.85,4.86,9.68,9.74,14.54,14.6,4.25,4.25,8.53,8.47,12.78,12.71,3.28,3.28,6.56,6.55,9.81,9.86,4.79,4.88,9.49,9.85,14.33,14.68,4.95,4.94,10.05,9.72,15.02,14.64,5.1,5.06,10.08,10.23,15.16,15.3,4.02,4.01,8.05,8.03,12.02,12.08,3.36,3.42,6.72,6.9,10.1,10.28,3.44,3.43,6.79,6.99,10.37,10.3,3.51,3.25,6.63,6.92,10.02,10.3,3.39,3.38,6.98,6.56,10.35,9.96,4.07,4.1,7.95,8.39,12.07,12.43.83.82,2.42,1.28,3.61,1.2,1.24-.08.74-1.75,1.18-2.64.18-.37.12-.86.15-1.29.4-6.14.61-12.21,1.93-18.35,1.1-5.1,2.91-10.13,3.21-15.42.04-.78.27-1.52.8-2.18,1.37-1.73,1.38-3.65.66-5.64Z"/>
            <path class="cls-1" d="M664.93,394.91c-2.19.42-3.55,2.04-5.03,3.49-7.99,7.83-16.03,15.61-23.96,23.5-6.01,5.97-11.87,12.09-17.83,18.11-.61.62-1.32,1.97-2.28,1.1-.88-.79-.48-2.21.21-3.15,2.05-2.8,2.83-6.27,4.52-9.11,1.68-2.83,1.08-6.38,3.53-8.72.06-.06.13-.15.12-.23-.05-4.48,2.98-8.33,2.77-12.78-.32-6.82,2.98-13.4,1.54-20.17-1.17-5.49-.59-11.22-2.02-16.47-1.06-3.87-1.74-7.96-3.37-11.81-1.14-2.7-2.39-5.61-3.13-8.62-.55-2.24-2.29-4.15-3.21-6.33-1.06-2.51-3.19-4.5-3.75-7.23.31-.26.62-.52.92-.78,2.39,2.63,4.74,5.3,7.18,7.9,2.56,2.72,5.16,5.4,7.79,8.05,3.35,3.37,6.77,6.67,10.12,10.03,3.47,3.48,6.89,7.02,10.35,10.51,3.4,3.43,6.75,6.92,10.29,10.21,2.15,2.01,3.9,4.45,6.53,5.99,1.22.72,1.95,2.12,1.39,3.75-.19.22-.38.44-.57.66-.99,0-1.52.47-1.51,1.48-.2.2-.41.41-.61.61Z"/>
            <path class="cls-1" d="M575.16,568.51c6.39-6.63,12.65-13.13,18.91-19.63,6.01-6.24,12.17-12.32,18.41-18.34,7.15-6.9,13.85-14.27,20.85-21.33,4.97-5.02,10.17-9.81,15.16-14.8,4.81-4.81,9.45-9.8,14.26-14.61,5.01-5.01,10.18-9.85,15.2-14.86,4.1-4.09,8-8.37,12.11-12.45,5.75-5.71,11.8-11.12,17.35-17.02,3.97-4.22,8.16-8.22,12.14-12.42,4.87-5.14,10.14-9.9,15.16-14.9,4.05-4.03,8.05-8.11,11.93-12.31.98-1.06,2.43-1.2,3.28-2.72,1.72-3.09,1.92-3.75-.59-6.05-3.87-3.56-7.43-7.43-11.18-11.09-3.41-3.33-6.84-6.7-10.24-10.04-3.44-3.37-6.82-6.85-10.11-10.39-2.33-2.5-4.85-4.83-7.22-7.32-3.37-3.54-6.93-6.9-10.42-10.32-3.56-3.48-7.25-6.84-10.66-10.46-2.48-2.63-5.06-5.14-7.57-7.74-5.63-5.82-11.29-11.61-17.13-17.22-4.97-4.77-9.66-9.83-14.52-14.72-6.41-6.46-12.65-13.12-19.38-19.24-4.56-4.15-8.82-8.57-13.11-12.95-4.21-4.29-8.47-8.5-12.83-12.64-7.92-7.52-15.51-15.39-23.24-23.11-1.78-1.78-3.43-3.72-5.37-5.31-1.42-1.16-.6-1.73.21-2.4,1.06-.88,2.39-1.03,3.71-1.07,17.33-.58,34.67-.97,51.99.2,2.62.18,4.7,2.2,7.46,1.9,4.95-.54,9.18,3.08,14.16,2.54,2.7,2.88,6.79,1.79,10.08,3.55,2.6,1.39,5.86,2.29,8.88,3.23,2.74.85,5.39,2.07,7.95,3.46,2.09,1.14,4.34,1.92,6.47,3.05,3.72,1.99,7.53,3.78,11.09,6.09,1.8,1.17,3.78,2.06,5.59,3.22,2.59,1.67,5.12,3.45,7.62,5.22,2.4,1.7,4.68,3.73,7.06,5.53,3.8,2.87,7.31,6.04,10.77,9.29,6.68,6.27,13.06,12.84,18.61,20.13,4.32,5.67,8.47,11.47,12.2,17.6,2.8,4.6,5.46,9.3,7.87,14.05,2.1,4.14,3.92,8.54,5.76,12.85,1.22,2.86,1.1,6.33,3.54,8.68.17.17.32.47.31.71-.18,4.2,1.77,8.08,3.15,11.65,1.79,4.63.61,9.79,3.46,14.02.73,1.09.36,2.57.39,3.88.11,3.92.01,7.84,1.6,11.58.58,1.37.54,2.91.54,4.41,0,8.15-.16,16.3.08,24.45.09,3.19-1.51,5.87-1.77,8.92-.2,2.36-.37,4.7-.42,7.06-.05,2.19.08,4.4-1.47,6.24-.21.25-.34.66-.32.99.37,5.08-1.78,9.69-3.06,14.38-.93,3.39-1.33,7.1-3.42,10.16-.15.22-.37.47-.35.69.25,3.3-2.09,5.75-3,8.67-.79,2.53-1.65,5.31-3.54,7.52-1.19,1.39-1.36,3.41-2.25,5.1-1.08,2.05-2.67,3.94-3.24,6.33-.37,1.55-1.67,2.73-2.51,4.07-3.16,5.04-6.54,9.96-9.99,14.83-4.59,6.47-9.76,12.42-15.02,18.25-4.96,5.5-10.76,10.2-16.55,14.87-4.13,3.33-8.29,6.63-12.71,9.54-3.33,2.2-6.72,4.36-10.22,6.34-3.3,1.86-6.58,3.92-9.96,5.54-2.38,1.14-4.57,2.95-7.4,3.29-1.89.23-3.18,1.89-5.27,2.34-2.58.55-5.13,1.87-7.67,2.89-1.53.62-3.22.89-4.57,1.61-3.64,1.93-7.91,1.56-11.49,3.6-1.94,1.11-4.43.16-6.4,1.05-5.67,2.57-11.96,1.1-17.61,2.82-4.7,1.43-9.3,1.23-13.97,1.33-5.17.12-10.36-.26-15.5.08-7.62.5-14.8-2-22.04-2.36Z"/>
          </g>
        </g>
        <path class="cls-1" d="M501.08,662.15c0,13.31-.05,26.62.05,39.93.02,2.42-.7,3.19-3.14,3.15-7.53-.14-15.06-.05-22.59-.05-3.33,0-3.57-.24-3.57-3.6,0-26.36,0-52.72,0-79.08,0-4.26-.93-5.17-5.29-5.17-5.6,0-11.21.02-16.81-.01-3.86-.02-4.24-.43-4.24-4.15,0-5.78,0-11.56,0-17.34,0-3.55,0-3.57,3.68-3.57,23.56,0,47.11,0,70.67,0q7.03,0,7.03,6.93c0,4.9-.09,9.81.04,14.71.07,2.55-1.08,3.46-3.45,3.45-5.87-.03-11.73-.03-17.6,0-3.81.02-4.77,1.01-4.77,4.88,0,13.31,0,26.62,0,39.93Z"/>
        <path class="cls-1" d="M238.69,648.55c0-17.7.04-35.39-.05-53.08-.01-2.28.57-3.01,2.93-2.99,15.24.13,30.48.12,45.73.13,1.96,0,3.8.21,5.57,1.2.88.5,1.98.65,3.01.85,6.02,1.2,10.8,4.17,14.62,9.1,4.85,6.25,4.66,13.3,4.42,20.58-.16,4.58-1.95,8.36-4.8,11.6-2.18,2.48-5.05,4.33-8.29,5.4-1.4.46-3.06.62-3,2.67.06,2.17,1.84,2.42,3.34,2.66,7.48,1.17,11.82,5.91,15.06,12.36,4.03,8.02,2.81,16.44,1.67,24.58-.64,4.61-3.69,8.87-7.34,12.42-2.96,2.88-6.68,4.14-10.06,6.12-.95.56-2.02.51-3.07.57-1.75.1-3.45.36-5.02,1.28-1.32.77-2.85.79-4.35.8-15.94.03-31.89.03-47.83.15-2.24.02-2.59-.87-2.58-2.79.05-17.87.03-35.74.03-53.61ZM276.16,678.33c1.75,0,3.5-.09,5.24.02,3.92.25,6.36-1.37,7.76-5.14,1.34-3.6-.98-11.02-6.45-10.93-4.28.08-8.56,0-12.84-.04-1.66-.01-2.34.73-2.31,2.4.07,3.75.08,7.51,0,11.27-.04,1.88.86,2.47,2.56,2.43,2.01-.05,4.02-.01,6.03,0ZM267.59,623.53c0,1.75-.02,3.5,0,5.25.02,1.29.5,2.23,1.98,2.22,3.4-.03,6.82.29,10.21-.37,3.53-.68,5.81-3.29,5.82-6.67.02-3.53-2.49-6.62-5.95-7.17-1.63-.26-3.31-.36-4.96-.35-8.18.05-7.02-.99-7.11,7.09Z"/>
        <path class="cls-1" d="M568.62,593.05c1.27-.77,2.48-.8,3.71-.8,7.88,0,15.77,0,23.65,0,3.97,0,4.05.32,5.1,4.07.83,2.96,2.07,5.85,3.44,8.61,1.04,2.1,1.62,4.39,2.45,6.52,1.78,4.57,3.96,8.99,5.41,13.7.85,2.77,2.23,5.39,3.53,7.99,1.05,2.1,1.43,4.42,2.37,6.58,1.15,2.64,2.23,5.41,3.17,8.19,1.36,3.97,2.21,8.16,4.49,11.79.38.6.79,1.27,1.6,1.13.74-.13,1.3-.76,1.38-1.45.34-2.97,2.08-5.45,2.91-8.27.87-2.95,1.57-6.16,3.38-8.89,1.27-1.92,1.52-4.36,2.39-6.51,1.05-2.59,2.36-5.15,3.11-7.93.74-2.79,2.11-5.45,3.48-8.02,1.06-1.99,1.55-4.21,2.4-6.25,1.11-2.66,2.11-5.51,3.31-8.13,1.37-2.99,1.58-6.39,3.49-9.14.1-.14.24-.3.24-.46.09-4.11,3.01-3.57,5.71-3.56,7.71.04,15.42,0,23.12.02,2.68,0,3.42.78,2.17,3.12-1.43,2.69-2.07,5.65-3.62,8.31-1.04,1.78-1.81,3.89-2.54,5.88-1.92,5.27-4.4,10.29-6.44,15.49-1.06,2.72-2.37,5.36-3.24,8.19-.62,2.03-1.6,4.04-2.57,5.86-1.31,2.46-2.22,5.12-3.25,7.61-1.84,4.45-3.76,8.89-5.58,13.36-1.06,2.6-1.75,5.39-3.34,7.8-1.24,1.88-1.79,4.19-2.51,6.24-.94,2.7-2.29,5.23-3.34,7.84-1.03,2.58-1.73,5.38-3.32,7.79-1.18,1.79-1.6,4.01-2.39,6-1.02,2.56-2.71,4.88-3.1,7.67-.13.95-.59,1.39-1.51,1.47-1.04.09-2.08.28-3.13.29-4.82.03-9.63.01-14.45.01-4.54,0-5.26-.54-6.78-4.75-1.89-5.26-4.34-10.31-6.38-15.49-1.77-4.49-3.81-8.88-5.46-13.43-1.64-4.52-3.74-8.88-5.78-13.25-.91-1.95-1.76-4.03-2.42-5.97-1.55-4.59-3.82-8.87-5.49-13.4-.95-2.58-2.2-5.23-3.3-7.81-1.13-2.66-2.54-5.24-3.37-8.1-.71-2.44-1.91-4.8-2.93-7.16-1.32-3.08-2.54-6.22-3.92-9.25-1.18-2.59-1.83-5.43-3.47-7.8-1.21-1.76-.77-4.14-2.4-5.71Z"/>
        <path class="cls-1" d="M441.68,759.73c0-6.39.06-12.79-.03-19.18-.03-2.38.96-3.35,3.29-3.29,8.83.23,17.68-.45,26.5.51,2.55.28,6.1,2.92,6.83,5.32,1.05,3.46,1.61,6.85.33,10.49-1.03,2.93-2.63,4.94-5.52,6.01-2.64.98-3.05,2.92-.9,4.7,3.02,2.49,4.89,5.66,6.32,9.25.92,2.3,2.27,4.44,3.53,6.59.76,1.29.72,1.91-.96,1.9-3.24-.02-6.48,0-9.72-.02-1.11,0-2.22-.37-2.67-1.39-.81-1.83-2.07-3.47-2.7-5.31-1.26-3.66-3.5-6.77-5.32-10.09-1.01-1.85-3.36-2.64-5.56-2.04-2.07.57-1.77,2.55-1.78,4.19-.02,4.03-.09,8.06.03,12.08.05,1.89-.44,2.76-2.48,2.61-2.09-.15-4.2-.11-6.3-.01-2.11.1-2.96-.66-2.92-2.88.12-6.48.04-12.96.04-19.44ZM458.86,755.85c1.12-.05,2.2.05,3.2-.17,2.79-.6,6.32-3.02,5.56-6.9-.55-2.83-2.84-3.3-4.86-4.17-2.7-1.17-7.39-.81-8.42.77-1.81,2.79-1.37,5.95-.46,8.84.76,2.42,3.27,1.3,4.98,1.62Z"/>
        <path class="cls-1" d="M525.08,782.04c-.79,0-1.57,0-2.36,0-3.01-.02-4.12-.92-4.67-3.78-.73-3.82-1.67-4.61-5.58-4.63-2.54-.01-5.07,0-7.61,0-4.3,0-5.92,1.33-6.21,5.62-.15,2.15-.94,2.91-3.04,2.81-2.44-.12-4.9.01-7.35-.03-1.97-.04-2.45-.9-1.55-2.63,1.83-3.53,2.68-7.42,4.12-11.07,1.16-2.94,1.84-6.09,3.45-8.86.26-.45.54-.93.61-1.43.87-5.68,3.92-10.65,5.22-16.2.91-3.88,2.17-4.55,6.27-4.55,2.36,0,4.73-.03,7.09.03,2,.05,2.92,1.04,3.47,3.1.95,3.53,2.13,7.01,3.63,10.39,1.14,2.59,1.91,5.36,2.87,8.04,1.35,3.78,2.8,7.54,4.08,11.33.99,2.91,2.24,5.78,2.97,8.8.52,2.17.03,3.41-2.52,3.09-.95-.12-1.92-.02-2.88-.02ZM508.3,765.63c.44,0,.87,0,1.31,0,3.88-.03,4.15-.61,3.82-4.53-.31-3.69-2.74-6.72-2.75-10.52,0-1.84-1.42-2.05-2.92-.66-1.7,1.57-2.13,3.55-2.32,5.65-.12,1.24-.35,2.37-.99,3.48-2.58,4.47-1.33,6.57,3.86,6.58Z"/>
        <path class="cls-1" d="M173.06,704.84c-2.36,0-4.73-.02-7.09,0-1.78.02-3.5-.11-4.93-1.38-.31-.28-.79-.51-1.19-.51-5.35-.01-9.69-2.98-14.21-5.14-6.67-3.2-12.13-8.04-16.81-13.9-2.22-2.78-3.1-6.4-5.96-8.72-.82-.66.36-2.17-.3-2.72-2.48-2.07-1.87-5.42-3.5-7.79-.24-.35-.4-.79-.47-1.2-1.32-7.88-3.35-15.59-1.12-23.83,1.07-3.97,2.04-8.13,3.29-12.03.69-2.17,2.36-4.63,3.46-6.82,1.96-3.89,4.91-6.85,7.37-10.22,2.85-3.92,6.76-6.8,11-9.29,2.01-1.18,4.1-2.23,6.17-3.22,3.41-1.64,6.65-3.63,10.79-3.81,2.25-.1,4.41-2.11,7.09-1.94,2.53.16,5.09.11,7.62-.07,5.77-.39,11.36.5,16.67,2.62,9.22,3.67,17.52,8.67,24.31,16.21,4.34,4.82,7.65,10.22,10.16,15.99,1.36,3.11,3.01,6.34,3.33,9.96.31,3.54,1.73,6.9,1.66,10.58-.13,6.61-1.56,12.85-3.65,19.12-1.44,4.32-3.34,8.44-5.67,12.14-2.96,4.7-6.76,8.94-11.1,12.63-3.75,3.2-7.76,6.13-12.16,8.04-3.05,1.32-5.96,3.77-9.71,3.29-.42-.05-.98-.08-1.29.14-4.25,3.05-9.15,1.49-13.75,1.89ZM202.3,648.89c.56-15.3-12.63-28.73-28.75-28.75-17.3-.01-28.88,14.63-29.07,28.16-.21,14.32,11.8,28.95,29.02,28.95,16.12,0,29.1-13.2,28.8-28.37Z"/>
        <path class="cls-1" d="M377.05,648.72c0-17.61.05-35.22-.05-52.82-.02-2.64.71-3.45,3.4-3.43,18.13.11,36.27.11,54.4,0,2.63-.01,3.51.7,3.42,3.4-.2,5.77-.05,11.56-.06,17.34,0,3.2-.18,3.37-3.48,3.37-7.27,0-14.54-.02-21.81.02-1.39,0-2.78.28-4.17.35-2.24.11-3.09,1.55-3.13,3.47-.09,4.55-.12,9.11.02,13.66.08,2.87,1.05,3.67,3.98,3.69,6.92.04,13.84.08,20.76-.02,2.27-.03,3.11.72,3.06,3.03-.13,5.25-.15,10.51,0,15.77.08,2.53-.94,3.14-3.26,3.1-6.83-.11-13.67-.05-20.5-.02-3.19.01-4.04.83-4.08,4.05-.06,3.94.08,7.89-.06,11.82-.09,2.51.93,3.46,3.39,3.44,8.41-.06,16.82.08,25.23-.06,2.42-.04,3.18.67,3.13,3.08-.14,6.74-.11,13.49,0,20.23.03,2.04-.57,2.73-2.68,2.73-18.22-.07-36.44-.08-54.66,0-2.47.01-2.88-1.01-2.87-3.14.06-17.69.03-35.39.03-53.09Z"/>
        <path class="cls-1" d="M355.04,592.53c3.94,0,7.88.04,11.83-.02,1.64-.02,2.47.52,2.31,2.29-.52,6.03-.21,12.08-.22,18.12-.05,21.37-.04,42.75-.02,64.12,0,4.01-1.91,7.3-3.55,10.76-1.29,2.73-3.19,4.89-5.41,6.76-1.61,1.36-3.65,2.32-5.21,3.65-2.41,2.07-5.85,1.46-8.03,3.7-.12.12-.3.25-.45.25-5.91.17-11.3,3.61-17.39,2.75-1.37-.2-2.09-.68-2.09-2.1,0-7.27.02-14.54,0-21.81,0-1.59.79-2.08,2.26-2.21,4.16-.35,7.54-4.3,9.67-7.96,2.74-4.72,1.77-9.48,1.81-14.21.15-20.15.06-40.3.07-60.44q0-3.63,3.66-3.64c3.59,0,7.18,0,10.77,0Z"/>
        <path class="cls-1" d="M538.81,759.84c0-6.4.07-12.79-.04-19.19-.04-2.2.86-3.04,2.92-3.01,1.58.02,3.2.23,4.72-.05,2.83-.52,5.01.67,5.97,2.95,1.4,3.35,3.89,5.94,5.58,9.1,1.53,2.86,3.62,5.5,5.44,8.26.37.56.89.99,1.09,1.7.29,1.03.9,2.16,2.08,1.87.99-.24,1.62-1.26,1.62-2.47,0-2.89.03-5.78.04-8.67,0-3.5.05-7.01-.02-10.51-.03-1.59.6-2.23,2.16-2.18,1.93.06,3.86.06,5.78,0,1.83-.06,2.46.81,2.46,2.55-.03,13.14-.03,26.28,0,39.43,0,1.55-.56,2.23-2.15,2.21-2.27-.02-4.55.23-6.82.12-2.48-.12-2.8-2.56-3.73-4.13-1.94-3.27-4.08-6.4-6.35-9.43-.84-1.12-1.15-2.46-1.95-3.63-1.22-1.79-3-3.32-3.46-5.6-.4-2-1.98-1.63-3.34-1.62-1.69,0-1.63,1.25-1.63,2.42,0,6.31-.09,12.62.05,18.92.05,2.36-.8,3.15-3.05,2.95-1.65-.14-3.33-.1-4.99-.03-1.82.08-2.41-.71-2.39-2.51.08-6.48.03-12.97.03-19.45Z"/>
        <path class="cls-1" d="M293.27,782.03c-.96,0-1.93,0-2.89,0-2.33.02-3.49-.42-4.39-3.31-.93-2.99-1.45-6.39-3.4-9.1-.25-.35-.59-.79-.57-1.16.25-3.36-1.79-6.24-2.92-8.98-1.27-3.08-.9-6.91-3.65-9.45-.52-.48-.46-1.64-.56-2.5-.13-1.05-.12-2.1-1.01-2.88-1.83-1.61-.93-3.98-1.56-5.93-.27-.84.73-1.05,1.45-1.06,2.45-.03,4.9-.01,7.36-.01.75,0,1.67.21,1.67.95-.02,2.09,1.8,3.41,2.09,5.23.41,2.5,1.6,4.89,1.89,7.16.47,3.69,2.7,6.77,2.79,10.43.06,2.73,2.47,4.53,2.8,7.16.07.56.86.91,1.49.88.81-.03,1.26-.66,1.36-1.38.49-3.62,1.85-7.15,3.12-10.36,1.32-3.35.71-7.32,3.34-10.19.72-.79.61-2.04.49-3.05-.3-2.55,1.54-4.17,2.48-6.18.33-.7,1.18-.65,1.88-.66,1.84,0,3.68-.04,5.52.01.9.03,2.11-.38,2.48.87.3,1,.33,2.22-.52,2.97-1.36,1.18-1.7,2.7-1.49,4.27.27,2.13-1.74,3.05-2.2,4.86-1.06,4.18-2.41,8.27-4.17,12.27-1,2.28-1.93,4.85-2.38,7.27-.62,3.28-2.89,5.89-3.01,9.33-.05,1.65-1.78,2.48-3.53,2.53-1.31.04-2.63,0-3.94,0h0Z"/>
        <path class="cls-1" d="M731.49,592.39c13.28-.28,25.1,4.02,35.11,12.29,13.71,11.32,21.03,25.76,20.79,44.16-.16,12.38-3.07,23.54-10.46,33.17-11.47,14.95-26.57,23.12-45.91,22.98-11.76-.09-22.35-3.47-31.76-10.15-15.94-11.31-23.87-27.19-24.29-46.57-.24-11.13,3.3-21.66,9.54-30.71,11.22-16.27,27.01-24.83,46.97-25.17ZM703.09,649.41c-1.08,5.56,1.53,11.03,4.91,15.77,4.78,6.71,11.16,11.39,20.04,11.62,3.5.09,6.97-.23,10.46-.17,3.12.05,5.8-1.71,8.01-3.25,4.29-3,8.18-6.55,10.7-11.57,1.45-2.88,2.11-5.97,3.15-8.86,1.88-5.24-.31-10.71-2.22-15.61-1.53-3.94-4.36-7.37-7.88-10.27-4.57-3.76-9.2-6.37-15.32-6.52-3.25-.08-6.45.41-9.66.19-3.29-.22-5.88,1.73-8.29,3.15-4.18,2.46-7.89,5.69-10.1,10.45-1.76,3.79-4.1,7.27-3.82,11.69.05.87,0,1.75,0,3.38Z"/>
        <path class="cls-1" d="M609.23,737.64c.7,0,1.4,0,2.1,0,4.38,0,4.19.08,5.78,4.05,1.72,4.31,3.12,8.71,4.68,13.06,1.48,4.16,2.84,8.4,4.51,12.46,1.47,3.57,2.63,7.25,3.92,10.85,1.32,3.67.74,3.97-3.14,3.98-.79,0-1.57,0-2.36,0-4.7,0-5.5-.37-6.58-5.06-.63-2.76-2.21-3.59-4.57-3.66-3.32-.1-6.65-.1-9.97-.02-2.37.06-4.8,2.68-4.93,5.87-.11,2.6-1.28,3.02-3.45,2.9-2.27-.13-4.55-.03-6.82-.03-1.52,0-2.32-.46-1.14-1.98.8-1.03.76-2.28,1.13-3.42,1.07-3.31,2.37-6.54,3.6-9.8.15-.4.56-.77.55-1.15-.08-3.42,1.88-6.32,3-9.26,1.15-3,1.5-6.31,3.29-9.18,1.36-2.18,1.73-4.99,2.76-7.46.73-1.76,1.49-2.28,3.19-2.15,1.48.11,2.97.02,4.46.02ZM609.62,749.25c-2.49,3.6-3.35,7.12-4.19,10.74-1.13,4.83-1.37,4.78,3.84,4.79.53,0,1.05.01,1.58,0,1.78-.05,2.45-.84,2.15-2.7-.67-4.25-2.76-8.09-3.38-12.81Z"/>
        <path class="cls-1" d="M354.7,782.04c-.96,0-1.93-.04-2.89,0-2.35.13-3.49-1.06-3.97-3.28-.99-4.64-1.68-5.13-6.54-5.14-2.54,0-5.08-.02-7.61,0-3.45.03-5.36,1.64-5.37,5.01-.01,2.69-1.14,3.55-3.65,3.42-2.27-.12-4.55.02-6.82-.04-1.88-.05-2.4-1.02-1.5-2.71,1.86-3.51,2.51-7.51,4.15-11.05,1.45-3.14,1.74-6.65,3.63-9.62,1.33-2.09,1.55-4.74,2.33-7.07,1.05-3.16,2.73-6.15,3.21-9.54.47-3.35,2.35-4.74,5.66-4.75,2.36,0,4.73-.01,7.09,0,2.43.02,3.56,1.17,4.23,3.65.95,3.51,2.14,6.99,3.59,10.38,1.14,2.67,1.93,5.52,2.99,8.27,1.38,3.59,2.57,7.26,3.89,10.89,1.03,2.81,2.02,5.67,2.98,8.52.71,2.12.03,3.39-2.51,3.06-.95-.12-1.92-.02-2.89-.02ZM339.28,750.34c-1.49.98-2.65,1.76-2.93,3.07-.65,2.98-1.35,5.91-2.48,8.76-.62,1.56.06,2.38,1.84,2.55,5.39.51,6.79.17,6.82-1.94,0-.09-.01-.17-.03-.26-.92-4.04-2.59-7.85-3.23-12.18Z"/>
        <path class="cls-1" d="M703.76,736.92c1.23,0,2.45.03,3.68,0,2.66-.08,4.06,1.14,4.79,3.77,1.01,3.67,2.23,7.28,3.85,10.76.98,2.11,1.54,4.44,2.2,6.63.96,3.16,2.5,6.09,3.24,9.34.73,3.17,2.28,6.15,3.47,9.22.09.24.27.45.36.69,1.55,3.91,1.01,4.7-3.18,4.7-1.84,0-3.68-.09-5.51.01-2.15.12-3.18-.77-3.49-2.92-.6-4.14-1.84-5.13-6.03-5.14-2.71,0-5.43-.05-8.14.02-3.21.08-4.77,1.37-4.95,4.54-.16,2.72-1.34,3.68-3.95,3.52-2.18-.14-4.38-.13-6.56,0-2.25.14-2.86-1.09-1.91-2.66,1.73-2.89,1.71-6.35,3.47-9.21,1.26-2.06,1.48-4.6,2.27-6.88,1.08-3.09,2.49-6.09,3.29-9.32.76-3.08,2.23-5.98,3.36-8.97.37-.97.73-1.96.95-2.98.9-4.13,2.06-5.12,6.17-5.12.88,0,1.75,0,2.63,0ZM703.39,765.34c.52,0,1.05,0,1.57,0,3.62-.03,4.3-.65,3.4-4.2-.82-3.25-2.23-6.34-2.63-9.73-.11-.97-.78-1.5-1.82-1.53-.95-.03-1.77.25-2.21,1.1-.35.69-.68,1.46-.72,2.22-.12,2.12-.78,4-1.67,5.94-2.05,4.48-.81,6.2,4.07,6.2Z"/>
        <path class="cls-1" d="M267.12,759.36c.57,4.65-.22,9.12-2.51,13.14-1.79,3.15-4.15,5.79-7.6,7.62-6.27,3.31-12.83,2.79-19.17,1.6-4.6-.87-8.55-3.81-10.99-8.36-2.66-4.98-4.12-10.27-3.65-15.78.51-6.09,2.06-12.1,6.81-16.46,1.65-1.51,3.68-2.74,5.99-3.53,4.12-1.41,8.28-2.5,12.56-1.71,4.48.83,8.94,1.93,12.36,5.42,4.21,4.31,6.49,9.33,6.21,15.42-.04.87,0,1.75,0,2.63ZM235.11,759.15c.37,3.28-.2,6.44,1.9,9.72,3.89,6.08,10.74,6.77,15.59,1.83,2.02-2.05,1.46-4.5,2.47-6.58,2.43-4.97-.39-9.52-.89-14.25-.05-.44-.61-.82-.92-1.23-2.63-3.53-6.33-3.39-10.16-3.12-2.91.21-4.33,2.06-6.04,4.15-2.47,3-1.57,6.27-1.94,9.48Z"/>
        <path class="cls-1" d="M458.86,755.85c-1.71-.32-4.22.8-4.98-1.62-.91-2.89-1.35-6.05.46-8.84,1.03-1.58,5.72-1.94,8.42-.77,2.02.87,4.3,1.34,4.86,4.17.76,3.88-2.77,6.3-5.56,6.9-1.01.22-2.08.12-3.2.17ZM455.93,749.94c0,3.26.85,3.98,4.13,3.49.69-.1,1.37-.36,2.05-.36,2.16,0,3.18-.96,3.17-3.17-.01-2.13-.88-3.27-3.09-3.27-.96,0-1.91-.13-2.87-.14-3.16-.01-3.41.25-3.4,3.44Z"/>
        <path class="cls-1" d="M508.3,765.63c-5.19,0-6.44-2.11-3.86-6.58.64-1.1.87-2.24.99-3.48.2-2.1.62-4.08,2.32-5.65,1.51-1.39,2.91-1.18,2.92.66.02,3.8,2.44,6.83,2.75,10.52.33,3.92.07,4.5-3.82,4.53-.44,0-.87,0-1.31,0ZM508.29,764.17c4.32,0,4.79-.73,3.1-3.98-.84-1.6-1.17-3.27-1.3-5.03-.05-.62-.1-1.33-.75-1.56-.66-.23-1.09.37-1.54.78-.75.69-.98,1.6-1.16,2.57-.33,1.8-.32,3.67-1.15,5.36-.51,1.05.07,1.48.94,1.65.85.16,1.73.19,1.87.2Z"/>
        <path class="cls-1" d="M202.3,648.89c.3,15.17-12.68,28.37-28.8,28.37-17.23,0-29.23-14.63-29.02-28.95.19-13.52,11.78-28.17,29.07-28.16,16.13.01,29.31,13.45,28.75,28.75ZM199.37,648.76c1.03-16.54-12.71-26.48-25.76-26.64-13.05-.16-26.3,10.86-26.33,26.29-.03,16.05,12.99,26.97,26.25,26.87,12.99-.1,26.78-9.85,25.84-26.52Z"/>
        <path class="cls-1" d="M703.09,649.41c0-1.63.05-2.51,0-3.38-.28-4.42,2.06-7.9,3.82-11.69,2.21-4.75,5.92-7.99,10.1-10.45,2.41-1.42,5-3.37,8.29-3.15,3.21.22,6.42-.27,9.66-.19,6.12.14,10.75,2.76,15.32,6.52,3.52,2.89,6.34,6.33,7.88,10.27,1.91,4.9,4.1,10.38,2.22,15.61-1.04,2.89-1.7,5.98-3.15,8.86-2.52,5.02-6.41,8.57-10.7,11.57-2.21,1.54-4.89,3.3-8.01,3.25-3.49-.06-6.95.27-10.46.17-8.89-.23-15.26-4.91-20.04-11.62-3.38-4.74-6-10.22-4.91-15.77ZM731.5,675.63c14.32.54,26.97-11.88,27.03-26.68.06-15.31-12.43-27.07-26.56-27.24-15.69-.19-27.48,12.66-27.46,27.02.02,14.44,11.75,27.1,26.99,26.89Z"/>
        <path class="cls-1" d="M703.39,765.34c-4.88,0-6.11-1.72-4.07-6.2.89-1.94,1.55-3.82,1.67-5.94.04-.75.37-1.53.72-2.22.43-.85,1.25-1.13,2.21-1.1,1.04.03,1.7.56,1.82,1.53.39,3.38,1.81,6.48,2.63,9.73.89,3.55.22,4.17-3.4,4.2-.52,0-1.05,0-1.57,0ZM703.66,764.24s0-.09,0-.13c.79,0,1.58.05,2.36-.01,1.36-.11,1.75-1.04,1.02-1.98-1.38-1.79-1.52-3.84-1.75-5.92-.12-1.06-.26-2.19-1.72-2.17-1.46.02-1.58,1.19-1.71,2.22-.27,2.16-.3,4.35-1.77,6.18-.56.7-.19,1.36.7,1.51.94.16,1.91.21,2.86.3Z"/>
        <path class="cls-1" d="M235.11,759.15c.36-3.2-.53-6.48,1.94-9.48,1.72-2.09,3.13-3.94,6.04-4.15,3.82-.28,7.53-.41,10.16,3.12.31.42.87.79.92,1.23.51,4.73,3.32,9.27.89,14.25-1.01,2.07-.46,4.53-2.47,6.58-4.85,4.94-11.69,4.25-15.59-1.83-2.1-3.27-1.52-6.44-1.9-9.72ZM253.43,760.59q.03-8.44-4.17-12.27c-3.27-2.99-9.78-1.09-10.68,3.25-.67,3.23-1.46,6.56-.85,9.86.45,2.42-.02,5.04,1.6,7.25,2.29,3.13,5.52,2.29,8.57,2.25,1.6-.02,2.43-1.05,3.44-2.33,2.23-2.81,2.2-5.88,2.1-8.01Z"/>
      </g>
    </g>
  </g>
</svg>