<?xml version="1.0" encoding="UTF-8"?>
<svg xmlns="http://www.w3.org/2000/svg" version="1.1" viewBox="0 0 902 902">
  <defs>
    <style>
      .cls-1 {
        fill: #fefefe;
      }
    </style>
  </defs>
  <!-- Generator: Adobe Illustrator 28.6.0, SVG Export Plug-In . SVG Version: 1.2.0 Build 709)  -->
  <g>
    <g id="Camada_1">
      <g>
        <path class="cls-1" d="M216.03,571.57c-.61.4-.79.95-.54,1.64-2.82,5.05-5.49,10.18-8.51,15.1-1.32,2.14-.95,7-5.93,4.6-23.08-48.5-46.1-97.02-69.26-145.49-22.28-46.62-44.69-93.18-67.11-139.74-1.3-2.69-1.72-6.02-4.75-7.66,3.65-2.88,7.96-1.74,11.98-1.8,16.85-.28,33.7-.34,50.55-.48,1.32.83,2.64,1.66,3.96,2.49,4.33,11.96,9.87,23.34,16.38,34.25l-.11.58.5.32c7.26,17.4,15.23,34.45,24.5,50.87l-.15.58.49.35c1.74,6.07,4.47,11.66,8.12,16.82l-.06-.09c8.7,18.83,17.4,37.66,27.09,58.63,20.71-41.83,40.29-81.39,59.88-120.95.6-.34.78-.82.53-1.47,8.04-15.43,16.1-30.85,24.07-46.32,1.2-2.33,3.06-5.21-1.69-6.04-3.38-3.68-7.8-2.02-11.73-2.02-68-.1-135.99-.19-203.99.1-8.8.04-14.84-2.49-17.43-11.01-2.08-6.83-5.8-12.89-8.49-19.4-7.67-18.52-7.49-18.6,12.55-19.81,2.28-.84,4.56-.84,6.85,0,3.94,0,7.88,0,11.81,0,3.77-.2,7.54-.58,11.31-.58,80.37-.03,160.75-.03,241.12,0,3.77,0,7.54.38,11.31.58,5.33,0,10.65,0,15.97.01,5.83-.94,11.66-.96,17.48.01,6.16,1.2,3.61,4.63,2.75,8.49-2.53,11.31-14.77,18.82-12.28,31.96.13.6-.09,1.02-.65,1.27-9.83,3.13-10.57,10.82-9.73,19.32.19.63,0,1.12-.56,1.46-4.31-.03-5.64,3.31-7.14,6.39-7.06,14.53-13.47,29.41-21.45,43.41-2.91,5.11-4.94,9.45-4.01,15.12-.58,1.12-1.15,2.23-1.73,3.35-2.21.45-3.62,1.85-4.61,3.79-9.69,18.94-19.51,37.81-28.97,56.87-2.2,4.44-5.99,8.71-4.16,14.42-1.67,3.74-3.21,7.54-5.03,11.21-18.99,38.27-38.02,76.51-57.04,114.76-.58.34-.77.83-.57,1.47-.5.87-1,1.75-1.5,2.62Z"/>
        <path class="cls-1" d="M566.45,532.57c.57.1,1.08-.02,1.53-.37,18.4-1.53,18.51-1.7,18.51-19.2,0-56.62-.33-113.24.33-169.85.14-12.23-1.64-20.64-15.36-22.19-1.56-.18-3.46-.85-3.14-4.57,12.85,0,25.82-.07,38.78.02,20.26.14,28.96,8.72,29,29.03.12,55.24.09,110.47.11,165.71q0,16.18,15.56,21.37c1.4.47,2.48,1.1,1.86,3.05-.8.31-1.72.98-2.64.98-26.23.09-52.46.14-78.68.09-2.66,0-5.82.03-5.87-4.06Z"/>
        <path class="cls-1" d="M342.83,379.25c.51.32.96.24,1.33-.23,4.17.8,8.32.71,12.44-.28,6.2.85,12.4.82,18.6,0,31.12,3.23,35.08,7.64,35.1,39.46.02,33.45.12,66.9-.18,100.35-.07,7.42,2.09,11.56,9.87,12.71,3.21.47,8.19-.58,8.91,4.99-.6.41-1.19.82-1.79,1.23-24.82-.18-49.64-.21-74.45-.71-3.59-.07-9.58,3.13-10.39-4.4,0,0-.07.06-.07.06q18.36-2.57,18.3-20.74c-.03-37.52-.25-75.04.16-112.56.09-7.97-2.08-12.09-10.17-13.29-3.34-.5-9.42.55-7.65-6.58Z"/>
        <path class="cls-1" d="M869.97,627.75c.29,1.3.58,2.61.86,3.91.73,9.31-1,18.16-5.05,26.56,0,0,.08-.09.08-.09-1.89,1.4-3.74,2.85-5.67,4.18-10.49,7.25-27.76,6.49-36.52-1.59-10.04-9.26-12.24-24.51-5.3-36.75,6.1-10.77,19.91-15.43,33.32-11.84,8.76,2.34,13.26,9.16,18.26,15.62ZM842.72,656.46c8.72-.18,16.5-7.97,16.57-16.58.08-10.42-7.45-18.26-17.24-17.94-9.52.31-15.92,7.72-15.67,18.15.22,9.22,7.54,16.55,16.35,16.37Z"/>
        <path class="cls-1" d="M710.82,664.84c-.09-1.38-.18-2.77-.26-4.15.24-9.23.64-18.46.7-27.7.15-22.99,4.48-26.25,27.61-20.49.99.25,1.99.47,2.99.71l-.04-.07c.2,1.28.96,1.84,2.23,1.73.77.78,1.54,1.55,2.31,2.33-.13,1.3.47,2.04,1.74,2.29l-.1-.08c2.63,8.23.95,15.68-4.06,22.53,0,0,.03-.03.03-.03-9.03,5.75-.31,8.8,1.95,12.83,0,0-.06-.03-.05-.03-.22,4.12,4.36,6.86,3.14,11.69h-10.87c-.72-1.24-1.43-2.48-2.15-3.71-.61-1-1.23-2-1.84-2.99l.1-.65-.51-.4c-1.61-4.9-2.41-12.41-8.59-11.29-4.88.88-1.76,8.16-2.47,12.55-.26,1.62.07,3.34.13,5.01-2.12,2.39-5.21,1.39-7.78,2.22-.61-.44-1.26-.51-1.96-.22-.74-.69-1.48-1.39-2.23-2.08ZM728.17,622.79c-3.22-.34-5.62,1.39-5.43,6.4.16,4.29,2.21,6.43,6.3,6.12,4.18-.31,8.49-1.24,8.49-6.73,0-5.25-4.11-5.45-9.36-5.79Z"/>
        <path class="cls-1" d="M771.27,664.89c-.77.73-1.55,1.46-2.32,2.19-2.96-2.1-11.64,2.82-9.21-4.78,5.6-17.47,13.17-34.3,19.95-51.42,4.4,1.7,4.53,4.45,5.37,6.5,6.47,15.92,12.76,31.91,19.25,48.25-5.73,1.36-9.18,1.09-13.89-2.31-5.35-3.86-13.45-6.86-19.15,1.56ZM781.45,639.37c-1.57,3.51-6.23,6.26-3.08,10.44.6.79,3.78.79,4.72-.04,4.29-3.77-.77-6.78-1.64-10.4Z"/>
        <path class="cls-1" d="M643.17,611.31c1.16-.17,2.32-.34,3.49-.51,7.61.17,15.22.35,22.83.52,0,0,.76.09.76.09.2,3.49.4,6.98.6,10.47-3.35.3-6.7.84-10.05.86-4.39.02-6.86,1.39-7.25,6.3-.47,5.84,3.6,4.42,6.6,4.73,2.35.24,4.73.12,7.1.15h0c.1,3.42.19,6.84.29,10.26l-.12.11c-1.37.03-2.77-.1-4.12.12-4.03.66-9.75-1.28-9.84,5.87-.08,7.04,5.16,5.86,9.52,5.97,1.03.02,2.06-.02,3.09-.03,3.14-.02,5.22.92,5.21,4.67,0,3.58-.73,6.03-5.02,5.94-5.5-.11-11.01-.23-16.49.06-5.29.28-7.37-1.73-7.24-7.14.4-16.14.44-32.28.62-48.43Z"/>
        <path class="cls-1" d="M451.89,550.74c16.55-3.5,25.64.02,30.13,11.67,4.24,11,.72,24.15-7.94,29.64-8.01,5.08-20.39,3.68-26.74-3.02-7.84-8.27-8.58-23.25-1.51-32.43,1.45-1.89,3.27-3.5,4.91-5.24.57.14.95-.06,1.14-.62ZM474.75,572.48c-.02-10.81-4.42-17.18-12.02-17.39-7.73-.21-12.69,6.29-12.73,16.69-.04,10.42,4.74,17.31,12.15,17.52,7.84.21,12.61-6.15,12.6-16.82Z"/>
        <path class="cls-1" d="M274.21,592.1c-13.46-16.84-10.65-31.63,6.43-43.08,7.65-5.13,11.86,3.18,17.93,1.71.63.22,1.27.39,1.93.52,7.65,10.12,11.48,21.02,5.26,33.15-6.03,11.75-16.77,11.37-27.73,9.72,0,0,.12.09.12.09-.77-.46-1.54-.92-2.32-1.39-.38-.6-.92-.84-1.62-.72ZM299.8,572.27c-.17-10.56-4.85-17.05-12.37-17.18-7.38-.12-13.4,7.22-13.52,16.47-.12,9.01,6.67,18.06,13.44,17.94,7.5-.14,12.61-7.21,12.45-17.23Z"/>
        <path class="cls-1" d="M414.73,557.65c-1.03-.04-2.19.22-3.06-.18-6.96-3.14-14.12-4.99-19.63,1.93-6.01,7.55-5.13,15.96-.76,24.16,2.39,4.49,6.41,6.29,11.15,5.52,5-.8,8.14-4.22,7.69-9.36-.41-4.64,1.39-7.93,5.5-7.98,5.85-.08,2.35,5.1,3.07,7.85,3.4,12.95-7.88,12.05-14.69,14.58-3.6,1.34-8.1.28-12.19.3l-.54-.52s-.75.07-.75.07c-2.38-1.99-4.76-3.99-7.13-5.98-.52-.82-1.05-1.64-1.57-2.47.08-.69-.15-1.25-.69-1.68-.46-.93-.92-1.86-1.37-2.79-2.19-9.11,1.42-17.49,3.26-26.1,5.31-8.01,14-4.83,21.25-6.41.68.04,1.37.08,2.05.12.53.45,1.12.53,1.75.23,1.48.54,2.95,1.08,4.43,1.62,3.08,1.63,4.76,3.69,2.23,7.08Z"/>
        <path class="cls-1" d="M56.86,235.62c-20.03,1.21-20.22,1.29-12.55,19.81,2.7,6.51,6.41,12.57,8.49,19.4,2.6,8.52,8.63,11.05,17.43,11.01,68-.29,135.99-.2,203.99-.1,3.93,0,8.35-1.65,11.73,2.02-4.47.16-8.94.45-13.41.47-44.52.19-89.04.33-133.57.49-2.06-.01-4.12-.02-6.18-.03-25.63-.04-51.26-.07-76.88-.11-.71-.96-1.42-1.92-2.14-2.88.2-1.27-.34-2.07-1.56-2.44,0,0,.09.06.09.06-.62-3.28-1.69-6.34-4.2-8.71.15-.64-.07-1.12-.65-1.43-.47-.95-.94-1.89-1.41-2.84.24-.56.09-.99-.45-1.27.15-1.23-.2-2.16-1.5-2.54,0,0,.1.04.1.04-3.3-9.48-7.54-18.52-12.92-27.01-.85-3.47.18-5.05,4.07-4.8,7.16.46,14.34.59,21.51.85Z"/>
        <path class="cls-1" d="M659.09,594.35c-5.28.63-9.55-.13-10.36-6.67-.66-5.3-4.39-5.87-9-5.95-4.9-.08-7.71,1.33-8.76,6.35-.69,3.32-2.06,7.81-6.48,5.82-3.56-1.61-.47-5.25.37-7.82,3.84-11.72,7.86-23.38,11.81-35.06,2.31-.62,4.62-1.23,6.93-1.85,4.92,13.07,9.85,26.15,14.77,39.22.24,1.99.47,3.98.71,5.96ZM638.72,562.19c.26,5.84-4.72,9.17-.86,12.96.93.92,5.4.13,5.45-.24.52-3.95-.73-7.55-4.59-12.72Z"/>
        <path class="cls-1" d="M695.79,612.32c.17.94.34,1.89.51,2.83-.75,3.46-.82,6.91.18,10.35-.01,3.45-.03,6.9-.04,10.35-1.26,9.66-.83,19.34-.27,29.01l-.44.47s.22.6.22.6c-8.87,2.61-12.26-.25-11.83-9.87.61-13.62-.14-27.3-.31-40.96.27-.92.53-1.84.79-2.76,3.72-.84,7.45-1.15,11.18-.02Z"/>
        <path class="cls-1" d="M506.52,566.69c-.71-6.02-4.79-11.16-4.52-17.43,0,0-.03.02-.03.02,1.96-.12,3.92-.24,5.88-.37.34.48.76.56,1.25.22,7.86,8.12,4.14,21.07,12.06,29.26,3.66-9.79,7.26-19.43,10.87-29.07,0,0,.73-.14.73-.14,5.57.35,4.54,3.48,3.12,7.04-4.39,10.97-8.68,21.98-12.97,32.99-.75,1.93.85,4.92-3,5.39-3.95.49-3.61-3.39-5.59-4.85-.89-2.61-1.79-5.22-2.68-7.83-.44-1.08-.88-2.16-1.32-3.25l.15-.51s-.4-.34-.4-.34c-.45-1.48-.9-2.97-1.35-4.45-.46-1.29-.91-2.59-1.37-3.88-.31-.87-.61-1.73-.92-2.6l.09-.2Z"/>
        <path class="cls-1" d="M869.62,586.8c-5.99,8.87-14.52,9.56-23.81,7.14-2.34-.61-6.01-.92-4.41-5.2,1.43-3.84,3.63-1.65,5.73-.76.94.4,2.01.46,3.01.72,4.32,1.12,8.38,1.11,10.34-3.76,1.92-4.75-1.62-6.97-4.99-8.8-7.54-4.09-17.34-7.23-12.87-18.67,4.33-11.1,14.53-5.78,22.56-6.1.34-.01.73.97,1.36,1.88-1.58,3.04-4.57,1.84-6.96,1.89-3.47.07-7.29-.52-8.54,3.85-1.43,5,2.76,6.35,5.98,8.14,4.5,2.5,9.3,4.57,12.4,9,1.15,3.54.88,7.1.2,10.68Z"/>
        <path class="cls-1" d="M360.75,594.74c-10.64,1.6-14.34-2.92-12.9-13.44.87-6.36.71-13-.02-19.4-.84-7.45,2.01-9.61,9.01-8.94,4.7.45,9.51-.15,14.27-.28,1.41.78,2.82,1.57,4.24,2.35-1.48,7.02-7.08,3.24-10.89,4.12-3.18.73-8-2-8.2,4.58-.18,5.88,2.48,8.08,8.04,7.82,2.22-.1,4.73-.5,6.41,2.2-2.09,3.69-5.49,2.82-8.23,2.6-5.36-.44-6.15,2.25-6.28,6.79-.15,5.16,2.92,4.59,6.41,5.47,4.11,1.04,12.03-5.02,11.87,5.41-1.82.21-3.64.42-5.47.63-.68,0-1.36.02-2.04.02-2.07.03-4.14.05-6.21.08Z"/>
        <path class="cls-1" d="M246.75,550.49c3.4.13,6.83.07,10.2.47,1.83.22,4.25,1.13,3.6,3.51-.51,1.87-2.49,3.73-4.78,2.6-7.13-3.53-13.77-3.34-17.39,4.27-4.03,8.47-3.63,17.22,2.98,24.81,5.24,4.77,10.47,4.31,15.7-.02,7.34,1.57,5.19,4.54,1.16,7.79-.54-.18-.91,0-1.1.54-5.53.06-11.06.11-16.59.17-.94-.33-1.89-.67-2.83-1-14.74-13.14-14.44-30.11.8-44.68,2.65,1.03,5.19,2.64,8.24,1.55Z"/>
        <path class="cls-1" d="M689.3,553.77c-.21,8.88-.08,17.79-.73,26.64-.47,6.4,1.75,8.52,8.09,8.05,3.23-.24,9.25-2.19,9.14,3.09-.1,4.92-6.36,1.33-9.4,3.11-1.39.04-2.79.09-4.18.13-7.45.21-14.68.16-12.65-10.77,0-2.08-.02-4.16-.03-6.25.34-9.56.68-19.12,1.03-28.68,2.77.76,6.07-.82,8.39,1.91-.09.3-.31.65-.23.9.18.56.5,1.07.77,1.61l-.2.26Z"/>
        <path class="cls-1" d="M601.44,550.87c-.07,9.32.43,18.68-.37,27.93-.69,7.97,2.15,10.45,9.77,9.71,2.8-.27,8.14-2.16,7.92,3.28-.18,4.4-4.98,2.38-7.68,2.49-18.36.75-18.44.66-18.35-17.37.05-9.3.4-18.59.62-27.89l.8.09.73-.34c1.38,0,2.77.01,4.15.02.8.69,1.61,1.38,2.41,2.07Z"/>
        <path class="cls-1" d="M323.45,594.79c-6.36.52-8.9-1.88-8.53-8.73.66-12.32.35-24.69.44-37.03,0,0-.07.04-.07.04,2.53.15,5.05.31,7.58.46,0,0-.13-.15-.13-.15.34,8.78.67,17.55,1.01,26.33,0,2.77,0,5.54,0,8.31-.57,7.01,4.86,3.28,7.65,4.26,2.99,1.05,8.64-2.48,8.59,3.3-.04,4.74-5.61,1.52-8.28,3.09-2.75.04-5.5.07-8.25.11Z"/>
        <path class="cls-1" d="M550.83,549.07c.24,13.44.44,26.89.73,40.33.07,3.32-.93,5.21-4.69,5.06-3.27-.13-3.97-1.98-3.97-4.71.02-11.74.28-23.49-.13-35.22-.19-5.35,3.36-4.95,6.52-5.69.47.38.98.46,1.54.24Z"/>
        <path class="cls-1" d="M427.27,594.31c-.28-13.1-.57-26.2-.85-39.3.05-7.75,4.22-6.53,8.94-4.12-.18,14.43-.36,28.86-.54,43.29-.62-.12-1.15.05-1.59.52-.69-.24-1.36-.2-2.02.1-1.32-.16-2.63-.33-3.95-.49Z"/>
        <path class="cls-1" d="M383.78,235.91c-6.87,13.4-13.74,26.8-20.6,40.19-2.49-13.14,9.75-20.66,12.29-31.96.87-3.86,3.41-7.29-2.75-8.49,3.7-.35,7.42-1.93,11.06.26Z"/>
        <path class="cls-1" d="M355.23,235.64c-5.32,0-10.65,0-15.97-.01,5.32-1.23,10.65-1.22,15.97.01Z"/>
        <path class="cls-1" d="M75.51,235.62c-3.94,0-7.87,0-11.81,0,3.94-1.18,7.88-1.18,11.81,0Z"/>
        <path class="cls-1" d="M317.91,366.43c-4.07,8.69-8.13,17.37-12.2,26.06-8.51,16.34-17.03,32.69-25.54,49.03-1.82-5.72,1.96-9.99,4.16-14.43,9.45-19.06,19.28-37.93,28.97-56.87.99-1.94,2.41-3.34,4.61-3.79Z"/>
        <path class="cls-1" d="M352.24,298.15c-10.24,21.95-20.88,43.71-32.6,64.92-.93-5.67,1.1-10,4.01-15.12,7.98-14,14.39-28.89,21.45-43.41,1.5-3.08,2.83-6.42,7.14-6.39Z"/>
        <path class="cls-1" d="M362.53,277.37c-2.31,6.91-5.51,13.37-9.73,19.33-.85-8.5-.1-16.2,9.73-19.33Z"/>
        <path class="cls-1" d="M771.23,333.61c5.49-.93,5.92,3.81,7.43,6.94,24.09,50.01,47.99,100.12,72.22,150.07,3.62,7.47,1.79,8.58-5.93,9.5-18.62,2.2-30.05-2.95-37.13-22.26-8.71-23.79-21.52-46.07-33.8-71.59-7.74,15.05-14.49,27.92-21,40.9-8.34,16.63-16.21,33.5-24.86,49.97-4.23,8.04-2,10.02,6.29,9.97,37.63-.26,75.25-.25,112.88-.2,4.28,0,9.72-1.81,12.31,3.06,4.03,7.56,8.32,15.32,10.29,23.52,1.17,4.85-5.11,2.96-7.99,2.97-41.77.17-83.54.13-125.31.14-18.3,0-36.6-.23-54.89.08-8.09.14-11.25-.55-6.55-9.8,27.34-53.74,54.15-107.75,81.06-161.71,5.21-10.45,10.03-21.09,15.03-31.63,0,0-.05.08-.05.08Z"/>
        <path class="cls-1" d="M770.94,594.77c-10.62,2.59-12.8-2.45-12.16-12.04.71-10.57-.1-21.24-.24-31.86.51-.3.64-.72.39-1.26,9.95.11,20.4-2.37,28.88,5.48,1.31,4.82,1.19,9.28-3.09,12.76-1.73,1.41-2.73,2.59.12,4.26,6.37,3.72,6.26,9.74,5.01,16-1.47,1.4-2.95,2.81-4.42,4.21-4.83.82-9.66,1.63-14.48,2.45ZM767.59,581.34c-.7,4.58.4,7.27,5.75,7.05,5.21-.21,8.57-1.77,8.23-7.65-.35-5.92-4.55-6.77-9.23-7.05-6.4-.38-4.27,4.53-4.74,7.65ZM779.61,560.95c-.48-4.33-3.66-5.14-7.25-5.33-5.21-.28-4.78,3.34-4.88,6.84-.13,4.33,2.3,5.02,5.84,4.79,3.97-.26,6.38-1.91,6.3-6.3Z"/>
        <path class="cls-1" d="M592.84,611.01c5.07.1,10.17.55,15.22.23,8.04-.52,14.51,2.04,19.5,8.36,0,0,.04-.02.04-.02,2.56,7.52-2.81,15.08-.73,22.03,1.77,5.89,2.42,11.18,1.02,16.94,0,0,.03-.05.03-.05-8.68,10.99-20.83,8.28-32.27,8.03-5.17-.11-4.42-4.41-4.41-7.67.05-15.78.26-31.57.42-47.35.55.2.95.03,1.19-.5ZM611.91,644.7c-6.03-.21-9.44-.24-9.66,4.79-.21,4.84,1.89,7.08,6.68,6.62,3.76-.36,8.07-.58,8.3-5.64.24-5.19-3.9-5.62-5.32-5.77ZM608.57,633.7c4.5.03,8.43-.68,8.41-5.68-.02-4.91-3.93-5.77-7.96-5.84-3.87-.06-6.55.97-6.38,5.74.15,4.42,2.15,6.18,5.93,5.77Z"/>
        <path class="cls-1" d="M514.62,611.55c6.16-.06,12.32-.08,18.49-.18,7.94-.14,13.51,3.87,17.85,10.08.26,1.37.53,2.74.79,4.11,0,2.03,0,4.06,0,6.09-.35,1.31-.69,2.62-1.04,3.94-7.46,6.55-11.43,13.4-1.78,21.38,0,0-.11.14-.11.14.94,2.88,1.87,5.76,2.82,8.67-8.7,2.92-13.18-.77-15.31-8.68-.52-1.95-1.06-4.15-2.32-5.59-1.9-2.17-3.48-5.83-7.1-4.86-3.48.94-1.79,4.61-2.54,7.03-1.38,4.46,3.9,12.74-5.25,12.7-9.1-.04-5.03-8.3-5.02-12.74.02-14.02-1.41-28.09.52-42.09ZM531.03,621.53c-5.8-.29-8.41,2.09-8.49,7.87-.08,6.47,4.3,5.93,8.38,6.02,4.42.1,9.48-1.44,9.31-5.85-.16-4.23-2.92-9.41-9.21-8.04Z"/>
        <path class="cls-1" d="M575.67,613.29c-.02,14.97,0,29.94-.12,44.91-.02,2.88,1.17,6.79-2.6,8.01-3.54,1.14-7.57,1.38-9.3-3.44-.02-2.06-.04-4.11-.06-6.17.15-14.51.3-29.03.45-43.54,1.3-.71,2.61-1.42,3.91-2.13,1.99.2,3.99.39,5.98.59.58.59,1.15,1.18,1.73,1.77Z"/>
        <path class="cls-1" d="M569.9,561.23c-.19,4.44-.07,8.92-.62,13.32-1.2,9.59.35,16.25,12.46,13.8,1.81-.37,4.33-.45,4.64,2.54.38,3.79-2.43,3.35-4.77,3.49-.34.02-.69-.01-1.03.01q-19.85,1.37-19.95-18.61c-.03-6.18.39-12.4-.19-18.53-.7-7.48,2.18-9.35,8.84-7.02.21,3.67.42,7.34.63,11Z"/>
        <path class="cls-1" d="M798.09,557.18c7.43-9.71,18.28-7.6,27.31-5.61,8.57,1.9,11.4,11.52,11.76,19.59.47,10.43-4.77,18.65-14.43,23.52-1.29.15-2.58.31-3.87.46-2.15,0-4.3-.02-6.45-.02-4.76-.98-8.74-3.49-12.57-6.32,0,0-.38-.45-.38-.45-6.59-10.12-6.04-20.55-1.37-31.17ZM828.71,572.88c.16-9.39-5.97-17.57-13.35-17.8-6.92-.22-12.75,6.5-13.1,15.11-.43,10.33,6.26,19.36,14.21,19.18,6.74-.15,12.09-7.36,12.25-16.48Z"/>
        <path class="cls-1" d="M791.19,606.42c-7.81-.39-17.04,4.71-22.21-5.79.65-.78,1.29-1.56,1.94-2.33,6.96-3.25,13.9,1.67,20.85.04.17.52.53.73,1.06.61.1,1.77.2,3.54.3,5.31,0,0,.23-.1.23-.09-.71.79-1.41,1.58-2.12,2.37l-.05-.12Z"/>
        <path class="cls-1" d="M540.93,532.36c.23,3.96-2.45,4.43-5.4,4.43-25.54-.06-51.07-.13-76.61-.27-.87,0-1.73-.75-3.01-1.35.63-1.01.93-2.2,1.58-2.43,15.45-5.42,15.4-5.4,15.39-21.49-.02-57.64.01-115.29,0-172.93,0-7.01,1.87-15.18-9.39-15.71-1.11-.05-2.98-2.39-2.99-3.69-.04-2.89,2.72-2.53,4.65-2.52,12.42.03,24.88-.34,37.26.42,10.34.64,18.33,8.9,19.94,19.41.73,4.75.86,9.62.87,14.44.06,54.19.02,108.38.05,162.58q0,16.99,17.63,19.09s.05.03.05.03Z"/>
        <path class="cls-1" d="M710.52,572.52c-.04-16.44,4.94-21.63,20.82-21.71,12.93-.06,20.91,7.65,21.15,20.42.26,14.35-8.48,23.92-21.71,23.75-13.1-.17-20.22-8.06-20.25-22.46ZM719.32,571.52c-.09,12.65,3.08,17.5,11.64,17.82,7.61.28,12.75-6.34,12.79-16.47.04-9.6-5.88-17.7-13.02-17.82-8.2-.14-11.33,4.38-11.41,16.48Z"/>
        <path class="cls-1" d="M360.75,338.4c-.16-12.79,8.31-21.72,20.8-21.91,12.83-.19,22.64,9.23,22.56,21.67-.08,11.87-9.64,21.35-21.84,21.64-12.26.29-21.35-8.76-21.52-21.41Z"/>
      </g>
    </g>
  </g>
</svg>